<?xml version="1.0" encoding="UTF-8"?>
<svg version="1.1" xmlns="http://www.w3.org/2000/svg" width="512" height="512">
<path d="M0 0 C7.03864513 3.88734243 10.9485807 10.83076234 14.64916992 17.68041992 C15.69836917 19.56801888 16.74920196 21.4547106 17.80151367 23.34057617 C18.33502441 24.30237793 18.86853516 25.26417969 19.41821289 26.25512695 C21.94177843 30.75365683 24.57408023 35.1855886 27.21166992 39.61791992 C28.28885315 41.43411252 29.36566325 43.25052646 30.44213867 45.06713867 C31.00852051 46.02281738 31.57490234 46.97849609 32.15844727 47.96313477 C35.41516248 53.46997512 38.6561046 58.98605631 41.89370728 64.50415039 C42.63708217 65.77083569 43.38086526 67.03728154 44.12509155 68.3034668 C46.43589528 72.23520968 48.7360519 76.17291034 51.02416992 80.11791992 C51.54366211 81.0130127 52.0631543 81.90810547 52.59838867 82.83032227 C53.27321289 84.01489014 53.27321289 84.01489014 53.96166992 85.22338867 C54.53208008 86.2214856 54.53208008 86.2214856 55.11401367 87.23974609 C57.84663728 92.87871429 57.81896811 99.25528487 56.02416992 105.18041992 C51.67238513 115.00780905 40.7092429 119.15929049 31.58666992 123.55541992 C30.24064094 124.21555737 28.89510282 124.8766966 27.55004883 125.53881836 C19.71523992 129.38360577 11.85165214 133.17953821 3.89746094 136.77197266 C0.62330183 138.26685991 -2.12463361 139.93682032 -4.97583008 142.11791992 C-5.63583008 142.11791992 -6.29583008 142.11791992 -6.97583008 142.11791992 C-9.95627379 147.72816691 -8.66658299 152.84249856 -6.91333008 158.61791992 C-6.60395508 159.44291992 -6.29458008 160.26791992 -5.97583008 161.11791992 C-4.98583008 160.45791992 -3.99583008 159.79791992 -2.97583008 159.11791992 C-0.12036133 158.57104492 -0.12036133 158.57104492 3.02416992 159.11791992 C5.12247945 161.36020105 6.67233376 163.33494251 8.33666992 165.86791992 C9.29692143 167.25251051 10.25786812 168.63661921 11.21948242 170.02026367 C11.69160156 170.71361816 12.1637207 171.40697266 12.65014648 172.12133789 C14.59696549 174.95024439 16.64484886 177.68776983 18.71166992 180.43041992 C19.43999023 181.3972168 20.16831055 182.36401367 20.91870117 183.36010742 C27.20092416 191.58877055 33.83107889 199.51496664 40.54907227 207.38842773 C42.0496623 209.1478087 43.546723 210.91015291 45.04370117 212.67260742 C50.5206961 219.10651676 56.07951595 225.44013255 61.78979492 231.66870117 C64.31819365 234.44021516 66.78600993 237.25918995 69.24682617 240.09057617 C72.07725082 243.31912648 74.96264167 246.49778097 77.84448242 249.68041992 C79.73653124 251.79625946 81.57031715 253.94779797 83.39916992 256.11791992 C94.9239236 269.24406306 109.55484504 279.77739884 124.54760742 288.59448242 C127.02416992 290.11791992 127.02416992 290.11791992 129.02416992 292.11791992 C128.83666992 295.11791992 128.83666992 295.11791992 128.02416992 298.11791992 C127.03416992 298.77791992 126.04416992 299.43791992 125.02416992 300.11791992 C130.81721293 302.64579323 135.68276235 303.99259683 142.02416992 303.11791992 C147.46647332 300.94099856 149.94255793 296.63776485 152.17041016 291.44750977 C153.83996466 287.17754765 155.45830472 282.89029803 157.04956055 278.59057617 C160.12863294 270.57628728 163.65837663 262.02844878 171.02416992 257.11791992 C177.03290355 256.65820043 181.67217669 257.62389523 187.30932617 259.61010742 C188.07956619 259.87154037 188.84980621 260.13297333 189.64338684 260.40232849 C192.12954702 261.25191296 194.608293 262.1209139 197.08666992 262.99291992 C198.35864227 263.43442886 198.35864227 263.43442886 199.65631104 263.88485718 C213.41068143 268.66194762 226.87425548 273.83970126 240.02416992 280.11791992 C240.76699219 280.47192871 241.50981445 280.8259375 242.27514648 281.19067383 C246.26444569 283.10967983 250.21153447 285.0977144 254.13598633 287.14575195 C256.13149732 288.17317951 258.14414621 289.16023328 260.16088867 290.14526367 C268.74211973 294.40678163 273.96090649 297.49083782 277.39916992 306.86791992 C281.47166876 327.46764703 264.64779567 351.60218219 253.89916992 367.93041992 C241.64566606 385.95944807 225.06516902 396.40064451 204.02416992 401.49291992 C177.80173163 405.73221411 149.7441231 396.74310579 126.98999023 384.19946289 C124.87513536 383.035925 122.74370693 381.90684002 120.61010742 380.77807617 C110.24977282 375.23153379 100.53482686 369.01295274 91.02416992 362.11791992 C90.47003418 361.71686035 89.91589844 361.31580078 89.3449707 360.90258789 C82.02204744 355.57092699 74.96537533 349.93504349 68.02416992 344.11791992 C67.23985596 343.46315674 67.23985596 343.46315674 66.43969727 342.79516602 C49.31295491 328.45967307 32.1176705 313.15047304 17.68432617 296.05932617 C15.5671453 293.58346996 13.35635163 291.20130724 11.14916992 288.80541992 C6.2283969 283.40294473 1.59716502 277.81554411 -2.97583008 272.11791992 C-3.89972457 270.98593206 -4.82423297 269.85444505 -5.74926758 268.72338867 C-48.15955221 216.6193247 -96.15627692 144.51689436 -89.51342773 74.12329102 C-87.30823708 54.47748189 -78.82170361 37.29310398 -63.97583008 24.11791992 C-59.24474489 20.36438518 -54.1472013 17.22020172 -48.97583008 14.11791992 C-48.39575195 13.75859375 -47.81567383 13.39926758 -47.21801758 13.02905273 C-15.26461662 -6.75944044 -15.26461662 -6.75944044 0 0 Z " fill="#3A96D3" transform="translate(122.975830078125,77.882080078125)"/>
<path d="M0 0 C23.01958495 19.52250936 37.59754088 45.10799054 40.125 75.4375 C42.07019121 104.89325255 31.45722414 133.14257057 12.5625 155.46484375 C3.16469516 166.18756839 -7.47918034 174.36918152 -19.875 181.4375 C-20.79539062 181.97246094 -21.71578125 182.50742188 -22.6640625 183.05859375 C-37.78574338 191.25837845 -55.04875523 195.03590112 -72.140625 195.59375 C-82.95195445 195.83217926 -82.95195445 195.83217926 -91.875 201.4375 C-93.99703817 203.88218725 -95.99534544 206.38795542 -97.96484375 208.95703125 C-108.18132757 222.2238354 -122.57882425 229.53183504 -138.69921875 233.0546875 C-143.03782439 233.57766825 -147.32180343 233.58232905 -151.6875 233.5625 C-152.55826172 233.56636719 -153.42902344 233.57023437 -154.32617188 233.57421875 C-155.15310547 233.57292969 -155.98003906 233.57164062 -156.83203125 233.5703125 C-157.96088745 233.56862061 -157.96088745 233.56862061 -159.11254883 233.56689453 C-160.875 233.4375 -160.875 233.4375 -161.875 232.4375 C-162.04332044 228.48196975 -161.64972254 226.40897747 -159.15234375 223.27734375 C-157.59923978 221.63658664 -156.04297496 219.99881847 -154.484375 218.36328125 C-146.42537099 209.32706269 -136.24471424 195.52869825 -135.125 183.1875 C-136.87086182 174.45819092 -142.92373547 169.28671899 -149.33984375 163.58789062 C-169.16385737 145.85449879 -179.39698929 118.4693857 -181.875 92.4375 C-183.60352426 60.17171378 -175.54240271 29.65813429 -154.875 4.4375 C-154.17761719 3.57511719 -153.48023438 2.71273437 -152.76171875 1.82421875 C-113.13476936 -44.75736892 -43.50927278 -34.67428832 0 0 Z " fill="#5BD8C2" transform="translate(438.875,61.5625)"/>
<path d="M0 0 C7.03864513 3.88734243 10.9485807 10.83076234 14.64916992 17.68041992 C15.69836917 19.56801888 16.74920196 21.4547106 17.80151367 23.34057617 C18.33502441 24.30237793 18.86853516 25.26417969 19.41821289 26.25512695 C21.94177843 30.75365683 24.57408023 35.1855886 27.21166992 39.61791992 C28.28885315 41.43411252 29.36566325 43.25052646 30.44213867 45.06713867 C31.00852051 46.02281738 31.57490234 46.97849609 32.15844727 47.96313477 C35.41516248 53.46997512 38.6561046 58.98605631 41.89370728 64.50415039 C42.63708217 65.77083569 43.38086526 67.03728154 44.12509155 68.3034668 C46.43589528 72.23520968 48.7360519 76.17291034 51.02416992 80.11791992 C51.54366211 81.0130127 52.0631543 81.90810547 52.59838867 82.83032227 C53.04827148 83.62003418 53.4981543 84.40974609 53.96166992 85.22338867 C54.34194336 85.88878662 54.7222168 86.55418457 55.11401367 87.23974609 C57.84663728 92.87871429 57.81896811 99.25528487 56.02416992 105.18041992 C51.63359063 115.37212659 39.62589844 120.00594497 30.02416992 124.11791992 C29.03416992 124.11791992 28.04416992 124.11791992 27.02416992 124.11791992 C25.66479492 122.73535156 25.66479492 122.73535156 24.27416992 120.77807617 C23.75395264 120.05386475 23.23373535 119.32965332 22.69775391 118.58349609 C21.86932983 117.39397339 21.86932983 117.39397339 21.02416992 116.18041992 C20.44675049 115.36355713 19.86933105 114.54669434 19.27441406 113.70507812 C-4.08597884 80.42429863 -22.4474806 44.84829207 -34.97583008 6.11791992 C-32.2055012 4.97085402 -29.43459548 3.82521913 -26.66333008 2.68041992 C-25.87764648 2.35493164 -25.09196289 2.02944336 -24.2824707 1.6940918 C-23.52514648 1.38149414 -22.76782227 1.06889648 -21.98754883 0.74682617 C-21.29105225 0.45880127 -20.59455566 0.17077637 -19.87695312 -0.12597656 C-13.30730829 -2.7388172 -6.5382668 -2.89525942 0 0 Z " fill="#FCC273" transform="translate(122.975830078125,77.882080078125)"/>
<path d="M0 0 C1.07541801 0.3789164 1.07541801 0.3789164 2.17256165 0.76548767 C2.94280167 1.02692062 3.71304169 1.28835358 4.50662231 1.55770874 C6.99278249 2.40729321 9.47152848 3.27629415 11.9499054 4.14830017 C12.79788696 4.44263947 13.64586853 4.73697876 14.51954651 5.04023743 C28.2739169 9.81732787 41.73749095 14.99508151 54.8874054 21.27330017 C55.63022766 21.62730896 56.37304993 21.98131775 57.13838196 22.34605408 C61.12768116 24.26506008 65.07476995 26.25309465 68.9992218 28.3011322 C70.99473279 29.32855976 73.00738168 30.31561353 75.02412415 31.30064392 C83.60535521 35.56216188 88.82414196 38.64621807 92.2624054 48.02330017 C93.95258642 56.34542959 91.93076303 64.52135149 88.8874054 72.27330017 C80.69223705 72.80519812 72.96647734 71.41273497 64.98310852 69.71763611 C63.00106332 69.29739819 61.01463537 68.89798796 59.0280304 68.49986267 C27.60371996 61.90594768 -5.49929969 48.96469705 -31.1125946 29.27330017 C-28.45420303 18.28528165 -23.74969729 7.68157609 -16.1125946 -0.72669983 C-11.06002133 -3.25298647 -5.09834525 -1.69536138 0 0 Z " fill="#FCC273" transform="translate(308.1125946044922,336.72669982910156)"/>
<path d="M0 0 C0.89805862 -0.00953201 1.79611725 -0.01906403 2.72138977 -0.02888489 C3.6849791 -0.02797348 4.64856842 -0.02706207 5.64135742 -0.02612305 C6.64011398 -0.03040817 7.63887054 -0.0346933 8.66789246 -0.03910828 C10.78021487 -0.04484814 12.89255705 -0.04535437 15.00488281 -0.04101562 C18.2245492 -0.03786361 21.44328951 -0.06129196 24.6628418 -0.08666992 C26.71817918 -0.08894385 28.77351903 -0.08964598 30.82885742 -0.08862305 C32.26513237 -0.10243767 32.26513237 -0.10243767 33.73042297 -0.11653137 C41.04355493 -0.0663372 45.56056695 0.90314917 51.34130859 5.67358398 C54.86545715 10.37852023 54.04642412 16.29221117 53.92260742 21.8918457 C53.91757202 22.96700439 53.91253662 24.04216309 53.90734863 25.14990234 C53.88127085 29.15009383 53.81146381 33.14990396 53.74682617 37.1496582 C53.64370117 46.1009082 53.54057617 55.0521582 53.43432617 64.2746582 C30.99432617 64.2746582 8.55432617 64.2746582 -14.56567383 64.2746582 C-14.68942383 55.3440332 -14.81317383 46.4134082 -14.94067383 37.2121582 C-14.99529785 34.40449951 -15.04992187 31.59684082 -15.10620117 28.70410156 C-15.12373325 26.46591917 -15.13902058 24.22771759 -15.15161133 21.98950195 C-15.18230713 20.83776489 -15.21300293 19.68602783 -15.24462891 18.49938965 C-15.24877444 12.12010909 -14.82405608 8.18959199 -10.24819946 3.55421448 C-6.86421163 0.98070072 -4.25220793 0.02488803 0 0 Z " fill="#FC5F6E" transform="translate(348.565673828125,117.725341796875)"/>
<path d="M0 0 C2.7503835 0.03135736 5.50018685 0.04102018 8.25073242 0.046875 C47.00995062 0.2155833 47.00995062 0.2155833 55.2409668 5.21875 C57.90657951 9.7227163 58.25381241 14.19037243 57.0534668 19.28125 C55.47790637 22.3984473 54.89533658 23.4773929 52.0534668 25.28125 C47.27891409 26.50558569 42.45614094 26.83199643 37.5534668 27.15625 C36.11590179 27.26894916 34.67840226 27.38248655 33.2409668 27.49682617 C-21.21511065 31.58989291 -21.21511065 31.58989291 -39.9465332 24.28125 C-42.40170014 22.02691471 -42.87691153 20.73724061 -43.38012695 17.44140625 C-43.38141602 16.41917969 -43.38270508 15.39695313 -43.3840332 14.34375 C-43.40336914 13.32410156 -43.42270508 12.30445313 -43.44262695 11.25390625 C-42.79745249 7.38793961 -41.7785809 6.00294039 -38.9465332 3.28125 C-36.03912107 2.21751477 -33.1167604 1.85056188 -30.05200195 1.484375 C-28.73065498 1.30808563 -28.73065498 1.30808563 -27.38261414 1.12823486 C-18.26371928 0.01675718 -9.17489274 -0.10488401 0 0 Z " fill="#E0D1F4" transform="translate(360.946533203125,180.71875)"/>
<path d="M0 0 C3.20703125 0.546875 3.20703125 0.546875 5.8828125 3.40625 C6.78134562 4.68960467 7.65923645 5.98757984 8.51953125 7.296875 C9.47978275 8.68146559 10.44072945 10.06557429 11.40234375 11.44921875 C12.11052246 12.48925049 12.11052246 12.48925049 12.83300781 13.55029297 C14.77982682 16.37919947 16.82771019 19.11672491 18.89453125 21.859375 C19.98701172 23.30957031 19.98701172 23.30957031 21.1015625 24.7890625 C27.38378549 33.01772563 34.01394022 40.94392172 40.73193359 48.81738281 C42.23252363 50.57676378 43.72958433 52.33910799 45.2265625 54.1015625 C50.70355743 60.53547183 56.26237728 66.86908762 61.97265625 73.09765625 C64.50105497 75.86917024 66.96887125 78.68814503 69.4296875 81.51953125 C72.26011214 84.74808156 75.145503 87.92673605 78.02734375 91.109375 C79.91939257 93.22521454 81.75317847 95.37675305 83.58203125 97.546875 C95.10678493 110.67301814 109.73770637 121.20635391 124.73046875 130.0234375 C127.20703125 131.546875 127.20703125 131.546875 129.20703125 133.546875 C129.14453125 136.546875 129.14453125 136.546875 128.20703125 139.546875 C126 140.9140625 126 140.9140625 123.20703125 141.546875 C120.48046875 140.4921875 120.48046875 140.4921875 117.58203125 138.671875 C116.52886719 138.011875 115.47570312 137.351875 114.390625 136.671875 C92.21398062 121.86930501 73.74684366 103.87655452 56.57275391 83.64379883 C53.4589041 79.98029573 50.27615771 76.3978733 47.01953125 72.859375 C42.96961978 68.44717113 39.17299612 63.87956436 35.4140625 59.21875 C33.29079787 56.6482845 31.08891276 54.18768137 28.83203125 51.734375 C-3.6477879 15.94486789 -3.6477879 15.94486789 -5.16796875 4.796875 C-4.5861146 1.3057501 -3.39426116 0.66461058 0 0 Z " fill="#000102" transform="translate(122.79296875,236.453125)"/>
<path d="M0 0 C2 3 2 3 1.83984375 5.04296875 C0.79241892 7.48371218 -0.13146683 8.03652591 -2.4375 9.3125 C-8.98261791 13.13635025 -15.24760097 17.26482565 -20.75 22.5 C-23.39373256 24.87370762 -23.63928178 25.01311703 -27.4375 24.875 C-28.7059375 24.441875 -28.7059375 24.441875 -30 24 C-30.7578125 21.2734375 -30.7578125 21.2734375 -31 18 C-25.20212055 9.92735444 -10.17182517 -0.8476521 0 0 Z " fill="#030706" transform="translate(435,82)"/>
<path d="M0 0 C10.87437161 0.23639938 19.61932667 7.98152458 27.76171875 14.4375 C30 17 30 17 30.45703125 20.1875 C30 23 30 23 28 25 C24.62201811 25.1647796 22.60789562 24.49790672 19.9921875 22.35546875 C18.49348732 20.95077306 16.99891584 19.54166349 15.5078125 18.12890625 C12.12073369 15.25358234 8.45383978 13.37129224 4.48046875 11.421875 C1.81429965 9.8935513 -0.03365235 8.35869402 -2 6 C-1.7 1.7 -1.7 1.7 0 0 Z " fill="#030706" transform="translate(296,82)"/>
<path d="M0 0 C2.5 0.25 2.5 0.25 4.5 2.25 C4.69948557 4.73566543 4.77989743 7.1075075 4.765625 9.59375 C4.76753845 10.31864624 4.7694519 11.04354248 4.77142334 11.79040527 C4.77278487 13.32365262 4.76909064 14.8569115 4.76074219 16.39013672 C4.75004178 18.74082259 4.76063808 21.09074423 4.7734375 23.44140625 C4.7721159 24.92968919 4.76955349 26.41797166 4.765625 27.90625 C4.76967346 28.61148804 4.77372192 29.31672607 4.77789307 30.04333496 C4.72992486 35.02007514 4.72992486 35.02007514 2.5 37.25 C-0.5625 37.4375 -0.5625 37.4375 -3.5 37.25 C-5.46741628 35.28258372 -4.66388207 31.47432269 -4.66796875 28.78515625 C-4.67129715 28.03664902 -4.67462555 27.28814178 -4.67805481 26.51695251 C-4.68312693 24.93066016 -4.68546305 23.3443571 -4.68530273 21.75805664 C-4.68748773 19.32615631 -4.70563581 16.89471051 -4.72460938 14.46289062 C-4.72754349 12.92448072 -4.72952817 11.38606866 -4.73046875 9.84765625 C-4.73765427 9.11740738 -4.74483978 8.38715851 -4.75224304 7.63478088 C-4.71970732 0.47197073 -4.71970732 0.47197073 0 0 Z " fill="#010302" transform="translate(365.5,59.75)"/>
<path d="M0 0 C5.04235991 0.52666815 8.50599843 2.98691838 12.6875 5.625 C24.90865052 13.0633233 37.97263562 18.11201322 52 21 C52.495 22.98 52.495 22.98 53 25 C48.41978665 26.39705349 44.82034612 25.48312846 40.375 24.125 C39.63862305 23.90231445 38.90224609 23.67962891 38.14355469 23.45019531 C23.86833273 18.90780648 10.90906063 12.04404425 -1 3 C-0.67 2.01 -0.34 1.02 0 0 Z " fill="#030A0E" transform="translate(292,397)"/>
<path d="M0 0 C2.0625 0.4375 2.0625 0.4375 4 1 C3.3097581 4.5606381 1.83037525 7.37658753 0.125 10.5625 C-6.81836197 24.3490793 -6.69412608 36.90412658 -5 52 C-6.32 52 -7.64 52 -9 52 C-13.48605862 41.26934778 -12.59552975 25.25416475 -8.28515625 14.625 C-2.20408163 2.20408163 -2.20408163 2.20408163 0 0 Z " fill="#020609" transform="translate(71,128)"/>
<path d="M0 0 C2.475 0.495 2.475 0.495 5 1 C5 10.57 5 20.14 5 30 C3.68 30.33 2.36 30.66 1 31 C0 30 0 30 -0.11352539 27.13256836 C-0.10828857 25.88096924 -0.10305176 24.62937012 -0.09765625 23.33984375 C-0.0962413 22.67537735 -0.09482635 22.01091095 -0.09336853 21.3263092 C-0.08775518 19.19666101 -0.07520054 17.06711661 -0.0625 14.9375 C-0.05748671 13.49674631 -0.05292351 12.05599097 -0.04882812 10.61523438 C-0.03778145 7.07678898 -0.02050792 3.53840461 0 0 Z " fill="#17080A" transform="translate(354,140)"/>
<path d="M0 0 C1.32 0.33 2.64 0.66 4 1 C4 10.57 4 20.14 4 30 C2.68 30 1.36 30 0 30 C0 20.1 0 10.2 0 0 Z " fill="#020000" transform="translate(376,140)"/>
<path d="M0 0 C0 0.33 0 0.66 0 1 C-1.010625 1.020625 -2.02125 1.04125 -3.0625 1.0625 C-8.12637044 1.72390349 -10.81696186 5.29451791 -14 9 C-14 5.06368636 -12.57142871 3.87394974 -10 1 C-6.78548731 -0.60725635 -3.56387464 -0.05748185 0 0 Z " fill="#CDB88A" transform="translate(302,335)"/>
</svg>
