<?xml version="1.0" encoding="UTF-8"?>
<svg version="1.1" xmlns="http://www.w3.org/2000/svg" width="1000" height="1000">
<path d="M0 0 C330 0 660 0 1000 0 C1000 330 1000 660 1000 1000 C670 1000 340 1000 0 1000 C0 670 0 340 0 0 Z " fill="#FEFEFE" transform="translate(0,0)"/>
<path d="M0 0 C0.80179688 0.11214844 1.60359375 0.22429687 2.4296875 0.33984375 C34.43338565 4.8877377 66.38682543 17.7107699 93 36 C93.52867676 36.36029297 94.05735352 36.72058594 94.60205078 37.09179688 C103.53429005 43.20774766 111.8749191 49.85291342 120 57 C120.90878906 57.79664063 121.81757812 58.59328125 122.75390625 59.4140625 C131.68033362 67.34563613 139.61054305 75.61471175 147 85 C147.75337646 85.94673584 147.75337646 85.94673584 148.52197266 86.91259766 C156.16111585 96.53796406 163.05928557 106.24255528 169 117 C169.4626123 117.82177734 169.92522461 118.64355469 170.40185547 119.49023438 C178.60348004 134.14800273 184.81534968 149.03480199 190 165 C190.23154785 165.69915527 190.4630957 166.39831055 190.70166016 167.11865234 C201.66475255 200.61550108 202.19946561 237.3284861 198 272 C197.89816406 272.88526367 197.79632812 273.77052734 197.69140625 274.68261719 C194.78574326 299.62289114 188.85919039 323.17152843 181 347 C180.54753906 348.3919458 180.54753906 348.3919458 180.0859375 349.81201172 C160.09469259 411.01184501 125.24928586 468.03018348 85 518 C84.484375 518.64179199 83.96875 519.28358398 83.4375 519.94482422 C73.91172998 531.7862036 64.25754262 543.49996632 54.03515625 554.75 C52.22622457 556.74989375 50.45108199 558.77269432 48.6875 560.8125 C38.22645201 572.76731306 27.11489603 584.04291323 15.87158203 595.25878906 C13.23744018 597.88753409 10.60873496 600.52163178 7.98046875 603.15625 C6.28417497 604.85188349 4.5875713 606.54720703 2.890625 608.2421875 C2.11648254 609.01835419 1.34234009 609.79452087 0.54473877 610.59420776 C-4.14381818 615.26283265 -8.96298949 619.70999707 -14 624 C-15.34771484 625.15242187 -15.34771484 625.15242187 -16.72265625 626.328125 C-25.17331431 633.26923312 -31.28151322 635.70822368 -42.3671875 635.3828125 C-52.65524703 634.2986944 -59.14218201 626.44510563 -66.25390625 619.5703125 C-68.66804029 617.23899153 -71.13104713 615.00273688 -73.68115234 612.8215332 C-78.26108075 608.82873288 -82.55826928 604.58584951 -86.84765625 600.28515625 C-87.66318466 599.47058456 -88.47871307 598.65601288 -89.31895447 597.8167572 C-91.03198008 596.10440807 -92.74375965 594.39081158 -94.4543457 592.67602539 C-97.05503552 590.06997985 -99.66101956 587.46931478 -102.26757812 584.86914062 C-103.94042486 583.19563301 -105.61296134 581.52181518 -107.28515625 579.84765625 C-108.05513443 579.0797023 -108.82511261 578.31174835 -109.61842346 577.52052307 C-113.73829631 573.382968 -117.70032772 569.1643441 -121.50428772 564.73382568 C-123.72870847 562.15528309 -126.05390148 559.67937004 -128.375 557.1875 C-132.64839971 552.56219047 -136.68883729 547.79918099 -140.63671875 542.890625 C-142.79347349 540.25261094 -145.002601 537.67680244 -147.2409668 535.10864258 C-154.01368601 527.32784997 -160.28734983 519.22573815 -166.4921875 510.98828125 C-167.86522379 509.17772303 -169.2544634 507.38208987 -170.65625 505.59375 C-176.58524042 498.02657744 -182.10044145 490.2378939 -187.47119141 482.26757812 C-188.53038232 480.69655206 -189.59277731 479.12768323 -190.65771484 477.56054688 C-202.6525363 459.90536205 -213.67857272 441.79611992 -223.88134766 423.04931641 C-224.91482699 421.15603278 -225.96145481 419.27072425 -227.01171875 417.38671875 C-241.89870658 390.42331021 -252.86144966 361.35413141 -262 332 C-262.27827637 331.10958008 -262.55655273 330.21916016 -262.84326172 329.30175781 C-269.32890141 308.15786788 -272.78627785 285.98277579 -275 264 C-275.11085938 262.96101563 -275.22171875 261.92203125 -275.3359375 260.8515625 C-277.02971499 241.9453435 -276.52114444 222.79622032 -274 204 C-273.88172852 203.05366699 -273.76345703 202.10733398 -273.64160156 201.13232422 C-271.51817665 184.47181352 -267.43519795 168.87687788 -262 153 C-261.64204346 151.94087402 -261.64204346 151.94087402 -261.27685547 150.86035156 C-252.12474542 124.16967877 -235.75448357 98.8994245 -217 78 C-216.14148438 77.0203125 -215.28296875 76.040625 -214.3984375 75.03125 C-202.57610611 61.77907913 -189.55601254 50.17137652 -175 40 C-174.34338379 39.54028809 -173.68676758 39.08057617 -173.01025391 38.60693359 C-148.34149663 21.54997339 -121.17778194 9.77353811 -92 3 C-90.26169922 2.57460937 -90.26169922 2.57460937 -88.48828125 2.140625 C-85.0035687 1.33233665 -81.51935788 0.64153074 -78 0 C-77.25572754 -0.13680176 -76.51145508 -0.27360352 -75.74462891 -0.41455078 C-50.54016315 -4.8813562 -25.21993782 -3.7192324 0 0 Z " fill="#C03C3D" transform="translate(538,76)"/>
<path d="M0 0 C9.50665188 8.47898486 17.7376425 17.49404773 25.16015625 27.84375 C25.76657959 28.66770264 25.76657959 28.66770264 26.38525391 29.50830078 C42.03472315 50.88908575 51.34915139 75.94851633 56.16015625 101.84375 C56.38703125 103.04257812 56.61390625 104.24140625 56.84765625 105.4765625 C59.90984641 125.16814647 59.70797218 146.41751904 55.16015625 165.84375 C54.88171875 167.06964844 54.60328125 168.29554688 54.31640625 169.55859375 C53.3756031 173.35830304 52.30914756 177.10322499 51.16015625 180.84375 C50.82854492 181.94444824 50.82854492 181.94444824 50.49023438 183.06738281 C44.40700925 202.8749573 35.08321174 221.60343775 22.16015625 237.84375 C21.73943848 238.37581055 21.3187207 238.90787109 20.88525391 239.45605469 C-8.66424262 276.52340508 -51.24705779 301.05271572 -98.60546875 306.43359375 C-114.82699174 307.92212379 -131.77714736 307.69750862 -147.83984375 304.84375 C-148.54302734 304.72016113 -149.24621094 304.59657227 -149.97070312 304.46923828 C-168.30375828 301.10817817 -185.50476232 294.76083629 -201.83984375 285.84375 C-202.87238281 285.29074219 -203.90492188 284.73773438 -204.96875 284.16796875 C-218.2484045 276.75894713 -229.94121121 267.38209717 -240.83984375 256.84375 C-241.77570313 255.95945312 -242.7115625 255.07515625 -243.67578125 254.1640625 C-274.62797266 224.25228089 -293.44890463 179.27876069 -294.3293457 136.3972168 C-294.36571889 123.00257783 -293.41462425 109.98661758 -290.83984375 96.84375 C-290.70594238 96.12010254 -290.57204102 95.39645508 -290.43408203 94.65087891 C-285.50194009 68.55536429 -273.49264662 43.44686264 -256.83984375 22.84375 C-256.38609375 22.27720703 -255.93234375 21.71066406 -255.46484375 21.12695312 C-228.16086313 -12.73153421 -190.69835749 -34.93465543 -147.96337891 -42.765625 C-146.12017028 -43.10468384 -144.28215255 -43.47173176 -142.4453125 -43.84375 C-91.59234823 -52.8731296 -38.11442123 -33.31667977 0 0 Z " fill="#FEFDFD" transform="translate(617.83984375,180.15625)"/>
<path d="M0 0 C18.34043252 15.85788779 30.70502 35.81516886 36.59082031 59.37548828 C36.77700928 60.11428223 36.96319824 60.85307617 37.1550293 61.61425781 C38.73761829 68.58215298 38.9380379 75.37382281 38.90332031 82.50048828 C38.89594849 84.2895459 38.89594849 84.2895459 38.88842773 86.11474609 C38.55076972 111.62437591 29.89876025 135.72160895 13.59082031 155.37548828 C12.90503906 156.22498047 12.21925781 157.07447266 11.51269531 157.94970703 C-0.97558694 172.6812548 -17.60335298 182.87542698 -35.65917969 189.31298828 C-36.45018066 189.59561523 -37.24118164 189.87824219 -38.05615234 190.16943359 C-49.13412208 193.89177758 -60.09096572 194.74159663 -71.72167969 194.68798828 C-73.64306763 194.67952881 -73.64306763 194.67952881 -75.60327148 194.67089844 C-84.57486006 194.55559266 -92.7917857 194.05194947 -101.40917969 191.37548828 C-102.34745605 191.08544922 -102.34745605 191.08544922 -103.3046875 190.78955078 C-118.16685876 186.05702647 -131.64658979 178.62949323 -143.40917969 168.37548828 C-144.04082031 167.86373047 -144.67246094 167.35197266 -145.32324219 166.82470703 C-153.08292995 160.4836406 -158.90725845 152.69204978 -164.40917969 144.37548828 C-164.92480469 143.60591797 -165.44042969 142.83634766 -165.97167969 142.04345703 C-180.83499948 118.70340017 -185.61864937 87.42165625 -179.87304688 60.53808594 C-177.88483045 52.41084145 -175.39824912 44.75926723 -171.40917969 37.37548828 C-170.90773438 36.35712891 -170.40628906 35.33876953 -169.88964844 34.28955078 C-155.9890421 6.87898747 -132.45840305 -11.8038358 -103.59667969 -21.62841797 C-68.23432894 -32.67915258 -28.14501825 -23.63119456 0 0 Z " fill="#C03C3D" transform="translate(571.4091796875,226.62451171875)"/>
<path d="M0 0 C0.35602295 0.66717041 0.7120459 1.33434082 1.07885742 2.02172852 C7.47027208 13.98378284 13.89705255 25.91050952 20.625 37.6875 C29.26886778 52.84455639 37.31845036 68.33368165 45 84 C38.79836999 87.98310121 32.4376006 91.52971498 25.9375 95 C17.85885153 99.34077556 9.83806953 103.76338625 1.875 108.3125 C-7.79225977 113.82552859 -17.58201877 119.08438368 -27.41278076 124.29745483 C-35.00667386 128.32474197 -42.57163803 132.38498434 -50.03808594 136.64526367 C-56.03345173 140.05244437 -62.11010936 143.30444324 -68.1875 146.5625 C-78.98043519 152.35074862 -89.71692096 158.23392742 -100.43310547 164.16259766 C-101.64157842 164.83109652 -102.85007429 165.49955396 -104.05859375 166.16796875 C-104.64777588 166.49383972 -105.23695801 166.81971069 -105.84399414 167.15545654 C-112.37523806 170.76479236 -118.92711246 174.33632379 -125.4909668 177.88598633 C-129.61105029 180.1204036 -133.69834753 182.39004995 -137.734375 184.7734375 C-138.46938232 185.20342041 -139.20438965 185.63340332 -139.96166992 186.07641602 C-141.31309412 186.87156543 -142.65770455 187.6784729 -143.9934082 188.49975586 C-146.73035901 190.1052298 -148.53656394 191.02175447 -151.74609375 190.87109375 C-165.64069366 185.50108373 -176.65617489 167.3804526 -184 155 C-184.43183594 154.28199219 -184.86367187 153.56398438 -185.30859375 152.82421875 C-193.06969201 138.72136706 -194.7453654 120.86411842 -190.50830078 105.38891602 C-185.24552114 88.65311444 -174.6729201 72.99778356 -161 62 C-160.2575 61.236875 -159.515 60.47375 -158.75 59.6875 C-157 58 -157 58 -155 58 C-155 57.34 -155 56.68 -155 56 C-152.90234375 54.40625 -152.90234375 54.40625 -149.9375 52.5 C-148.83277344 51.78585937 -147.72804688 51.07171875 -146.58984375 50.3359375 C-145.99929199 49.9553418 -145.40874023 49.57474609 -144.80029297 49.18261719 C-143.03131402 48.02057026 -141.29679634 46.82017482 -139.56640625 45.6015625 C-102.45608159 19.67784985 -45.3975946 -0.27637876 0 0 Z " fill="#DAE3E6" transform="translate(432,677)"/>
<path d="M0 0 C0 4.04016453 -1.46869212 4.9566059 -4.1875 7.875 C-5.00605469 8.75929688 -5.82460938 9.64359375 -6.66796875 10.5546875 C-8.42361664 12.39561811 -10.18822979 14.21495206 -12 16 C-14.05270463 17.84188612 -14.05270463 17.84188612 -15 20 C-14.30890137 20.05945801 -13.61780273 20.11891602 -12.90576172 20.18017578 C1.18366831 21.4353949 15.01262199 23.15099543 28.875 25.9375 C30.67928467 26.29835693 30.67928467 26.29835693 32.52001953 26.66650391 C39.7447777 28.17053907 46.81137727 30.01645202 53.890625 32.09765625 C56.31916111 32.80241987 58.73643918 33.45042418 61.1953125 34.03515625 C90.30692763 41.41767056 121.00607107 53.63541593 145 72 C145.7115625 72.53367187 146.423125 73.06734375 147.15625 73.6171875 C148.50521839 74.62891379 149.85057458 75.64548343 151.19140625 76.66796875 C152.80319721 77.85505454 154.49188145 78.93608248 156.1875 80 C159.49105618 82.34919551 161.52952597 84.80291597 164 88 C161.38473655 91.0169505 158.33592735 92.58242293 154.828125 94.43359375 C153.92716095 94.91240746 153.92716095 94.91240746 153.00799561 95.40089417 C151.09134391 96.41825532 149.17086896 97.42812772 147.25 98.4375 C145.34423951 99.444796 143.43931285 100.45364504 141.53485107 101.46339417 C139.79711951 102.38380823 138.05730881 103.30029375 136.31738281 104.21655273 C132.84049289 106.0857521 129.42294321 108.03395488 126 110 C124.42884964 110.87014686 122.85490397 111.73527882 121.27734375 112.59375 C120.42076172 113.06039062 119.56417969 113.52703125 118.68164062 114.0078125 C117.77607422 114.50023437 116.87050781 114.99265625 115.9375 115.5 C113.96743765 116.57289781 111.99738586 117.64581502 110.02734375 118.71875 C109.02558105 119.26402344 108.02381836 119.80929687 106.99169922 120.37109375 C101.41102582 123.40963242 95.83317443 126.4533489 90.25585938 129.49804688 C85.66229988 132.00510667 81.06626469 134.50739462 76.46484375 137 C67.20622661 142.02209344 58.0012974 147.11570848 48.875 152.375 C42.79769845 155.87699603 36.71102741 159.20348388 30.39453125 162.2578125 C25.45012964 164.79544555 20.64138309 167.56277895 15.8125 170.3125 C0.58079385 178.95611934 0.58079385 178.95611934 -5.6875 182.375 C-6.37545654 182.76212158 -7.06341309 183.14924316 -7.7722168 183.5480957 C-12.3267792 186.00108503 -12.3267792 186.00108503 -14.96923828 185.99682617 C-18.17165911 184.42487567 -19.2573287 181.53010822 -20.79296875 178.46484375 C-21.14026031 177.79927963 -21.48755188 177.13371552 -21.84536743 176.44798279 C-22.97163905 174.28391728 -24.07925989 172.11084574 -25.1875 169.9375 C-25.95957692 168.44854831 -26.73326099 166.96042889 -27.50854492 165.47314453 C-28.65232245 163.27892019 -29.79537838 161.08437793 -30.93348694 158.88720703 C-33.4680516 153.99586339 -36.07136132 149.1542358 -38.8125 144.375 C-46.8598252 130.26708127 -54.50372508 115.93300426 -62.1875 101.625 C-65.92076411 94.67437763 -69.66814721 87.73682593 -73.5625 80.875 C-77.45084927 73.99806155 -81.30888604 67.10481295 -85.125 60.1875 C-85.71869385 59.12966309 -86.3123877 58.07182617 -86.92407227 56.98193359 C-87.46733154 55.9914502 -88.01059082 55.0009668 -88.5703125 53.98046875 C-89.06289551 53.09254639 -89.55547852 52.20462402 -90.06298828 51.28979492 C-91 49 -91 49 -90 46 C-89.56429688 46.39832031 -89.12859375 46.79664063 -88.6796875 47.20703125 C-88.08414062 47.73683594 -87.48859375 48.26664063 -86.875 48.8125 C-86.29492188 49.33457031 -85.71484375 49.85664062 -85.1171875 50.39453125 C-77.87488308 55.8863894 -70.68500222 55.90657643 -62 55 C-53.26017675 52.75901968 -47.04863846 45.77514768 -40.77355957 39.67466736 C-38.98181827 37.98283206 -37.13809289 36.37538865 -35.26806641 34.77075195 C-31.15513035 31.1842703 -27.27937154 27.40816644 -23.4375 23.53515625 C-22.76074219 22.85698349 -22.08398438 22.17881073 -21.38671875 21.48008728 C-19.25542325 19.34325695 -17.12765782 17.20295177 -15 15.0625 C-13.54320221 13.60067877 -12.08617299 12.13908813 -10.62890625 10.67773438 C-7.08326027 7.121146 -3.54077261 3.56143984 0 0 Z " fill="#DAE3E5" transform="translate(569,655)"/>
<path d="M0 0 C0.4846875 0.99257813 0.969375 1.98515625 1.46875 3.0078125 C5.30406359 10.80425114 9.31877349 18.42078409 13.68359375 25.9375 C16.63806521 31.0706805 19.43657918 36.288632 22.25 41.5 C22.80776123 42.5324585 23.36552246 43.56491699 23.94018555 44.62866211 C25.07430932 46.72870436 26.20817955 48.82888354 27.34179688 50.92919922 C34.58902018 64.35022024 41.9177779 77.71742539 49.4609375 90.97485352 C55.27129785 101.19393594 60.85243165 111.52733232 66.3125 121.9375 C66.84939453 122.95134766 67.38628906 123.96519531 67.93945312 125.00976562 C68.45056641 125.98494141 68.96167969 126.96011719 69.48828125 127.96484375 C69.94759033 128.8374585 70.40689941 129.71007324 70.88012695 130.60913086 C71.88532992 132.7551855 72.52904454 134.68611706 73 137 C67.00680376 137.73641888 61.00744474 138.3907713 55 139 C53.58533447 139.14405273 53.58533447 139.14405273 52.14208984 139.29101562 C8.75407167 143.52399301 -36.11030726 141.83255356 -79 134 C-79.63814636 133.88440735 -80.27629272 133.7688147 -80.93377686 133.64971924 C-164.72122813 118.4071332 -164.72122813 118.4071332 -183 99 C-168.93014234 90.99238359 -154.80234038 83.10580584 -140.56811523 75.39404297 C-137.83002371 73.90773224 -135.09662506 72.41299041 -132.36328125 70.91796875 C-127.90913285 68.48704337 -123.43134503 66.10644013 -118.9375 63.75 C-112.31632447 60.26119257 -105.76073683 56.66751466 -99.22875977 53.01489258 C-92.8083096 49.43152894 -86.34562367 45.92930184 -79.875 42.4375 C-73.25999042 38.86653827 -66.6601012 35.27783416 -60.125 31.5625 C-51.84362967 26.85455941 -43.44300802 22.3675039 -35.04541016 17.87133789 C-29.65415806 14.98215052 -24.29054138 12.06966273 -19 9 C-16.25431777 7.40904078 -13.50362341 5.82716863 -10.75 4.25 C-10.04359375 3.83878906 -9.3371875 3.42757812 -8.609375 3.00390625 C-3.34006437 0 -3.34006437 0 0 0 Z " fill="#DAE3E6" transform="translate(492,786)"/>
<path d="M0 0 C2.35546875 1.05859375 2.35546875 1.05859375 3.8671875 3.6484375 C5.08157188 7.10600365 6.26933147 10.55837763 7.35546875 14.05859375 C7.60554687 14.85652344 7.855625 15.65445313 8.11328125 16.4765625 C12.75387735 34.94090613 8.47188435 52.92095756 -0.765625 69.1015625 C-3.7149653 73.74324776 -7.04180461 77.91205931 -10.64453125 82.05859375 C-11.28648437 82.84492187 -11.9284375 83.63125 -12.58984375 84.44140625 C-28.13253962 102.82079186 -49.52088359 114.32083926 -70.64453125 125.05859375 C-71.33039307 125.41356934 -72.01625488 125.76854492 -72.72290039 126.13427734 C-77.07593732 128.36263648 -81.48448244 130.26100984 -86.08203125 131.93359375 C-86.76450928 132.1847998 -87.4469873 132.43600586 -88.15014648 132.69482422 C-89.58710456 133.22167065 -91.02502712 133.74589342 -92.46386719 134.26757812 C-93.90844168 134.7915841 -95.35182449 135.31888794 -96.79394531 135.84960938 C-111.09130199 141.10915729 -125.56865342 144.84655967 -140.39453125 148.30859375 C-141.55073975 148.57929687 -142.70694824 148.85 -143.89819336 149.12890625 C-144.98495361 149.37898437 -146.07171387 149.6290625 -147.19140625 149.88671875 C-148.16948242 150.11262695 -149.14755859 150.33853516 -150.15527344 150.57128906 C-152.64453125 151.05859375 -152.64453125 151.05859375 -155.64453125 151.05859375 C-155.97026123 150.45200928 -156.29599121 149.8454248 -156.6315918 149.22045898 C-158.19588679 146.31097399 -159.763463 143.40327725 -161.33203125 140.49609375 C-161.90985352 139.42447998 -162.48767578 138.35286621 -163.08300781 137.2487793 C-166.12058759 131.63844659 -169.19668204 126.05597299 -172.3671875 120.51953125 C-172.95862549 119.48642822 -173.55006348 118.4533252 -174.15942383 117.38891602 C-175.29762176 115.4092812 -176.44179766 113.4330689 -177.5925293 111.46069336 C-178.10984619 110.5610083 -178.62716309 109.66132324 -179.16015625 108.734375 C-179.61680664 107.94973877 -180.07345703 107.16510254 -180.54394531 106.35668945 C-181.70998618 103.92191956 -182.22942456 101.7170993 -182.64453125 99.05859375 C-171.71951309 92.72434662 -160.75818691 86.52278091 -149.54296875 80.71606445 C-143.46764224 77.54801574 -137.58204643 74.11817451 -131.70605469 70.59716797 C-126.33410471 67.40197952 -120.85268223 64.63235138 -115.23046875 61.8984375 C-111.12182158 59.84411392 -107.20601657 57.48431934 -103.26953125 55.12109375 C-97.86850291 51.88156933 -92.4363867 48.86945484 -86.76953125 46.12109375 C-79.79037547 42.7360725 -73.12199695 38.91833742 -66.43676758 34.98901367 C-61.25669718 31.95632561 -56.01831106 29.17724131 -50.6171875 26.5546875 C-46.47558067 24.47027828 -42.46167591 22.17276026 -38.43359375 19.87988281 C-30.95258964 15.63571617 -23.37972804 11.56317457 -15.80566406 7.48803711 C-14.82049805 6.95702393 -13.83533203 6.42601074 -12.8203125 5.87890625 C-11.5041394 5.17145264 -11.5041394 5.17145264 -10.16137695 4.44970703 C-8.40689231 3.47996666 -6.68303652 2.45359739 -4.98632812 1.38598633 C-2.64453125 0.05859375 -2.64453125 0.05859375 0 0 Z " fill="#DAE3E6" transform="translate(750.64453125,766.94140625)"/>
<path d="M0 0 C0 4.04016453 -1.46869212 4.9566059 -4.1875 7.875 C-5.00605469 8.76058594 -5.82460938 9.64617188 -6.66796875 10.55859375 C-8.41652721 12.38916165 -10.17877455 14.1807427 -12 15.9375 C-14.21548272 17.92411167 -14.21548272 17.92411167 -15 21 C-18.83408676 24.65575714 -21.78891146 26.6351911 -27 28 C-21.75541414 21.63409696 -15.97902678 15.86429388 -10.125 10.0625 C-9.14039081 9.08291763 -8.156014 8.10310163 -7.171875 7.12304688 C-4.78351797 4.74639748 -2.39284788 2.37212644 0 0 Z " fill="#F9DCDA" transform="translate(569,655)"/>
<path d="M0 0 C1.34611285 4.03833855 0.43538136 6.0356134 -1 10 C-2.31665664 11.67987227 -3.65263027 13.34466005 -5 15 C-6.28573591 17.57147182 -7.4900946 20.16517939 -8.65625 22.79296875 C-10.17357283 25.28508328 -11.31098459 25.98022509 -14 27 C-13.6596875 26.3915625 -13.319375 25.783125 -12.96875 25.15625 C-8.39852994 16.8909584 -4.18450605 8.46459726 0 0 Z " fill="#B3494B" transform="translate(661,381)"/>
<path d="M0 0 C0.99 0.33 1.98 0.66 3 1 C1.07423885 3.43929746 -0.80090595 5.80090595 -3 8 C-3 7.34 -3 6.68 -3 6 C-3.66 6 -4.32 6 -5 6 C-5.3403125 6.86625 -5.3403125 6.86625 -5.6875 7.75 C-7.32916107 10.56427613 -9.43559053 12.02737733 -12 14 C-12.33 14.66 -12.66 15.32 -13 16 C-13.99 15.67 -14.98 15.34 -16 15 C-14.08643227 13.05935348 -12.16932062 11.122443 -10.25 9.1875 C-9.71117187 8.64029297 -9.17234375 8.09308594 -8.6171875 7.52929688 C-2.70684543 1.58291613 -2.70684543 1.58291613 0 0 Z " fill="#B24042" transform="translate(433,223)"/>
<path d="M0 0 C0.50789063 0.39832031 1.01578125 0.79664063 1.5390625 1.20703125 C5.53903498 4.28566175 9.36879143 6.91595614 14 9 C13.34 9.66 12.68 10.32 12 11 C9.625 10.6875 9.625 10.6875 7 10 C6.29875 9.938125 5.5975 9.87625 4.875 9.8125 C1.79283847 8.47689667 1.19916968 5.99792419 0 3 C0 2.01 0 1.02 0 0 Z " fill="#E2DBDD" transform="translate(478,701)"/>
<path d="M0 0 C1.37570339 4.12711018 0.09882525 6.01275016 -1.67578125 9.8359375 C-3.63032177 13.03008337 -5.71289657 14.28174139 -9 16 C-9.66 15.67 -10.32 15.34 -11 15 C-10.18595703 14.00419922 -10.18595703 14.00419922 -9.35546875 12.98828125 C-8.64003906 12.10527344 -7.92460938 11.22226562 -7.1875 10.3125 C-6.47980469 9.44238281 -5.77210938 8.57226562 -5.04296875 7.67578125 C-3.15270354 5.20000368 -1.54332599 2.70203762 0 0 Z " fill="#B54544" transform="translate(646,408)"/>
<path d="M0 0 C6.11360888 5.37256538 11.87060954 12.79705877 13 21 C11.05452723 18.56815904 9.51164673 16.11864143 8.0625 13.375 C5.95634349 9.92856208 5.35771818 9.6209674 2 8 C1.3125 5.5625 1.3125 5.5625 1 3 C0.67 2.01 0.34 1.02 0 0 Z " fill="#AE4445" transform="translate(585,242)"/>
<path d="M0 0 C3.49418996 0.58751867 5.20332959 1.82961077 7.75 4.25 C11.55806568 7.72163882 15.54558963 10.42923657 20 13 C19.01 13.495 19.01 13.495 18 14 C11.39407946 10.57105617 5.42709299 6.06528679 0 1 C0 0.67 0 0.34 0 0 Z " fill="#AF4848" transform="translate(427,393)"/>
<path d="M0 0 C0.66 0.33 1.32 0.66 2 1 C0.35608965 2.69528255 -1.30631597 4.35505508 -3 6 C-3.97646484 6.95326172 -3.97646484 6.95326172 -4.97265625 7.92578125 C-5.66230469 8.56902344 -6.35195313 9.21226562 -7.0625 9.875 C-7.71347656 10.49117188 -8.36445312 11.10734375 -9.03515625 11.7421875 C-11 13 -11 13 -13.24609375 12.6953125 C-13.82488281 12.46585937 -14.40367187 12.23640625 -15 12 C-13.75283203 11.07767578 -13.75283203 11.07767578 -12.48046875 10.13671875 C-11.38271657 9.32044149 -10.28506563 8.50402807 -9.1875 7.6875 C-8.64029297 7.28337891 -8.09308594 6.87925781 -7.52929688 6.46289062 C-4.83867796 4.45715653 -2.27895795 2.4708702 0 0 Z " fill="#FCE5E3" transform="translate(574,392)"/>
<path d="M0 0 C1.32 0.66 2.64 1.32 4 2 C0.09543873 5.53269829 -2.80177328 7.63855967 -8 9 C-7.04270084 7.87411986 -6.08412105 6.7493285 -5.125 5.625 C-4.59132813 4.99851562 -4.05765625 4.37203125 -3.5078125 3.7265625 C-2.38567993 2.44163349 -1.20628025 1.20628025 0 0 Z " fill="#E6D3D3" transform="translate(550,674)"/>
<path d="M0 0 C0.33 0.66 0.66 1.32 1 2 C-1.80804268 4.96404505 -4.18315774 7.44499019 -8 9 C-8 9.66 -8 10.32 -8 11 C-9.32 11.33 -10.64 11.66 -12 12 C-8 8 -4 4 0 0 Z " fill="#EFD9D8" transform="translate(539,685)"/>
<path d="M0 0 C2.72675159 2.40689803 4.11966596 4.92471023 5.6875 8.1875 C6.12449219 9.08855469 6.56148438 9.98960937 7.01171875 10.91796875 C7.33785156 11.60503906 7.66398437 12.29210937 8 13 C6.02 12.34 4.04 11.68 2 11 C2.33 10.01 2.66 9.02 3 8 C2.04987876 5.97582866 1.05008653 3.97416268 0 2 C0 1.34 0 0.68 0 0 Z " fill="#B24649" transform="translate(343,392)"/>
<path d="M0 0 C-0.1875 1.8125 -0.1875 1.8125 -1 4 C-3.375 5.8125 -3.375 5.8125 -6 7 C-6.99 6.67 -7.98 6.34 -9 6 C-8.07213211 4.99105628 -7.13231567 3.99309093 -6.1875 3 C-5.66542969 2.443125 -5.14335937 1.88625 -4.60546875 1.3125 C-3 0 -3 0 0 0 Z " fill="#B74749" transform="translate(340,137)"/>
<path d="M0 0 C0 3.39593478 -0.52165948 4.06619881 -2.5 6.6875 C-2.9640625 7.31011719 -3.428125 7.93273437 -3.90625 8.57421875 C-4.2671875 9.04472656 -4.628125 9.51523437 -5 10 C-6.32 9.34 -7.64 8.68 -9 8 C-6.03 5.36 -3.06 2.72 0 0 Z " fill="#B24546" transform="translate(620,439)"/>
<path d="M0 0 C2 3 2 3 1.57421875 5.375 C1.28160156 6.24125 0.98898437 7.1075 0.6875 8 C0.40261719 8.86625 0.11773438 9.7325 -0.17578125 10.625 C-0.44777344 11.40875 -0.71976563 12.1925 -1 13 C-1.33 13.99 -1.66 14.98 -2 16 C-2.66 16 -3.32 16 -4 16 C-2.68 10.72 -1.36 5.44 0 0 Z " fill="#F8D8D6" transform="translate(725,400)"/>
<path d="M0 0 C0.66 0.33 1.32 0.66 2 1 C0.76600937 2.36877116 -0.48780623 3.71969166 -1.75 5.0625 C-2.79414063 6.19365234 -2.79414063 6.19365234 -3.859375 7.34765625 C-4.56578125 7.89292969 -5.2721875 8.43820313 -6 9 C-7.32 8.67 -8.64 8.34 -10 8 C-6.7 5.36 -3.4 2.72 0 0 Z " fill="#FCE9E5" transform="translate(393,171)"/>
<path d="M0 0 C0.66 0.66 1.32 1.32 2 2 C0.68 5.3 -0.64 8.6 -2 12 C-2.33 12 -2.66 12 -3 12 C-2.14285714 3.42857143 -2.14285714 3.42857143 0 0 Z " fill="#B14848" transform="translate(708,446)"/>
<path d="M0 0 C0.33 1.32 0.66 2.64 1 4 C0.01 4.33 -0.98 4.66 -2 5 C-2 5.66 -2 6.32 -2 7 C-3.32 6.67 -4.64 6.34 -6 6 C-4.02 4.02 -2.04 2.04 0 0 Z " fill="#B54B4F" transform="translate(627,432)"/>
<path d="M0 0 C2.64 0.33 5.28 0.66 8 1 C5.37801226 3.15377564 3.35595828 4.40072174 0 5 C0 3.35 0 1.7 0 0 Z " fill="#B44544" transform="translate(427,146)"/>
<path d="M0 0 C1.32 0.33 2.64 0.66 4 1 C0.535 3.97 0.535 3.97 -3 7 C-3.33 6.01 -3.66 5.02 -4 4 C-3.01 4 -2.02 4 -1 4 C-0.67 2.68 -0.34 1.36 0 0 Z " fill="#B03F3F" transform="translate(548,672)"/>
<path d="M0 0 C0.66 0.99 1.32 1.98 2 3 C0.35 4.65 -1.3 6.3 -3 8 C-3.66 7.67 -4.32 7.34 -5 7 C-3.35 4.69 -1.7 2.38 0 0 Z " fill="#FBE7E2" transform="translate(659,543)"/>
<path d="M0 0 C1.65 0 3.3 0 5 0 C5.33 0.99 5.66 1.98 6 3 C5.01 3.99 4.02 4.98 3 6 C2.01 4.02 1.02 2.04 0 0 Z " fill="#B8454A" transform="translate(337,537)"/>
<path d="M0 0 C1.98 1.65 3.96 3.3 6 5 C4.68 5.33 3.36 5.66 2 6 C0 3 0 3 0 0 Z " fill="#E7D1D2" transform="translate(478,701)"/>
<path d="M0 0 C0.99 0.33 1.98 0.66 3 1 C3 1.66 3 2.32 3 3 C-1.455 4.485 -1.455 4.485 -6 6 C-4 4 -2 2 0 0 Z " fill="#B2494A" transform="translate(608,449)"/>
<path d="M0 0 C2.64 0.33 5.28 0.66 8 1 C8 1.66 8 2.32 8 3 C5.36 2.67 2.72 2.34 0 2 C0 1.34 0 0.68 0 0 Z " fill="#BC5856" transform="translate(474,417)"/>
<path d="M0 0 C2.97 0.495 2.97 0.495 6 1 C4.68 2.32 3.36 3.64 2 5 C0 1.125 0 1.125 0 0 Z " fill="#B54546" transform="translate(565,394)"/>
</svg>
