<?xml version="1.0" encoding="UTF-8"?>
<svg version="1.1" xmlns="http://www.w3.org/2000/svg" width="512" height="512">
<path d="M0 0 C2.73005848 3.01006448 3.54480632 4.74476957 4.4375 8.6875 C4.63214844 9.52410156 4.82679688 10.36070313 5.02734375 11.22265625 C6.5994006 18.3636988 6.5994006 18.3636988 5.4375 20.6875 C4.7775 20.6875 4.1175 20.6875 3.4375 20.6875 C3.40011719 21.244375 3.36273438 21.80125 3.32421875 22.375 C2.86065323 27.75599579 2.17132421 32.93987112 -0.5625 37.6875 C-3 39.4375 -3 39.4375 -5.5625 40.6875 C-6.93234198 41.98329647 -8.2776049 43.30742749 -9.5625 44.6875 C-8.95664063 44.4709375 -8.35078125 44.254375 -7.7265625 44.03125 C-0.60926913 41.66611867 6.25480784 40.03185102 13.4375 42.875 C16.8097481 44.91239989 18.73252056 46.9896566 21.1875 50.0625 C21.60725098 50.58271729 22.02700195 51.10293457 22.45947266 51.63891602 C23.80020283 53.31071835 25.12146226 54.9962046 26.4375 56.6875 C26.88770508 57.26516113 27.33791016 57.84282227 27.80175781 58.43798828 C29.95297586 61.20681409 32.08781417 63.98685429 34.2109375 66.77734375 C36.36587021 69.70824014 36.36587021 69.70824014 38.8515625 72.19140625 C39.37492188 73.01511719 39.89828125 73.83882813 40.4375 74.6875 C40.07527344 75.56792969 39.71304688 76.44835937 39.33984375 77.35546875 C38.25445383 81.36342375 38.78516925 82.05992692 40.69140625 85.61328125 C41.77283089 87.42184785 42.8766331 89.21718223 44 91 C44.53947266 91.91845703 45.07894531 92.83691406 45.63476562 93.78320312 C48.21929606 98.66920464 48.21929606 98.66920464 52.70843506 101.27709961 C55.41525217 101.68415434 58.07173306 101.93822723 60.8034668 102.1081543 C61.85193283 102.17459641 62.90039886 102.24103851 63.9806366 102.30949402 C65.66664726 102.40959526 65.66664726 102.40959526 67.38671875 102.51171875 C68.5545137 102.58163528 69.72230865 102.65155182 70.92549133 102.72358704 C73.39576091 102.86934307 75.86615858 103.01294187 78.33666992 103.15454102 C82.09439417 103.37321892 85.85077531 103.60932598 89.60742188 103.84570312 C92.012958 103.98546073 94.41855552 104.12416639 96.82421875 104.26171875 C97.93810471 104.3345256 99.05199066 104.40733246 100.19963074 104.48234558 C106.95012514 104.84381095 112.89172433 104.37439447 119.4375 102.6875 C120.56553291 102.40630562 120.56553291 102.40630562 121.71635437 102.11943054 C122.28433243 101.97689346 122.85231049 101.83435638 123.4375 101.6875 C121.78179855 98.73098666 120.08279099 95.80168495 118.375 92.875 C117.90900391 92.04162109 117.44300781 91.20824219 116.96289062 90.34960938 C113.76743965 84.9369067 111.51778281 82.48653499 105.4375 80.6875 C105.355 81.780625 105.2725 82.87375 105.1875 84 C104.4375 87.6875 104.4375 87.6875 102.75 89.6875 C99.5076741 91.08958688 97.76111065 90.81894192 94.4375 89.6875 C91.32804419 86.57804419 91.17620987 83.40516846 91 79.1875 C91.10512376 75.47312709 91.3365912 73.86769429 93.1875 70.5625 C96.52840909 67.77840909 96.52840909 67.77840909 99.4375 67.6875 C101.5625 68.25 101.5625 68.25 103.4375 69.6875 C104.6875 72.8125 104.6875 72.8125 105.4375 75.6875 C107.35807292 75.78515625 109.27864583 75.8828125 111.19921875 75.98046875 C117.2131341 77.88015231 119.63084335 83.68226577 122.34765625 88.88085938 C123.24562368 90.63621553 124.12312697 92.40218213 124.98046875 94.17773438 C126.3066762 96.66677589 127.44539469 98.68677832 129.4375 100.6875 C132.57571382 101.44613922 135.27934101 101.26492459 138.4375 100.6875 C138.30472656 99.6975 138.17195313 98.7075 138.03515625 97.6875 C137.14309299 91.02400664 136.25462495 84.36068713 135.4375 77.6875 C133.7875 77.3575 132.1375 77.0275 130.4375 76.6875 C130.4375 77.3475 130.4375 78.0075 130.4375 78.6875 C127.1875 79.4375 127.1875 79.4375 123.4375 79.6875 C120.49177395 77.51696501 119.59689059 76.16567177 118.4375 72.6875 C118.06755446 67.04583056 118.31962173 63.6041542 121.4375 58.6875 C124.26633747 57.27308126 126.31126745 57.36849668 129.4375 57.6875 C132.65578003 60.90578003 133.42327642 63.84830883 133.5 68.375 C133.479375 69.468125 133.45875 70.56125 133.4375 71.6875 C134.200625 71.89375 134.96375 72.1 135.75 72.3125 C139.3911287 74.17540306 139.87299635 75.92929015 141.4375 79.6875 C142.16954996 82.53915011 142.66332159 85.40619658 143.125 88.3125 C143.25455078 89.06273437 143.38410156 89.81296875 143.51757812 90.5859375 C144.0922804 94.01590662 144.4375 97.20051124 144.4375 100.6875 C145.30632812 100.53152344 146.17515625 100.37554687 147.0703125 100.21484375 C148.22273438 100.02019531 149.37515625 99.82554687 150.5625 99.625 C151.69945312 99.42777344 152.83640625 99.23054688 154.0078125 99.02734375 C159.00477681 98.53220036 162.2133272 98.71372618 166.1875 101.875 C170.43729963 107.18724954 170.88423782 112.30138834 170.7578125 118.9296875 C170.17455998 123.95134944 168.29529249 127.84237428 164.71875 131.39453125 C161.6015068 133.16132491 159.24290555 132.98166217 155.6875 132.875 C154.51703125 132.84792969 153.3465625 132.82085937 152.140625 132.79296875 C151.24859375 132.75816406 150.3565625 132.72335938 149.4375 132.6875 C150.11232422 133.95400391 150.11232422 133.95400391 150.80078125 135.24609375 C160.60987097 154.4698336 172.4375 181.92847217 172.4375 203.6875 C173.19675781 203.64109375 173.95601563 203.5946875 174.73828125 203.546875 C175.73214844 203.51078125 176.72601563 203.4746875 177.75 203.4375 C178.73613281 203.39109375 179.72226562 203.3446875 180.73828125 203.296875 C183.4375 203.6875 183.4375 203.6875 185.08129883 205.14941406 C187.1065712 208.93964477 186.86649 212.45250756 186.8359375 216.6875 C186.83880768 217.56019531 186.84167786 218.43289063 186.84463501 219.33203125 C186.84667367 221.17448578 186.84115764 223.01696205 186.82861328 224.859375 C186.81255654 227.67757621 186.82846838 230.49434333 186.84765625 233.3125 C186.84567378 235.10416983 186.84183003 236.89583876 186.8359375 238.6875 C186.84201019 239.52925781 186.84808289 240.37101563 186.8543396 241.23828125 C186.81349909 244.63982991 186.69103047 247.12252001 185.28759766 250.25 C183.4375 251.6875 183.4375 251.6875 177.4375 251.6875 C177.4375 256.3075 177.4375 260.9275 177.4375 265.6875 C178.4275 265.3575 179.4175 265.0275 180.4375 264.6875 C197.51362969 263.25244795 215.91554957 264.63770731 230.4375 274.6875 C232.49036337 277.62357202 232.524678 279.46491935 232.0625 282.9375 C231.98881796 285.95355135 232.09962412 287.25024886 233.96484375 289.6640625 C235.36666049 290.97170729 236.78300948 292.26388835 238.2109375 293.54296875 C248.18958159 303.15397858 253.42970635 317.90025561 253.73022461 331.52734375 C253.8624145 348.8915464 249.59096106 363.76771257 237.4375 376.81640625 C222.66936446 390.6326893 206.19116732 394.85434859 186.50883484 394.81448364 C184.72666627 394.81682363 184.72666627 394.81682363 182.90849429 394.81921089 C179.62476229 394.82250021 176.3410675 394.82132809 173.05733645 394.81822467 C169.50491749 394.81595511 165.95250343 394.8194593 162.40008545 394.82220459 C155.42298361 394.82665599 148.44589252 394.8256853 141.46879026 394.82279195 C135.74798445 394.82052048 130.02718163 394.82023296 124.3063755 394.82131577 C123.07768429 394.82154561 123.07768429 394.82154561 121.82417104 394.82178011 C120.15829986 394.82209994 118.49242868 394.82242416 116.82655749 394.8227527 C101.16593448 394.82560946 85.5053173 394.82232512 69.84469525 394.81695233 C56.62082568 394.81255331 43.39696508 394.81324536 30.1730957 394.81787109 C-45.74363318 394.84374129 -121.65261201 394.86479231 -197.5625 393.6875 C-197.5625 392.6975 -197.5625 391.7075 -197.5625 390.6875 C-162.4175 390.1925 -162.4175 390.1925 -126.5625 389.6875 C-130.5225 387.3775 -134.4825 385.0675 -138.5625 382.6875 C-148.74942522 375.26313077 -155.69473227 364.62121552 -159.5625 352.6875 C-159.5625 352.0275 -159.5625 351.3675 -159.5625 350.6875 C-164.5125 350.6875 -169.4625 350.6875 -174.5625 350.6875 C-175.343868 314.91820937 -175.343868 314.91820937 -170.5625 302.6875 C-169.96115234 301.1096875 -169.96115234 301.1096875 -169.34765625 299.5 C-164.49713496 288.4773661 -155.76808684 280.20226477 -146.5625 272.6875 C-142.70818418 269.41740134 -141.07990949 265.72380175 -139.25 261.125 C-135.48761104 252.10408538 -130.74856912 244.2752057 -124.5625 236.6875 C-124.91328613 236.13626465 -125.26407227 235.5850293 -125.62548828 235.01708984 C-126.12290527 234.23543457 -126.62032227 233.4537793 -127.1328125 232.6484375 C-127.69339355 231.76768555 -128.25397461 230.88693359 -128.83154297 229.97949219 C-130.07855094 228.01958017 -131.32496122 226.05928775 -132.57080078 224.09863281 C-135.90315798 218.85621499 -139.24553778 213.62072124 -142.609375 208.3984375 C-143.25116699 207.39893066 -143.89295898 206.39942383 -144.55419922 205.36962891 C-145.79700807 203.43468799 -147.04335713 201.50201578 -148.29345703 199.57177734 C-148.85403809 198.69730957 -149.41461914 197.8228418 -149.9921875 196.921875 C-150.48960449 196.15069336 -150.98702148 195.37951172 -151.49951172 194.58496094 C-152.5625 192.6875 -152.5625 192.6875 -152.5625 190.6875 C-153.13282959 190.69273682 -153.70315918 190.69797363 -154.29077148 190.70336914 C-156.86050323 190.72408221 -159.43021747 190.7371419 -162 190.75 C-162.89783203 190.75837891 -163.79566406 190.76675781 -164.72070312 190.77539062 C-165.57470703 190.77861328 -166.42871094 190.78183594 -167.30859375 190.78515625 C-168.09935303 190.79039307 -168.8901123 190.79562988 -169.70483398 190.80102539 C-171.5625 190.6875 -171.5625 190.6875 -172.5625 189.6875 C-172.5625 187.7075 -172.5625 185.7275 -172.5625 183.6875 C-177.1825 183.6875 -181.8025 183.6875 -186.5625 183.6875 C-186.5625 147.0575 -186.5625 110.4275 -186.5625 72.6875 C-162.8025 72.6875 -139.0425 72.6875 -114.5625 72.6875 C-116.19777734 67.18424678 -116.19777734 67.18424678 -119.44140625 63.60546875 C-123.75493154 58.83554127 -124.92396129 53.10318347 -126.5 47 C-126.81517578 45.87271484 -127.13035156 44.74542969 -127.45507812 43.58398438 C-129.89956456 34.51294309 -129.89956456 34.51294309 -128.5625 30.6875 C-126.9125 31.0175 -125.2625 31.3475 -123.5625 31.6875 C-123.2325 29.7075 -122.9025 27.7275 -122.5625 25.6875 C-120.9125 25.6875 -119.2625 25.6875 -117.5625 25.6875 C-116.5725 28.1625 -116.5725 28.1625 -115.5625 30.6875 C-115.2325 28.0475 -114.9025 25.4075 -114.5625 22.6875 C-112.6875 22.0625 -112.6875 22.0625 -110.5625 21.6875 C-108.4239515 23.8260485 -108.13594937 24.82025314 -107.5625 27.6875 C-106.9025 25.7075 -106.2425 23.7275 -105.5625 21.6875 C-103.9125 21.6875 -102.2625 21.6875 -100.5625 21.6875 C-99.5725 28.6175 -99.5725 28.6175 -98.5625 35.6875 C-97.5725 34.6975 -96.5825 33.7075 -95.5625 32.6875 C-93.375 33 -93.375 33 -91.5625 33.6875 C-90.43110186 37.05173 -90.71082369 39.11780813 -91.70703125 42.49609375 C-91.97193359 43.40810547 -92.23683594 44.32011719 -92.50976562 45.25976562 C-92.79529297 46.20529297 -93.08082031 47.15082031 -93.375 48.125 C-93.64892578 49.06666016 -93.92285156 50.00832031 -94.20507812 50.97851562 C-96.33888517 58.22936594 -96.33888517 58.22936594 -97.65893555 60.93383789 C-99.03016454 64.62971373 -99.03016454 64.62971373 -98.5625 72.6875 C-91.3025 72.6875 -84.0425 72.6875 -76.5625 72.6875 C-75.9025 71.0375 -75.2425 69.3875 -74.5625 67.6875 C-72.78130392 64.28726204 -70.82315144 60.99432533 -68.875 57.6875 C-68.37033203 56.79804687 -67.86566406 55.90859375 -67.34570312 54.9921875 C-63.87493057 49.11249696 -60.42696041 44.19776134 -53.5871582 42.07421875 C-47.61213179 40.93296205 -41.51549662 41.83707191 -35.5625 42.6875 C-34.9025 41.6975 -34.2425 40.7075 -33.5625 39.6875 C-34.34882813 39.32140625 -35.13515625 38.9553125 -35.9453125 38.578125 C-40.21266043 35.49544381 -40.22062367 31.64153757 -41.1171875 26.6640625 C-42.22781038 18.12113439 -42.54337793 8.37558916 -37.1484375 1.203125 C-27.7440478 -7.78432131 -10.18415985 -7.73796459 0 0 Z M-114.5625 32.6875 C-113.5625 34.6875 -113.5625 34.6875 -113.5625 34.6875 Z M-122.5625 33.6875 C-121.5625 36.6875 -121.5625 36.6875 -121.5625 36.6875 Z M7.4375 90.6875 C4.1375 107.5175 0.8375 124.3475 -2.5625 141.6875 C1.99747435 140.16750855 5.96877162 138.57682048 10.26171875 136.5 C10.88979935 136.19682861 11.51787994 135.89365723 12.16499329 135.58129883 C13.48266459 134.94428619 14.79948293 134.3055064 16.11547852 133.66503906 C18.12757126 132.6862492 20.14264284 131.71381354 22.15820312 130.7421875 C28.96557553 127.51708303 28.96557553 127.51708303 35.4375 123.6875 C35.03958252 123.17888428 34.64166504 122.67026855 34.23168945 122.14624023 C32.40295403 119.80699944 30.57646515 117.46601377 28.75 115.125 C27.81124023 113.92520508 27.81124023 113.92520508 26.85351562 112.70117188 C24.02458573 109.07243981 21.23717078 105.44173031 18.609375 101.6640625 C16.44266367 98.69457683 15.55714099 98.19700371 12.4375 96.6875 C11.05906808 94.71831154 9.71939588 92.72085209 8.4375 90.6875 C8.1075 90.6875 7.7775 90.6875 7.4375 90.6875 Z M-66.5625 115.6875 C-74.26503438 126.38164371 -75.62741152 134.64233387 -74.5625 147.6875 C-71.43015529 142.98898294 -70.38738765 137.65398232 -68.875 132.25 C-68.37516602 130.53200195 -68.37516602 130.53200195 -67.86523438 128.77929688 C-67.55521484 127.67779297 -67.24519531 126.57628906 -66.92578125 125.44140625 C-66.64001221 124.43408447 -66.35424316 123.4267627 -66.05981445 122.38891602 C-65.56542282 119.70337678 -65.65612438 118.2281499 -66.5625 115.6875 Z M84.4375 121.6875 C84.1075 122.3475 83.7775 123.0075 83.4375 123.6875 C83.73833496 124.43088623 84.03916992 125.17427246 84.34912109 125.94018555 C85.56127903 128.99994625 85.75061621 131.36377681 85.8515625 134.64453125 C85.89023437 135.75634766 85.92890625 136.86816406 85.96875 138.01367188 C85.9996875 139.16416016 86.030625 140.31464844 86.0625 141.5 C86.10117187 142.66982422 86.13984375 143.83964844 86.1796875 145.04492188 C86.2737513 147.92562564 86.35939877 150.80632654 86.4375 153.6875 C90.82376615 154.48900646 95.13722522 154.93748239 99.5859375 155.22265625 C100.24332916 155.26563339 100.90072083 155.30861053 101.57803345 155.35289001 C103.6560175 155.48809209 105.73424006 155.61911446 107.8125 155.75 C109.23048667 155.84151959 110.64845565 155.93331379 112.06640625 156.02539062 C115.52323867 156.24926831 118.98029762 156.46940101 122.4375 156.6875 C121.48501876 152.79021201 120.52449231 148.89495025 119.5625 145 C119.29308594 143.89720703 119.02367187 142.79441406 118.74609375 141.65820312 C118.34970703 140.0581543 118.34970703 140.0581543 117.9453125 138.42578125 C117.70441895 137.44649658 117.46352539 136.46721191 117.21533203 135.45825195 C115.45263175 129.17925461 113.97023731 127.26072618 108.4375 123.6875 C107.25 121.56640625 107.25 121.56640625 106.4375 119.6875 C99.01817632 119.39204021 91.64435159 119.76408985 84.4375 121.6875 Z M125.4375 181.6875 C125.09195068 182.21208801 124.74640137 182.73667603 124.39038086 183.27716064 C120.75625579 188.79408447 117.12166457 194.310701 113.48681641 199.82714844 C112.13481158 201.87915481 110.78292107 203.93123652 109.43115234 205.98339844 C108.11822276 207.97656722 106.80479831 209.96941012 105.49085999 211.96191406 C104.20963016 213.90779129 102.93147875 215.85569909 101.65647888 217.80566406 C99.08936403 221.72338729 96.52981935 225.62321382 93.73461914 229.3828125 C88.78743888 236.14818721 87.31780567 240.82318875 87.875 249.1875 C87.90851563 250.18273682 87.94203125 251.17797363 87.9765625 252.20336914 C88.08396379 255.03630967 88.24809393 257.8590011 88.4375 260.6875 C88.48148926 261.4182373 88.52547852 262.14897461 88.57080078 262.90185547 C88.77449899 266.17504657 89.04536997 269.4314203 89.4375 272.6875 C86.4675 272.6875 83.4975 272.6875 80.4375 272.6875 C80.09839006 274.72821515 79.76647296 276.77012621 79.4375 278.8125 C79.251875 279.94945312 79.06625 281.08640625 78.875 282.2578125 C78.730625 283.38960938 78.58625 284.52140625 78.4375 285.6875 C78.251875 286.71617187 78.06625 287.74484375 77.875 288.8046875 C78.14198517 291.68036196 78.14198517 291.68036196 79.89746094 293.04052734 C84.80793617 296.26325586 90.2034476 298.39926052 95.6875 300.4375 C96.47640625 300.74042969 97.2653125 301.04335938 98.078125 301.35546875 C104.22789255 303.69279594 109.026184 304.81167885 115.6875 304.75 C116.95078125 304.74097656 118.2140625 304.73195313 119.515625 304.72265625 C120.96195312 304.70525391 120.96195312 304.70525391 122.4375 304.6875 C124.86689421 294.8096078 126.82013797 284.96787853 128.125 274.875 C128.24399658 273.958396 128.36299316 273.04179199 128.4855957 272.09741211 C130.10563447 258.97941977 130.67321092 245.95360754 130.6875 232.75 C130.69000763 231.52115585 130.69000763 231.52115585 130.69256592 230.26748657 C130.69398378 218.57681344 130.23673004 207.00768883 129.0625 195.375 C128.87349121 193.46376343 128.87349121 193.46376343 128.68066406 191.51391602 C128.21703603 187.07451286 128.21703603 187.07451286 127.4375 182.6875 C126.7775 182.3575 126.1175 182.0275 125.4375 181.6875 Z M-84.5625 183.6875 C-84.8925 185.6675 -85.2225 187.6475 -85.5625 189.6875 C-93.4825 190.1825 -93.4825 190.1825 -101.5625 190.6875 C-98.72298803 195.70812962 -98.72298803 195.70812962 -95.84765625 200.70703125 C-94.35452864 203.28756591 -92.90951444 205.88679462 -91.49609375 208.51171875 C-90.83161102 209.69580781 -90.16628014 210.8794214 -89.5 212.0625 C-88.91089844 213.14273438 -88.32179688 214.22296875 -87.71484375 215.3359375 C-85.66809137 218.10043851 -85.66809137 218.10043851 -81.81640625 218.0390625 C-80.74261719 217.92304688 -79.66882813 217.80703125 -78.5625 217.6875 C-79.2225 216.841875 -79.8825 215.99625 -80.5625 215.125 C-82.85374237 211.18692718 -83.06018786 209.16669077 -82.5625 204.6875 C-81.9375 202.4375 -81.9375 202.4375 -80.5625 200.6875 C-79.61375 200.336875 -78.665 199.98625 -77.6875 199.625 C-72.87079207 196.63864108 -71.97591831 192.00029002 -70.5625 186.6875 C-70.5625 186.0275 -70.5625 185.3675 -70.5625 184.6875 C-73.32702033 183.30523984 -75.6086363 183.59224613 -78.6875 183.625 C-79.78320312 183.63402344 -80.87890625 183.64304688 -82.0078125 183.65234375 C-83.27238281 183.66974609 -83.27238281 183.66974609 -84.5625 183.6875 Z M-144.5625 190.6875 C-140.3515186 197.99256608 -136.04266351 205.20916787 -131.5 212.3125 C-127.42726215 218.71823319 -123.40129587 225.13797547 -119.5625 231.6875 C-116.22567367 231.05191403 -113.95499017 229.78916305 -111.125 227.9375 C-105.25847682 224.30709552 -99.04566934 221.98404588 -92.5625 219.6875 C-93.12839844 218.594375 -93.69429687 217.50125 -94.27734375 216.375 C-95.94874162 213.08300662 -97.2826808 209.77185407 -98.56640625 206.3125 C-101.21907233 200.09909187 -103.82811209 194.54913597 -109.5625 190.6875 C-120.46601032 187.40005327 -133.43472264 189.45409228 -144.5625 190.6875 Z M35.7734375 193.5625 C34.09121094 193.83320313 34.09121094 193.83320313 32.375 194.109375 C30.6115625 194.39554688 30.6115625 194.39554688 28.8125 194.6875 C27.62914062 194.87828125 26.44578125 195.0690625 25.2265625 195.265625 C22.29664738 195.73819195 19.36697456 196.21221092 16.4375 196.6875 C16.4375 197.0175 16.4375 197.3475 16.4375 197.6875 C17.31792969 197.73648438 18.19835937 197.78546875 19.10546875 197.8359375 C20.84763672 197.94808594 20.84763672 197.94808594 22.625 198.0625 C24.34783203 198.16691406 24.34783203 198.16691406 26.10546875 198.2734375 C29.26212454 198.66570657 31.59852072 199.28343959 34.4375 200.6875 C37.05029201 204.04680401 36.94195037 207.5798327 36.4375 211.6875 C31.4375 216.6875 31.4375 216.6875 5.4375 217.6875 C5.4375 246.3975 5.4375 275.1075 5.4375 304.6875 C10.3875 304.6875 15.3375 304.6875 20.4375 304.6875 C27.43616741 293.41186917 31.88508571 282.44124967 35.4375 269.6875 C36.23573155 266.87979003 37.03717556 264.07301142 37.83911133 261.26635742 C38.34757314 259.47655291 38.85039837 257.68513339 39.34643555 255.8918457 C40.42572192 252.02222764 41.56321081 248.32096668 43.1328125 244.62109375 C44.80656036 240.26783117 44.55410138 236.52028371 44.125 231.9375 C43.48121363 223.09422417 43.34180039 214.30348507 43.375 205.4375 C43.37910889 204.18098633 43.38321777 202.92447266 43.38745117 201.62988281 C43.40006083 198.64904315 43.41650397 195.66829064 43.4375 192.6875 C40.8182957 192.6875 38.36039928 193.14440517 35.7734375 193.5625 Z M-29.5625 336.6875 C-29.5625 341.3075 -29.5625 345.9275 -29.5625 350.6875 C-34.5125 350.6875 -39.4625 350.6875 -44.5625 350.6875 C-45.34625 352.729375 -46.13 354.77125 -46.9375 356.875 C-53.34055806 372.2965009 -64.3490545 382.79839261 -79.5625 389.6875 C-79.5625 390.0175 -79.5625 390.3475 -79.5625 390.6875 C3.2675 390.6875 86.0975 390.6875 171.4375 390.6875 C167.50515035 387.73823777 163.46744713 385.17921386 159.2890625 382.6015625 C147.62168824 374.77003731 141.09886705 363.68779504 136.4375 350.6875 C135.83421875 350.69910156 135.2309375 350.71070313 134.609375 350.72265625 C133.41054688 350.73619141 133.41054688 350.73619141 132.1875 350.75 C131.00414062 350.76740234 131.00414062 350.76740234 129.796875 350.78515625 C127.48318074 350.68939076 125.60919813 350.49413073 123.4375 349.6875 C121.47482412 345.34895333 121.12550052 341.50350367 120.4375 336.6875 C70.9375 336.6875 21.4375 336.6875 -29.5625 336.6875 Z " fill="#244FF7" transform="translate(229.5625,60.3125)"/>
<path d="M0 0 C2.73005848 3.01006448 3.54480632 4.74476957 4.4375 8.6875 C4.63214844 9.52410156 4.82679688 10.36070313 5.02734375 11.22265625 C6.5994006 18.3636988 6.5994006 18.3636988 5.4375 20.6875 C4.7775 20.6875 4.1175 20.6875 3.4375 20.6875 C3.40011719 21.244375 3.36273438 21.80125 3.32421875 22.375 C2.86065323 27.75599579 2.17132421 32.93987112 -0.5625 37.6875 C-3 39.4375 -3 39.4375 -5.5625 40.6875 C-6.93234198 41.98329647 -8.2776049 43.30742749 -9.5625 44.6875 C-8.95664063 44.4709375 -8.35078125 44.254375 -7.7265625 44.03125 C-0.60926913 41.66611867 6.25480784 40.03185102 13.4375 42.875 C16.8097481 44.91239989 18.73252056 46.9896566 21.1875 50.0625 C21.60725098 50.58271729 22.02700195 51.10293457 22.45947266 51.63891602 C23.80020283 53.31071835 25.12146226 54.9962046 26.4375 56.6875 C26.88770508 57.26516113 27.33791016 57.84282227 27.80175781 58.43798828 C29.95297586 61.20681409 32.08781417 63.98685429 34.2109375 66.77734375 C36.36587021 69.70824014 36.36587021 69.70824014 38.8515625 72.19140625 C39.37492188 73.01511719 39.89828125 73.83882813 40.4375 74.6875 C40.07527344 75.56792969 39.71304688 76.44835937 39.33984375 77.35546875 C38.25445383 81.36342375 38.78516925 82.05992692 40.69140625 85.61328125 C41.77283089 87.42184785 42.8766331 89.21718223 44 91 C44.53947266 91.91845703 45.07894531 92.83691406 45.63476562 93.78320312 C48.22298325 98.67299378 48.22298325 98.67299378 52.71870422 101.28106689 C55.37258186 101.67779538 57.95979231 101.90844463 60.63916016 102.04467773 C61.65015778 102.09820908 62.6611554 102.15174042 63.70278931 102.20689392 C64.78313446 102.26107986 65.86347961 102.31526581 66.9765625 102.37109375 C69.27085052 102.49512524 71.56512086 102.61948403 73.859375 102.74414062 C77.47150028 102.93652127 81.08371317 103.1260789 84.69628906 103.30981445 C88.18602944 103.48885454 91.675011 103.67915734 95.1640625 103.87109375 C96.24845612 103.92325546 97.33284973 103.97541718 98.45010376 104.02915955 C99.45479706 104.08584305 100.45949036 104.14252655 101.49462891 104.20092773 C102.8210289 104.26968361 102.8210289 104.26968361 104.17422485 104.33982849 C106.4375 104.6875 106.4375 104.6875 109.4375 106.6875 C108.7775 108.0075 108.1175 109.3275 107.4375 110.6875 C108.91863281 110.65269531 108.91863281 110.65269531 110.4296875 110.6171875 C112.35167969 110.59011719 112.35167969 110.59011719 114.3125 110.5625 C115.58867187 110.53929687 116.86484375 110.51609375 118.1796875 110.4921875 C121.4375 110.6875 121.4375 110.6875 123.4375 112.6875 C123.6875 115.1875 123.6875 115.1875 123.4375 117.6875 C120.87320321 120.25179679 119.82956242 119.96096494 116.265625 120.03125 C115.2147168 120.06009277 114.16380859 120.08893555 113.08105469 120.11865234 C111.96118164 120.14137207 110.84130859 120.1640918 109.6875 120.1875 C101.26267857 120.40441219 93.33878578 120.87273603 85.109375 122.7734375 C82.4375 122.6875 82.4375 122.6875 79.8125 120.37109375 C79.02875 119.48550781 78.245 118.59992188 77.4375 117.6875 C75.58414297 116.30655904 75.58414297 116.30655904 73.6875 115.375 C73.09453125 115.04886719 72.5015625 114.72273438 71.890625 114.38671875 C63.24982149 111.92381457 56.90577826 114.8437982 49.1875 118.75 C47.27182457 119.71166907 45.35011069 120.66142611 43.421875 121.59765625 C42.58366211 122.02183838 41.74544922 122.44602051 40.88183594 122.88305664 C37.89391596 123.86639627 36.388028 123.74783186 33.4375 122.6875 C31.73999023 121.09277344 31.73999023 121.09277344 30.24609375 119.046875 C29.41754883 117.93505859 29.41754883 117.93505859 28.57226562 116.80078125 C28.01216797 116.02089844 27.45207031 115.24101562 26.875 114.4375 C25.74897516 112.91125375 24.62267966 111.38520715 23.49609375 109.859375 C22.70887939 108.7755957 22.70887939 108.7755957 21.90576172 107.66992188 C20.66626975 105.996381 19.35777638 104.37427517 18.03515625 102.765625 C16.4375 100.6875 16.4375 100.6875 16.4375 98.6875 C15.86 98.64625 15.2825 98.605 14.6875 98.5625 C11.33001779 97.25681247 10.31379951 94.65962149 8.4375 91.6875 C8.32776352 92.28361084 8.21802704 92.87972168 8.10496521 93.49389648 C6.95158595 99.72994327 5.76116804 105.95811594 4.54956055 112.18310547 C4.10295611 114.50325026 3.66564249 116.82520441 3.23803711 119.14892578 C2.61960552 122.50037969 1.96739223 125.84377663 1.30859375 129.1875 C1.12598495 130.2180249 0.94337616 131.2485498 0.75523376 132.31030273 C-1.17370898 141.78131189 -6.12641068 147.09073939 -13.625 152.9375 C-17.32952781 155.87992467 -20.95648213 158.87375895 -24.51635742 161.98730469 C-51.38345345 185.43027427 -51.38345345 185.43027427 -63.625 186.125 C-70.53328278 185.35741302 -76.45547021 182.97590065 -82.5625 179.6875 C-82.00604414 173.96943632 -80.8504468 168.98434542 -79 163.5625 C-76.08358298 154.68692579 -73.59532773 145.71096267 -71.1875 136.6875 C-71.00669891 136.01571716 -70.82589783 135.34393433 -70.63961792 134.65179443 C-70.1225152 132.72737789 -69.61191213 130.80121845 -69.1015625 128.875 C-68.80459473 127.75480469 -68.50762695 126.63460937 -68.20166016 125.48046875 C-67.45096035 122.67762821 -67.45096035 122.67762821 -67.5625 119.6875 C-67.97242188 120.409375 -68.38234375 121.13125 -68.8046875 121.875 C-69.34351563 122.803125 -69.88234375 123.73125 -70.4375 124.6875 C-70.97117187 125.615625 -71.50484375 126.54375 -72.0546875 127.5 C-72.55226563 128.221875 -73.04984375 128.94375 -73.5625 129.6875 C-74.2225 129.6875 -74.8825 129.6875 -75.5625 129.6875 C-75.83344482 130.40752197 -76.10438965 131.12754395 -76.38354492 131.86938477 C-78.40922637 136.71147235 -81.20401404 141.11604367 -83.875 145.625 C-84.72868164 147.08969727 -84.72868164 147.08969727 -85.59960938 148.58398438 C-94.02820193 162.85743331 -94.02820193 162.85743331 -99.5625 164.6875 C-104.21820345 165.41548272 -107.70621687 165.11564156 -111.9375 163 C-115.1547019 160.16579833 -117.32015407 157.91872814 -117.79980469 153.50268555 C-117.85749175 150.95357515 -117.82412096 148.42362058 -117.75 145.875 C-117.72969727 144.54952148 -117.72969727 144.54952148 -117.70898438 143.19726562 C-117.67379217 141.02707977 -117.61998985 138.85720967 -117.5625 136.6875 C-118.29855469 136.9040625 -119.03460938 137.120625 -119.79296875 137.34375 C-121.25669922 137.76140625 -121.25669922 137.76140625 -122.75 138.1875 C-124.19439453 138.60515625 -124.19439453 138.60515625 -125.66796875 139.03125 C-128.41595876 139.65427608 -130.75848416 139.81052812 -133.5625 139.6875 C-133.68625 140.63625 -133.81 141.585 -133.9375 142.5625 C-134.5625 145.6875 -134.5625 145.6875 -136.5625 147.6875 C-138.7265625 147.6640625 -138.7265625 147.6640625 -141.1875 147.3125 C-142.00476563 147.20164063 -142.82203125 147.09078125 -143.6640625 146.9765625 C-144.29054688 146.88117188 -144.91703125 146.78578125 -145.5625 146.6875 C-146.5525 148.6675 -146.5525 148.6675 -147.5625 150.6875 C-149.2125 150.3575 -150.8625 150.0275 -152.5625 149.6875 C-152.8925 148.0375 -153.2225 146.3875 -153.5625 144.6875 C-156.8625 145.6775 -160.1625 146.6675 -163.5625 147.6875 C-161.33906585 141.66666147 -157.98648769 136.28362408 -154.74047852 130.7746582 C-153.62171949 128.86941329 -152.51891722 126.95547245 -151.41601562 125.04101562 C-150.70669551 123.83276551 -149.99644172 122.62506292 -149.28515625 121.41796875 C-148.64328369 120.31864014 -148.00141113 119.21931152 -147.34008789 118.08666992 C-146.75348389 117.29494385 -146.16687988 116.50321777 -145.5625 115.6875 C-144.5725 115.6875 -143.5825 115.6875 -142.5625 115.6875 C-142.0675 116.1825 -142.0675 116.1825 -141.5625 116.6875 C-139.56291636 116.72830783 -137.56204746 116.73004356 -135.5625 116.6875 C-134.82915571 112.70995872 -134.82915571 112.70995872 -134.5625 108.6875 C-136.5425 108.3575 -138.5225 108.0275 -140.5625 107.6875 C-138.2525 103.7275 -135.9425 99.7675 -133.5625 95.6875 C-127.15241429 96.12654697 -122.3066208 96.8154396 -116.5625 99.6875 C-115.41303029 93.38066468 -115.1911714 87.21032794 -115.0625 80.8125 C-115.00835937 79.66652344 -114.95421875 78.52054687 -114.8984375 77.33984375 C-114.67475217 71.11270877 -114.67475217 71.11270877 -117.015625 65.53320312 C-118.24822858 64.27294497 -119.49953581 63.03074651 -120.76757812 61.80615234 C-124.32463568 57.60754714 -125.2396497 52.17403642 -126.5625 46.9375 C-126.87316406 45.81472656 -127.18382812 44.69195312 -127.50390625 43.53515625 C-129.90117604 34.53733196 -129.90117604 34.53733196 -128.5625 30.6875 C-126.9125 31.0175 -125.2625 31.3475 -123.5625 31.6875 C-123.2325 29.7075 -122.9025 27.7275 -122.5625 25.6875 C-120.9125 25.6875 -119.2625 25.6875 -117.5625 25.6875 C-116.9025 27.3375 -116.2425 28.9875 -115.5625 30.6875 C-115.2325 28.0475 -114.9025 25.4075 -114.5625 22.6875 C-112.6875 22.0625 -112.6875 22.0625 -110.5625 21.6875 C-108.4239515 23.8260485 -108.13594937 24.82025314 -107.5625 27.6875 C-106.9025 25.7075 -106.2425 23.7275 -105.5625 21.6875 C-103.9125 21.6875 -102.2625 21.6875 -100.5625 21.6875 C-99.5725 28.6175 -99.5725 28.6175 -98.5625 35.6875 C-97.5725 34.6975 -96.5825 33.7075 -95.5625 32.6875 C-93.375 33 -93.375 33 -91.5625 33.6875 C-90.43110186 37.05173 -90.71082369 39.11780813 -91.70703125 42.49609375 C-91.97193359 43.40810547 -92.23683594 44.32011719 -92.50976562 45.25976562 C-92.79529297 46.20529297 -93.08082031 47.15082031 -93.375 48.125 C-93.64892578 49.06666016 -93.92285156 50.00832031 -94.20507812 50.97851562 C-96.33888517 58.22936594 -96.33888517 58.22936594 -97.65893555 60.93383789 C-99.03016454 64.62971373 -99.03016454 64.62971373 -98.5625 72.6875 C-91.3025 72.6875 -84.0425 72.6875 -76.5625 72.6875 C-75.9025 71.0375 -75.2425 69.3875 -74.5625 67.6875 C-72.78130392 64.28726204 -70.82315144 60.99432533 -68.875 57.6875 C-68.37033203 56.79804687 -67.86566406 55.90859375 -67.34570312 54.9921875 C-63.87493057 49.11249696 -60.42696041 44.19776134 -53.5871582 42.07421875 C-47.61213179 40.93296205 -41.51549662 41.83707191 -35.5625 42.6875 C-34.9025 41.6975 -34.2425 40.7075 -33.5625 39.6875 C-34.34882813 39.32140625 -35.13515625 38.9553125 -35.9453125 38.578125 C-40.21266043 35.49544381 -40.22062367 31.64153757 -41.1171875 26.6640625 C-42.22781038 18.12113439 -42.54337793 8.37558916 -37.1484375 1.203125 C-27.7440478 -7.78432131 -10.18415985 -7.73796459 0 0 Z M-114.5625 32.6875 C-113.5625 34.6875 -113.5625 34.6875 -113.5625 34.6875 Z M-122.5625 33.6875 C-121.5625 36.6875 -121.5625 36.6875 -121.5625 36.6875 Z " fill="#FBC300" transform="translate(229.5625,60.3125)"/>
<path d="M0 0 C5.84074939 3.18420917 9.70739914 7.68469742 11.8125 14 C11.89516486 15.91906917 11.91990663 17.84089474 11.91015625 19.76171875 C11.90693359 20.87998047 11.90371094 21.99824219 11.90039062 23.15039062 C11.89201172 24.31763672 11.88363281 25.48488281 11.875 26.6875 C11.87048828 27.86634766 11.86597656 29.04519531 11.86132812 30.25976562 C11.84953273 33.17322789 11.8330727 36.08658863 11.8125 39 C12.82449463 39.03758423 12.82449463 39.03758423 13.85693359 39.07592773 C16.96725193 39.1932631 20.07736696 39.31535527 23.1875 39.4375 C24.24839844 39.47681641 25.30929687 39.51613281 26.40234375 39.55664062 C44.74462174 40.28808116 44.74462174 40.28808116 48.8125 43 C49.76171875 45.90625 49.76171875 45.90625 50.5 49.5 C50.87705078 51.24796875 50.87705078 51.24796875 51.26171875 53.03125 C52.8189834 63.07626668 51.61440602 68.77461404 45.75 77.1796875 C45.12528809 78.11370392 44.50057617 79.04772034 43.85693359 80.01004028 C41.86336193 82.98002928 39.83891795 85.92735131 37.8125 88.875 C36.48095673 90.84622845 35.15150887 92.81887403 33.82421875 94.79296875 C33.17795532 95.75098389 32.53169189 96.70899902 31.86584473 97.69604492 C30.58609352 99.59319082 29.30800106 101.49145676 28.03161621 103.39086914 C25.48904782 107.1537558 22.96759786 110.884019 20.10742188 114.4140625 C13.43019396 122.99314504 13.86214535 130.84723238 14.3125 141.25 C14.35272595 142.88142187 14.38921052 144.51294047 14.421875 146.14453125 C14.5090523 150.09879095 14.64651567 154.04829622 14.8125 158 C11.8425 158 8.8725 158 5.8125 158 C5.4825 164.27 5.1525 170.54 4.8125 177 C13.23109821 181.42627328 21.26834602 185.00174441 30.31640625 187.8828125 C45.1346228 192.61801913 45.1346228 192.61801913 47.8125 197 C48.17978497 199.80123316 48.04646694 202.14560334 47.8125 205 C45.99011338 206.82238662 43.46493917 206.11997696 41.0400238 206.12442017 C40.21140335 206.12082489 39.3827829 206.11722961 38.52905273 206.11352539 C37.22673203 206.11374443 37.22673203 206.11374443 35.89810181 206.1139679 C33.01407414 206.11326846 30.1301102 206.10547463 27.24609375 206.09765625 C25.25212133 206.09579218 23.25814845 206.09436823 21.26417542 206.09336853 C16.00504298 206.08954248 10.74593797 206.07971145 5.48681641 206.06866455 C0.12467825 206.0584523 -5.23746431 206.05387131 -10.59960938 206.04882812 C-21.12891833 206.03808926 -31.65820689 206.0210118 -42.1875 206 C-40.16154994 200.75164259 -37.3723912 196.63886327 -34.1875 192 C-44.0875 191.505 -44.0875 191.505 -54.1875 191 C-52.66507292 186.43271876 -51.19653619 183.01656634 -48.9375 178.875 C-44.72370533 170.78367632 -42.3258118 162.26451317 -39.88720703 153.50732422 C-38.99479797 150.30947317 -38.07151783 147.12121992 -37.13916016 143.93481445 C-36.72960671 142.53485503 -36.3239685 141.13374069 -35.92333984 139.73120117 C-34.96330839 136.41545175 -33.87554628 133.25861593 -32.5234375 130.08984375 C-30.79411552 125.55278075 -31.06907925 121.58368129 -31.5 116.8125 C-31.62299042 115.05499668 -31.74132096 113.29716228 -31.85546875 111.5390625 C-31.94513916 110.18216309 -31.94513916 110.18216309 -32.03662109 108.79785156 C-32.29023685 104.09487977 -32.31375202 99.3963467 -32.3125 94.6875 C-32.31890503 93.39066284 -32.31890503 93.39066284 -32.32543945 92.06762695 C-32.31558069 87.2729814 -31.99142972 82.72787239 -31.1875 78 C-32.45924072 78.28649414 -33.73098145 78.57298828 -35.04125977 78.86816406 C-36.75650918 79.24618758 -38.47193036 79.62343239 -40.1875 80 C-40.97438202 80.17688354 -41.76126404 80.35376709 -42.57199097 80.53601074 C-63.51751624 85.06258477 -84.53902045 84.47504185 -105.84332275 84.2746582 C-110.74508633 84.23307509 -115.64693746 84.21533132 -120.54882812 84.1953125 C-130.09527558 84.15294723 -139.64134385 84.08506175 -149.1875 84 C-148.88027982 82.56322735 -148.56974074 81.12716412 -148.2578125 79.69140625 C-148.08523926 78.89162354 -147.91266602 78.09184082 -147.73486328 77.26782227 C-147.12136031 74.72597164 -146.26329077 72.38210813 -145.1875 70 C-144.50945312 70.04640625 -143.83140625 70.0928125 -143.1328125 70.140625 C-129.50161796 70.66925858 -121.27725878 64.27147409 -111.1875 56 C-110.2696875 55.26394531 -109.351875 54.52789062 -108.40625 53.76953125 C-102.69737516 49.16045436 -97.11627925 44.40553594 -91.57250977 39.60009766 C-90.44286844 38.62412263 -89.30746346 37.65479324 -88.16748047 36.69091797 C-86.71559592 35.45099783 -85.2851885 34.18581153 -83.86767578 32.90673828 C-76.24603646 26.26614439 -68.14146129 22.10525905 -59.0625 17.875 C-57.58278111 17.17228762 -56.10345372 16.46875027 -54.62451172 15.7644043 C-46.02606123 11.69084426 -37.38003889 7.77267798 -28.5078125 4.328125 C-25.31084606 3.04933842 -22.27073025 1.59151337 -19.1875 0.0625 C-12.20147275 -3.1091353 -7.02880486 -3.08428153 0 0 Z " fill="#68003C" transform="translate(304.1875,175)"/>
<path d="M0 0 C3.94056926 0.29740145 6.25997116 0.4474593 9.6875 -1.625 C10.8321875 -2.305625 10.8321875 -2.305625 12 -3 C20.45272777 -0.04769592 25.62259788 9.5018963 29.4375 17.0625 C29.76717773 17.71041504 30.09685547 18.35833008 30.43652344 19.02587891 C37.08361816 32.87225647 37.15043459 50.38734366 32.328125 64.8203125 C25.39989677 81.40730598 14.09247728 93.02385358 -2.50390625 100.0390625 C-12.25731916 103.79389752 -21.61564442 104.14787182 -31.92866516 104.12698364 C-33.71083373 104.12932363 -33.71083373 104.12932363 -35.52900571 104.13171089 C-38.81273771 104.13500021 -42.0964325 104.13382809 -45.38016355 104.13072467 C-48.93258251 104.12845511 -52.48499657 104.1319593 -56.03741455 104.13470459 C-63.01451639 104.13915599 -69.99160748 104.1381853 -76.96870974 104.13529195 C-82.68951555 104.13302048 -88.41031837 104.13273296 -94.1311245 104.13381577 C-95.35981571 104.13404561 -95.35981571 104.13404561 -96.61332896 104.13428011 C-98.27920014 104.13459994 -99.94507132 104.13492416 -101.61094251 104.1352527 C-117.27156552 104.13810946 -132.9321827 104.13482512 -148.59280475 104.12945233 C-161.81667432 104.12505331 -175.04053492 104.12574536 -188.2644043 104.13037109 C-264.18113318 104.15624129 -340.09011201 104.17729231 -416 103 C-416 102.01 -416 101.02 -416 100 C-380.855 99.505 -380.855 99.505 -345 99 C-348.96 96.69 -352.92 94.38 -357 92 C-367.18692522 84.57563077 -374.13223227 73.93371552 -378 62 C-378 61.34 -378 60.68 -378 60 C-373.83760235 59.82608899 -369.67716207 59.69954624 -365.51220703 59.61547852 C-364.09776962 59.5804165 -362.68358342 59.53274872 -361.27001953 59.47192383 C-349.47475005 58.97733712 -349.47475005 58.97733712 -345.87597656 61.47290039 C-344.4147428 63.24374534 -343.22488566 65.06226219 -342 67 C-333.66024452 73.26752965 -325.43111655 76.16058556 -315 75 C-309.17466766 73.3786019 -301.20293435 70.66156428 -297.95947266 65.27050781 C-296.50169631 62.92906479 -295.28820776 61.57086072 -293 60 C-287.85895104 59.11257515 -282.80942336 59.33941706 -277.625 59.5625 C-276.20710801 59.59764765 -274.78913247 59.62958066 -273.37109375 59.65820312 C-269.91231461 59.73498745 -266.45669155 59.85557441 -263 60 C-267.26367102 75.65266612 -276.12303074 87.52797085 -290 96 C-291.98 96.99 -293.96 97.98 -296 99 C-214.49 99 -132.98 99 -49 99 C-52.96 96.69 -56.92 94.38 -61 92 C-70.32959795 85.03761347 -79.46823709 73.65040053 -82 62 C-81.57621447 58.93614516 -80.77824766 57.66737149 -79 55 C-78.77499399 52.86101885 -78.64157231 50.71182911 -78.5625 48.5625 C-77.55239016 32.1818855 -71.80807771 17.2706488 -59.71875 5.84375 C-42.55477613 -8.71303797 -19.90443288 -9.95221644 0 0 Z " fill="#68003C" transform="translate(448,351)"/>
<path d="M0 0 C3.21828003 3.21828003 3.98577642 6.16080883 4.0625 10.6875 C4.041875 11.780625 4.02125 12.87375 4 14 C5.1446875 14.309375 5.1446875 14.309375 6.3125 14.625 C9.9536287 16.48790306 10.43549635 18.24179015 12 22 C12.73204996 24.85165011 13.22582159 27.71869658 13.6875 30.625 C13.81705078 31.37523437 13.94660156 32.12546875 14.08007812 32.8984375 C14.6547804 36.32840662 15 39.51301124 15 43 C15.86882812 42.84402344 16.73765625 42.68804687 17.6328125 42.52734375 C19.36144531 42.23537109 19.36144531 42.23537109 21.125 41.9375 C22.26195312 41.74027344 23.39890625 41.54304688 24.5703125 41.33984375 C29.56727681 40.84470036 32.7758272 41.02622618 36.75 44.1875 C40.99979963 49.49974954 41.44673782 54.61388834 41.3203125 61.2421875 C40.73705998 66.26384944 38.85779249 70.15487428 35.28125 73.70703125 C32.1640068 75.47382491 29.80540555 75.29416217 26.25 75.1875 C25.07953125 75.16042969 23.9090625 75.13335937 22.703125 75.10546875 C21.81109375 75.07066406 20.9190625 75.03585938 20 75 C20.44988281 75.84433594 20.89976562 76.68867188 21.36328125 77.55859375 C31.17237097 96.7823336 43 124.24097217 43 146 C43.75925781 145.95359375 44.51851563 145.9071875 45.30078125 145.859375 C46.29464844 145.82328125 47.28851563 145.7871875 48.3125 145.75 C49.29863281 145.70359375 50.28476562 145.6571875 51.30078125 145.609375 C54 146 54 146 55.64379883 147.46191406 C57.6690712 151.25214477 57.42899 154.76500756 57.3984375 159 C57.40130768 159.87269531 57.40417786 160.74539063 57.40713501 161.64453125 C57.40917367 163.48698578 57.40365764 165.32946205 57.39111328 167.171875 C57.37505654 169.99007621 57.39096838 172.80684333 57.41015625 175.625 C57.40817378 177.41666983 57.40433003 179.20833876 57.3984375 181 C57.40451019 181.84175781 57.41058289 182.68351563 57.4168396 183.55078125 C57.37599909 186.95232991 57.25353047 189.43502001 55.85009766 192.5625 C54 194 54 194 48 194 C48 198.62 48 203.24 48 208 C45.70967689 208.83719383 43.41789043 209.6698929 41.125 210.5 C40.47402344 210.73847656 39.82304687 210.97695313 39.15234375 211.22265625 C34.2265625 213 34.2265625 213 32 213 C32 213.66 32 214.32 32 215 C31.01 215.37125 30.02 215.7425 29 216.125 C24.45811918 218.0846018 20.7818363 220.84220428 17 224 C16.42378906 224.47953125 15.84757812 224.9590625 15.25390625 225.453125 C5.13211364 234.71000693 -0.47625275 247.33350771 -5 260 C-6.14879463 257.78446751 -7.06793659 255.76839798 -7.7734375 253.36328125 C-8.81201562 250.7582584 -8.81201562 250.7582584 -11.6015625 249.85546875 C-13.09816406 249.52482422 -13.09816406 249.52482422 -14.625 249.1875 C-15.62789063 248.95417969 -16.63078125 248.72085938 -17.6640625 248.48046875 C-18.43492187 248.32191406 -19.20578125 248.16335938 -20 248 C-20 247.67 -20 247.34 -20 247 C-15.71 247 -11.42 247 -7 247 C-5.60708995 238.00542392 -4.24486735 229.00741311 -2.9375 220 C-2.76412109 218.83210937 -2.59074219 217.66421875 -2.41210938 216.4609375 C-0.45014783 202.90009983 0.26949801 189.43767333 0.3125 175.75 C0.31642761 174.5402652 0.31642761 174.5402652 0.32043457 173.30609131 C0.32503281 159.8427795 -0.45622539 146.5231872 -1.75 133.125 C-1.82850189 132.27885132 -1.90700378 131.43270264 -1.98788452 130.56091309 C-3.04856509 119.37912342 -4.98941352 108.81482347 -8 98 C-8.6407862 95.60681399 -9.28141678 93.21358631 -9.921875 90.8203125 C-10.84650889 87.4247421 -11.77592149 84.03051882 -12.70703125 80.63671875 C-13.00480469 79.54230469 -13.30257813 78.44789063 -13.609375 77.3203125 C-13.87717773 76.34336426 -14.14498047 75.36641602 -14.42089844 74.35986328 C-15 72 -15 72 -15 70 C-15.763125 69.7525 -16.52625 69.505 -17.3125 69.25 C-20.26080945 67.87869328 -21.35834532 66.7648921 -23 64 C-23 63.34 -23 62.68 -23 62 C-21.39318359 61.90912109 -21.39318359 61.90912109 -19.75390625 61.81640625 C-18.35675609 61.73201463 -16.95962143 61.64736594 -15.5625 61.5625 C-14.85544922 61.52318359 -14.14839844 61.48386719 -13.41992188 61.44335938 C-9.91309581 61.52375562 -9.91309581 61.52375562 -7 60 C-6.83333333 57.5 -6.83333333 57.5 -7 55 C-8.94090826 53.05909174 -12.47293902 53.60080565 -15.0625 53.4375 C-16.35285156 53.35371094 -17.64320313 53.26992187 -18.97265625 53.18359375 C-20.47119141 53.09271484 -20.47119141 53.09271484 -22 53 C-21.43753289 49.73769075 -20.71012829 47.9673094 -18 46 C-15.08203125 45.26953125 -15.08203125 45.26953125 -11.8125 44.8125 C-10.72582031 44.65394531 -9.63914062 44.49539062 -8.51953125 44.33203125 C-7.68808594 44.22246094 -6.85664063 44.11289063 -6 44 C-7.65570145 41.04348666 -9.35470901 38.11418495 -11.0625 35.1875 C-11.52849609 34.35412109 -11.99449219 33.52074219 -12.47460938 32.66210938 C-15.67006035 27.2494067 -17.91971719 24.79903499 -24 23 C-24.0825 24.093125 -24.165 25.18625 -24.25 26.3125 C-25 30 -25 30 -26.6875 32 C-29.9298259 33.40208688 -31.67638935 33.13144192 -35 32 C-38.10945581 28.89054419 -38.26129013 25.71766846 -38.4375 21.5 C-38.33237624 17.78562709 -38.1009088 16.18019429 -36.25 12.875 C-32.90909091 10.09090909 -32.90909091 10.09090909 -30 10 C-27.875 10.5625 -27.875 10.5625 -26 12 C-24.75 15.125 -24.75 15.125 -24 18 C-22.07942708 18.09765625 -20.15885417 18.1953125 -18.23828125 18.29296875 C-12.2243659 20.19265231 -9.80665665 25.99476577 -7.08984375 31.19335938 C-6.19187632 32.94871553 -5.31437303 34.71468213 -4.45703125 36.49023438 C-3.1308238 38.97927589 -1.99210531 40.99927832 0 43 C3.13821382 43.75863922 5.84184101 43.57742459 9 43 C8.86722656 42.01 8.73445313 41.02 8.59765625 40 C7.70559299 33.33650664 6.81712495 26.67318713 6 20 C4.35 19.67 2.7 19.34 1 19 C1 19.66 1 20.32 1 21 C-2.25 21.75 -2.25 21.75 -6 22 C-8.94572605 19.82946501 -9.84060941 18.47817177 -11 15 C-11.36994554 9.35833056 -11.11787827 5.9166542 -8 1 C-5.17116253 -0.41441874 -3.12623255 -0.31900332 0 0 Z " fill="#2351F9" transform="translate(359,118)"/>
<path d="M0 0 C23.76 0 47.52 0 72 0 C72 21 72 21 71 28 C70.20335938 27.71125 69.40671875 27.4225 68.5859375 27.125 C67.52632813 26.75375 66.46671875 26.3825 65.375 26 C64.33085938 25.62875 63.28671875 25.2575 62.2109375 24.875 C58.85398344 23.9602096 56.44645678 23.4638845 53 24 C50.97894747 26.15993016 50.97894747 26.15993016 49.625 29 C49.12226562 29.928125 48.61953125 30.85625 48.1015625 31.8125 C47.73804688 32.534375 47.37453125 33.25625 47 34 C47.80566406 34.26941406 48.61132812 34.53882813 49.44140625 34.81640625 C50.28574219 35.20699219 51.13007812 35.59757812 52 36 C52.9375 38.9375 52.9375 38.9375 53 42 C52.34 42.99 51.68 43.98 51 45 C46.94554358 45.43132515 45.45029042 45.30019361 42 43 C39.59643042 47.09294432 37.19369906 51.18637905 34.79174805 55.28027344 C33.97427097 56.67331282 33.15656376 58.06621718 32.33862305 59.45898438 C31.16394698 61.45928176 29.99009554 63.460061 28.81640625 65.4609375 C28.44971329 66.08495453 28.08302032 66.70897156 27.70521545 67.35189819 C25.77837425 70.63520801 25.77837425 70.63520801 24 74 C28.455 73.01 28.455 73.01 33 72 C33.66 73.65 34.32 75.3 35 77 C36.32 77 37.64 77 39 77 C39.66 75.68 40.32 74.36 41 73 C43.97 73.33 46.94 73.66 50 74 C50.32613281 72.88496094 50.65226562 71.76992187 50.98828125 70.62109375 C51.97346815 68.32232431 52.47796311 67.25656968 54.74755859 66.14111328 C56.89604185 65.63591968 58.99489192 65.31335734 61.1875 65.0625 C61.93708984 64.95099609 62.68667969 64.83949219 63.45898438 64.72460938 C65.30204348 64.45460709 67.15071905 64.22344591 69 64 C69.02578125 65.30195313 69.0515625 66.60390625 69.078125 67.9453125 C69.13442701 69.67190756 69.19177387 71.39846876 69.25 73.125 C69.26417969 73.9809375 69.27835937 74.836875 69.29296875 75.71875 C69.50511388 81.23452337 70.2195306 84.69669973 74 89 C76.75971224 90.88707596 79.05865452 91.3168185 82.375 91.375 C83.10460937 91.40335937 83.83421875 91.43171875 84.5859375 91.4609375 C89.33124797 90.55487498 92.39560123 87.81846223 95.20996094 84.00732422 C95.89810586 82.86437182 96.57244328 81.7130182 97.234375 80.5546875 C97.59847473 79.94360138 97.96257446 79.33251526 98.33770752 78.70291138 C99.487824 76.76744379 100.61946246 74.82195646 101.75 72.875 C102.89836248 70.92321676 104.05044179 68.97370686 105.20513916 67.02566528 C106.24601097 65.2656917 107.27707243 63.49992711 108.30761719 61.73388672 C110 59 110 59 112 57 C112.97841701 72.52134944 111.34584831 85.23980486 105.75610352 99.77783203 C104.94409047 102.16431662 104.44478428 104.52109803 104 107 C104.94875 107.28875 105.8975 107.5775 106.875 107.875 C110 109 110 109 112 111 C108.7 111 105.4 111 102 111 C102.020625 111.969375 102.04125 112.93875 102.0625 113.9375 C102 117 102 117 101 118 C98.32749933 118.10045053 95.68081419 118.13616649 93.0078125 118.12939453 C91.7517923 118.13202301 91.7517923 118.13202301 90.47039795 118.13470459 C87.68857786 118.13912401 84.90682079 118.1361848 82.125 118.1328125 C80.20068347 118.13348551 78.27636702 118.13445552 76.35205078 118.13571167 C72.31346835 118.13718877 68.274908 118.13503371 64.23632812 118.13037109 C59.04731489 118.1246738 53.85835337 118.12795274 48.66934204 118.13394356 C44.6940878 118.13754886 40.71884591 118.13641073 36.74359131 118.13381577 C34.8297322 118.13314641 32.91587198 118.13397522 31.00201416 118.13629532 C28.3320415 118.13882133 25.6621538 118.13498198 22.9921875 118.12939453 C22.19319031 118.13141876 21.39419312 118.13344299 20.57098389 118.13552856 C15.1142625 118.1142625 15.1142625 118.1142625 14 117 C14 115.02 14 113.04 14 111 C9.38 111 4.76 111 0 111 C0 74.37 0 37.74 0 0 Z " fill="#2451F9" transform="translate(43,133)"/>
<path d="M0 0 C1.9375 0.125 1.9375 0.125 4 1 C5.25 3.5625 5.25 3.5625 6 6 C6.66 4.02 7.32 2.04 8 0 C9.65 0 11.3 0 13 0 C13.99 6.93 13.99 6.93 15 14 C15.99 13.01 16.98 12.02 18 11 C20.1875 11.3125 20.1875 11.3125 22 12 C23.13139814 15.36423 22.85167631 17.43030813 21.85546875 20.80859375 C21.59056641 21.72060547 21.32566406 22.63261719 21.05273438 23.57226562 C20.76720703 24.51779297 20.48167969 25.46332031 20.1875 26.4375 C19.91357422 27.37916016 19.63964844 28.32082031 19.35742188 29.29101562 C17.22361483 36.54186594 17.22361483 36.54186594 15.90356445 39.24633789 C14.53233546 42.94221373 14.53233546 42.94221373 15 51 C22.26 51 29.52 51 37 51 C35.68 53.31 34.36 55.62 33 58 C33.41838884 60.30033926 33.41838884 60.30033926 35 62 C35.44214844 62.55300781 35.88429688 63.10601562 36.33984375 63.67578125 C41.30397044 68.76128023 46.91048476 72.37712385 53 76 C52.21819003 88.31350699 46.10352209 97.58549507 40 108 C39.34 108 38.68 108 38 108 C37.72905518 108.72002197 37.45811035 109.44004395 37.17895508 110.18188477 C35.15327363 115.02397235 32.35848596 119.42854367 29.6875 123.9375 C29.11837891 124.91396484 28.54925781 125.89042969 27.96289062 126.89648438 C19.53429807 141.16993331 19.53429807 141.16993331 14 143 C9.34429655 143.72798272 5.85628313 143.42814156 1.625 141.3125 C-1.5922019 138.47829833 -3.75765407 136.23122814 -4.23730469 131.81518555 C-4.29499175 129.26607515 -4.26162096 126.73612058 -4.1875 124.1875 C-4.16719727 122.86202148 -4.16719727 122.86202148 -4.14648438 121.50976562 C-4.11129217 119.33957977 -4.05748985 117.16970967 -4 115 C-4.73605469 115.2165625 -5.47210938 115.433125 -6.23046875 115.65625 C-7.20628906 115.9346875 -8.18210938 116.213125 -9.1875 116.5 C-10.15042969 116.7784375 -11.11335938 117.056875 -12.10546875 117.34375 C-14.85345876 117.96677608 -17.19598416 118.12302812 -20 118 C-20.12375 118.94875 -20.2475 119.8975 -20.375 120.875 C-21 124 -21 124 -23 126 C-25.1640625 125.9765625 -25.1640625 125.9765625 -27.625 125.625 C-28.44226563 125.51414062 -29.25953125 125.40328125 -30.1015625 125.2890625 C-30.72804688 125.19367188 -31.35453125 125.09828125 -32 125 C-32.66 126.32 -33.32 127.64 -34 129 C-35.65 128.67 -37.3 128.34 -39 128 C-39.495 125.525 -39.495 125.525 -40 123 C-43.3 123.99 -46.6 124.98 -50 126 C-47.77656585 119.97916147 -44.42398769 114.59612408 -41.17797852 109.0871582 C-40.05921949 107.18191329 -38.95641722 105.26797245 -37.85351562 103.35351562 C-37.14419551 102.14526551 -36.43394172 100.93756292 -35.72265625 99.73046875 C-35.08078369 98.63114014 -34.43891113 97.53181152 -33.77758789 96.39916992 C-33.19098389 95.60744385 -32.60437988 94.81571777 -32 94 C-31.01 94 -30.02 94 -29 94 C-28.505 94.495 -28.505 94.495 -28 95 C-26.00041636 95.04080783 -23.99954746 95.04254356 -22 95 C-21.26665571 91.02245872 -21.26665571 91.02245872 -21 87 C-22.98 86.67 -24.96 86.34 -27 86 C-24.69 82.04 -22.38 78.08 -20 74 C-13.58991429 74.43904697 -8.7441208 75.1279396 -3 78 C-1.85053029 71.69316468 -1.6286714 65.52282794 -1.5 59.125 C-1.44585937 57.97902344 -1.39171875 56.83304688 -1.3359375 55.65234375 C-1.11225217 49.42520877 -1.11225217 49.42520877 -3.453125 43.84570312 C-4.68572858 42.58544497 -5.93703581 41.34324651 -7.20507812 40.11865234 C-10.76213568 35.92004714 -11.6771497 30.48653642 -13 25.25 C-13.31066406 24.12722656 -13.62132812 23.00445312 -13.94140625 21.84765625 C-16.33867604 12.84983196 -16.33867604 12.84983196 -15 9 C-12.525 9.495 -12.525 9.495 -10 10 C-9.67 8.02 -9.34 6.04 -9 4 C-7.35 4 -5.7 4 -4 4 C-3.34 5.65 -2.68 7.3 -2 9 C-1.855625 7.700625 -1.71125 6.40125 -1.5625 5.0625 C-1.125 1.125 -1.125 1.125 0 0 Z M-1 11 C0 13 0 13 0 13 Z M-9 12 C-8 15 -8 15 -8 15 Z " fill="#E57501" transform="translate(116,82)"/>
<path d="M0 0 C7.40426824 6.12086174 11.50689846 12.37119118 12.765625 21.953125 C13.35878343 31.06719025 11.66123042 38.59233613 6.26171875 46.1171875 C0.44366959 52.71337081 -7.33693064 57.49341372 -16.18359375 58.35546875 C-25.7846433 58.62138703 -33.40068352 55.88619257 -40.91796875 49.890625 C-47.64476459 43.33705137 -51.01945253 35.8822618 -51.23828125 26.5546875 C-51.23724357 17.48949301 -48.73636327 10.51436505 -42.546875 3.70703125 C-30.36965572 -7.64601075 -14.02322989 -9.64222084 0 0 Z " fill="#FDFBFB" transform="translate(442.73828125,368.8828125)"/>
<path d="M0 0 C2.14850879 0.06430911 4.29505468 0.20135164 6.4375 0.375 C8.19900391 0.51035156 8.19900391 0.51035156 9.99609375 0.6484375 C13 1 13 1 15 2 C15 1.34 15 0.68 15 0 C25.23 0 35.46 0 46 0 C45.67 6.27 45.34 12.54 45 19 C53.41859821 23.42627328 61.45584602 27.00174441 70.50390625 29.8828125 C85.3221228 34.61801913 85.3221228 34.61801913 88 39 C88.36728497 41.80123316 88.23396694 44.14560334 88 47 C86.17761338 48.82238662 83.65243917 48.11997696 81.2275238 48.12442017 C80.39890335 48.12082489 79.5702829 48.11722961 78.71655273 48.11352539 C77.41423203 48.11374443 77.41423203 48.11374443 76.08560181 48.1139679 C73.20157414 48.11326846 70.3176102 48.10547463 67.43359375 48.09765625 C65.43962133 48.09579218 63.44564845 48.09436823 61.45167542 48.09336853 C56.19254298 48.08954248 50.93343797 48.07971145 45.67431641 48.06866455 C40.31217825 48.0584523 34.95003569 48.05387131 29.58789062 48.04882812 C19.05858167 48.03808926 8.52929311 48.0210118 -2 48 C0.02595006 42.75164259 2.8151088 38.63886327 6 34 C-0.6 33.67 -7.2 33.34 -14 33 C-12.45437019 28.36311056 -10.87224297 24.64378031 -8.625 20.375 C-5.74672979 14.80461265 -3.55374467 9.24428138 -1.7265625 3.23046875 C-1 1 -1 1 0 0 Z " fill="#F1B605" transform="translate(264,333)"/>
<path d="M0 0 C3.21828003 3.21828003 3.98577642 6.16080883 4.0625 10.6875 C4.041875 11.780625 4.02125 12.87375 4 14 C5.1446875 14.309375 5.1446875 14.309375 6.3125 14.625 C9.9536287 16.48790306 10.43549635 18.24179015 12 22 C12.73204996 24.85165011 13.22582159 27.71869658 13.6875 30.625 C13.81705078 31.37523437 13.94660156 32.12546875 14.08007812 32.8984375 C14.6547804 36.32840662 15 39.51301124 15 43 C15.86882812 42.84402344 16.73765625 42.68804687 17.6328125 42.52734375 C19.36144531 42.23537109 19.36144531 42.23537109 21.125 41.9375 C22.26195312 41.74027344 23.39890625 41.54304688 24.5703125 41.33984375 C29.56727681 40.84470036 32.7758272 41.02622618 36.75 44.1875 C40.99979963 49.49974954 41.44673782 54.61388834 41.3203125 61.2421875 C40.73708613 66.2636243 38.79202226 69.98966031 35.4609375 73.7265625 C31.51829881 75.76672157 27.72324165 75.16746371 23.375 74.875 C22.42238281 74.81932861 21.46976562 74.76365723 20.48828125 74.70629883 C12.64469996 74.20215897 4.81750691 73.49719797 -3 72.6875 C-4.1029541 72.58228027 -5.2059082 72.47706055 -6.34228516 72.36865234 C-12.25971429 71.69977331 -16.56309246 71.12311309 -21 67 C-22.375 64.25 -22.375 64.25 -23 62 C-21.39318359 61.90912109 -21.39318359 61.90912109 -19.75390625 61.81640625 C-18.35675609 61.73201463 -16.95962143 61.64736594 -15.5625 61.5625 C-14.85544922 61.52318359 -14.14839844 61.48386719 -13.41992188 61.44335938 C-9.91309581 61.52375562 -9.91309581 61.52375562 -7 60 C-6.83333333 57.5 -6.83333333 57.5 -7 55 C-8.94090826 53.05909174 -12.47293902 53.60080565 -15.0625 53.4375 C-16.35285156 53.35371094 -17.64320313 53.26992187 -18.97265625 53.18359375 C-20.47119141 53.09271484 -20.47119141 53.09271484 -22 53 C-21.43753289 49.73769075 -20.71012829 47.9673094 -18 46 C-15.08203125 45.26953125 -15.08203125 45.26953125 -11.8125 44.8125 C-10.72582031 44.65394531 -9.63914062 44.49539062 -8.51953125 44.33203125 C-7.68808594 44.22246094 -6.85664063 44.11289063 -6 44 C-7.65570145 41.04348666 -9.35470901 38.11418495 -11.0625 35.1875 C-11.52849609 34.35412109 -11.99449219 33.52074219 -12.47460938 32.66210938 C-15.67006035 27.2494067 -17.91971719 24.79903499 -24 23 C-24.0825 24.093125 -24.165 25.18625 -24.25 26.3125 C-25 30 -25 30 -26.6875 32 C-29.9298259 33.40208688 -31.67638935 33.13144192 -35 32 C-38.10945581 28.89054419 -38.26129013 25.71766846 -38.4375 21.5 C-38.33237624 17.78562709 -38.1009088 16.18019429 -36.25 12.875 C-32.90909091 10.09090909 -32.90909091 10.09090909 -30 10 C-27.875 10.5625 -27.875 10.5625 -26 12 C-24.75 15.125 -24.75 15.125 -24 18 C-22.07942708 18.09765625 -20.15885417 18.1953125 -18.23828125 18.29296875 C-12.2243659 20.19265231 -9.80665665 25.99476577 -7.08984375 31.19335938 C-6.19187632 32.94871553 -5.31437303 34.71468213 -4.45703125 36.49023438 C-3.1308238 38.97927589 -1.99210531 40.99927832 0 43 C3.13821382 43.75863922 5.84184101 43.57742459 9 43 C8.86722656 42.01 8.73445313 41.02 8.59765625 40 C7.70559299 33.33650664 6.81712495 26.67318713 6 20 C4.35 19.67 2.7 19.34 1 19 C1 19.66 1 20.32 1 21 C-2.25 21.75 -2.25 21.75 -6 22 C-8.94572605 19.82946501 -9.84060941 18.47817177 -11 15 C-11.36994554 9.35833056 -11.11787827 5.9166542 -8 1 C-5.17116253 -0.41441874 -3.12623255 -0.31900332 0 0 Z " fill="#254FF5" transform="translate(359,118)"/>
<path d="M0 0 C1.47919922 0.06574219 1.47919922 0.06574219 2.98828125 0.1328125 C4.02339844 0.184375 5.05851562 0.2359375 6.125 0.2890625 C7.12917969 0.33289063 8.13335937 0.37671875 9.16796875 0.421875 C14.01321297 0.64752674 18.85325093 0.92936972 23.6875 1.328125 C24.86505859 1.42407959 24.86505859 1.42407959 26.06640625 1.52197266 C28.125 1.9140625 28.125 1.9140625 31.125 3.9140625 C32.07421875 6.8203125 32.07421875 6.8203125 32.8125 10.4140625 C33.18955078 12.16203125 33.18955078 12.16203125 33.57421875 13.9453125 C35.1314834 23.99032918 33.92690602 29.68867654 28.0625 38.09375 C27.43778809 39.02776642 26.81307617 39.96178284 26.16943359 40.92410278 C24.17586193 43.89409178 22.15141795 46.84141381 20.125 49.7890625 C18.79345673 51.76029095 17.46400887 53.73293653 16.13671875 55.70703125 C13.60447087 59.46633979 11.0608254 63.21739003 8.50390625 66.95996094 C4.66431236 72.58061958 0.88209779 78.23790397 -2.875 83.9140625 C-3.535 83.5840625 -4.195 83.2540625 -4.875 82.9140625 C-5.27793884 80.95808411 -5.27793884 80.95808411 -5.48022461 78.43676758 C-5.55361053 77.52851227 -5.62699646 76.62025696 -5.7026062 75.68447876 C-5.95429515 71.63976735 -6.1064287 67.60221402 -6.19140625 63.55078125 C-6.21223267 62.68784454 -6.23305908 61.82490784 -6.2545166 60.93582153 C-6.3198822 58.15781471 -6.3790808 55.37972342 -6.4375 52.6015625 C-6.46926834 51.18198746 -6.46926834 51.18198746 -6.50167847 49.73373413 C-6.86492579 33.45808813 -7.00549326 17.19359857 -6.875 0.9140625 C-4.35991453 -0.34348024 -2.80550219 -0.12858552 0 0 Z " fill="#68013D" transform="translate(321.875,214.0859375)"/>
<path d="M0 0 C2.73005848 3.01006448 3.54480632 4.74476957 4.4375 8.6875 C4.72947266 9.94240234 4.72947266 9.94240234 5.02734375 11.22265625 C6.5994006 18.3636988 6.5994006 18.3636988 5.4375 20.6875 C4.7775 20.6875 4.1175 20.6875 3.4375 20.6875 C3.40011719 21.244375 3.36273438 21.80125 3.32421875 22.375 C2.85831267 27.78316474 2.13430364 32.89697539 -0.5625 37.6875 C-2.625 39.375 -2.625 39.375 -5.5625 40.6875 C-6.31015625 41.09871094 -7.0578125 41.50992188 -7.828125 41.93359375 C-13.18017649 44.83125353 -17.48227466 46.3497097 -23.5625 46.6875 C-23.85125 47.47125 -24.14 48.255 -24.4375 49.0625 C-25.5625 51.6875 -25.5625 51.6875 -27.5625 53.6875 C-30.6875 53.8125 -30.6875 53.8125 -33.5625 53.6875 C-33.5625 52.3675 -33.5625 51.0475 -33.5625 49.6875 C-31.5825 49.0275 -29.6025 48.3675 -27.5625 47.6875 C-27.35279441 43.54656302 -27.35279441 43.54656302 -28.5625 39.6875 C-29.84125 39.584375 -31.12 39.48125 -32.4375 39.375 C-36.31073944 38.93926056 -36.31073944 38.93926056 -38.4375 36.8125 C-42.02153376 26.85685068 -43.20201723 15.24198036 -39.65625 5.09375 C-36.84712317 0.00695276 -32.98524832 -2.45847735 -27.5625 -4.3125 C-18.55155184 -6.51926282 -7.62313112 -5.79208492 0 0 Z " fill="#2E50E6" transform="translate(229.5625,60.3125)"/>
<path d="M0 0 C2.37742536 2.19235114 3.9364462 4.38451271 5.5234375 7.1953125 C5.9875 7.99324219 6.4515625 8.79117188 6.9296875 9.61328125 C7.89467773 11.29027778 8.85040777 12.97263639 9.796875 14.66015625 C10.26351563 15.45550781 10.73015625 16.25085938 11.2109375 17.0703125 C11.62649902 17.80008301 12.04206055 18.52985352 12.47021484 19.28173828 C14.90877388 22.02073899 17.98134098 21.91069367 21.51724243 22.22068787 C22.40310028 22.26572952 23.28895813 22.31077118 24.20166016 22.35717773 C25.71815659 22.43747475 25.71815659 22.43747475 27.26528931 22.51939392 C28.34563446 22.57357986 29.42597961 22.62776581 30.5390625 22.68359375 C32.83335052 22.80762524 35.12762086 22.93198403 37.421875 23.05664062 C41.03400028 23.24902127 44.64621317 23.4385789 48.25878906 23.62231445 C51.74852944 23.80135454 55.237511 23.99165734 58.7265625 24.18359375 C59.81095612 24.23575546 60.89534973 24.28791718 62.01260376 24.34165955 C63.51964371 24.4266848 63.51964371 24.4266848 65.05712891 24.51342773 C65.94139557 24.55926498 66.82566223 24.60510223 67.73672485 24.65232849 C70 25 70 25 73 27 C72.34 28.32 71.68 29.64 71 31 C71.98742187 30.97679687 72.97484375 30.95359375 73.9921875 30.9296875 C75.27351563 30.91164062 76.55484375 30.89359375 77.875 30.875 C79.15117187 30.85179687 80.42734375 30.82859375 81.7421875 30.8046875 C85 31 85 31 87 33 C87.25 35.5 87.25 35.5 87 38 C84.43570321 40.56429679 83.39206242 40.27346494 79.828125 40.34375 C78.7772168 40.37259277 77.72630859 40.40143555 76.64355469 40.43115234 C75.52368164 40.45387207 74.40380859 40.4765918 73.25 40.5 C64.82517857 40.71691219 56.90128578 41.18523603 48.671875 43.0859375 C46 43 46 43 43.375 40.68359375 C42.59125 39.79800781 41.8075 38.91242188 41 38 C39.14664297 36.61905904 39.14664297 36.61905904 37.25 35.6875 C36.65703125 35.36136719 36.0640625 35.03523438 35.453125 34.69921875 C26.81232149 32.23631457 20.46827826 35.1562982 12.75 39.0625 C10.83432457 40.02416907 8.91261069 40.97392611 6.984375 41.91015625 C6.14616211 42.33433838 5.30794922 42.75852051 4.44433594 43.19555664 C1.45861121 44.1781738 -0.05077571 44.05540701 -3 43 C-4.68164062 41.43701172 -4.68164062 41.43701172 -6.15625 39.4296875 C-6.70410156 38.6975 -7.25195312 37.9653125 -7.81640625 37.2109375 C-8.64978516 36.05464844 -8.64978516 36.05464844 -9.5 34.875 C-10.05558594 34.12734375 -10.61117187 33.3796875 -11.18359375 32.609375 C-14.51220069 28.11379763 -17.75909142 23.55903931 -21 19 C-18.82747982 16.78798642 -16.62720978 14.89777838 -14.125 13.0625 C-13.06732422 12.27552734 -13.06732422 12.27552734 -11.98828125 11.47265625 C-11.33214844 10.98667969 -10.67601562 10.50070313 -10 10 C-5.99648511 7.02064008 -3.08965208 3.88413404 0 0 Z " fill="#E57502" transform="translate(266,140)"/>
<path d="M0 0 C7.1215229 0.39564016 11.77245569 1.6049335 18 5 C17.85941968 9.12519624 17.71156588 13.25010236 17.5625 17.375 C17.52318359 18.53128906 17.48386719 19.68757813 17.44335938 20.87890625 C17.19577173 27.62090815 16.78053875 34.29790162 16 41 C14.27318563 41.50806447 12.54342021 42.00610467 10.8125 42.5 C9.84957031 42.7784375 8.88664062 43.056875 7.89453125 43.34375 C5.14654124 43.96677608 2.80401584 44.12302812 0 44 C-0.12375 44.94875 -0.2475 45.8975 -0.375 46.875 C-1 50 -1 50 -3 52 C-5.1640625 51.9765625 -5.1640625 51.9765625 -7.625 51.625 C-8.44226563 51.51414063 -9.25953125 51.40328125 -10.1015625 51.2890625 C-10.72804688 51.19367188 -11.35453125 51.09828125 -12 51 C-12.66 52.32 -13.32 53.64 -14 55 C-15.65 54.67 -17.3 54.34 -19 54 C-19.33 52.35 -19.66 50.7 -20 49 C-23.3 49.99 -26.6 50.98 -30 52 C-27.77656585 45.97916147 -24.42398769 40.59612408 -21.17797852 35.0871582 C-20.05921949 33.18191329 -18.95641722 31.26797245 -17.85351562 29.35351562 C-17.14419551 28.14526551 -16.43394172 26.93756292 -15.72265625 25.73046875 C-15.08078369 24.63114014 -14.43891113 23.53181152 -13.77758789 22.39916992 C-13.19098389 21.60744385 -12.60437988 20.81571777 -12 20 C-11.01 20 -10.02 20 -9 20 C-8.67 20.33 -8.34 20.66 -8 21 C-6.00041636 21.04080783 -3.99954746 21.04254356 -2 21 C-1.26665571 17.02245872 -1.26665571 17.02245872 -1 13 C-3.97 12.505 -3.97 12.505 -7 12 C-4.69 8.04 -2.38 4.08 0 0 Z " fill="#F9C204" transform="translate(96,156)"/>
<path d="M0 0 C0.91072266 -0.01998047 1.82144531 -0.03996094 2.75976562 -0.06054688 C4.07170898 -0.05958008 4.07170898 -0.05958008 5.41015625 -0.05859375 C6.20687744 -0.06044678 7.00359863 -0.0622998 7.82446289 -0.06420898 C9.9375 0.4375 9.9375 0.4375 11.69555664 1.90600586 C13.56053337 5.70744948 13.36610201 9.25628804 13.3359375 13.4375 C13.33880768 14.31019531 13.34167786 15.18289063 13.34463501 16.08203125 C13.34667367 17.92448578 13.34115764 19.76696205 13.32861328 21.609375 C13.31255654 24.42757621 13.32846838 27.24434333 13.34765625 30.0625 C13.34567378 31.85416983 13.34183003 33.64583876 13.3359375 35.4375 C13.34504654 36.70013672 13.34504654 36.70013672 13.3543396 37.98828125 C13.31294719 41.43579752 13.22858339 43.84417513 11.69555664 46.96899414 C9.46713298 48.83039788 8.29440327 48.94030198 5.41015625 48.93359375 C4.53552734 48.93423828 3.66089844 48.93488281 2.75976562 48.93554688 C1.84904297 48.91556641 0.93832031 48.89558594 0 48.875 C-0.90685547 48.88208984 -1.81371094 48.88917969 -2.74804688 48.89648438 C-9.10724212 48.83565322 -9.10724212 48.83565322 -12.32055664 47.49633789 C-15.19204276 44.10247069 -14.63272256 40.36460548 -14.59375 36.0625 C-14.5975769 35.14162598 -14.60140381 34.22075195 -14.60534668 33.27197266 C-14.60806842 31.32518419 -14.60068889 29.37835932 -14.58398438 27.43164062 C-14.56257815 24.44839095 -14.5837768 21.46754959 -14.609375 18.484375 C-14.60673177 16.59374467 -14.60160689 14.70311585 -14.59375 12.8125 C-14.60184692 11.91869629 -14.60994385 11.02489258 -14.61828613 10.10400391 C-14.52543382 3.98465079 -14.52543382 3.98465079 -12.32055664 1.37866211 C-8.27420629 -0.30786407 -4.32614735 -0.03382205 0 0 Z " fill="#FCC401" transform="translate(403.0625,263.5625)"/>
<path d="M0 0 C23.76 0 47.52 0 72 0 C72 6.93 72 13.86 72 21 C71.67 21 71.34 21 71 21 C71 18.69 71 16.38 71 14 C47.57 14 24.14 14 0 14 C0 9.38 0 4.76 0 0 Z " fill="#294BEB" transform="translate(43,133)"/>
<path d="M0 0 C4.138635 4.56311039 4.72464987 8.65735269 4.4375 14.6875 C3.87804687 14.4709375 3.31859375 14.254375 2.7421875 14.03125 C-7.34703793 10.52759615 -17.81624084 10.0092956 -27.5625 14.6875 C-27.59988281 15.55632812 -27.63726562 16.42515625 -27.67578125 17.3203125 C-28.4308274 30.5558274 -28.4308274 30.5558274 -33.5625 35.6875 C-36.1875 35.8125 -36.1875 35.8125 -38.5625 35.6875 C-42.06660272 26.20918936 -42.82532986 15.35118188 -39.5625 5.6875 C-36.83955837 0.03215969 -33.26513121 -2.19754357 -27.5625 -4.3125 C-18.55155184 -6.51926282 -7.62313112 -5.79208492 0 0 Z " fill="#FBC402" transform="translate(229.5625,60.3125)"/>
<path d="M0 0 C2.12534659 0.14069196 4.25027529 0.28770921 6.375 0.4375 C8.15003906 0.55931641 8.15003906 0.55931641 9.9609375 0.68359375 C13 1 13 1 15 2 C15 1.34 15 0.68 15 0 C25.23 0 35.46 0 46 0 C45.34 6.27 44.68 12.54 44 19 C34.21766562 23.19242902 34.21766562 23.19242902 28 22 C25.70150192 20.8664941 23.69991573 19.59993871 21.62890625 18.09375 C20.05027168 16.81418207 20.05027168 16.81418207 18 17 C16.3553326 19.46326712 16.3553326 19.46326712 15 22 C14.67 21.01 14.34 20.02 14 19 C13.236875 18.87625 12.47375 18.7525 11.6875 18.625 C9 18 9 18 6 16 C3.26127045 15.54227937 3.26127045 15.54227937 0.3125 15.375 C-0.68136719 15.30023438 -1.67523438 15.22546875 -2.69921875 15.1484375 C-3.45847656 15.09945313 -4.21773438 15.05046875 -5 15 C-4.54705135 13.24859857 -4.08741252 11.49892656 -3.625 9.75 C-3.36976563 8.77546875 -3.11453125 7.8009375 -2.8515625 6.796875 C-2.10401491 4.34162697 -1.22876183 2.24382595 0 0 Z " fill="#E77600" transform="translate(264,333)"/>
<path d="M0 0 C29.04 0 58.08 0 88 0 C88 2.31 88 4.62 88 7 C86.21391943 8.78608057 83.80736465 8.12625961 81.42901611 8.13552856 C80.63001892 8.13350433 79.83102173 8.1314801 79.0078125 8.12939453 C78.1704657 8.13114685 77.3331189 8.13289917 76.47039795 8.13470459 C73.68857786 8.13912401 70.90682079 8.1361848 68.125 8.1328125 C66.20068347 8.13348551 64.27636702 8.13445552 62.35205078 8.13571167 C58.31346835 8.13718877 54.274908 8.13503371 50.23632812 8.13037109 C45.04731489 8.1246738 39.85835337 8.12795274 34.66934204 8.13394356 C30.6940878 8.13754886 26.71884591 8.13641073 22.74359131 8.13381577 C20.8297322 8.13314641 18.91587198 8.13397522 17.00201416 8.13629532 C14.3320415 8.13882133 11.6621538 8.13498198 8.9921875 8.12939453 C8.19319031 8.13141876 7.39419312 8.13344299 6.57098389 8.13552856 C1.1142625 8.1142625 1.1142625 8.1142625 0 7 C0 4.69 0 2.38 0 0 Z " fill="#F5BE09" transform="translate(57,243)"/>
<path d="M0 0 C0.98072589 3.48427979 0.86226785 5.66886816 0.07421875 9.2265625 C-0.14468018 10.25080322 -0.3635791 11.27504395 -0.58911133 12.33032227 C-0.82782959 13.41756592 -1.06654785 14.50480957 -1.3125 15.625 C-3.51490683 26.06124152 -5.09105713 36.37757805 -6 47 C-14.64655688 48.68160623 -23.30642616 50.26707126 -32 51.6875 C-33.16366089 51.88436401 -33.16366089 51.88436401 -34.35083008 52.08520508 C-39.29701418 52.87691313 -43.99065248 53.11954125 -49 53 C-47.59573357 49.56930787 -46.1763851 48.16945463 -42.99682617 46.30883789 C-42.17224411 45.81634048 -41.34766205 45.32384308 -40.49809265 44.81642151 C-39.15905632 44.02750771 -39.15905632 44.02750771 -37.79296875 43.22265625 C-35.9061333 42.05868715 -34.02143364 40.89125011 -32.13867188 39.72070312 C-29.18041872 37.88951977 -26.2173045 36.07987801 -23.21166992 34.32739258 C-9.15991878 26.25991952 -9.15991878 26.25991952 -1.76765442 12.45835876 C-0.92307393 8.32050445 -0.30620671 4.21233095 0 0 Z " fill="#7D2458" transform="translate(280,206)"/>
<path d="M0 0 C3.28133541 2.11463838 4.93976587 3.35514469 6.8125 6.8125 C7.60698427 12.12257343 7.45985479 16.41819737 5.1875 21.3125 C1.37015129 25.3307618 -1.63792313 26.61572833 -7.125 27.3125 C-11.7280018 27.13580127 -15.01462521 25.07112816 -18.1875 21.8125 C-21.12403365 17.19654409 -20.93628825 12.09222125 -20.1875 6.8125 C-18.53087966 3.34181194 -16.14254601 1.36542137 -12.8125 -0.5625 C-8.15130973 -1.67230721 -4.51165755 -1.6808136 0 0 Z " fill="#FDC503" transform="translate(430.1875,382.1875)"/>
<path d="M0 0 C17.82 0 35.64 0 54 0 C48.5254662 8.2118007 41.89256372 14.02148726 32 16 C22.55831042 17.08703663 14.65467261 14.76321418 6.7578125 9.5078125 C2.89574694 6.41495502 1.95711372 4.8927843 0 0 Z " fill="#FCFAFB" transform="translate(101,411)"/>
<path d="M0 0 C3.86016247 0.17546193 5.69845079 0.76013131 8.75 3.1875 C12.99979963 8.49974954 13.44673782 13.61388834 13.3203125 20.2421875 C12.71883727 25.42074255 10.58758081 29.19344253 7.1875 33.0625 C3.71613452 34.55022806 1.58012155 34.06775555 -2 33 C-7.01473062 28.20814629 -8.77139361 23.88044046 -9.3125 17.0625 C-9.13937118 11.39253115 -7.19210803 7.30564213 -3.375 3.125 C-2.59125 2.42375 -1.8075 1.7225 -1 1 C-0.67 0.67 -0.34 0.34 0 0 Z " fill="#F9C304" transform="translate(387,159)"/>
<path d="M0 0 C3 1 3 1 4 3 C4.1875 6 4.1875 6 4 9 C2 11 2 11 -0.625 11.125 C-1.40875 11.08375 -2.1925 11.0425 -3 11 C-3 12.32 -3 13.64 -3 15 C0.4306283 14.44967902 0.4306283 14.44967902 4 13 C4.4125 12.01 4.825 11.02 5.25 10 C7 7 7 7 9.515625 6.19921875 C12.33869288 5.71515868 15.15852075 5.35518491 18 5 C18.99 4.67 19.98 4.34 21 4 C24.48135209 10.96270419 20.78014206 20.97166712 19 28 C18.67 28.66 18.34 29.32 18 30 C13.7257442 28.4169423 11.73468206 25.49431596 9 22 C8.31292969 22.44472656 7.62585938 22.88945313 6.91796875 23.34765625 C5.56638672 24.19650391 5.56638672 24.19650391 4.1875 25.0625 C3.29417969 25.63097656 2.40085938 26.19945313 1.48046875 26.78515625 C-1 28 -1 28 -4 27 C-4.73288962 22.34091597 -5.39579774 17.67753247 -6 13 C-6.1134375 12.16339844 -6.226875 11.32679687 -6.34375 10.46484375 C-6.55805711 7.68420897 -6.48466883 5.63603228 -4.76171875 3.375 C-3.1875 1.9375 -3.1875 1.9375 0 0 Z " fill="#E0A00C" transform="translate(199,99)"/>
<path d="M0 0 C7.26 0 14.52 0 22 0 C20.68 2.31 19.36 4.62 18 7 C18.27262261 9.00917596 18.60382569 11.01149377 19 13 C17.9519043 15.8684082 17.9519043 15.8684082 16.32421875 18.80078125 C15.74349609 19.85974609 15.16277344 20.91871094 14.56445312 22.00976562 C13.94505859 23.09966797 13.32566406 24.18957031 12.6875 25.3125 C12.07970703 26.42173828 11.47191406 27.53097656 10.84570312 28.67382812 C6.30622748 36.84688626 6.30622748 36.84688626 4 38 C3.42647052 33.39231599 2.85692811 28.78416285 2.29101562 24.17553711 C2.09809114 22.60899674 1.90409292 21.04258821 1.70898438 19.47631836 C1.42813765 17.22023077 1.15120235 14.96369155 0.875 12.70703125 C0.78750488 12.01100296 0.70000977 11.31497467 0.60986328 10.59785461 C0.1742222 7.00587005 0 3.63689393 0 0 Z " fill="#2650F5" transform="translate(131,133)"/>
<path d="M0 0 C0.57105469 0.31839844 1.14210937 0.63679688 1.73046875 0.96484375 C4.05879974 2.02681916 5.77811384 2.35092602 8.3125 2.5625 C12.23404026 2.92608651 16.10480154 3.41986406 20 4 C19.49177888 12.00448258 18.2248831 18.85011418 12.3125 24.625 C6.99397363 26.83269019 2.34480071 25.78160024 -3 24 C-4.375 21.375 -4.375 21.375 -5 18 C-3.75 14.8125 -3.75 14.8125 -2.87109375 13.078125 C-1.13722735 8.94172623 -0.67809223 4.41158825 0 0 Z " fill="#DA7611" transform="translate(207,77)"/>
<path d="M0 0 C1.00730415 -0.00262848 1.00730415 -0.00262848 2.03495789 -0.00531006 C4.26486765 -0.00972777 6.49469874 -0.00679089 8.72460938 -0.00341797 C10.26778173 -0.00409103 11.81095398 -0.00506108 13.35412598 -0.00631714 C16.59237678 -0.007794 19.83060005 -0.00563993 23.06884766 -0.00097656 C27.2287846 0.00472073 31.38865704 0.00144166 35.54859161 -0.00454903 C38.73635345 -0.00815496 41.92409989 -0.00701591 45.11186218 -0.00442123 C46.6461335 -0.00375205 48.1804062 -0.00458008 49.7146759 -0.00690079 C51.85539478 -0.00942784 53.9960078 -0.00558601 56.13671875 0 C57.96752991 0.00119339 57.96752991 0.00119339 59.83532715 0.00241089 C62.56835938 0.12939453 62.56835938 0.12939453 63.56835938 1.12939453 C63.56835938 2.77939453 63.56835938 4.42939453 63.56835938 6.12939453 C40.13835937 6.12939453 16.70835938 6.12939453 -7.43164062 6.12939453 C-7.43164062 -1.06046905 -6.5363956 0.00426066 0 0 Z " fill="#640345" transform="translate(99.431640625,385.87060546875)"/>
<path d="M0 0 C1.24132187 0.00222061 2.48264374 0.00444122 3.76158142 0.00672913 C4.44447739 0.0065831 5.12737335 0.00643707 5.83096313 0.00628662 C8.09815092 0.00698575 10.36525752 0.01477811 12.63243103 0.02259827 C14.20041865 0.02446245 15.76840685 0.02588635 17.33639526 0.02688599 C21.47103981 0.03071117 25.60564944 0.04054146 29.74028015 0.05158997 C33.95627876 0.06180407 38.172283 0.0663836 42.38829041 0.07142639 C50.66630125 0.08216373 58.94428368 0.09924015 67.22227478 0.12025452 C67.26499578 1.78637357 67.2629131 3.45408337 67.22227478 5.12025452 C66.22227478 6.12025452 66.22227478 6.12025452 63.48251343 6.24050903 C62.25895645 6.23828842 61.03539948 6.23606781 59.77476501 6.23377991 C58.76505142 6.23399895 58.76505142 6.23399895 57.73493958 6.23422241 C55.50021694 6.2335233 53.26557668 6.22573104 51.03086853 6.21791077 C49.48530116 6.21604658 47.93973321 6.21462268 46.39416504 6.21362305 C42.31870401 6.20979792 38.24327841 6.19996769 34.16783142 6.18891907 C30.01215596 6.17870484 25.85647479 6.1741254 21.70079041 6.16908264 C13.54126891 6.15834541 5.38177625 6.14126905 -2.77772522 6.12025452 C-3.15991289 4.46410794 -3.49167624 2.79568427 -3.77772522 1.12025452 C-2.77772522 0.12025452 -2.77772522 0.12025452 0 0 Z " fill="#660240" transform="translate(95.77772521972656,370.87974548339844)"/>
<path d="M0 0 C1.22355698 0.00222061 2.44711395 0.00444122 3.70774841 0.00672913 C4.71746201 0.00651009 4.71746201 0.00651009 5.74757385 0.00628662 C7.98229649 0.00698573 10.21693674 0.01477799 12.4516449 0.02259827 C13.99721226 0.02446245 15.54278022 0.02588635 17.08834839 0.02688599 C21.16380941 0.03071112 25.23923502 0.04054135 29.31468201 0.05158997 C33.47035747 0.0618042 37.62603864 0.06638363 41.78172302 0.07142639 C49.94124452 0.08216363 58.10073718 0.09923998 66.26023865 0.12025452 C66.64242632 1.77640109 66.97418966 3.44482476 67.26023865 5.12025452 C66.26023865 6.12025452 66.26023865 6.12025452 63.52047729 6.24050903 C62.29692032 6.23828842 61.07336334 6.23606781 59.81272888 6.23377991 C58.80301529 6.23399895 58.80301529 6.23399895 57.77290344 6.23422241 C55.5381808 6.2335233 53.30354055 6.22573104 51.0688324 6.21791077 C49.52326503 6.21604658 47.97769707 6.21462268 46.43212891 6.21362305 C42.35666788 6.20979792 38.28124228 6.19996769 34.20579529 6.18891907 C30.05011983 6.17870484 25.89443866 6.1741254 21.73875427 6.16908264 C13.57923278 6.15834541 5.41974011 6.14126905 -2.73976135 6.12025452 C-3.12194902 4.46410794 -3.45371237 2.79568427 -3.73976135 1.12025452 C-2.73976135 0.12025452 -2.73976135 0.12025452 0 0 Z " fill="#67003C" transform="translate(95.73976135253906,354.87974548339844)"/>
<path d="M0 0 C0.85126465 0.00410889 1.7025293 0.00821777 2.57958984 0.01245117 C3.5301123 0.01365967 4.48063477 0.01486816 5.45996094 0.01611328 C6.47654785 0.02908447 7.49313477 0.04205566 8.54052734 0.05541992 C9.57129395 0.06259033 10.60206055 0.06976074 11.6640625 0.07714844 C36.00508123 0.33247381 36.00508123 0.33247381 37.91552734 2.24291992 C38.10302734 4.68041992 38.10302734 4.68041992 37.91552734 7.24291992 C35.28721224 9.87123503 33.37344439 9.5023936 29.79406738 9.54646301 C28.53934631 9.5450959 28.53934631 9.5450959 27.25927734 9.54370117 C25.97216858 9.55012886 25.97216858 9.55012886 24.65905762 9.5566864 C22.84335208 9.562434 21.02762352 9.5629268 19.21191406 9.55859375 C16.42652336 9.5554324 13.64219297 9.5788917 10.85693359 9.60424805 C9.09521619 9.60652078 7.33349592 9.60722466 5.57177734 9.60620117 C4.73529663 9.61541092 3.89881592 9.62462067 3.0369873 9.6341095 C0.69091797 9.61523438 0.69091797 9.61523438 -3.08447266 9.24291992 C-5.08447266 6.24291992 -5.08447266 6.24291992 -4.83447266 4.18041992 C-3.79718036 1.50074816 -2.91612519 0.3398389 0 0 Z " fill="#FAC101" transform="translate(315.08447265625,170.757080078125)"/>
<path d="M0 0 C5.70010226 0.02232416 9.09837581 1.39076464 13.9375 4.3125 C12.70983624 9.66511401 11.64053879 14.06126883 6.9375 17.3125 C0.04983275 18.51504015 -7.12825318 17.8529389 -14.0625 17.3125 C-12.75240468 14.66545091 -11.43955236 12.0198344 -10.125 9.375 C-9.56522461 8.24288086 -9.56522461 8.24288086 -8.99414062 7.08789062 C-8.45756836 6.00991211 -8.45756836 6.00991211 -7.91015625 4.91015625 C-7.58023682 4.24508057 -7.25031738 3.58000488 -6.91040039 2.89477539 C-5.18489928 -0.32519947 -3.54003418 0.09251809 0 0 Z " fill="#FCC400" transform="translate(264.0625,347.6875)"/>
<path d="M0 0 C2.10448938 0.14109986 4.2085877 0.28804175 6.3125 0.4375 C8.07013672 0.55931641 8.07013672 0.55931641 9.86328125 0.68359375 C13 1 13 1 16 2 C17.43358891 7.8883776 18.59224743 12.99845201 17 19 C15.4375 20.9375 15.4375 20.9375 14 22 C14 21.01 14 20.02 14 19 C13.236875 18.87625 12.47375 18.7525 11.6875 18.625 C9 18 9 18 6 16 C3.26127045 15.54227937 3.26127045 15.54227937 0.3125 15.375 C-0.68136719 15.30023438 -1.67523438 15.22546875 -2.69921875 15.1484375 C-3.45847656 15.09945313 -4.21773438 15.05046875 -5 15 C-4.54705135 13.24859857 -4.08741252 11.49892656 -3.625 9.75 C-3.36976563 8.77546875 -3.11453125 7.8009375 -2.8515625 6.796875 C-2.10401491 4.34162697 -1.22876183 2.24382595 0 0 Z " fill="#DF6F04" transform="translate(264,333)"/>
<path d="M0 0 C0.66 0 1.32 0 2 0 C2.48062124 2.68724704 2.95953496 5.37478033 3.4375 8.0625 C3.57220703 8.81466797 3.70691406 9.56683594 3.84570312 10.34179688 C6.14650861 23.30487167 6.14650861 23.30487167 6.0625 29.4375 C6.05347656 30.30246094 6.04445313 31.16742188 6.03515625 32.05859375 C6.02355469 32.69925781 6.01195312 33.33992188 6 34 C4.06215735 33.85879286 2.12473045 33.71187127 0.1875 33.5625 C-0.89144531 33.48128906 -1.97039062 33.40007812 -3.08203125 33.31640625 C-6 33 -6 33 -9 32 C-7.72716799 20.90817816 -3.65196416 10.48151663 0 0 Z " fill="#781C50" transform="translate(273,301)"/>
<path d="M0 0 C3.04318811 3.04318811 3.92168476 5.98190191 4.25 10.25 C3.94628006 14.80579904 3.40951328 17.11368825 1 21 C-2.4375 22.1875 -2.4375 22.1875 -6 22 C-8.94572605 19.82946501 -9.84060941 18.47817177 -11 15 C-11.36994554 9.35833056 -11.11787827 5.9166542 -8 1 C-5.17116253 -0.41441874 -3.12623255 -0.31900332 0 0 Z " fill="#FCC500" transform="translate(359,118)"/>
<path d="M0 0 C3 1.3125 3 1.3125 4.16796875 3.0546875 C6.08601005 8.25951319 5.73117392 14.28146134 3.875 19.4375 C2 21.3125 2 21.3125 -0.9375 22.375 C-4 22.3125 -4 22.3125 -6.3125 20.5 C-9.90667185 15.84088834 -9.61825236 11.02515184 -9 5.3125 C-6.52860203 1.19350338 -4.91082212 -1.12539674 0 0 Z " fill="#FCC500" transform="translate(330,128.6875)"/>
<path d="M0 0 C5.61 0 11.22 0 17 0 C15.61252327 4.1624302 14.5523572 7.09365454 12.43359375 10.7421875 C11.94826172 11.58007812 11.46292969 12.41796875 10.96289062 13.28125 C10.45951172 14.1371875 9.95613281 14.993125 9.4375 15.875 C8.93025391 16.75414062 8.42300781 17.63328125 7.90039062 18.5390625 C5.11736284 23.31208485 5.11736284 23.31208485 4 25 C3.67 25 3.34 25 3 25 C2.01 16.75 1.02 8.5 0 0 Z " fill="#2F4DE5" transform="translate(132,146)"/>
<path d="M0 0 C3 1 3 1 4 3 C4.1875 6 4.1875 6 4 9 C2 11 2 11 -0.625 11.125 C-1.40875 11.08375 -2.1925 11.0425 -3 11 C-3 12.32 -3 13.64 -3 15 C-1.7625 14.896875 -0.525 14.79375 0.75 14.6875 C2.953125 14.66796875 2.953125 14.66796875 5 15 C7.5 17.5 7.5 17.5 9 20 C1.88610478 26.51936219 1.88610478 26.51936219 -3 28 C-5.21938964 23.41326142 -5.63423075 19.00697464 -6 14 C-6.08894531 13.2059375 -6.17789063 12.411875 -6.26953125 11.59375 C-6.67502903 5.9356415 -6.67502903 5.9356415 -4.765625 3.2890625 C-3.1875 1.875 -3.1875 1.875 0 0 Z " fill="#DC990D" transform="translate(199,99)"/>
<path d="M0 0 C7.00004889 0.28688725 11.91026866 1.50404312 18 5 C17.67 10.28 17.34 15.56 17 21 C11.375 15.375 11.375 15.375 10 11 C8.98679687 10.96132812 8.98679687 10.96132812 7.953125 10.921875 C0.57632933 10.45283019 0.57632933 10.45283019 -2.625 7.9375 C-3.07875 7.298125 -3.5325 6.65875 -4 6 C-2.68 4.02 -1.36 2.04 0 0 Z " fill="#FAF9F6" transform="translate(96,156)"/>
<path d="M0 0 C1.2065625 0.0309375 1.2065625 0.0309375 2.4375 0.0625 C0.77003101 13.62165571 0.77003101 13.62165571 -3.5625 18.0625 C-9.12538472 21.70313136 -13.89907455 23.78678538 -20.5625 23.0625 C-20.5625 22.4025 -20.5625 21.7425 -20.5625 21.0625 C-19.510625 20.77375 -18.45875 20.485 -17.375 20.1875 C-16.116875 19.81625 -14.85875 19.445 -13.5625 19.0625 C-12.655 18.876875 -11.7475 18.69125 -10.8125 18.5 C-7.0725989 16.11061874 -6.63513602 12.19788288 -5.5625 8.0625 C-3.33485588 0.08133795 -3.33485588 0.08133795 0 0 Z " fill="#2852F4" transform="translate(230.5625,81.9375)"/>
<path d="M0 0 C0.66 0 1.32 0 2 0 C2 8.25 2 16.5 2 25 C2.99 24.67 3.98 24.34 5 24 C5 24.66 5 25.32 5 26 C4.34 26.33 3.68 26.66 3 27 C3 45.15 3 63.3 3 82 C2.67 82 2.34 82 2 82 C1.27810454 75.53880487 0.81990782 69.13569737 0.68359375 62.63671875 C0.66276733 61.77378204 0.64194092 60.91084534 0.6204834 60.02175903 C0.5551178 57.24375221 0.4959192 54.46566092 0.4375 51.6875 C0.40573166 50.26792496 0.40573166 50.26792496 0.37332153 48.81967163 C0.01007421 32.54402563 -0.13049326 16.27953607 0 0 Z " fill="#C39AB2" transform="translate(315,215)"/>
<path d="M0 0 C2.64 0 5.28 0 8 0 C7.02149636 5.79377157 5.90937148 10.40073944 2 15 C-0.25 15.875 -0.25 15.875 -2 16 C-1.01 14.68 -0.02 13.36 1 12 C-0.65 10.35 -2.3 8.7 -4 7 C-3.34 6.34 -2.68 5.68 -2 5 C-1.29289322 3.35008418 -0.62056011 1.68437744 0 0 Z " fill="#DE7307" transform="translate(206,106)"/>
<path d="M0 0 C0.625 2.8125 0.625 2.8125 1 6 C0.01 7.485 0.01 7.485 -1 9 C-4.15728506 9.40305767 -6.15230863 9.49220789 -8.9375 7.875 C-10 6 -10 6 -9.8125 2.875 C-9.544375 1.92625 -9.27625 0.9775 -9 0 C-5.93109813 -1.53445094 -3.29905734 -0.54984289 0 0 Z " fill="#6A063D" transform="translate(95,169)"/>
<path d="M0 0 C2.4375 0.8125 2.4375 0.8125 4.4375 2.8125 C4.80237512 5.65852594 4.83949375 7.1989306 3.25 9.625 C0.8239306 11.21449375 -0.71647406 11.17737512 -3.5625 10.8125 C-5.5625 8.8125 -5.5625 8.8125 -5.875 5.875 C-5.5625 2.8125 -5.5625 2.8125 -4.375 0.875 C-2.5625 -0.1875 -2.5625 -0.1875 0 0 Z " fill="#700B38" transform="translate(105.5625,180.1875)"/>
<path d="M0 0 C2.64 0.33 5.28 0.66 8 1 C8 1.99 8 2.98 8 4 C9.32 4.33 10.64 4.66 12 5 C9.36 5.33 6.72 5.66 4 6 C3.71125 6.78375 3.4225 7.5675 3.125 8.375 C2 11 2 11 0 13 C-3.125 13.125 -3.125 13.125 -6 13 C-6 11.68 -6 10.36 -6 9 C-4.02 8.34 -2.04 7.68 0 7 C0 4.69 0 2.38 0 0 Z " fill="#2D54EE" transform="translate(202,101)"/>
<path d="M0 0 C3 1 3 1 4 3 C4.1875 6 4.1875 6 4 9 C2 11 2 11 -1.125 11.125 C-2.548125 11.063125 -2.548125 11.063125 -4 11 C-4.8125 7.75 -4.8125 7.75 -5 4 C-2.75 1.5 -2.75 1.5 0 0 Z " fill="#F3B406" transform="translate(199,99)"/>
<path d="M0 0 C0.99 0.33 1.98 0.66 3 1 C2.01 1.66 1.02 2.32 0 3 C1.98 3 3.96 3 6 3 C5.67 3.99 5.34 4.98 5 6 C7.64 6 10.28 6 13 6 C13 7.32 13 8.64 13 10 C11.02 10.99 11.02 10.99 9 12 C9 11.01 9 10.02 9 9 C6.03 9 3.06 9 0 9 C0.33 8.01 0.66 7.02 1 6 C-0.32 6 -1.64 6 -3 6 C-3.99 5.67 -4.98 5.34 -6 5 C-2.25 1.125 -2.25 1.125 0 0 Z " fill="#994128" transform="translate(311,355)"/>
<path d="M0 0 C3.29714793 0.32971479 4.6226839 0.6226839 7 3 C6.625 5.625 6.625 5.625 6 8 C3.125 8.625 3.125 8.625 0 9 C-2 7 -2 7 -2.25 4.5 C-2 2 -2 2 0 0 Z " fill="#700B38" transform="translate(85,187)"/>
<path d="M0 0 C4.57547965 1.40592011 8.85892695 3.55806338 13.1484375 5.66015625 C11.2890625 7.1796875 11.2890625 7.1796875 9.1484375 8.66015625 C6.8984375 8.34765625 6.8984375 8.34765625 5.1484375 7.66015625 C5.8084375 6.67015625 6.4684375 5.68015625 7.1484375 4.66015625 C2.6934375 5.15515625 2.6934375 5.15515625 -1.8515625 5.66015625 C-1.1915625 4.34015625 -0.5315625 3.02015625 0.1484375 1.66015625 C-4.3065625 2.15515625 -4.3065625 2.15515625 -8.8515625 2.66015625 C-5.9956445 -0.19576175 -3.97841963 -0.755726 0 0 Z " fill="#F8C001" transform="translate(316.8515625,356.33984375)"/>
<path d="M0 0 C0.66 0.33 1.32 0.66 2 1 C-1.72346836 5.42094803 -5.29521038 9.57833482 -10 13 C-10 10 -10 10 -7.8125 7.51953125 C-6.884375 6.62621094 -5.95625 5.73289062 -5 4.8125 C-4.071875 3.91144531 -3.14375 3.01039063 -2.1875 2.08203125 C-1.1046875 1.05142578 -1.1046875 1.05142578 0 0 Z " fill="#432AA0" transform="translate(379,338)"/>
<path d="M0 0 C5 2 5 2 10 4 C10 4.66 10 5.32 10 6 C8.56208484 5.85831863 7.1246763 5.71148957 5.6875 5.5625 C4.88699219 5.48128906 4.08648437 5.40007812 3.26171875 5.31640625 C1 5 1 5 -2 4 C-2 3.34 -2 2.68 -2 2 C-1.01 2 -0.02 2 1 2 C0.67 1.34 0.34 0.68 0 0 Z " fill="#9F402F" transform="translate(206,97)"/>
<path d="M0 0 C2.64 0.33 5.28 0.66 8 1 C8 1.99 8 2.98 8 4 C9.32 4.33 10.64 4.66 12 5 C8.33333333 5 4.66666667 5 1 5 C0.67 3.35 0.34 1.7 0 0 Z " fill="#4B3EAA" transform="translate(202,101)"/>
<path d="M0 0 C0 0.66 0 1.32 0 2 C-1.98 2.99 -1.98 2.99 -4 4 C-4 3.34 -4 2.68 -4 2 C-8.455 2.495 -8.455 2.495 -13 3 C-9.39091002 -0.60908998 -4.88215348 -0.11353845 0 0 Z " fill="#962B26" transform="translate(130,105)"/>
<path d="M0 0 C5.75 0.75 5.75 0.75 8 3 C5.64561267 4.42944945 4.51967567 5.08661261 1.75 4.625 C1.1725 4.41875 0.595 4.2125 0 4 C0.66 3.01 1.32 2.02 2 1 C1.34 0.67 0.68 0.34 0 0 Z " fill="#D28F11" transform="translate(322,360)"/>
</svg>
