<?xml version="1.0" encoding="UTF-8"?>
<svg version="1.1" xmlns="http://www.w3.org/2000/svg" width="512" height="512">
<path d="M0 0 C0.95696777 0.16628906 1.91393555 0.33257812 2.89990234 0.50390625 C41.28248857 7.42546129 77.01304979 23.74542625 106 50 C106.98484375 50.86496094 107.9696875 51.72992188 108.984375 52.62109375 C114.42293659 57.44965451 119.39743964 62.37568998 124 68 C124.87877986 69.03135771 125.75769829 70.06259735 126.63671875 71.09375 C146.07424304 94.25080054 164.08054252 124.90170936 168 155.3125 C168.87308347 159.60055554 169.56934595 160.69254038 173.1953125 163.28125 C175.80593397 164.70431558 178.48180515 165.94923279 181.1875 167.1796875 C188.53758348 170.53280137 194.59932973 176.17503462 198.1796875 183.4609375 C200.61210331 190.98984359 199.83790648 198.06943786 196.5625 205.1875 C189.09946783 218.35145952 176.67504536 228.63511714 163 235 C163.58226706 238.87879443 165.42924953 240.99382088 167.9375 243.9375 C174.32905978 251.44265277 175.75500764 259.24082716 175 269 C173.18742925 282.17953987 169.94274513 297.53071893 160 307 C161.65 307.33 163.3 307.66 165 308 C163.62594577 310.95950142 161.98223068 313.41495396 160 316 C160.56847656 316.53367187 161.13695312 317.06734375 161.72265625 317.6171875 C170.89089799 326.46400508 179.86850484 336.80248915 180.5 350.125 C180.28243835 355.07452759 178.78563975 358.9236805 176 363 C175.175 363.7425 174.35 364.485 173.5 365.25 C171.67491905 367.88233566 171.67491905 367.88233566 172.5703125 370.62109375 C173.29399107 372.72512218 174.05249199 374.81739845 174.83984375 376.8984375 C180.52855478 392.10664139 180.82478383 410.72023307 174.25390625 425.65625 C165.53163249 441.95956544 148.80673112 448.57777556 131.97680664 453.73486328 C55.78525136 476.12723485 -26.53518426 482.26808415 -105.51013184 486.85284424 C-107.9867095 486.99921451 -110.4625862 487.1544751 -112.93847656 487.31201172 C-137.64391398 488.86517627 -162.34282336 489.23039032 -187.09007263 489.30371475 C-189.48216376 489.31243498 -191.8741768 489.32629125 -194.26623535 489.34140015 C-198.07431802 489.36410638 -201.8820972 489.37007466 -205.69023895 489.36370468 C-207.10071348 489.36342735 -208.51119929 489.36800738 -209.92163849 489.37799454 C-224.58722623 489.47180953 -238.51276745 487.23679197 -249.6875 477.0625 C-262.31283748 463.58802478 -264.78589387 446.21903252 -264.36328125 428.4921875 C-263.9658989 420.21218436 -262.65840468 410.98760701 -258 404 C-258.67546875 403.46632813 -259.3509375 402.93265625 -260.046875 402.3828125 C-266.12031276 397.30991217 -270.49538193 392.9529812 -272 385 C-272.65427072 375.07215292 -268.80826506 367.07646593 -262.5 359.625 C-259.87334885 356.78568781 -257.13606008 354.28077097 -254 352 C-254.495 350.515 -254.495 350.515 -255 349 C-257.34325166 348.10035874 -259.59408258 347.36880131 -262 346.6875 C-273.00371563 343.30013786 -282.39177237 337.44290662 -288 327 C-291.4629214 316.06072009 -289.54847204 306.45002148 -284.5 296.4375 C-282.78109979 293.17086126 -281.04740113 290.07110169 -279 287 C-279.70769531 286.8865625 -280.41539062 286.773125 -281.14453125 286.65625 C-291.51442199 284.2730193 -300.94620488 277.54600204 -307.40234375 269.18359375 C-312.35694511 261.12535532 -314.16836289 252.36033256 -313 243 C-310.47070683 237.5198648 -305.58895607 232.91352531 -301 229 C-300.34 229 -299.68 229 -299 229 C-298.97873047 227.99259766 -298.97873047 227.99259766 -298.95703125 226.96484375 C-296.50093174 175.51951609 -270.56658572 121.80461609 -239 82 C-238.55865723 81.44151367 -238.11731445 80.88302734 -237.66259766 80.30761719 C-226.59462489 66.44041644 -214.00318375 53.76884751 -199.70019531 43.25146484 C-198.00363496 42.00267559 -196.32604025 40.73112897 -194.6484375 39.45703125 C-166.11488883 18.10222654 -131.86653262 5.98706517 -97 0 C-95.64406738 -0.24556641 -95.64406738 -0.24556641 -94.26074219 -0.49609375 C-64.08307636 -5.76711153 -30.12754975 -5.34852185 0 0 Z M-299 233 C-300.29787866 234.24354886 -301.58806759 235.4951264 -302.875 236.75 C-303.95394531 237.79414063 -303.95394531 237.79414063 -305.0546875 238.859375 C-306.89561654 240.88513628 -308.09010631 242.42719716 -309 245 C-308.67 245.99 -308.34 246.98 -308 248 C-307.63648438 247.46890625 -307.27296875 246.9378125 -306.8984375 246.390625 C-303.66594062 241.84855246 -300.8464625 238.76940714 -296 236 C-296.99 235.01 -297.98 234.02 -299 233 Z " fill="#EE9A64" transform="translate(313,13)"/>
<path d="M0 0 C10.5990545 1.65848515 20.03225176 8.88047875 26.66796875 17.0546875 C30.76091688 23.31449052 31.17685899 29.71711903 30 37 C24.80997536 52.72616489 10.83958408 64.30462531 -3.45703125 71.81640625 C-4.29621094 72.20699219 -5.13539063 72.59757812 -6 73 C-5.41773294 76.87879443 -3.57075047 78.99382088 -1.0625 81.9375 C5.32905978 89.44265277 6.75500764 97.24082716 6 107 C4.18742925 120.17953987 0.94274513 135.53071893 -9 145 C-7.35 145.33 -5.7 145.66 -4 146 C-5.37405423 148.95950142 -7.01776932 151.41495396 -9 154 C-8.43152344 154.53367187 -7.86304688 155.06734375 -7.27734375 155.6171875 C1.89089799 164.46400508 10.86850484 174.80248915 11.5 188.125 C11.28243835 193.07452759 9.78563975 196.9236805 7 201 C6.175 201.7425 5.35 202.485 4.5 203.25 C2.67491905 205.88233566 2.67491905 205.88233566 3.5703125 208.62109375 C4.29399107 210.72512218 5.05249199 212.81739845 5.83984375 214.8984375 C11.52855478 230.10664139 11.82478383 248.72023307 5.25390625 263.65625 C-3.46836751 279.95956544 -20.19326888 286.57777556 -37.02319336 291.73486328 C-113.21474864 314.12723485 -195.53518426 320.26808415 -274.51013184 324.85284424 C-276.9867095 324.99921451 -279.4625862 325.1544751 -281.93847656 325.31201172 C-306.64391398 326.86517627 -331.34282336 327.23039032 -356.09007263 327.30371475 C-358.48216376 327.31243498 -360.8741768 327.32629125 -363.26623535 327.34140015 C-367.07431802 327.36410638 -370.8820972 327.37007466 -374.69023895 327.36370468 C-376.10071348 327.36342735 -377.51119929 327.36800738 -378.92163849 327.37799454 C-393.58722623 327.47180953 -407.51276745 325.23679197 -418.6875 315.0625 C-431.31283748 301.58802478 -433.78589387 284.21903252 -433.36328125 266.4921875 C-432.9658989 258.21218436 -431.65840468 248.98760701 -427 242 C-427.67546875 241.46632813 -428.3509375 240.93265625 -429.046875 240.3828125 C-435.12031276 235.30991217 -439.49538193 230.9529812 -441 223 C-441.65427072 213.07215292 -437.80826506 205.07646593 -431.5 197.625 C-428.87334885 194.78568781 -426.13606008 192.28077097 -423 190 C-423.33 189.01 -423.66 188.02 -424 187 C-426.34325166 186.10035874 -428.59408258 185.36880131 -431 184.6875 C-442.00371563 181.30013786 -451.39177237 175.44290662 -457 165 C-460.4629214 154.06072009 -458.54847204 144.45002148 -453.5 134.4375 C-451.78109979 131.17086126 -450.04740113 128.07110169 -448 125 C-449.06154297 124.82984375 -449.06154297 124.82984375 -450.14453125 124.65625 C-460.51442199 122.2730193 -469.94620488 115.54600204 -476.40234375 107.18359375 C-481.35694511 99.12535532 -483.16836289 90.36033256 -482 81 C-479.47070683 75.5198648 -474.58895607 70.91352531 -470 67 C-469.34 67 -468.68 67 -468 67 C-467.26171875 68.75 -467.26171875 68.75 -467 71 C-468.58203125 73 -468.58203125 73 -470.8125 75 C-474.36060894 78.21527748 -476.61526497 80.54579548 -477.37109375 85.3671875 C-477.48777947 89.77378953 -477.36783652 92.36241671 -475.125 96.25 C-461.56368718 109.66021184 -441.057486 112.08508738 -423 113 C-423.1546875 111.081875 -423.1546875 111.081875 -423.3125 109.125 C-423.3125 102.29533872 -420.48452333 96.57654271 -415.78515625 91.703125 C-410.4494944 88.44036404 -403.94629766 90.10099172 -398 91 C-394.37548915 91.90904131 -391.84022836 93.26480018 -389 95.75 C-387.42098053 99.30279381 -387.85525598 101.31138039 -389 105 C-394.03524667 111.6244964 -402.41820468 114.36894254 -410.375 115.46484375 C-413.25208134 115.71251703 -416.11437342 115.89928005 -419 116 C-414.41766088 125.75482798 -409.9241969 131.1860952 -399.9375 135.375 C-384.41068385 140.06049124 -366.5885494 137.05586499 -351 134 C-351.2165625 133.35675781 -351.433125 132.71351563 -351.65625 132.05078125 C-354.02854122 124.35181763 -356.46349415 114.73338036 -352.55859375 107.23046875 C-349.77794793 103.25114855 -349.77794793 103.25114855 -348 102 C-340.98340045 101.40775483 -335.78118816 104.27223933 -330 108 C-326.44164201 111.32113412 -324.33325758 114.33371212 -323.375 119.125 C-324.41371302 123.90307989 -326.28021766 126.76317024 -330.28125 129.640625 C-334.68735476 132.37453337 -338.95134662 134.67140701 -344 136 C-342.63535867 141.62914549 -338.52144538 144.75719165 -334 148 C-323.74142427 153.59100772 -312.13011011 154.8495219 -300.75 151.9375 C-293.96251826 149.80749447 -287.30288142 147.22979538 -280.6484375 144.71875 C-276.1371345 143.02677213 -271.58142 141.49029212 -267 140 C-267 139.34 -267 138.68 -267 138 C-267.58910156 137.73445312 -268.17820312 137.46890625 -268.78515625 137.1953125 C-275.92763395 133.34064199 -281.46659997 125.6002001 -284 118 C-284.203125 115.84375 -284.203125 115.84375 -284.25 113.5 C-284.28867187 112.33984375 -284.28867187 112.33984375 -284.328125 111.15625 C-284 109 -284 109 -282.74609375 107.25390625 C-279.15200566 104.67291682 -275.20070336 105.350942 -271 106 C-262.48709432 108.36624821 -253.47679875 111.52320125 -247.125 117.875 C-245.55022945 120.8495666 -245.53376182 122.66972728 -246 126 C-248.34832313 130.50878041 -251.42530787 133.4596587 -255.31640625 136.60546875 C-256.98248423 137.98549158 -258.4941712 139.44840133 -260 141 C-259.12859375 141.2784375 -258.2571875 141.556875 -257.359375 141.84375 C-253.25572435 143.25616929 -249.34884278 145.00762236 -245.390625 146.78125 C-227.64744826 153.15898173 -204.64861799 152.31816683 -187 146 C-186.29504395 145.74847168 -185.59008789 145.49694336 -184.86376953 145.23779297 C-181.33046566 143.96635939 -177.82004763 142.65046677 -174.328125 141.26953125 C-171.86424386 140.32967049 -169.57023994 139.53871191 -167 139 C-167.42410156 138.5153125 -167.84820312 138.030625 -168.28515625 137.53125 C-169.52369353 136.11577883 -170.75913756 134.69759763 -171.9921875 133.27734375 C-173.26616299 131.83234821 -174.56098543 130.40526233 -175.8828125 129.00390625 C-181.05898393 123.43560062 -184.99944428 117.5915593 -185.5625 109.8125 C-184.82745769 104.8305466 -183.65540501 103.41171135 -180 100 C-173.24007892 96.5488824 -164.14674151 96.75330223 -156.97265625 98.91015625 C-154.44753588 100.0910772 -152.26094741 101.37385705 -150 103 C-149.14921875 103.59941406 -149.14921875 103.59941406 -148.28125 104.2109375 C-144.83834367 107.36693497 -144.55318521 110.91359378 -144.3125 115.3125 C-144.62772916 123.0005889 -147.39066994 127.65722725 -152.95703125 132.8125 C-154.17233916 133.84217025 -155.41135611 134.84499133 -156.6796875 135.80859375 C-157.11539062 136.20175781 -157.55109375 136.59492188 -158 137 C-158 137.66 -158 138.32 -158 139 C-156.31551982 139.79807198 -154.62723873 140.58812301 -152.9375 141.375 C-151.99777344 141.81585938 -151.05804688 142.25671875 -150.08984375 142.7109375 C-137.73253882 147.86632388 -124.55948748 147.65781196 -112.21875 142.60546875 C-101.64313335 137.33049491 -93.20838392 129.71261871 -88 119 C-88.92897095 119.0314209 -88.92897095 119.0314209 -89.87670898 119.06347656 C-92.73013542 119.1475182 -95.58330036 119.19893445 -98.4375 119.25 C-99.41138672 119.28351563 -100.38527344 119.31703125 -101.38867188 119.3515625 C-108.11468107 119.44154256 -113.15111247 118.39629474 -119 115 C-120 114 -120 114 -120.5 110.875 C-119.78776775 105.35520005 -117.27481394 103.33877709 -113 100 C-105.60432639 94.73111692 -98.59875074 89.86848339 -89.19140625 91.28515625 C-85.87329523 92.36753471 -84.09406198 93.99291535 -82.02734375 96.76953125 C-79.51898557 102.21543437 -80.47976248 108.08162414 -82 113.6875 C-82.33 114.450625 -82.66 115.21375 -83 116 C-82.42233887 115.84313721 -81.84467773 115.68627441 -81.24951172 115.5246582 C-79.13737701 115.03204072 -77.16675291 114.77480245 -75.0078125 114.60546875 C-58.2028976 113.17466923 -41.82222657 110.54187118 -25.5625 106 C-24.70470947 105.76313477 -23.84691895 105.52626953 -22.96313477 105.28222656 C-17.80489403 103.77259749 -13.60492334 101.75701217 -9 99 C-8.34 99 -7.68 99 -7 99 C-5.24310189 93.72930568 -4.75504683 87.7075555 -7.1171875 82.5703125 C-8.00320328 81.20374579 -8.93035657 79.8624958 -9.90625 78.55859375 C-11 77 -11 77 -11 75 C-12.32451172 75.59748047 -12.32451172 75.59748047 -13.67578125 76.20703125 C-35.59816841 85.88490571 -35.59816841 85.88490571 -47 84 C-49.27734375 82.70703125 -49.27734375 82.70703125 -51 81 C-51.87196518 75.85540544 -51.42833662 73.03980587 -48.4375 68.75 C-44.77049653 64.40772083 -41.35689803 61.53531929 -35.6484375 60.625 C-27.62174216 60.2273928 -21.49709968 62.92460771 -15.3125 67.875 C-13.6728125 68.926875 -13.6728125 68.926875 -12 70 C-1.12568871 67.53873613 8.25648626 58.60523671 16 51 C16.598125 50.41476563 17.19625 49.82953125 17.8125 49.2265625 C22.79867859 43.9162823 26.03004234 37.19989044 26.5625 29.875 C25.40865259 21.92627341 20.56363924 17.04911948 14.625 11.953125 C10.74510623 9.06629928 6.58406273 6.79012535 2.30859375 4.54296875 C1.16583984 3.77919922 1.16583984 3.77919922 0 3 C0 2.01 0 1.02 0 0 Z " fill="#EE9A64" transform="translate(482,175)"/>
<path d="M0 0 C10.5990545 1.65848515 20.03225176 8.88047875 26.66796875 17.0546875 C30.76091688 23.31449052 31.17685899 29.71711903 30 37 C24.80997536 52.72616489 10.83958408 64.30462531 -3.45703125 71.81640625 C-4.29621094 72.20699219 -5.13539063 72.59757812 -6 73 C-5.41773294 76.87879443 -3.57075047 78.99382088 -1.0625 81.9375 C5.32905978 89.44265277 6.75500764 97.24082716 6 107 C4.88449213 115.11106571 2.9491372 122.81047071 0.1875 130.5 C-0.03631348 131.14590088 -0.26012695 131.79180176 -0.49072266 132.45727539 C-3.7404959 141.01589769 -9.35218534 145.86979667 -17.375 149.9375 C-18.19589111 150.3600708 -19.01678223 150.7826416 -19.86254883 151.21801758 C-35.18403519 158.81231955 -52.01028886 163.16282788 -68.42260742 167.74291992 C-69.37240479 168.01080322 -70.32220215 168.27868652 -71.30078125 168.5546875 C-72.13778564 168.78655762 -72.97479004 169.01842773 -73.8371582 169.25732422 C-76.25122957 169.98374567 -76.25122957 169.98374567 -79 172 C-79.35853664 174.75950354 -79.35853664 174.75950354 -79.3125 177.875 C-79.66583114 183.67378754 -79.66583114 183.67378754 -82.625 186.5625 C-84.96716183 187.56008745 -87.34716152 188.47150653 -89.75 189.3125 C-93.36374244 190.73531737 -93.36374244 190.73531737 -94.4375 194.6875 C-94.623125 195.780625 -94.80875 196.87375 -95 198 C-95.66 198 -96.32 198 -97 198 C-97.8125 194.8125 -97.8125 194.8125 -98 191 C-94.33302604 185.43631537 -89.14125169 184.55578376 -83 183 C-83 179.04 -83 175.08 -83 171 C-86.3 171.33 -89.6 171.66 -93 172 C-93.33 173.32 -93.66 174.64 -94 176 C-96.85782682 178.85782682 -99.39102999 180.18046167 -103.1875 181.3125 C-105.2613495 181.93309379 -105.2613495 181.93309379 -107 183 C-108.61135346 186.54863159 -108.61135346 186.54863159 -109 190 C-109.66 189.67 -110.32 189.34 -111 189 C-111.3125 185.75 -111.3125 185.75 -111 182 C-108.31121572 178.97511769 -105.47249108 177.72741583 -101.75 176.375 C-97.9478068 175.46711456 -97.9478068 175.46711456 -97 173 C-97.68102783 173.12117187 -98.36205566 173.24234375 -99.0637207 173.3671875 C-102.14618422 173.91410588 -105.22932678 174.4570974 -108.3125 175 C-109.38435547 175.19078125 -110.45621094 175.3815625 -111.56054688 175.578125 C-112.58857422 175.75859375 -113.61660156 175.9390625 -114.67578125 176.125 C-115.62364502 176.29257812 -116.57150879 176.46015625 -117.5480957 176.6328125 C-120 177 -120 177 -123 177 C-123 178.32 -123 179.64 -123 181 C-123.99 181 -124.98 181 -126 181 C-126 180.01 -126 179.02 -126 178 C-127.11221924 178.14099121 -128.22443848 178.28198242 -129.37036133 178.42724609 C-133.59537043 178.96228752 -137.82071044 179.4946779 -142.04614258 180.02636719 C-143.85645168 180.25451311 -145.66667667 180.48332773 -147.47680664 180.71289062 C-159.97024461 182.29671262 -172.47016085 183.73563682 -185 185 C-186.11890625 185.1134375 -187.2378125 185.226875 -188.390625 185.34375 C-190.59347366 185.56526551 -192.79667444 185.78327945 -195 186 C-194.34 186.70125 -193.68 187.4025 -193 188.125 C-190.69766797 191.43460229 -190.63369844 193.06225823 -191 197 C-191.99 197.33 -192.98 197.66 -194 198 C-194.13277344 197.43410156 -194.26554687 196.86820313 -194.40234375 196.28515625 C-194.57894531 195.55167969 -194.75554687 194.81820312 -194.9375 194.0625 C-195.11152344 193.33160156 -195.28554688 192.60070312 -195.46484375 191.84765625 C-195.83887569 190.00030102 -195.83887569 190.00030102 -197 189 C-198.49496842 188.79300437 -199.9966592 188.63320741 -201.5 188.5 C-205.88888889 188.11111111 -205.88888889 188.11111111 -207 187 C-208.69141656 187.08963062 -210.37959602 187.24577676 -212.0625 187.4375 C-212.98160156 187.53933594 -213.90070313 187.64117187 -214.84765625 187.74609375 C-215.55792969 187.82988281 -216.26820313 187.91367187 -217 188 C-216.81535634 192.34184202 -216.81535634 192.34184202 -215 196 C-213.39879667 196.26832551 -211.79390359 196.51480182 -210.1875 196.75 C-206.60540792 197.44694495 -205.20906266 197.82080344 -202.375 200.25 C-200.79219032 203.41561935 -200.67490197 205.50519616 -201 209 C-201.99 209.33 -202.98 209.66 -204 210 C-204.66 207.36 -205.32 204.72 -206 202 C-206.60328125 201.96261719 -207.2065625 201.92523438 -207.828125 201.88671875 C-211.23415778 201.60654509 -214.26248824 201.30256893 -217.4375 200 C-219.97265649 196.7549997 -220.32432937 192.98640804 -221 189 C-233.04313942 188.86792993 -245.00025701 189.22047812 -257.02554321 189.8550415 C-281.0250698 191.1033333 -304.97412903 191.22317708 -329 191 C-329.21209106 192.67485474 -329.21209106 192.67485474 -329.4284668 194.38354492 C-330 198 -330 198 -331.14453125 199.86328125 C-333.89207128 201.54651104 -336.51002752 201.77851839 -339.6875 202.1875 C-340.86699219 202.34605469 -342.04648437 202.50460937 -343.26171875 202.66796875 C-344.16535156 202.77753906 -345.06898438 202.88710938 -346 203 C-346.99 205.97 -346.99 205.97 -348 209 C-348.99 209 -349.98 209 -351 209 C-351.3016748 205.6815772 -351.35172282 203.61970211 -349.6875 200.6875 C-346.01902137 198.38403668 -342.73110441 198.3761242 -338.4609375 198.17578125 C-335.99605866 198.15734258 -335.99605866 198.15734258 -334 197 C-333.67 195.35 -333.34 193.7 -333 192 C-345.375 192.495 -345.375 192.495 -358 193 C-358.33 194.32 -358.66 195.64 -359 197 C-359.99 197 -360.98 197 -362 197 C-362 195.35 -362 193.7 -362 192 C-363.0923999 191.9498877 -364.1847998 191.89977539 -365.31030273 191.84814453 C-369.45008819 191.65661409 -373.58945828 191.45706878 -377.72875977 191.25537109 C-379.50405005 191.16992675 -381.2794398 191.0865194 -383.05493164 191.00537109 C-434.20622648 188.65991121 -434.20622648 188.65991121 -451 174 C-456.95205779 167.21492283 -459.19027541 160.08881313 -458.91015625 151.125 C-457.77306336 141.51720393 -453.32095042 132.98142563 -448 125 C-449.06154297 124.82984375 -449.06154297 124.82984375 -450.14453125 124.65625 C-460.51442199 122.2730193 -469.94620488 115.54600204 -476.40234375 107.18359375 C-481.35694511 99.12535532 -483.16836289 90.36033256 -482 81 C-479.47070683 75.5198648 -474.58895607 70.91352531 -470 67 C-469.34 67 -468.68 67 -468 67 C-467.26171875 68.75 -467.26171875 68.75 -467 71 C-468.58203125 73 -468.58203125 73 -470.8125 75 C-474.36060894 78.21527748 -476.61526497 80.54579548 -477.37109375 85.3671875 C-477.48777947 89.77378953 -477.36783652 92.36241671 -475.125 96.25 C-461.56368718 109.66021184 -441.057486 112.08508738 -423 113 C-423.1546875 111.081875 -423.1546875 111.081875 -423.3125 109.125 C-423.3125 102.29533872 -420.48452333 96.57654271 -415.78515625 91.703125 C-410.4494944 88.44036404 -403.94629766 90.10099172 -398 91 C-394.37548915 91.90904131 -391.84022836 93.26480018 -389 95.75 C-387.42098053 99.30279381 -387.85525598 101.31138039 -389 105 C-394.03524667 111.6244964 -402.41820468 114.36894254 -410.375 115.46484375 C-413.25208134 115.71251703 -416.11437342 115.89928005 -419 116 C-414.41766088 125.75482798 -409.9241969 131.1860952 -399.9375 135.375 C-384.41068385 140.06049124 -366.5885494 137.05586499 -351 134 C-351.2165625 133.35675781 -351.433125 132.71351563 -351.65625 132.05078125 C-354.02854122 124.35181763 -356.46349415 114.73338036 -352.55859375 107.23046875 C-349.77794793 103.25114855 -349.77794793 103.25114855 -348 102 C-340.98340045 101.40775483 -335.78118816 104.27223933 -330 108 C-326.44164201 111.32113412 -324.33325758 114.33371212 -323.375 119.125 C-324.41371302 123.90307989 -326.28021766 126.76317024 -330.28125 129.640625 C-334.68735476 132.37453337 -338.95134662 134.67140701 -344 136 C-342.63535867 141.62914549 -338.52144538 144.75719165 -334 148 C-323.74142427 153.59100772 -312.13011011 154.8495219 -300.75 151.9375 C-293.96251826 149.80749447 -287.30288142 147.22979538 -280.6484375 144.71875 C-276.1371345 143.02677213 -271.58142 141.49029212 -267 140 C-267 139.34 -267 138.68 -267 138 C-267.58910156 137.73445312 -268.17820312 137.46890625 -268.78515625 137.1953125 C-275.92763395 133.34064199 -281.46659997 125.6002001 -284 118 C-284.203125 115.84375 -284.203125 115.84375 -284.25 113.5 C-284.28867187 112.33984375 -284.28867187 112.33984375 -284.328125 111.15625 C-284 109 -284 109 -282.74609375 107.25390625 C-279.15200566 104.67291682 -275.20070336 105.350942 -271 106 C-262.48709432 108.36624821 -253.47679875 111.52320125 -247.125 117.875 C-245.55022945 120.8495666 -245.53376182 122.66972728 -246 126 C-248.34832313 130.50878041 -251.42530787 133.4596587 -255.31640625 136.60546875 C-256.98248423 137.98549158 -258.4941712 139.44840133 -260 141 C-259.12859375 141.2784375 -258.2571875 141.556875 -257.359375 141.84375 C-253.25572435 143.25616929 -249.34884278 145.00762236 -245.390625 146.78125 C-227.64744826 153.15898173 -204.64861799 152.31816683 -187 146 C-186.29504395 145.74847168 -185.59008789 145.49694336 -184.86376953 145.23779297 C-181.33046566 143.96635939 -177.82004763 142.65046677 -174.328125 141.26953125 C-171.86424386 140.32967049 -169.57023994 139.53871191 -167 139 C-167.42410156 138.5153125 -167.84820312 138.030625 -168.28515625 137.53125 C-169.52369353 136.11577883 -170.75913756 134.69759763 -171.9921875 133.27734375 C-173.26616299 131.83234821 -174.56098543 130.40526233 -175.8828125 129.00390625 C-181.05898393 123.43560062 -184.99944428 117.5915593 -185.5625 109.8125 C-184.82745769 104.8305466 -183.65540501 103.41171135 -180 100 C-173.24007892 96.5488824 -164.14674151 96.75330223 -156.97265625 98.91015625 C-154.44753588 100.0910772 -152.26094741 101.37385705 -150 103 C-149.14921875 103.59941406 -149.14921875 103.59941406 -148.28125 104.2109375 C-144.83834367 107.36693497 -144.55318521 110.91359378 -144.3125 115.3125 C-144.62772916 123.0005889 -147.39066994 127.65722725 -152.95703125 132.8125 C-154.17233916 133.84217025 -155.41135611 134.84499133 -156.6796875 135.80859375 C-157.11539062 136.20175781 -157.55109375 136.59492188 -158 137 C-158 137.66 -158 138.32 -158 139 C-156.31551982 139.79807198 -154.62723873 140.58812301 -152.9375 141.375 C-151.99777344 141.81585938 -151.05804688 142.25671875 -150.08984375 142.7109375 C-137.73253882 147.86632388 -124.55948748 147.65781196 -112.21875 142.60546875 C-101.64313335 137.33049491 -93.20838392 129.71261871 -88 119 C-88.92897095 119.0314209 -88.92897095 119.0314209 -89.87670898 119.06347656 C-92.73013542 119.1475182 -95.58330036 119.19893445 -98.4375 119.25 C-99.41138672 119.28351563 -100.38527344 119.31703125 -101.38867188 119.3515625 C-108.11468107 119.44154256 -113.15111247 118.39629474 -119 115 C-120 114 -120 114 -120.5 110.875 C-119.78776775 105.35520005 -117.27481394 103.33877709 -113 100 C-105.60432639 94.73111692 -98.59875074 89.86848339 -89.19140625 91.28515625 C-85.87329523 92.36753471 -84.09406198 93.99291535 -82.02734375 96.76953125 C-79.51898557 102.21543437 -80.47976248 108.08162414 -82 113.6875 C-82.33 114.450625 -82.66 115.21375 -83 116 C-82.42233887 115.84313721 -81.84467773 115.68627441 -81.24951172 115.5246582 C-79.13737701 115.03204072 -77.16675291 114.77480245 -75.0078125 114.60546875 C-58.2028976 113.17466923 -41.82222657 110.54187118 -25.5625 106 C-24.70470947 105.76313477 -23.84691895 105.52626953 -22.96313477 105.28222656 C-17.80489403 103.77259749 -13.60492334 101.75701217 -9 99 C-8.34 99 -7.68 99 -7 99 C-5.24310189 93.72930568 -4.75504683 87.7075555 -7.1171875 82.5703125 C-8.00320328 81.20374579 -8.93035657 79.8624958 -9.90625 78.55859375 C-11 77 -11 77 -11 75 C-12.32451172 75.59748047 -12.32451172 75.59748047 -13.67578125 76.20703125 C-35.59816841 85.88490571 -35.59816841 85.88490571 -47 84 C-49.27734375 82.70703125 -49.27734375 82.70703125 -51 81 C-51.87196518 75.85540544 -51.42833662 73.03980587 -48.4375 68.75 C-44.77049653 64.40772083 -41.35689803 61.53531929 -35.6484375 60.625 C-27.62174216 60.2273928 -21.49709968 62.92460771 -15.3125 67.875 C-13.6728125 68.926875 -13.6728125 68.926875 -12 70 C-1.12568871 67.53873613 8.25648626 58.60523671 16 51 C16.598125 50.41476563 17.19625 49.82953125 17.8125 49.2265625 C22.79867859 43.9162823 26.03004234 37.19989044 26.5625 29.875 C25.40865259 21.92627341 20.56363924 17.04911948 14.625 11.953125 C10.74510623 9.06629928 6.58406273 6.79012535 2.30859375 4.54296875 C1.16583984 3.77919922 1.16583984 3.77919922 0 3 C0 2.01 0 1.02 0 0 Z " fill="#AB2E2D" transform="translate(482,175)"/>
<path d="M0 0 C10.12126691 3.01140743 19.12612729 10.12670911 24.9375 18.9375 C27.26101872 25.63470103 26.21800679 31.07432949 23.453125 37.421875 C20.71152741 42.28599975 16.95540305 46.10229327 13 50 C12.29746094 50.70125 11.59492188 51.4025 10.87109375 52.125 C5.28109901 57.3958606 -5.03438633 66.70798158 -13 67 C-15.3671875 65.63671875 -15.3671875 65.63671875 -17.875 63.6875 C-24.62974778 58.7445213 -30.59929903 56.74248766 -39 58 C-44.50855671 60.19776321 -48.45321708 63.5880863 -51 69 C-51.47406838 71.91524809 -51.35018197 73.99844028 -51 77 C-46.46505561 80.02329626 -42.32034484 79.53793869 -37 79 C-29.7267768 77.31017329 -22.78618615 74.65369623 -15.92578125 71.734375 C-14 71 -14 71 -12 71 C-7.27187128 76.64680657 -4.99595838 82.21941655 -5.50390625 89.58984375 C-6 92 -6 92 -7.75 94.875 C-28.88648443 108.69500905 -59.31136254 111.14459918 -84 112 C-83.84273438 111.1234375 -83.68546875 110.246875 -83.5234375 109.34375 C-81.9437907 99.99853516 -81.9437907 99.99853516 -84.9375 91.375 C-88.97043247 88.24741972 -91.94160388 87.51234417 -97 88 C-105.20806586 90.30674954 -114.86417687 96.20745974 -120 103 C-120.41831404 106.71000718 -120.41831404 106.71000718 -120 110 C-113.12243955 113.73595876 -107.19935105 114.63698827 -99.4375 114.75 C-98.42880859 114.77964844 -97.42011719 114.80929687 -96.38085938 114.83984375 C-93.9204963 114.90980668 -91.46103989 114.96286189 -89 115 C-93.37066327 127.03515973 -103.31650206 134.46756752 -114.4453125 139.95703125 C-120.33843751 142.36294008 -125.84055153 143.38950731 -132.1875 143.375 C-132.9285498 143.37338867 -133.66959961 143.37177734 -134.43310547 143.37011719 C-143.92711704 143.16073574 -152.03950971 140.06576655 -160 135 C-158.86315195 131.58945585 -157.93570812 130.9322506 -155.1875 128.75 C-150.28023895 124.50350121 -147.45316856 121.44839697 -146.58984375 114.87890625 C-146.19341996 107.77611056 -146.19341996 107.77611056 -148.9375 101.4375 C-156.5113118 95.40936408 -162.80335911 94.55638978 -172.44921875 94.56640625 C-177.05055676 95.12828581 -180.42569471 96.58312524 -183.875 99.6875 C-185.92742066 103.9063647 -185.62751677 107.85971957 -184.34375 112.23828125 C-181.36858812 119.66336198 -176.200548 124.87023919 -170.5625 130.375 C-168 133 -168 133 -168 135 C-174.73279526 138.4193522 -181.6269044 140.97999088 -188.8125 143.25 C-189.62436768 143.50797363 -190.43623535 143.76594727 -191.27270508 144.03173828 C-211.93145168 150.42393512 -236.55061182 149.23860325 -256 139.75 C-257.67561837 138.84980077 -259.34619042 137.93966453 -261 137 C-259.84886009 133.54658028 -259.1068256 133.15357642 -256.1875 131.1875 C-251.58645067 127.84203325 -248.44892765 124.74968183 -247.5 118.9375 C-248.17192111 114.98996345 -249.00518419 113.71622829 -252 111 C-255.5598796 109.04612472 -259.22785196 107.49549738 -263 106 C-263.78117188 105.67644531 -264.56234375 105.35289062 -265.3671875 105.01953125 C-270.7978214 102.96130168 -276.20777274 102.15689698 -282 103 C-284.35020498 105.35020498 -284.31914802 105.91909622 -284.375 109.125 C-284.07778524 118.93308724 -277.69199323 125.36962733 -271 132 C-270.01 132.66 -269.02 133.32 -268 134 C-268 134.66 -268 135.32 -268 136 C-310.53870274 154.18266529 -310.53870274 154.18266529 -327.9375 148.375 C-335.33604869 145.25287841 -341.43455771 140.62725494 -346 134 C-345.67 133.01 -345.34 132.02 -345 131 C-342.453125 129.75390625 -342.453125 129.75390625 -339.25 128.5625 C-334.20036824 126.67821623 -329.85668849 124.65241213 -326.6875 120.125 C-325.19880691 115.523585 -325.5790563 112.8418874 -327.75 108.5 C-331.53184171 103.63453603 -337.29085681 101.00591518 -343 99 C-347.5402039 98.55566449 -347.5402039 98.55566449 -351.3125 100.8125 C-355.33965865 106.03289085 -354.29937295 112.72709233 -354 119 C-353.49535435 122.7080485 -352.81940054 126.34927795 -352 130 C-367.01979132 135.24920754 -388.58561131 137.5536065 -403.55859375 131.3203125 C-411.34313388 127.1104332 -416.62765462 122.32071146 -420 114 C-420 113.34 -420 112.68 -420 112 C-419.03320312 111.82984375 -418.06640625 111.6596875 -417.0703125 111.484375 C-403.32107684 109.34427509 -403.32107684 109.34427509 -391.8125 102.1875 C-389.71184986 99.08576586 -389.71184986 99.08576586 -389.9375 95.375 C-391.07648402 91.75705077 -392.27912473 90.51749671 -395 88 C-394.14260223 88.06942307 -393.28520447 88.13884613 -392.40182495 88.21037292 C-381.78502884 89.00137612 -371.21376456 89.19483645 -360.5703125 89.23828125 C-359.65913099 89.24308376 -358.74794949 89.24788628 -357.80915642 89.25283432 C-350.91444297 89.28867191 -344.01979638 89.30434309 -337.125 89.3125 C-336.11486217 89.31409245 -335.10472435 89.31568489 -334.06397629 89.31732559 C-303.57257786 89.35819853 -273.47792259 88.73423685 -243.15612793 85.24023438 C-239.98562581 84.88697909 -236.80989557 84.59963387 -233.6328125 84.3125 C-178.96953565 79.1736668 -123.17944999 68.11226683 -71 51 C-69.61659013 50.55271547 -68.23295186 50.1061369 -66.84912109 49.66015625 C-46.597151 43.1265524 -26.70902801 36.03508932 -7 28 C-5.65893188 27.59225342 -5.65893188 27.59225342 -4.29077148 27.17626953 C-1.81802863 26.17226869 -1.81802863 26.17226869 -0.69970703 23.69262695 C0.00762679 20.97065042 0.22974827 18.7244841 0.1953125 15.91796875 C0.18886719 14.98662109 0.18242187 14.05527344 0.17578125 13.09570312 C0.15902344 12.13599609 0.14226562 11.17628906 0.125 10.1875 C0.11146484 8.71893555 0.11146484 8.71893555 0.09765625 7.22070312 C0.07417182 4.81354939 0.0413284 2.40690257 0 0 Z " fill="#71A370" transform="translate(483,179)"/>
<path d="M0 0 C-4.71258818 10.51269671 -14.96658964 19.68718089 -22.52636719 28.31494141 C-23.74508432 29.70851093 -24.9556645 31.10919183 -26.1640625 32.51171875 C-63.20599573 74.79265051 -63.20599573 74.79265051 -84.328125 77.2734375 C-113.10402264 78.27366924 -142.9071146 64.39096121 -168.58764648 52.98046875 C-170.72313206 52.11252926 -172.75137333 51.48640158 -175 51 C-175.825 52.010625 -176.65 53.02125 -177.5 54.0625 C-185.18866619 62.99069415 -196.94569896 74.06896647 -209.0390625 75.3125 C-217.3903758 75.61967474 -222.87341602 74.64813946 -229.15625 69.09375 C-232.4185156 65.92604282 -235.32876188 62.682199 -238 59 C-239.25876953 59.85658203 -239.25876953 59.85658203 -240.54296875 60.73046875 C-251.49981558 68.13756441 -262.67010667 75.17804454 -274 82 C-274.77778809 82.47002441 -275.55557617 82.94004883 -276.35693359 83.42431641 C-296.81466356 95.66341435 -315.62169844 103.95274196 -339.4375 98 C-358.68510327 92.65605639 -376.93006926 83.12623783 -392 70 C-392.84175781 69.2678125 -393.68351562 68.535625 -394.55078125 67.78125 C-401.90819587 61.26117392 -408.91938688 54.76079635 -414.6796875 46.765625 C-416.27051697 44.63824358 -418.04977607 42.80020671 -420 41 C-416.7406904 39.91356347 -415.86318594 40.08961266 -412.640625 40.87109375 C-406.37514106 42.22196112 -400.13669831 42.65327756 -393.75 43.0625 C-392.53666992 43.14483887 -391.32333984 43.22717773 -390.07324219 43.31201172 C-379.05604329 44.04043348 -368.0325822 44.572206 -357 45 C-357.33 46.98 -357.66 48.96 -358 51 C-357.01 51 -356.02 51 -355 51 C-354.67 49.35 -354.34 47.7 -354 46 C-345.75 46 -337.5 46 -329 46 C-329 47.65 -329 49.3 -329 51 C-332.87657248 53.58438165 -335.84361316 53.36848388 -340.40625 53.55859375 C-343.35701895 54.06075774 -344.26906073 54.59811033 -346 57 C-346.7269226 60.10839021 -346.7269226 60.10839021 -347 63 C-346.01 63 -345.02 63 -344 63 C-344.04125 62.21625 -344.0825 61.4325 -344.125 60.625 C-344 58 -344 58 -342 56 C-338.69610543 55.48527874 -335.39481714 55.17157481 -332.06640625 54.85546875 C-328.85351833 54.28235766 -328.85351833 54.28235766 -327.15234375 51.67578125 C-326.18077352 49.41976224 -325.55499154 47.37668082 -325 45 C-323.87247314 44.98018066 -322.74494629 44.96036133 -321.58325195 44.93994141 C-297.80478983 44.51166729 -274.05718421 43.85868026 -250.30395508 42.66064453 C-239.19126751 42.11147489 -228.12606386 41.88561278 -217 42 C-216.690625 43.10601562 -216.38125 44.21203125 -216.0625 45.3515625 C-215.23982198 48.17649363 -214.53015678 50.51349524 -213 53 C-210.1306704 54.4346648 -207.2682063 54.32761065 -204.09375 54.5234375 C-202 55 -202 55 -200 58 C-199.875 61.1875 -199.875 61.1875 -200 64 C-199.34 63.67 -198.68 63.34 -198 63 C-197.54464748 59.08396832 -197.6795812 57.45058894 -200 54.1875 C-203.87829129 51.35957927 -206.26878878 51.3878042 -211 51 C-214.00617269 47.99382731 -213.59585316 45.17618402 -214 41 C-212.18818595 40.80598367 -210.37551468 40.61995625 -208.5625 40.4375 C-207.04849609 40.28087891 -207.04849609 40.28087891 -205.50390625 40.12109375 C-204.67761719 40.08113281 -203.85132813 40.04117188 -203 40 C-202.67 40.33 -202.34 40.66 -202 41 C-200.54379021 41.13053673 -199.08470974 41.22983035 -197.625 41.3125 C-193.28349797 41.76804711 -193.28349797 41.76804711 -190.9375 43.6875 C-189.76493832 46.57981882 -189.78920428 48.90832951 -190 52 C-189.34 51.67 -188.68 51.34 -188 51 C-187.48986953 45.64363011 -188.93788354 43.30384086 -192 39 C-191.09048584 38.95029053 -190.18097168 38.90058105 -189.24389648 38.84936523 C-180.11528685 38.30247922 -171.1229793 37.33476508 -162.0625 36.0625 C-159.43493442 35.70414406 -156.80733058 35.34606848 -154.1796875 34.98828125 C-151.78643202 34.6590454 -149.39320023 34.3296372 -147 34 C-130.26630869 31.70477469 -130.26630869 31.70477469 -122 32 C-122 32.99 -122 33.98 -122 35 C-121.01 35 -120.02 35 -119 35 C-119 33.68 -119 32.36 -119 31 C-115.79363027 30.32364936 -112.58463311 29.66067552 -109.375 29 C-108.01955078 28.71382813 -108.01955078 28.71382813 -106.63671875 28.421875 C-102.01796444 27.47789602 -97.74352828 26.74785232 -93 27 C-93.33 27.99 -93.66 28.98 -94 30 C-96.21484375 31.09765625 -96.21484375 31.09765625 -98.9375 32.0625 C-102.83779411 33.42832255 -102.83779411 33.42832255 -106 36 C-106.16677282 39.58343976 -106.16677282 39.58343976 -106 43 C-105.67 43 -105.34 43 -105 43 C-104.87625 41.9275 -104.7525 40.855 -104.625 39.75 C-104.09765625 37.8125 -104.09765625 37.8125 -103 36 C-100.52423543 34.62695899 -98.10987789 33.76479251 -95.41015625 32.921875 C-92.86638368 31.9488923 -91.67452971 31.12072101 -90 29 C-89.67 28.01 -89.34 27.02 -89 26 C-84.64484531 24.3565454 -82.57950862 23.85512284 -78 25 C-78.33 28.96 -78.66 32.92 -79 37 C-81.76692708 38.20442708 -84.53385417 39.40885417 -87.30078125 40.61328125 C-89.78282022 41.88842428 -91.35093583 42.7715349 -93 45 C-93.2503577 48.62535976 -93.2503577 48.62535976 -93 52 C-92.34 51.67 -91.68 51.34 -91 51 C-90.87625 49.948125 -90.7525 48.89625 -90.625 47.8125 C-90.16796875 45.875 -90.16796875 45.875 -89 44 C-86.23828125 42.625 -86.23828125 42.625 -82.9375 41.3125 C-79.64440744 40.00297466 -79.64440744 40.00297466 -77 38 C-76.02586108 34.71501135 -75.98164771 32.1164598 -76.1875 28.70703125 C-76 26 -76 26 -74.43798828 24.47045898 C-71.37162091 22.62099667 -68.2304636 21.69684057 -64.8046875 20.765625 C-63.36006935 20.35592851 -61.91549074 19.94609253 -60.47094727 19.53613281 C-59.71951447 19.32621704 -58.96808167 19.11630127 -58.19387817 18.90002441 C-35.32663243 12.60910406 -35.32663243 12.60910406 -13.9375 2.5625 C-9.02915851 -0.30196554 -5.62026807 -0.55281325 0 0 Z " fill="#F8E696" transform="translate(478,321)"/>
<path d="M0 0 C6.79479489 1.19908145 10.8116583 7.53935915 14.6875 12.8125 C19.94677136 20.64218102 23.52546638 28.40686091 22 38 C19.63223752 45.87386103 14.39391553 50.20887808 7.375 54.0078125 C-4.78590988 60.32939394 -16.95576759 64.4424234 -30.3125 67.5625 C-31.52873047 67.85318359 -32.74496094 68.14386719 -33.99804688 68.44335938 C-48.05747598 71.78088715 -62.11817031 74.61718622 -76.375 76.9375 C-78.78682557 77.33286309 -81.19852389 77.72899608 -83.61021423 78.12518311 C-85.20296706 78.38672712 -86.79579074 78.64784007 -88.38868713 78.9085083 C-92.77013979 79.6269186 -97.14680684 80.36654285 -101.51953125 81.13671875 C-116.35962088 83.73733944 -131.25918886 85.56533751 -146.21826172 87.30957031 C-150.93893898 87.86393969 -155.64677852 88.48471513 -160.35400391 89.14208984 C-206.33730672 95.51248504 -253.59077479 99.54537595 -300 100 C-300.86238281 100.00988953 -301.72476563 100.01977905 -302.61328125 100.02996826 C-350.96938027 100.57937425 -350.96938027 100.57937425 -373 98 C-374.90072266 97.7834375 -374.90072266 97.7834375 -376.83984375 97.5625 C-379.92566599 97.14357625 -382.94800043 96.61738923 -386 96 C-386.66290039 95.86867676 -387.32580078 95.73735352 -388.00878906 95.60205078 C-396.10559289 93.9656936 -403.66146375 92.2487417 -410.921875 88.1484375 C-413.02269374 86.92460851 -413.02269374 86.92460851 -415.51171875 86.0390625 C-421.48692184 83.54392275 -425.87491167 79.11043566 -428.5625 73.25 C-431.10897594 65.74699055 -430.15520841 58.92869963 -426.875 51.8125 C-423.32564775 45.36006485 -418.31376334 38.92477181 -412 35 C-409.01097378 35.1667432 -408.08523073 35.90852465 -406.02734375 38.1171875 C-405.33769531 39.02726562 -404.64804687 39.93734375 -403.9375 40.875 C-384.22361865 65.7344295 -352.98294515 86.39081175 -320.91503906 90.25097656 C-309.44057089 91.29985996 -300.33740008 88.80899255 -290 84 C-289.37335449 83.71624512 -288.74670898 83.43249023 -288.10107422 83.14013672 C-271.25087204 75.43257595 -255.22947142 65.51048027 -240 55 C-238.25193717 53.83043279 -236.50207388 52.66354984 -234.75 51.5 C-234.02296875 51.0153125 -233.2959375 50.530625 -232.546875 50.03125 C-232.03640625 49.6909375 -231.5259375 49.350625 -231 49 C-230.484375 49.680625 -229.96875 50.36125 -229.4375 51.0625 C-223.66982875 58.01328331 -218.30860162 64.04791445 -209.0234375 65.44921875 C-197.42888829 66.07183774 -189.52222028 61.51387599 -181.0625 53.9375 C-177.65202154 50.68134183 -174.32864731 47.33961485 -171 44 C-170.00014812 42.99985191 -169.00018062 41.99981935 -168 41 C-161.52779643 43.02019164 -155.38044295 45.50169426 -149.1875 48.25 C-110.0276666 65.96373076 -110.0276666 65.96373076 -69 65.0625 C-56.58837186 59.2236526 -46.70813584 50.48302715 -37 41 C-36.31292969 40.33339355 -35.62585938 39.66678711 -34.91796875 38.97998047 C-27.26861282 31.53612456 -19.73142784 24.12342175 -13.13671875 15.71484375 C-10.48371192 12.34402154 -7.71664165 9.07947441 -4.9375 5.8125 C-4.44717285 5.23467773 -3.9568457 4.65685547 -3.45166016 4.06152344 C-2.30196543 2.70695303 -1.15111336 1.35336505 0 0 Z " fill="#AC2F2D" transform="translate(471,330)"/>
<path d="M0 0 C10.5990545 1.65848515 20.03225176 8.88047875 26.66796875 17.0546875 C30.76091688 23.31449052 31.17685899 29.71711903 30 37 C24.80997536 52.72616489 10.83958408 64.30462531 -3.45703125 71.81640625 C-4.29621094 72.20699219 -5.13539063 72.59757812 -6 73 C-5.3162263 76.13096377 -4.2248631 78.88248003 -2.9375 81.8125 C-0.69908481 87.37586039 -0.04734211 91.44286567 -2.1875 97.1875 C-8.26855874 106.62362563 -21.00872417 109.66325174 -31.375 112.0625 C-32.96066772 112.43701294 -32.96066772 112.43701294 -34.57836914 112.8190918 C-48.37081738 115.93927819 -62.7970471 118.43706092 -76.93945312 119.14770508 C-82.14740234 119.29322249 -82.14740234 119.29322249 -86.2265625 122.22265625 C-86.68804687 123.15980469 -87.14953125 124.09695313 -87.625 125.0625 C-94.35629617 137.12273896 -105.40537219 145.28368636 -118.61499023 149.4309082 C-122.68178648 150.40129433 -126.64702481 150.48796859 -130.8125 150.4375 C-131.68688721 150.43065186 -132.56127441 150.42380371 -133.4621582 150.41674805 C-142.68718705 150.18891688 -149.98800218 147.88327141 -157.875 143.125 C-161.12536415 141.19679486 -161.12536415 141.19679486 -164.875 141.375 C-166.421875 142.179375 -166.421875 142.179375 -168 143 C-190.06405149 154.21900923 -218.43220558 160.01834876 -242.53515625 152.42578125 C-247.35986671 150.44041562 -252.01600152 148.13942344 -256.54931641 145.5546875 C-259.42735847 143.96823644 -261.5482541 142.99506962 -264.86328125 143.03125 C-269.22781276 144.37919996 -273.41113066 146.05487083 -277.625 147.8125 C-299.2272524 156.61857619 -299.2272524 156.61857619 -308 157 C-309.59134766 157.09474609 -309.59134766 157.09474609 -311.21484375 157.19140625 C-322.92561041 157.58557972 -332.29616891 155.04555815 -341 147 C-348 139.83969466 -348 139.83969466 -348 137 C-349.71316406 137.433125 -349.71316406 137.433125 -351.4609375 137.875 C-361.51115489 140.24198677 -371.22826362 141.42863712 -381.5625 141.5 C-382.63097168 141.51804687 -383.69944336 141.53609375 -384.80029297 141.5546875 C-395.73630888 141.47308813 -405.59034098 138.11712388 -414 131 C-418.41972688 126.3431633 -420.38456955 122.24382655 -422 116 C-423.20914063 116.04640625 -424.41828125 116.0928125 -425.6640625 116.140625 C-436.27047777 116.42452146 -444.96957053 115.7339555 -455 112 C-456.58941406 111.43925781 -456.58941406 111.43925781 -458.2109375 110.8671875 C-465.08540728 108.25246474 -470.56237083 104.94427426 -476 100 C-476.62261719 99.47792969 -477.24523437 98.95585937 -477.88671875 98.41796875 C-481.58789934 94.87208245 -482.4289433 92.06027182 -482.625 86.9375 C-482.13994504 78.44903826 -477.53948955 74.31714608 -471.8046875 68.5390625 C-470 67 -470 67 -468 67 C-467.26171875 68.75 -467.26171875 68.75 -467 71 C-468.58203125 73 -468.58203125 73 -470.8125 75 C-474.36060894 78.21527748 -476.61526497 80.54579548 -477.37109375 85.3671875 C-477.48777947 89.77378953 -477.36783652 92.36241671 -475.125 96.25 C-461.56368718 109.66021184 -441.057486 112.08508738 -423 113 C-423.1546875 111.081875 -423.1546875 111.081875 -423.3125 109.125 C-423.3125 102.29533872 -420.48452333 96.57654271 -415.78515625 91.703125 C-410.4494944 88.44036404 -403.94629766 90.10099172 -398 91 C-394.37548915 91.90904131 -391.84022836 93.26480018 -389 95.75 C-387.42098053 99.30279381 -387.85525598 101.31138039 -389 105 C-394.03524667 111.6244964 -402.41820468 114.36894254 -410.375 115.46484375 C-413.25208134 115.71251703 -416.11437342 115.89928005 -419 116 C-414.41766088 125.75482798 -409.9241969 131.1860952 -399.9375 135.375 C-384.41068385 140.06049124 -366.5885494 137.05586499 -351 134 C-351.2165625 133.35675781 -351.433125 132.71351563 -351.65625 132.05078125 C-354.02854122 124.35181763 -356.46349415 114.73338036 -352.55859375 107.23046875 C-349.77794793 103.25114855 -349.77794793 103.25114855 -348 102 C-340.98340045 101.40775483 -335.78118816 104.27223933 -330 108 C-326.44164201 111.32113412 -324.33325758 114.33371212 -323.375 119.125 C-324.41371302 123.90307989 -326.28021766 126.76317024 -330.28125 129.640625 C-334.68735476 132.37453337 -338.95134662 134.67140701 -344 136 C-342.63535867 141.62914549 -338.52144538 144.75719165 -334 148 C-323.74142427 153.59100772 -312.13011011 154.8495219 -300.75 151.9375 C-293.96251826 149.80749447 -287.30288142 147.22979538 -280.6484375 144.71875 C-276.1371345 143.02677213 -271.58142 141.49029212 -267 140 C-267 139.34 -267 138.68 -267 138 C-267.58910156 137.73445312 -268.17820312 137.46890625 -268.78515625 137.1953125 C-275.92763395 133.34064199 -281.46659997 125.6002001 -284 118 C-284.203125 115.84375 -284.203125 115.84375 -284.25 113.5 C-284.28867187 112.33984375 -284.28867187 112.33984375 -284.328125 111.15625 C-284 109 -284 109 -282.74609375 107.25390625 C-279.15200566 104.67291682 -275.20070336 105.350942 -271 106 C-262.48709432 108.36624821 -253.47679875 111.52320125 -247.125 117.875 C-245.55022945 120.8495666 -245.53376182 122.66972728 -246 126 C-248.34832313 130.50878041 -251.42530787 133.4596587 -255.31640625 136.60546875 C-256.98248423 137.98549158 -258.4941712 139.44840133 -260 141 C-259.12859375 141.2784375 -258.2571875 141.556875 -257.359375 141.84375 C-253.25572435 143.25616929 -249.34884278 145.00762236 -245.390625 146.78125 C-227.64744826 153.15898173 -204.64861799 152.31816683 -187 146 C-186.29504395 145.74847168 -185.59008789 145.49694336 -184.86376953 145.23779297 C-181.33046566 143.96635939 -177.82004763 142.65046677 -174.328125 141.26953125 C-171.86424386 140.32967049 -169.57023994 139.53871191 -167 139 C-167.42410156 138.5153125 -167.84820312 138.030625 -168.28515625 137.53125 C-169.52369353 136.11577883 -170.75913756 134.69759763 -171.9921875 133.27734375 C-173.26616299 131.83234821 -174.56098543 130.40526233 -175.8828125 129.00390625 C-181.05898393 123.43560062 -184.99944428 117.5915593 -185.5625 109.8125 C-184.82745769 104.8305466 -183.65540501 103.41171135 -180 100 C-173.24007892 96.5488824 -164.14674151 96.75330223 -156.97265625 98.91015625 C-154.44753588 100.0910772 -152.26094741 101.37385705 -150 103 C-149.14921875 103.59941406 -149.14921875 103.59941406 -148.28125 104.2109375 C-144.83834367 107.36693497 -144.55318521 110.91359378 -144.3125 115.3125 C-144.62772916 123.0005889 -147.39066994 127.65722725 -152.95703125 132.8125 C-154.17233916 133.84217025 -155.41135611 134.84499133 -156.6796875 135.80859375 C-157.11539062 136.20175781 -157.55109375 136.59492188 -158 137 C-158 137.66 -158 138.32 -158 139 C-156.31551982 139.79807198 -154.62723873 140.58812301 -152.9375 141.375 C-151.99777344 141.81585938 -151.05804688 142.25671875 -150.08984375 142.7109375 C-137.73253882 147.86632388 -124.55948748 147.65781196 -112.21875 142.60546875 C-101.64313335 137.33049491 -93.20838392 129.71261871 -88 119 C-88.92897095 119.0314209 -88.92897095 119.0314209 -89.87670898 119.06347656 C-92.73013542 119.1475182 -95.58330036 119.19893445 -98.4375 119.25 C-99.41138672 119.28351563 -100.38527344 119.31703125 -101.38867188 119.3515625 C-108.11468107 119.44154256 -113.15111247 118.39629474 -119 115 C-120 114 -120 114 -120.5 110.875 C-119.78776775 105.35520005 -117.27481394 103.33877709 -113 100 C-105.60432639 94.73111692 -98.59875074 89.86848339 -89.19140625 91.28515625 C-85.87329523 92.36753471 -84.09406198 93.99291535 -82.02734375 96.76953125 C-79.51898557 102.21543437 -80.47976248 108.08162414 -82 113.6875 C-82.33 114.450625 -82.66 115.21375 -83 116 C-82.42233887 115.84313721 -81.84467773 115.68627441 -81.24951172 115.5246582 C-79.13737701 115.03204072 -77.16675291 114.77480245 -75.0078125 114.60546875 C-58.2028976 113.17466923 -41.82222657 110.54187118 -25.5625 106 C-24.70470947 105.76313477 -23.84691895 105.52626953 -22.96313477 105.28222656 C-17.80489403 103.77259749 -13.60492334 101.75701217 -9 99 C-8.34 99 -7.68 99 -7 99 C-5.24310189 93.72930568 -4.75504683 87.7075555 -7.1171875 82.5703125 C-8.00320328 81.20374579 -8.93035657 79.8624958 -9.90625 78.55859375 C-11 77 -11 77 -11 75 C-12.32451172 75.59748047 -12.32451172 75.59748047 -13.67578125 76.20703125 C-35.59816841 85.88490571 -35.59816841 85.88490571 -47 84 C-49.27734375 82.70703125 -49.27734375 82.70703125 -51 81 C-51.87196518 75.85540544 -51.42833662 73.03980587 -48.4375 68.75 C-44.77049653 64.40772083 -41.35689803 61.53531929 -35.6484375 60.625 C-27.62174216 60.2273928 -21.49709968 62.92460771 -15.3125 67.875 C-13.6728125 68.926875 -13.6728125 68.926875 -12 70 C-1.12568871 67.53873613 8.25648626 58.60523671 16 51 C16.598125 50.41476563 17.19625 49.82953125 17.8125 49.2265625 C22.79867859 43.9162823 26.03004234 37.19989044 26.5625 29.875 C25.40865259 21.92627341 20.56363924 17.04911948 14.625 11.953125 C10.74510623 9.06629928 6.58406273 6.79012535 2.30859375 4.54296875 C1.16583984 3.77919922 1.16583984 3.77919922 0 3 C0 2.01 0 1.02 0 0 Z " fill="#2E212A" transform="translate(482,175)"/>
<path d="M0 0 C1.794375 0.29003906 1.794375 0.29003906 3.625 0.5859375 C23.31242262 3.54580815 43.13237983 4.18300004 63 5 C62.67 6.98 62.34 8.96 62 11 C62.99 11 63.98 11 65 11 C65.33 9.35 65.66 7.7 66 6 C74.25 6 82.5 6 91 6 C91 7.65 91 9.3 91 11 C87.12342752 13.58438165 84.15638684 13.36848388 79.59375 13.55859375 C76.64298105 14.06075774 75.73093927 14.59811033 74 17 C73.2730774 20.10839021 73.2730774 20.10839021 73 23 C73.99 23 74.98 23 76 23 C75.95875 22.21625 75.9175 21.4325 75.875 20.625 C76 18 76 18 78 16 C81.30389457 15.48527874 84.60518286 15.17157481 87.93359375 14.85546875 C91.14648167 14.28235766 91.14648167 14.28235766 92.84765625 11.67578125 C93.81922648 9.41976224 94.44500846 7.37668082 95 5 C96.22702637 4.97494385 97.45405273 4.9498877 98.71826172 4.92407227 C104.43723596 4.80640572 110.15613315 4.68526967 115.875 4.5625 C116.90353088 4.54043488 117.93206177 4.51836975 118.99176025 4.49563599 C131.97597178 4.21390094 144.94908666 3.86180657 157.92480469 3.30712891 C165.62220068 2.98651313 173.29645115 2.88559086 181 3 C182.25193505 8.28303483 183.40262745 13.64104124 182 19 C178.38719913 23.03587154 174.17240221 25.22646302 169.40380859 27.70458984 C165.9411487 29.57061396 162.66039538 31.69557263 159.34619141 33.81103516 C154.9396843 36.61032038 150.47214572 39.30723158 146 42 C145.22221191 42.47002441 144.44442383 42.94004883 143.64306641 43.42431641 C123.18533644 55.66341435 104.37830156 63.95274196 80.5625 58 C61.31489673 52.65605639 43.06993074 43.12623783 28 30 C27.15824219 29.2678125 26.31648438 28.535625 25.44921875 27.78125 C18.0921647 21.26149345 11.07334014 14.76251402 5.3203125 6.76171875 C3.73047745 4.6403708 1.90816166 2.83477083 0 1 C0 0.67 0 0.34 0 0 Z " fill="#F9E796" transform="translate(58,361)"/>
<path d="M0 0 C3.67703016 1.44454756 7.0776234 3.17646576 10.546875 5.05859375 C19.08752994 8.86573755 26.75113962 9.82798522 36.0625 9.6875 C37.6702832 9.69233398 37.6702832 9.69233398 39.31054688 9.69726562 C45.65664825 9.65457014 51.37382235 8.98936747 57.5 7.375 C59.35266826 6.99266591 61.20652914 6.61596609 63.0625 6.25 C63.90941406 6.08242188 64.75632812 5.91484375 65.62890625 5.7421875 C66.24636719 5.62101562 66.86382812 5.49984375 67.5 5.375 C67.74234375 5.95507812 67.9846875 6.53515625 68.234375 7.1328125 C71.96145092 15.81976637 76.60778283 21.67433044 83.453125 28.203125 C85.5 30.375 85.5 30.375 85.5 32.375 C78.76720474 35.7943522 71.8730956 38.35499088 64.6875 40.625 C63.87563232 40.88297363 63.06376465 41.14094727 62.22729492 41.40673828 C41.56854832 47.79893512 16.94938818 46.61360325 -2.5 37.125 C-4.17561837 36.22480077 -5.84619042 35.31466453 -7.5 34.375 C-6.34886009 30.92158028 -5.6068256 30.52857642 -2.6875 28.5625 C1.91354933 25.21703325 5.05107235 22.12468183 6 16.3125 C5.34253723 12.44990625 4.35023068 11.08619503 1.5 8.375 C-1.42171523 6.54452781 -4.41979022 4.92168654 -7.5 3.375 C-3.44736842 -0.86184211 -3.44736842 -0.86184211 0 0 Z " fill="#A4B26F" transform="translate(229.5,281.625)"/>
<path d="M0 0 C4.72812872 5.64680657 7.00404162 11.21941655 6.49609375 18.58984375 C6 21 6 21 4.25 23.875 C-16.88648443 37.69500905 -47.31136254 40.14459918 -72 41 C-71.76410156 39.68515625 -71.76410156 39.68515625 -71.5234375 38.34375 C-69.9437907 28.99853516 -69.9437907 28.99853516 -72.9375 20.375 C-76.954958 17.25942032 -79.9550772 16.48320303 -85 17 C-88.16894574 18.03891302 -91.03249804 19.49402054 -94 21 C-95.98928343 21.69799419 -97.98504093 22.38001259 -100 23 C-98.99121675 18.32362494 -97.53991133 15.26646312 -94 12 C-87.63915645 10.11514897 -80.69581134 10.44318763 -74.11572266 10.19970703 C-69.20102124 9.88469169 -64.44416943 8.98283685 -59.625 8 C-58.3709436 7.74972046 -58.3709436 7.74972046 -57.09155273 7.49438477 C-53.87302891 6.83889741 -50.66961331 6.16938578 -47.48486328 5.36376953 C-46.68032715 5.16380371 -45.87579102 4.96383789 -45.046875 4.7578125 C-44.3259668 4.56848145 -43.60505859 4.37915039 -42.86230469 4.18408203 C-39.83341014 3.88468684 -38.28605985 6.14938012 -36 8 C-24.9301422 10.00239749 -13.90751407 4.98192088 -3.92578125 0.734375 C-2 0 -2 0 0 0 Z " fill="#A4B26F" transform="translate(471,250)"/>
<path d="M0 0 C4.49601932 4.14107042 6.66162794 7.08287666 7.37109375 13.19921875 C7.54705695 22.44246223 6.40903083 29.03631497 0.16796875 36.0625 C-7.29989159 43.13266364 -14.43310576 44.49806149 -24.43823242 44.41992188 C-38.05113504 43.95811633 -52.39561076 38.05213352 -62.4375 28.73828125 C-66.5134357 24.20380278 -70.89795655 19.13188279 -72 13 C-69.11788698 12.03929566 -67.30149956 11.89418117 -64.3125 11.9375 C-63.10013672 11.95103516 -63.10013672 11.95103516 -61.86328125 11.96484375 C-60.94095703 11.98224609 -60.94095703 11.98224609 -60 12 C-60 12.99 -60 13.98 -60 15 C-59.01 15 -58.02 15 -57 15 C-57 13.68 -57 12.36 -57 11 C-53.79363027 10.32364936 -50.58463311 9.66067552 -47.375 9 C-46.47136719 8.80921875 -45.56773437 8.6184375 -44.63671875 8.421875 C-40.01796444 7.47789602 -35.74352828 6.74785232 -31 7 C-31.33 7.99 -31.66 8.98 -32 10 C-34.21484375 11.09765625 -34.21484375 11.09765625 -36.9375 12.0625 C-40.83779411 13.42832255 -40.83779411 13.42832255 -44 16 C-44.16677282 19.58343976 -44.16677282 19.58343976 -44 23 C-43.67 23 -43.34 23 -43 23 C-42.814375 21.39125 -42.814375 21.39125 -42.625 19.75 C-42.09765625 17.8125 -42.09765625 17.8125 -41 16 C-38.52423543 14.62695899 -36.10987789 13.76479251 -33.41015625 12.921875 C-30.86638368 11.9488923 -29.67452971 11.12072101 -28 9 C-27.67 8.01 -27.34 7.02 -27 6 C-22.64484531 4.3565454 -20.57950862 3.85512284 -16 5 C-16.33 8.96 -16.66 12.92 -17 17 C-19.76692708 18.20442708 -22.53385417 19.40885417 -25.30078125 20.61328125 C-27.78282022 21.88842428 -29.35093583 22.7715349 -31 25 C-31.2503577 28.62535976 -31.2503577 28.62535976 -31 32 C-30.34 31.67 -29.68 31.34 -29 31 C-28.814375 29.4221875 -28.814375 29.4221875 -28.625 27.8125 C-28.16796875 25.875 -28.16796875 25.875 -27 24 C-24.23828125 22.625 -24.23828125 22.625 -20.9375 21.3125 C-17.64440744 20.00297466 -17.64440744 20.00297466 -15 18 C-14.02586108 14.71501135 -13.98164771 12.1164598 -14.1875 8.70703125 C-14 6 -14 6 -12.328125 4.2421875 C-9.82795853 2.90820606 -7.48021594 2.06690177 -4.75 1.3125 C-3.41195312 0.93544922 -3.41195312 0.93544922 -2.046875 0.55078125 C-1.37140625 0.36902344 -0.6959375 0.18726563 0 0 Z " fill="#A3B06E" transform="translate(416,341)"/>
<path d="M0 0 C10.12126691 3.01140743 19.12612729 10.12670911 24.9375 18.9375 C27.26101872 25.63470103 26.21800679 31.07432949 23.453125 37.421875 C20.71152741 42.28599975 16.95540305 46.10229327 13 50 C12.29746094 50.70125 11.59492188 51.4025 10.87109375 52.125 C5.28109901 57.3958606 -5.03438633 66.70798158 -13 67 C-15.3671875 65.63671875 -15.3671875 65.63671875 -17.875 63.6875 C-22.14028518 60.55547307 -25.6712405 58.01812392 -31.15234375 57.98828125 C-34.98834326 57.90530622 -37.15330099 57.8517996 -39.9453125 55.04296875 C-41.55441497 52.72660962 -42.94397617 50.61710254 -44 48 C-42.77974937 44.3392481 -41.873509 44.07660559 -38.5625 42.3125 C-37.75941406 41.87550781 -36.95632813 41.43851563 -36.12890625 40.98828125 C-34 40 -34 40 -32 40 C-32 39.34 -32 38.68 -32 38 C-31.10168457 37.66266846 -30.20336914 37.32533691 -29.27783203 36.9777832 C-25.94213011 35.71960861 -22.61612087 34.43736851 -19.29248047 33.14770508 C-17.85359966 32.59325461 -16.41218423 32.04533529 -14.96826172 31.50415039 C-12.89107013 30.72431005 -10.82417639 29.92130645 -8.7578125 29.11328125 C-7.78897629 28.75826286 -7.78897629 28.75826286 -6.80056763 28.39607239 C-3.84289317 27.21456515 -2.23642737 26.39852092 -0.58984375 23.62304688 C0.00967747 20.95696411 0.22881307 18.64826534 0.1953125 15.91796875 C0.18564453 14.52094727 0.18564453 14.52094727 0.17578125 13.09570312 C0.15902344 12.13599609 0.14226562 11.17628906 0.125 10.1875 C0.11597656 9.20845703 0.10695313 8.22941406 0.09765625 7.22070312 C0.07417182 4.81354939 0.0413284 2.40690257 0 0 Z " fill="#A5B26F" transform="translate(483,179)"/>
<path d="M0 0 C0.556875 0.804375 1.11375 1.60875 1.6875 2.4375 C6.2282344 8.76209435 12.15148295 12.51876755 19.6875 14.4375 C23.15091548 14.6670294 26.59353042 14.62683182 30.0625 14.5625 C30.98933594 14.55347656 31.91617188 14.54445313 32.87109375 14.53515625 C35.14350077 14.51172937 37.4153618 14.47892748 39.6875 14.4375 C40.04122681 15.2102124 40.04122681 15.2102124 40.40209961 15.99853516 C42.54746235 20.50919042 44.8144246 24.12695888 48.25 27.8125 C49.01441406 28.64523437 49.77882813 29.47796875 50.56640625 30.3359375 C52.70030918 32.58440175 52.70030918 32.58440175 55.6875 34.4375 C55.6875 35.0975 55.6875 35.7575 55.6875 36.4375 C13.14879726 54.62016529 13.14879726 54.62016529 -4.25 48.8125 C-11.64854869 45.69037841 -17.74705771 41.06475494 -22.3125 34.4375 C-21.9825 33.4475 -21.6525 32.4575 -21.3125 31.4375 C-18.765625 30.19140625 -18.765625 30.19140625 -15.5625 29 C-10.51286824 27.11571623 -6.16918849 25.08991213 -3 20.5625 C-2.02977219 17.56361404 -1.88012054 15.5876932 -2.3125 12.4375 C-4.58395423 8.18417934 -7.37901035 5.20551124 -11.3125 2.4375 C-11.3125 1.7775 -11.3125 1.1175 -11.3125 0.4375 C-3.16555077 -2.13888565 -3.16555077 -2.13888565 0 0 Z " fill="#A4B26F" transform="translate(159.3125,278.5625)"/>
<path d="M0 0 C12.03524229 0.03524229 12.03524229 0.03524229 15.8125 3.8125 C16.534375 4.864375 17.25625 5.91625 18 7 C25.24766984 11.78619706 33.57192873 12.64987208 42 14 C41.75830078 14.80244141 41.75830078 14.80244141 41.51171875 15.62109375 C39.64822411 24.28421007 41.08600461 33.47246697 43 42 C27.98020868 47.24920754 6.41438869 49.5536065 -8.55859375 43.3203125 C-16.34313388 39.1104332 -21.62765462 34.32071146 -25 26 C-25 25.34 -25 24.68 -25 24 C-24.03320312 23.82984375 -23.06640625 23.6596875 -22.0703125 23.484375 C-8.32107684 21.34427509 -8.32107684 21.34427509 3.1875 14.1875 C5.28815014 11.08576586 5.28815014 11.08576586 5.0625 7.375 C3.92351598 3.75705077 2.72087527 2.51749671 0 0 Z " fill="#A4B26F" transform="translate(88,267)"/>
<path d="M0 0 C7.26 0 14.52 0 22 0 C21.67 1.98 21.34 3.96 21 6 C21.99 6 22.98 6 24 6 C24.33 4.35 24.66 2.7 25 1 C33.25 1 41.5 1 50 1 C50 2.65 50 4.3 50 6 C46.12342752 8.58438165 43.15638684 8.36848388 38.59375 8.55859375 C35.64298105 9.06075774 34.73093927 9.59811033 33 12 C32.2730774 15.10839021 32.2730774 15.10839021 32 18 C32.99 18 33.98 18 35 18 C34.95875 17.21625 34.9175 16.4325 34.875 15.625 C35 13 35 13 37 11 C40.30389457 10.48527874 43.60518286 10.17157481 46.93359375 9.85546875 C50.14648167 9.28235766 50.14648167 9.28235766 51.84765625 6.67578125 C53.15404089 3.83991891 53.15404089 3.83991891 54 0 C60.27 0 66.54 0 73 0 C73.63706836 16.56377731 73.63706836 16.56377731 67.1640625 24.15234375 C62.38275422 29.21759945 58.24606096 32.60812141 51.1171875 33.46875 C49.70350391 33.50310057 48.28904462 33.51261257 46.875 33.5 C46.12726318 33.49427979 45.37952637 33.48855957 44.60913086 33.48266602 C29.4034017 32.99846943 17.64865324 23.31774453 7.4296875 12.8671875 C4.01812478 8.8413241 2.03906658 4.85157221 0 0 Z " fill="#A3B06E" transform="translate(99,366)"/>
<path d="M0 0 C1.4783226 2.95664519 1.06032783 5.74229737 1 9 C7.87756045 12.73595876 13.80064895 13.63698827 21.5625 13.75 C22.57119141 13.77964844 23.57988281 13.80929687 24.61914062 13.83984375 C27.0795037 13.90980668 29.53896011 13.96286189 32 14 C27.62933673 26.03515973 17.68349794 33.46756752 6.5546875 38.95703125 C0.66156249 41.36294008 -4.84055153 42.38950731 -11.1875 42.375 C-11.9285498 42.37338867 -12.66959961 42.37177734 -13.43310547 42.37011719 C-22.92711704 42.16073574 -31.03950971 39.06576655 -39 34 C-37.86177907 30.58533721 -37.02690251 30.06193481 -34.25 27.9375 C-27.93861975 22.58925678 -25.11683815 16.10001564 -24 8 C-23.17757813 7.91363281 -22.35515625 7.82726562 -21.5078125 7.73828125 C-14.12097865 6.80852964 -5.5470402 5.5470402 0 0 Z " fill="#A4B16F" transform="translate(362,280)"/>
<path d="M0 0 C-2.29000813 14.03553372 -14.14372832 23.86329997 -25.0625 31.75 C-33.37326353 37.35346935 -39.96748693 39.08291394 -50 38 C-57.7220584 35.94681056 -63.46614641 29.59643736 -67.9375 23.25 C-69.85239785 19.1949222 -70.11571547 15.72009962 -70.0625 11.25 C-70.05347656 10.26515625 -70.04445312 9.2803125 -70.03515625 8.265625 C-70.02355469 7.51796875 -70.01195312 6.7703125 -70 6 C-67.14839609 5.18565857 -64.63373869 4.88118758 -61.671875 4.90234375 C-60.47304687 4.90717773 -60.47304687 4.90717773 -59.25 4.91210938 C-58.425 4.92048828 -57.6 4.92886719 -56.75 4.9375 C-55.90953125 4.94201172 -55.0690625 4.94652344 -54.203125 4.95117188 C-52.13538599 4.96292039 -50.06768376 4.98085478 -48 5 C-47.5359375 6.65902344 -47.5359375 6.65902344 -47.0625 8.3515625 C-46.23982198 11.17649363 -45.53015678 13.51349524 -44 16 C-41.1306704 17.4346648 -38.2682063 17.32761065 -35.09375 17.5234375 C-33 18 -33 18 -31 21 C-30.875 24.1875 -30.875 24.1875 -31 27 C-30.34 26.67 -29.68 26.34 -29 26 C-28.54464748 22.08396832 -28.6795812 20.45058894 -31 17.1875 C-34.87829129 14.35957927 -37.26878878 14.3878042 -42 14 C-45.00617269 10.99382731 -44.59585316 8.17618402 -45 4 C-43.18818595 3.80598367 -41.37551468 3.61995625 -39.5625 3.4375 C-38.04849609 3.28087891 -38.04849609 3.28087891 -36.50390625 3.12109375 C-35.67761719 3.08113281 -34.85132813 3.04117187 -34 3 C-33.505 3.495 -33.505 3.495 -33 4 C-31.54379021 4.13053673 -30.08470974 4.22983035 -28.625 4.3125 C-24.28349797 4.76804711 -24.28349797 4.76804711 -21.9375 6.6875 C-20.76493832 9.57981882 -20.78920428 11.90832951 -21 15 C-20.34 14.67 -19.68 14.34 -19 14 C-18.48986953 8.64363011 -19.93788354 6.30384086 -23 2 C-21.46279297 1.90912109 -21.46279297 1.90912109 -19.89453125 1.81640625 C-18.53384305 1.73194974 -17.17316657 1.64730433 -15.8125 1.5625 C-15.13896484 1.52318359 -14.46542969 1.48386719 -13.77148438 1.44335938 C-9.13593294 1.14939758 -4.61660647 0 0 0 Z " fill="#72A26F" transform="translate(309,358)"/>
<path d="M0 0 C2.89705914 0.96423203 5.40978502 2.21950904 8.09375 3.67578125 C21.73682771 10.59618299 36.70619033 12.91452875 51.59375 15.86328125 C50.97560425 16.56251709 50.97560425 16.56251709 50.3449707 17.27587891 C49.80445068 17.8951123 49.26393066 18.5143457 48.70703125 19.15234375 C48.17118408 19.76287598 47.63533691 20.3734082 47.08325195 21.00244141 C42.79669447 26.35765222 42.02799109 32.25982191 41.59375 38.86328125 C23.72983168 39.78727703 5.65592276 36.07728647 -8.56640625 24.609375 C-11.55960413 21.76869676 -13.22843818 19.77012154 -14.03125 15.67578125 C-13.00638698 9.42411682 -8.98077947 5.31222392 -4.484375 1.03515625 C-2.40625 -0.13671875 -2.40625 -0.13671875 0 0 Z " fill="#A5B26F" transform="translate(17.40625,249.13671875)"/>
<path d="M0 0 C0 0.99 0 1.98 0 3 C-8.32726079 6.01698607 -16.66144164 9.01438705 -25 12 C-26.03995117 12.37318359 -27.07990234 12.74636719 -28.15136719 13.13085938 C-31.07757808 14.17777353 -34.00695017 15.21530195 -36.9375 16.25 C-37.78513916 16.55421875 -38.63277832 16.8584375 -39.50610352 17.171875 C-48.21111272 20.22516746 -57.10045699 22.59209557 -66 25 C-66.80549286 25.21924133 -67.61098572 25.43848267 -68.44088745 25.66436768 C-90.34584108 31.62515486 -112.20559721 37.29889066 -134.55126953 41.36914062 C-138.00594763 42.00108797 -141.45403576 42.66237948 -144.90234375 43.328125 C-228.12799497 59.1248784 -317.93249103 60.41119119 -400 38 C-400.33 36.68 -400.66 35.36 -401 34 C-399.78183594 34.27070313 -398.56367188 34.54140625 -397.30859375 34.8203125 C-396.48214355 35.00368164 -395.65569336 35.18705078 -394.80419922 35.37597656 C-392.88606709 35.80282192 -390.96844573 36.23196733 -389.05126953 36.66308594 C-355.15631784 44.26086619 -321.32908222 49.11817624 -286.5703125 49.203125 C-285.36516809 49.20736607 -285.36516809 49.20736607 -284.13567734 49.21169281 C-279.86893152 49.22655732 -275.60221828 49.2358623 -271.33544922 49.24023438 C-267.89393283 49.24458013 -264.45267264 49.25833782 -261.01123047 49.28125 C-193.19806696 49.72329387 -124.80810804 39.01064816 -60 19 C-58.10227316 18.42289602 -56.20454042 17.84581126 -54.30665588 17.26922607 C-39.56872058 12.7829275 -24.95932013 8.09268515 -10.52563477 2.69189453 C-9.57229248 2.33724121 -8.6189502 1.98258789 -7.63671875 1.6171875 C-6.80873779 1.30378418 -5.98075684 0.99038086 -5.12768555 0.66748047 C-3 0 -3 0 0 0 Z " fill="#37232C" transform="translate(443,189)"/>
<path d="M0 0 C0.73828125 1.75 0.73828125 1.75 1 4 C-0.58203125 6 -0.58203125 6 -2.8125 8 C-6.36060894 11.21527748 -8.61526497 13.54579548 -9.37109375 18.3671875 C-9.48777947 22.77378953 -9.36783652 25.36241671 -7.125 29.25 C6.43631282 42.66021184 26.942514 45.08508738 45 46 C44.8453125 44.081875 44.8453125 44.081875 44.6875 42.125 C44.6875 35.29533872 47.51547667 29.57654271 52.21484375 24.703125 C57.5505056 21.44036404 64.05370234 23.10099172 70 24 C73.62451085 24.90904131 76.15977164 26.26480018 79 28.75 C80.57901947 32.30279381 80.14474402 34.31138039 79 38 C73.96475333 44.6244964 65.58179532 47.36894254 57.625 48.46484375 C54.74791866 48.71251703 51.88562658 48.89928005 49 49 C53.58233912 58.75482798 58.0758031 64.1860952 68.0625 68.375 C82.73558326 72.83264555 100.06895007 70.24466791 115 68 C115.99 69.485 115.99 69.485 117 71 C106.88603564 73.36649863 97.016488 74.34247854 86.625 74.4375 C85.00489014 74.47037109 85.00489014 74.47037109 83.35205078 74.50390625 C72.33035108 74.47689642 62.48019557 71.17681921 54 64 C49.58027312 59.3431633 47.61543045 55.24382655 46 49 C44.79085937 49.04640625 43.58171875 49.0928125 42.3359375 49.140625 C31.72952223 49.42452146 23.03042947 48.7339555 13 45 C11.94039062 44.62617188 10.88078125 44.25234375 9.7890625 43.8671875 C2.91459272 41.25246474 -2.56237083 37.94427426 -8 33 C-8.62261719 32.47792969 -9.24523437 31.95585937 -9.88671875 31.41796875 C-13.58789934 27.87208245 -14.4289433 25.06027182 -14.625 19.9375 C-14.13994504 11.44903826 -9.53948955 7.31714608 -3.8046875 1.5390625 C-2 0 -2 0 0 0 Z " fill="#2C1E29" transform="translate(14,242)"/>
<path d="M0 0 C10.5990545 1.65848515 20.03225176 8.88047875 26.66796875 17.0546875 C30.76091688 23.31449052 31.17685899 29.71711903 30 37 C24.80997536 52.72616489 10.83958408 64.30462531 -3.45703125 71.81640625 C-4.29621094 72.20699219 -5.13539063 72.59757812 -6 73 C-5.3162263 76.13096377 -4.2248631 78.88248003 -2.9375 81.8125 C-0.69908481 87.37586039 -0.04734211 91.44286567 -2.1875 97.1875 C-5.95374234 103.03166914 -10.65773504 104.85007967 -17 107 C-16.62317841 104.54291673 -16.4083229 103.33157047 -14.44140625 101.734375 C-9.22222222 99 -9.22222222 99 -7 99 C-5.24310189 93.72930568 -4.75504683 87.7075555 -7.1171875 82.5703125 C-8.00320328 81.20374579 -8.93035657 79.8624958 -9.90625 78.55859375 C-11 77 -11 77 -11 75 C-11.88300781 75.39832031 -12.76601563 75.79664063 -13.67578125 76.20703125 C-35.59816841 85.88490571 -35.59816841 85.88490571 -47 84 C-49.27734375 82.70703125 -49.27734375 82.70703125 -51 81 C-51.87196518 75.85540544 -51.42833662 73.03980587 -48.4375 68.75 C-44.77049653 64.40772083 -41.35689803 61.53531929 -35.6484375 60.625 C-27.62174216 60.2273928 -21.49709968 62.92460771 -15.3125 67.875 C-13.6728125 68.926875 -13.6728125 68.926875 -12 70 C-1.12568871 67.53873613 8.25648626 58.60523671 16 51 C16.598125 50.41476563 17.19625 49.82953125 17.8125 49.2265625 C22.79867859 43.9162823 26.03004234 37.19989044 26.5625 29.875 C25.40865259 21.92627341 20.56363924 17.04911948 14.625 11.953125 C10.74510623 9.06629928 6.58406273 6.79012535 2.30859375 4.54296875 C1.54675781 4.03378906 0.78492188 3.52460938 0 3 C0 2.01 0 1.02 0 0 Z " fill="#2B1E29" transform="translate(482,175)"/>
<path d="M0 0 C4.73951559 5.73730835 4.87506798 11.04397103 4.74609375 18.296875 C3.98651838 25.62078069 0.85555489 30.80132377 -4.4375 35.8125 C-13.28021225 42.73004611 -22.81213589 42.94194307 -33.625 41.875 C-49.65543449 38.89918454 -63.03966478 30.48886818 -72.2421875 17.2421875 C-73.51707943 15.05974539 -74.18121524 13.34426391 -74.625 10.875 C-70.81502826 9.60500942 -68.62687449 9.19671619 -64.625 9.875 C-62.86750299 11.92844858 -61.58440196 14.11014186 -60.19921875 16.4296875 C-54.97906476 24.53841306 -45.40616508 30.0586165 -36.21875 32.51953125 C-28.37682376 33.59425307 -19.18191006 34.44926621 -12.203125 30.140625 C-7.70432082 26.53267314 -4.90687053 22.58515054 -3.625 16.875 C-3.15644545 11.81461081 -3.99348737 8.2442422 -5.96875 3.671875 C-6.625 1.875 -6.625 1.875 -6.625 -1.125 C-3.41158562 -2.67219952 -2.84449757 -2.30268851 0 0 Z " fill="#72A471" transform="translate(418.625,343.125)"/>
<path d="M0 0 C3.26817008 1.66150257 4.78872057 2.81156499 6.328125 6.18359375 C7.38416117 13.6889937 5.82120778 18.53300825 1.578125 24.74609375 C-3.97462729 30.7615754 -3.97462729 30.7615754 -7.671875 32.18359375 C-15.14274142 30.29495872 -20.82974892 23.03873834 -24.671875 16.68359375 C-26.82479694 12.37774986 -28.33069017 8.04000268 -27.671875 3.18359375 C-20.89098845 -5.85758832 -9.38867457 -3.87618136 0 0 Z " fill="#A4B26F" transform="translate(327.671875,278.81640625)"/>
<path d="M0 0 C3.47518915 -0.55630498 6.54540519 -0.75845239 10 0 C12.01038713 2.01486461 13.20068769 4.08577882 14.6015625 6.55859375 C19.36101512 14.86769399 27.47339344 19.17921681 36 23 C43.4349388 24.92511808 50.19412026 24.79558678 57 21 C63.30145192 15.55783698 65.2806627 11.15188335 65.88671875 3.01171875 C65.92410156 2.34785156 65.96148437 1.68398438 66 1 C68.31 1 70.62 1 73 1 C73.51769693 10.43358846 73.38343449 16.85179608 67.1640625 24.15625 C62.37865143 29.21668469 58.24629585 32.60809306 51.1171875 33.46875 C49.70350391 33.50310057 48.28904462 33.51261257 46.875 33.5 C46.12726318 33.49427979 45.37952637 33.48855957 44.60913086 33.48266602 C29.4034017 32.99846943 17.64865324 23.31774453 7.4296875 12.8671875 C4.08691891 8.9225056 1.88251636 4.79469635 0 0 Z " fill="#72A571" transform="translate(99,366)"/>
<path d="M0 0 C0.94875 0.86625 1.8975 1.7325 2.875 2.625 C15.79763275 13.58731321 32.21368093 19.00614953 49 19.625 C49.87011719 19.66367187 50.74023438 19.70234375 51.63671875 19.7421875 C53.75750486 19.83540887 55.87872185 19.91874136 58 20 C58.67119549 21.4562545 59.33681807 22.91507867 60 24.375 C60.37125 25.18710937 60.7425 25.99921875 61.125 26.8359375 C62 29 62 29 62 31 C49.11378314 35.06588013 33.56616251 31.33975571 21.8125 25.875 C13.0133991 21.22530789 5.04327203 15.31710512 1 6 C0.25 2.5625 0.25 2.5625 0 0 Z " fill="#A3AF6D" transform="translate(2,271)"/>
<path d="M0 0 C8.86386668 0.09599856 18.55710595 4.42814042 25.8125 9.375 C27.8125 12.375 27.8125 12.375 27.75 15.25 C26.5572292 19.22590268 24.96859525 20.69918012 21.8125 23.375 C21.24789062 23.85582031 20.68328125 24.33664062 20.1015625 24.83203125 C17.48871935 26.90290912 15.67051564 28.28919844 12.3125 28.625 C4.76304929 24.85027464 -0.61094415 16.79343484 -4.1875 9.375 C-4.7681002 6.36643533 -4.64326137 4.45138922 -4.1875 1.375 C-3.1875 0.375 -3.1875 0.375 0 0 Z " fill="#A3B16E" transform="translate(205.1875,283.625)"/>
<path d="M0 0 C2.6875 1.8125 2.6875 1.8125 4 5 C4.6641986 10.90693954 4.30188863 15.52139026 2 21 C-1.68734775 21.08776185 -5.37442347 21.14064603 -9.0625 21.1875 C-10.62000977 21.22520508 -10.62000977 21.22520508 -12.20898438 21.26367188 C-18.18221463 21.32055978 -22.88363884 21.27134881 -28 18 C-29.1796875 15.5625 -29.1796875 15.5625 -29 13 C-22.27539742 4.07891919 -11.20828643 -2.17229004 0 0 Z " fill="#A3B06E" transform="translate(394,270)"/>
<path d="M0 0 C4.62 0 9.24 0 14 0 C14.28875 1.0725 14.5775 2.145 14.875 3.25 C15.72944563 6.09815211 16.45398549 8.48772642 18 11 C20.8693296 12.4346648 23.7317937 12.32761065 26.90625 12.5234375 C29 13 29 13 31 16 C31.39387788 18.32387947 31.73486085 20.65793749 32 23 C26.73504371 25.25640984 21.79209275 27.27658146 16 26 C8.95300222 23.05385851 4.07138335 19.05703895 1 12 C-0.26324519 7.95441731 -0.0701617 4.20970197 0 0 Z " fill="#A3B26F" transform="translate(247,363)"/>
<path d="M0 0 C7.44380945 0.46523809 12.92636375 3.53104079 18.0625 8.9375 C20 12 20 12 20.25 15 C17.6971869 21.12675143 12.70189921 23.90012537 6.75 26.375 C3.87609596 27.47279564 2.10326309 28 -1 28 C-4.0142572 20.58995105 -6.32380187 11.57310059 -3.09765625 3.8359375 C-2 2.1875 -2 2.1875 0 0 Z " fill="#A3B06E" transform="translate(135,280)"/>
<path d="M0 0 C-3.79726734 10.49832736 -10.9650489 17.6478409 -20 24 C-20.33 24 -20.66 24 -21 24 C-21.2475 22.741875 -21.495 21.48375 -21.75 20.1875 C-22.43007238 17.551055 -22.85546462 16.17233065 -24.625 14.0625 C-26.94892515 13.02284928 -28.62056437 12.71879531 -31.125 12.4375 C-35 12 -35 12 -37 10 C-37.56520003 7.34462628 -37.73788198 4.70855287 -38 2 C-36.18818595 1.80598367 -34.37551468 1.61995625 -32.5625 1.4375 C-31.04849609 1.28087891 -31.04849609 1.28087891 -29.50390625 1.12109375 C-28.67761719 1.08113281 -27.85132813 1.04117187 -27 1 C-26.67 1.33 -26.34 1.66 -26 2 C-24.54379021 2.13053673 -23.08470974 2.22983035 -21.625 2.3125 C-17.28349797 2.76804711 -17.28349797 2.76804711 -14.9375 4.6875 C-13.76493832 7.57981882 -13.78920428 9.90832951 -14 13 C-13.34 12.67 -12.68 12.34 -12 12 C-11.49576981 6.70558305 -12.81076967 4.18586481 -16 0 C-14.27185839 -0.19672365 -12.54240803 -0.38196799 -10.8125 -0.5625 C-9.84957031 -0.66691406 -8.88664062 -0.77132813 -7.89453125 -0.87890625 C-5.05766623 -0.99758751 -2.74576329 -0.67765639 0 0 Z " fill="#A3B06E" transform="translate(302,360)"/>
<path d="M0 0 C4.50866521 1.5028884 8.20745758 3.04389824 11 7 C11.1875 9.4375 11.1875 9.4375 10 12 C3.57193862 18.2750123 -6.63462454 20.83667966 -15.46484375 21.10546875 C-16.71974609 21.05326172 -16.71974609 21.05326172 -18 21 C-18.51001659 13.85976771 -17.26099336 8.98458656 -12.6796875 3.38671875 C-8.8547155 -0.32329507 -5.05850751 -0.90015994 0 0 Z " fill="#A2B06E" transform="translate(80,267)"/>
<path d="M0 0 C4.51424059 2.1671022 7.89445432 4.33809874 11.33203125 8.01953125 C8.46085609 9.17511398 5.58449196 10.31719992 2.70703125 11.45703125 C1.49466797 11.94526367 1.49466797 11.94526367 0.2578125 12.44335938 C-6.83795146 15.24128256 -13.05733373 16.27321908 -20.66796875 16.01953125 C-21.32796875 15.68953125 -21.98796875 15.35953125 -22.66796875 15.01953125 C-23.24239215 11.73711184 -23.12835119 9.70439768 -21.25 6.91015625 C-15.18103775 -0.18108323 -9.28962421 -3.41390289 0 0 Z " fill="#A1AF6D" transform="translate(456.66796875,239.98046875)"/>
<path d="M0 0 C1.26169079 0.64426764 2.51693469 1.30250851 3.75 2 C1.58833643 6.77531135 -1.18377231 8.20886373 -6.03515625 10.06640625 C-15.18543475 12.72365602 -24.40602653 10.97753015 -33.25 8 C-32.25 5 -32.25 5 -29.6328125 3.4296875 C-28.55773437 2.91664062 -27.48265625 2.40359375 -26.375 1.875 C-25.30507812 1.35679688 -24.23515625 0.83859375 -23.1328125 0.3046875 C-15.65058139 -3.0815797 -7.5631169 -3.39740013 0 0 Z " fill="#FAE595" transform="translate(256.25,33)"/>
<path d="M0 0 C0.69931641 -0.020625 1.39863281 -0.04125 2.11914062 -0.0625 C6.91056977 -0.09835728 10.08602236 0.80327864 14.1875 3.25 C13.83343112 5.83912866 13.49118339 6.98287109 11.5 8.734375 C2.73942222 13.52901554 -7.26659218 13.70464618 -16.90625 11.5625 C-19.375 10.75 -19.375 10.75 -22.8125 9.25 C-16.85013582 2.29390846 -8.85676983 0.06423768 0 0 Z " fill="#FAE696" transform="translate(155.8125,98.75)"/>
<path d="M0 0 C-1.18479723 6.45056269 -3.70930721 10.10112522 -9 14 C-16.15427528 18.09736486 -22.73948294 20.71998247 -31 21 C-28.7013128 12.73194709 -22.83333073 6.43378213 -15.625 1.875 C-10.55816376 -0.68083775 -5.54765179 -0.46662492 0 0 Z " fill="#FAE696" transform="translate(273,83)"/>
<path d="M0 0 C-0.27023548 6.48565141 -2.50277114 10.35096595 -7 15 C-13.20609142 20.22489119 -20.48859626 23.12761887 -28 26 C-26.62171014 17.22330367 -21.85021794 9.83783848 -14.94140625 4.37109375 C-9.80733046 0.74521729 -6.32124969 -0.37927498 0 0 Z " fill="#FAE696" transform="translate(184,41)"/>
<path d="M0 0 C-1.19392642 3.71443776 -3.45845084 5.42841786 -6.85546875 7.22363281 C-10.98704212 8.71935268 -15.15861474 8.49167089 -19.5 8.375 C-20.41136719 8.37371094 -21.32273437 8.37242188 -22.26171875 8.37109375 C-27.53763439 8.30257537 -32.00788566 7.71432498 -37 6 C-37 5.34 -37 4.68 -37 4 C-26.20442793 -4.69962324 -12.1274768 -7.60939721 0 0 Z " fill="#FAE696" transform="translate(317,43)"/>
<path d="M0 0 C-1.23398981 3.70196942 -2.89426616 4.31217164 -6.2109375 6.1328125 C-10.88534541 8.39857354 -15.17134278 8.21917355 -20.25 8.25 C-21.08402344 8.270625 -21.91804688 8.29125 -22.77734375 8.3125 C-28.30088323 8.34718471 -32.07864319 7.52718323 -37 5 C-27.8690029 -5.65282995 -11.56653953 -7.11787048 0 0 Z " fill="#FAE696" transform="translate(329,98)"/>
<path d="M0 0 C9.00896418 0.0507456 16.55700158 1.63192065 23.25 7.9375 C26.0625 10.89490632 26.0625 10.89490632 26.0625 14.375 C20.99910316 16.90669842 13.60151425 16.15232339 8.33203125 14.5390625 C1.87724209 11.48099069 -3.54167846 7.00162996 -8.9375 2.375 C-6.07025467 -0.49224533 -4.00335824 0.04064323 0 0 Z " fill="#FAE796" transform="translate(190.9375,75.625)"/>
<path d="M0 0 C3.02517133 1.57349515 4.71144092 3.2085242 6.328125 6.2109375 C6.328125 7.2009375 6.328125 8.1909375 6.328125 9.2109375 C-0.31671224 8.26369474 -5.54557213 6.54124745 -11.34765625 3.13671875 C-15.55563144 1.4606009 -19.3752085 3.3628281 -23.484375 4.7734375 C-24.66966797 5.17755859 -24.66966797 5.17755859 -25.87890625 5.58984375 C-26.47058594 5.79480469 -27.06226563 5.99976563 -27.671875 6.2109375 C-27.3374724 3.11771346 -27.1123632 1.62205982 -24.796875 -0.5390625 C-17.11201901 -5.05956602 -7.84381457 -3.15993673 0 0 Z " fill="#6EA06E" transform="translate(327.671875,278.7890625)"/>
<path d="M0 0 C3.62451085 0.90904131 6.15977164 2.26480018 9 4.75 C10.57901947 8.30279381 10.14474402 10.31138039 9 14 C5.88114282 17.64816715 2.76122114 20.09610371 -2 21 C-1.875 19.25 -1.875 19.25 -1 17 C-0.01 16.360625 0.98 15.72125 2 15.0625 C5.21237 13.30571613 5.21237 13.30571613 5.875 10.25 C5.91625 9.5075 5.9575 8.765 6 8 C1.59258755 3.79329426 1.59258755 3.79329426 -4 2 C-5.258125 1.87625 -6.51625 1.7525 -7.8125 1.625 C-12.01738921 1.64853483 -14.28849689 3.16689409 -17.45703125 5.80859375 C-19 7 -19 7 -22 8 C-18.59119178 -3.15609962 -9.50224718 -1.43662484 0 0 Z " fill="#2F242C" transform="translate(84,266)"/>
<path d="M0 0 C-0.598125 0.28875 -1.19625 0.5775 -1.8125 0.875 C-4.19327792 2.04742026 -4.19327792 2.04742026 -7 4 C-7.35853664 6.75950354 -7.35853664 6.75950354 -7.3125 9.875 C-7.66583114 15.67378754 -7.66583114 15.67378754 -10.625 18.5625 C-12.96716183 19.56008745 -15.34716152 20.47150653 -17.75 21.3125 C-21.36374244 22.73531737 -21.36374244 22.73531737 -22.4375 26.6875 C-22.623125 27.780625 -22.80875 28.87375 -23 30 C-23.66 30 -24.32 30 -25 30 C-25.8125 26.8125 -25.8125 26.8125 -26 23 C-22.39258073 17.52667422 -17.05161062 16.44533613 -11 15 C-11.02320313 14.15695312 -11.04640625 13.31390625 -11.0703125 12.4453125 C-11.08835937 11.34960938 -11.10640625 10.25390625 -11.125 9.125 C-11.14820313 8.03445313 -11.17140625 6.94390625 -11.1953125 5.8203125 C-11 3 -11 3 -9 1 C-5.97380078 -0.04351697 -3.18208557 -0.08839127 0 0 Z " fill="#30222B" transform="translate(410,343)"/>
<path d="M0 0 C1.32 0.33 2.64 0.66 4 1 C4.144375 2.134375 4.28875 3.26875 4.4375 4.4375 C4.61171478 7.80777201 4.61171478 7.80777201 6 9 C7.60120333 9.26832551 9.20609641 9.51480182 10.8125 9.75 C14.39459208 10.44694495 15.79093734 10.82080344 18.625 13.25 C20.20780968 16.41561935 20.32509803 18.50519616 20 22 C19.01 22.33 18.02 22.66 17 23 C16.34 20.36 15.68 17.72 15 15 C14.09507812 14.94392578 14.09507812 14.94392578 13.171875 14.88671875 C12.37265625 14.82097656 11.5734375 14.75523437 10.75 14.6875 C9.96109375 14.62949219 9.1721875 14.57148438 8.359375 14.51171875 C5.46371805 13.88368719 4.07986737 13.11635628 2 11 C1.171875 8.30078125 1.171875 8.30078125 0.75 5.3125 C0.60046875 4.31863281 0.4509375 3.32476562 0.296875 2.30078125 C0.19890625 1.54152344 0.1009375 0.78226562 0 0 Z " fill="#342A2F" transform="translate(261,362)"/>
<path d="M0 0 C0.66 0 1.32 0 2 0 C2.36395147 5.4592721 2.36395147 5.4592721 0.90625 7.625 C-1.83468446 9.60206748 -4.35966074 9.75916425 -7.6875 10.1875 C-8.86699219 10.34605469 -10.04648438 10.50460937 -11.26171875 10.66796875 C-12.16535156 10.77753906 -13.06898438 10.88710938 -14 11 C-14.66 12.98 -15.32 14.96 -16 17 C-16.99 17 -17.98 17 -19 17 C-19.3016748 13.6815772 -19.35172282 11.61970211 -17.6875 8.6875 C-14.03413673 6.39352772 -10.81307703 6.46922973 -6.55859375 6.37109375 C-3.97695574 6.20613579 -3.97695574 6.20613579 -2.22265625 4.66015625 C-0.79612509 2.90162178 -0.79612509 2.90162178 0 0 Z " fill="#2C202A" transform="translate(150,367)"/>
<path d="M0 0 C0.66 0 1.32 0 2 0 C1.69246795 2.84467143 1.45163899 4.53029545 -0.5625 6.625 C-2.80256816 7.8886282 -4.68428038 8.51468338 -7.125 9.25 C-9.2290873 9.89807017 -9.2290873 9.89807017 -11 11 C-12.61135346 14.54863159 -12.61135346 14.54863159 -13 18 C-13.66 17.67 -14.32 17.34 -15 17 C-15.3125 13.75 -15.3125 13.75 -15 10 C-11.72555142 6.30304192 -7.39225807 4.73332194 -2.890625 2.9296875 C-0.82260315 2.14961753 -0.82260315 2.14961753 0 0 Z " fill="#2E212B" transform="translate(386,347)"/>
<path d="M0 0 C4.11045466 0.03709797 7.48755942 0.89168647 11.375 2.1875 C6.75295091 4.69110992 1.67549345 7.1875 -3.625 7.1875 C-3.955 7.8475 -4.285 8.5075 -4.625 9.1875 C-4.72265625 3.03515625 -4.72265625 3.03515625 -4.625 1.1875 C-3.625 0.1875 -3.625 0.1875 0 0 Z " fill="#6D9C6C" transform="translate(205.625,283.8125)"/>
<path d="M0 0 C0 3.1875 0 3.1875 -1 7 C-3.81200773 9.49681565 -7.13904254 12 -11 12 C-10.40503246 8.67258892 -9.29522827 6.82909592 -7.0625 4.3125 C-6.53785156 3.71050781 -6.01320313 3.10851562 -5.47265625 2.48828125 C-3.64227348 0.63847797 -2.62199707 0 0 0 Z " fill="#6E9F6E" transform="translate(445,240)"/>
<path d="M0 0 C4.95 0 9.9 0 15 0 C15 0.99 15 1.98 15 3 C11.71480525 4.09506492 9.26336585 4.09960608 5.8125 4.0625 C4.18248047 4.04896484 4.18248047 4.04896484 2.51953125 4.03515625 C1.68808594 4.02355469 0.85664063 4.01195312 0 4 C0 2.68 0 1.36 0 0 Z " fill="#4B3032" transform="translate(401,438)"/>
<path d="M0 0 C10.99339095 -0.77783427 10.99339095 -0.77783427 14.75 2.125 C16.14437917 5.3320721 16.32198205 7.53869295 16 11 C15.01 11.33 14.02 11.66 13 12 C12.86722656 11.43410156 12.73445313 10.86820312 12.59765625 10.28515625 C12.42105469 9.55167969 12.24445313 8.81820313 12.0625 8.0625 C11.88847656 7.33160156 11.71445312 6.60070312 11.53515625 5.84765625 C11.16112431 4.00030102 11.16112431 4.00030102 10 3 C7.68047431 2.71898054 5.36114486 2.55217375 3.03125 2.37890625 C2.3609375 2.25386719 1.690625 2.12882812 1 2 C0.67 1.34 0.34 0.68 0 0 Z " fill="#291C28" transform="translate(275,361)"/>
<path d="M0 0 C0.69287109 0.06574219 1.38574219 0.13148438 2.09960938 0.19921875 C3.79758519 0.36316124 5.49293703 0.55389963 7.1875 0.75 C4.11096057 2.51679315 3.12195157 2.74677631 -0.625 2.5625 C-4.90188796 2.41887317 -7.04870969 3.87330072 -10.26953125 6.55859375 C-11.8125 7.75 -11.8125 7.75 -14.8125 8.75 C-12.40892192 0.88374448 -7.76073476 -0.93574409 0 0 Z " fill="#3C2D30" transform="translate(76.8125,265.25)"/>
<path d="M0 0 C2.82711727 0.36277169 3.89365198 0.89149044 5.921875 2.9609375 C6.52515625 3.75757812 7.1284375 4.55421875 7.75 5.375 C8.36359375 6.16648437 8.9771875 6.95796875 9.609375 7.7734375 C11 10 11 10 11 13 C8.38070828 12.61932203 7.20808367 12.21295682 5.33203125 10.29296875 C4.83058594 9.59816406 4.32914062 8.90335938 3.8125 8.1875 C3.04873047 7.15689453 3.04873047 7.15689453 2.26953125 6.10546875 C1.02267792 4.03761046 0.44004843 2.35929578 0 0 Z " fill="#3A252D" transform="translate(435,103)"/>
<path d="M0 0 C3.62840973 0.61583101 5.86120883 2.13760292 8.75 4.375 C9.54921875 4.98085937 10.3484375 5.58671875 11.171875 6.2109375 C11.77515625 6.80132812 12.3784375 7.39171875 13 8 C13 8.99 13 9.98 13 11 C9.64525899 10.40885621 7.87172235 9.28774559 5.375 7 C2.87625688 4.72782776 2.87625688 4.72782776 0 3 C0 2.01 0 1.02 0 0 Z " fill="#38242C" transform="translate(397,102)"/>
<path d="M0 0 C4.22489602 0.53280216 6.54080716 1.87678199 9.8125 4.5625 C10.60269531 5.20316406 11.39289063 5.84382813 12.20703125 6.50390625 C12.79871094 6.99761719 13.39039063 7.49132812 14 8 C13.67 8.99 13.34 9.98 13 11 C9.76306836 9.51516897 7.0674375 7.67292565 4.25 5.5 C3.45078125 4.8915625 2.6515625 4.283125 1.828125 3.65625 C1.22484375 3.1096875 0.6215625 2.563125 0 2 C0 1.34 0 0.68 0 0 Z " fill="#38242C" transform="translate(368,80)"/>
<path d="M0 0 C4.07690223 0.52835511 6.25617734 1.64675717 9.3125 4.375 C10.00988281 4.98085938 10.70726562 5.58671875 11.42578125 6.2109375 C13 8 13 8 13 11 C8.39202176 9.50918351 5.60468578 7.12406101 2 4 C1.34 3.67 0.68 3.34 0 3 C0 2.01 0 1.02 0 0 Z " fill="#37232B" transform="translate(358,55)"/>
<path d="M0 0 C2.82711727 0.36277169 3.89365198 0.89149044 5.921875 2.9609375 C6.52515625 3.75757812 7.1284375 4.55421875 7.75 5.375 C8.36359375 6.16648437 8.9771875 6.95796875 9.609375 7.7734375 C11 10 11 10 11 13 C10.01 13 9.02 13 8 13 C6.39453125 11.3203125 6.39453125 11.3203125 4.8125 9.125 C4.28269531 8.40570313 3.75289063 7.68640625 3.20703125 6.9453125 C2 5 2 5 2 3 C1.34 3 0.68 3 0 3 C0 2.01 0 1.02 0 0 Z " fill="#35222B" transform="translate(431,120)"/>
<path d="M0 0 C4.07690223 0.52835511 6.25617734 1.64675717 9.3125 4.375 C10.00988281 4.98085937 10.70726562 5.58671875 11.42578125 6.2109375 C13 8 13 8 13 11 C8.39202176 9.50918351 5.60468578 7.12406101 2 4 C1.34 3.67 0.68 3.34 0 3 C0 2.01 0 1.02 0 0 Z " fill="#35222B" transform="translate(389,76)"/>
<path d="M0 0 C4.07690223 0.52835511 6.25617734 1.64675717 9.3125 4.375 C10.00988281 4.98085938 10.70726562 5.58671875 11.42578125 6.2109375 C13 8 13 8 13 11 C9.94965232 9.53779205 7.09628974 7.89026449 4.25 6.0625 C3.45078125 5.55847656 2.6515625 5.05445313 1.828125 4.53515625 C1.22484375 4.02855469 0.6215625 3.52195313 0 3 C0 2.01 0 1.02 0 0 Z " fill="#36232B" transform="translate(384,57)"/>
<path d="M0 0 C-0.33 1.32 -0.66 2.64 -1 4 C-5.62 4 -10.24 4 -15 4 C-15.33 3.01 -15.66 2.02 -16 1 C-13.70839646 0.83246763 -11.41671509 0.66599948 -9.125 0.5 C-7.84882813 0.4071875 -6.57265625 0.314375 -5.2578125 0.21875 C-3.50763316 0.10123196 -1.75412035 0 0 0 Z " fill="#34212B" transform="translate(356,450)"/>
<path d="M0 0 C4.1724106 0.51881113 6.25416821 1.71151274 9.3125 4.5625 C10.00988281 5.20316406 10.70726562 5.84382813 11.42578125 6.50390625 C11.94527344 6.99761719 12.46476562 7.49132812 13 8 C12.67 8.99 12.34 9.98 12 11 C10.57631955 10.0508797 9.15336019 9.10065698 7.734375 8.14453125 C6.05605185 7.03698917 4.34080062 5.98604483 2.625 4.9375 C1.325625 3.9784375 1.325625 3.9784375 0 3 C0 2.01 0 1.02 0 0 Z " fill="#36222B" transform="translate(411,76)"/>
<path d="M0 0 C5.28 0 10.56 0 16 0 C15.67 0.99 15.34 1.98 15 3 C10.05 3 5.1 3 0 3 C0 2.01 0 1.02 0 0 Z " fill="#301F29" transform="translate(329,462)"/>
<path d="M0 0 C5.28 0 10.56 0 16 0 C15.67 0.99 15.34 1.98 15 3 C10.05 3 5.1 3 0 3 C0 2.01 0 1.02 0 0 Z " fill="#2C1C28" transform="translate(363,462)"/>
<path d="M0 0 C5.28 0 10.56 0 16 0 C15.67 0.99 15.34 1.98 15 3 C10.05 3 5.1 3 0 3 C0 2.01 0 1.02 0 0 Z " fill="#311F2A" transform="translate(398,460)"/>
<path d="M0 0 C5.28 0 10.56 0 16 0 C15.67 0.99 15.34 1.98 15 3 C10.05 3 5.1 3 0 3 C0 2.01 0 1.02 0 0 Z " fill="#2C1C28" transform="translate(377,451)"/>
<path d="M0 0 C5.28 0 10.56 0 16 0 C15.67 0.99 15.34 1.98 15 3 C10.05 3 5.1 3 0 3 C0 2.01 0 1.02 0 0 Z " fill="#2B1B28" transform="translate(421,450)"/>
<path d="M0 0 C5.28 0 10.56 0 16 0 C15.67 0.99 15.34 1.98 15 3 C10.05 3 5.1 3 0 3 C0 2.01 0 1.02 0 0 Z " fill="#2B1B28" transform="translate(358,440)"/>
<path d="M0 0 C5.28139679 1.48539285 9.28054101 5.08672304 13 9 C13 9.66 13 10.32 13 11 C9.37159027 10.38416899 7.13879117 8.86239708 4.25 6.625 C3.45078125 6.01914063 2.6515625 5.41328125 1.828125 4.7890625 C0.92320312 3.90347656 0.92320312 3.90347656 0 3 C0 2.01 0 1.02 0 0 Z " fill="#33212A" transform="translate(413,97)"/>
<path d="M0 0 C0.66 0.33 1.32 0.66 2 1 C1.01 3.97 0.02 6.94 -1 10 C-1.99 10 -2.98 10 -4 10 C-4.25 7.25 -4.25 7.25 -4 4 C-2 1.625 -2 1.625 0 0 Z " fill="#32282E" transform="translate(135,374)"/>
<path d="M0 0 C1.32 0.33 2.64 0.66 4 1 C4 2.65 4 4.3 4 6 C3.01 6.33 2.02 6.66 1 7 C0.67 4.69 0.34 2.38 0 0 Z " fill="#413A36" transform="translate(384,366)"/>
<path d="M0 0 C0 0.33 0 0.66 0 1 C-0.62648438 1.03738281 -1.25296875 1.07476562 -1.8984375 1.11328125 C-2.71570313 1.17902344 -3.53296875 1.24476563 -4.375 1.3125 C-5.59316406 1.39951172 -5.59316406 1.39951172 -6.8359375 1.48828125 C-9.37921338 1.82990528 -9.37921338 1.82990528 -11 5 C-11.99 4.67 -12.98 4.34 -14 4 C-10.36515075 -1.28705346 -5.79646176 -0.3982302 0 0 Z " fill="#352E31" transform="translate(454,236)"/>
<path d="M0 0 C2.0625 0.4375 2.0625 0.4375 4 1 C3.34 2.65 2.68 4.3 2 6 C1.01 6 0.02 6 -1 6 C-1.042721 4.33388095 -1.04063832 2.66617115 -1 1 C-0.67 0.67 -0.34 0.34 0 0 Z " fill="#38242B" transform="translate(121,366)"/>
</svg>
