<?xml version="1.0" encoding="UTF-8"?>
<svg version="1.1" xmlns="http://www.w3.org/2000/svg" width="512" height="512">
<path d="M0 0 C6.81106948 3.78050312 10.3406981 8.7507093 14.25 15.34765625 C18.209996 21.34952519 24.06948609 25.13827001 30 29 C32.43638232 31.10032958 32.94893544 31.84680631 34 35 C34.12471504 36.79035368 34.22655184 38.58236701 34.3125 40.375 C34.72216897 45.26542329 35.63719607 47.34895574 39 51 C40.05095616 53.30885735 40.98130597 55.63784399 41.875 58.01171875 C43.23691924 60.41872184 44.46340529 61.01178498 47 62 C47.4125 61.27554688 47.825 60.55109375 48.25 59.8046875 C54.67358797 49.05091299 62.21039463 43.46151208 74.25 40.08984375 C79.61663212 38.77867795 84.45427448 37.83371138 90 38 C90.185625 37.34 90.37125 36.68 90.5625 36 C93.13026452 30.64118709 96.98319181 26.43417471 101.8125 23 C106.99440874 21.37430314 112.016314 20.84295121 117.17578125 22.84375 C133.11833378 32.00684816 139.72990612 52.48703918 145 69 C147.96867248 69.1940285 147.96867248 69.1940285 150.375 68 C153 67 153 67 158 67 C158.33 63.37 158.66 59.74 159 56 C157.35 55.67 155.7 55.34 154 55 C151.81280967 51.71921451 151.78208073 51.19409949 152.25 47.5 C152.33765625 46.7265625 152.4253125 45.953125 152.515625 45.15625 C153 43 153 43 155 40 C161.90174753 38.82601115 169.59747886 40.38272802 176.484375 41.2421875 C177.54360168 41.37062042 178.60282837 41.49905334 179.69415283 41.63137817 C181.91642062 41.90248689 184.13832285 42.17660759 186.35986328 42.45361328 C189.75317677 42.87539487 193.14790293 43.28399835 196.54296875 43.69140625 C198.71103432 43.9575458 200.87900662 44.22444651 203.046875 44.4921875 C204.05635193 44.6131076 205.06582886 44.73402771 206.105896 44.85861206 C210.92267109 45.4680112 215.50524611 46.05165801 220 48 C221.33972193 50.67944385 220.98479055 52.52598631 220.75 55.5 C220.64945312 56.96953125 220.64945312 56.96953125 220.546875 58.46875 C220 61 220 61 217 63 C215.35 63 213.7 63 212 63 C211.67 66.63 211.34 70.26 211 74 C212.65 74.33 214.3 74.66 216 75 C217.94921875 76.19921875 217.94921875 76.19921875 219.6875 77.6875 C220.26886719 78.16574219 220.85023438 78.64398438 221.44921875 79.13671875 C224.56135853 82.87598997 225.17509259 86.60281435 224.86328125 91.3359375 C224.69299744 93.01702649 224.50850177 94.69671514 224.3125 96.375 C224.21727051 97.29708252 224.12204102 98.21916504 224.02392578 99.16918945 C223.51320137 103.96943415 222.90594199 108.74548089 222.19140625 113.51953125 C220.59698725 124.34074395 219.74916713 134.96865083 219.77734375 145.91015625 C219.77818781 146.60769264 219.77903187 147.30522903 219.7799015 148.02390289 C219.83864173 172.57710818 220.99423036 197.12117439 221.93543214 221.65292609 C222.22061616 229.09358275 222.49802209 236.53452429 222.77503192 243.97548902 C223.26938483 257.25028033 223.76903949 270.5248661 224.27246094 283.79931641 C224.7595164 296.64266501 225.24493033 309.48607332 225.72753906 322.32958984 C225.772344 323.5219236 225.772344 323.5219236 225.81805408 324.73834491 C226.14440251 333.42449054 226.47019328 342.11065698 226.79542542 350.79684448 C226.82402344 351.56058935 226.85262147 352.32433421 226.8820861 353.11122286 C226.99640357 356.16433962 227.11071911 359.21745644 227.22496808 362.27057576 C227.55812169 371.1730399 227.8929709 380.07543639 228.23095441 388.97771853 C228.46730057 395.20379799 228.70193612 401.42994076 228.93598557 407.65610695 C229.03207025 410.20302634 229.12880565 412.74992128 229.22624588 415.29678917 C229.3593326 418.77714288 229.49011321 422.25757618 229.62036133 425.73803711 C229.65927081 426.74016361 229.69818029 427.74229012 229.73826885 428.77478409 C229.96280851 434.85299368 230.04531073 440.91777845 230 447 C222.09799076 447.14291674 214.19597162 447.28527618 206.29394531 447.42724609 C203.60514015 447.4755796 200.91633829 447.52409119 198.22753906 447.57275391 C194.36524034 447.64258883 190.50293361 447.71196472 186.640625 447.78125 C185.4363385 447.80312378 184.232052 447.82499756 182.99127197 447.84753418 C181.87041199 447.86755493 180.749552 447.88757568 179.59472656 447.90820312 C178.60877502 447.92596802 177.62282349 447.94373291 176.60699463 447.96203613 C173.02751787 448.01416159 169.44864409 447.99977911 165.86896133 447.98438263 C164.63956829 447.97915754 164.63956829 447.97915754 163.38533902 447.97382689 C162.49039943 447.96993594 161.59545985 447.96604499 160.67340088 447.96203613 C159.71851548 447.95795258 158.76363008 447.95386903 157.77980876 447.94966173 C154.572281 447.93592385 151.36475379 447.92206305 148.15722656 447.90820312 C145.86109927 447.89834366 143.56497195 447.88849175 141.2688446 447.87864685 C135.02754464 447.85186509 128.78624514 447.8249773 122.54494572 447.79807091 C116.02530506 447.76998247 109.50566398 447.74199094 102.98602295 447.71398926 C92.04064918 447.66696607 81.09527566 447.61988291 70.14990234 447.57275391 C58.8761395 447.52421108 47.60237649 447.47570431 36.32861328 447.42724609 C35.63369421 447.4242591 34.93877513 447.4212721 34.2227979 447.41819459 C30.73659184 447.40320993 27.25038577 447.38822598 23.76417971 447.37324238 C-5.157214 447.24893826 -34.07860717 447.12450846 -63 447 C-62.28515441 416.03356341 -61.12282698 385.08395772 -59.96102878 354.13175786 C-59.68260131 346.71051194 -59.40680695 339.28916876 -59.13122601 331.86781669 C-58.63944597 318.62488405 -58.14637484 305.38199989 -57.65209961 292.13916016 C-57.62275896 291.35303715 -57.59341832 290.56691413 -57.56318856 289.75696921 C-57.23477529 280.95839415 -56.90612938 272.15982779 -56.57733154 263.36126709 C-56.45739034 260.15148952 -56.33745643 256.94171169 -56.2175293 253.73193359 C-56.18792206 252.9395288 -56.15831483 252.14712401 -56.12781041 251.33070695 C-55.63336495 238.0959617 -55.1408018 224.8611471 -54.64965922 211.62627888 C-54.34813913 203.50344101 -54.04499607 195.38066694 -53.7396921 187.25797039 C-53.50641508 181.04816422 -53.27562004 174.83826805 -53.04572105 168.62833595 C-52.951429 166.09234307 -52.8563139 163.55638062 -52.76029587 161.0204525 C-52.06373992 143.51561347 -52.06373992 143.51561347 -52 126 C-55.96762233 124.18869415 -59.70327271 122.80364852 -63.9375 121.75 C-69.46653488 120.10646067 -73.42597978 117.56441136 -77 113 C-79.49931116 107.8222156 -80.09887914 102.32823553 -80.875 96.6875 C-81.68276399 91.54539264 -82.73130066 89.2252395 -87 86 C-88.24032452 85.03500614 -89.46907869 84.0550057 -90.6875 83.0625 C-91.26886719 82.62035156 -91.85023437 82.17820312 -92.44921875 81.72265625 C-96.80695267 76.8819493 -96.42104462 70.26071493 -96.31640625 64.12890625 C-95.62587819 57.30035101 -91.80195858 53.67217591 -87 49 C-85.8384845 45.5154535 -86.00699278 42.916091 -86.125 39.25 C-86.15427949 33.56977868 -86.03657415 29.81663486 -83 25 C-77.32900414 19.47824087 -71.84290922 18.61403212 -64.25 18.625 C-63.0439209 18.62089111 -63.0439209 18.62089111 -61.81347656 18.61669922 C-56.40230697 18.70560484 -52.53253645 19.59786574 -47.75 22.22265625 C-45.81680168 23.26445052 -45.81680168 23.26445052 -42.75 22.5625 C-38.55989304 20.18175741 -35.71180076 18.18196868 -34.1640625 13.4375 C-33.67790869 11.5137946 -33.20009593 9.58796285 -32.73046875 7.66015625 C-31.31727463 2.51371135 -29.35325848 -0.21927396 -24.75 -2.875 C-15.91387991 -5.52583603 -8.38282287 -3.45598587 0 0 Z M72.9375 67.9375 C72.01839844 68.48277344 71.09929687 69.02804688 70.15234375 69.58984375 C69.44207031 70.05519531 68.73179687 70.52054687 68 71 C68 71.33 68 71.66 68 72 C71.3 72 74.6 72 78 72 C78.33 69.69 78.66 67.38 79 65 C76.86883125 65 74.69155704 66.88901302 72.9375 67.9375 Z M53 74 C53 74.99 53 75.98 53 77 C55.31 76.34 57.62 75.68 60 75 C60 74.67 60 74.34 60 74 C57.69 74 55.38 74 53 74 Z " fill="#EEBC41" transform="translate(190,36)"/>
<path d="M0 0 C0.33 0 0.66 0 1 0 C1.72074699 19.31596159 2.25546182 38.62810858 2.64148235 57.95379782 C2.71433285 61.57471116 2.78975457 65.19557106 2.8649292 68.81643677 C2.9922895 74.96335693 3.11849024 81.11029974 3.2437439 87.25726318 C3.56934757 103.23150011 3.90063086 119.20561873 4.234375 135.1796875 C4.2507683 135.96545937 4.26716159 136.75123124 4.28405166 137.56081438 C4.6971997 157.35669 5.13043144 177.15165087 5.640625 196.9453125 C5.66468477 197.88373993 5.68874454 198.82216736 5.7135334 199.78903198 C5.90774782 207.35070905 6.10291541 214.91235583 6.31661987 222.47351074 C6.33759452 223.21941341 6.35856916 223.96531609 6.38017941 224.73382187 C6.43598589 226.70666178 6.49277633 228.67947379 6.54966736 230.65228271 C7.0636511 251.13711691 7 271.46890268 7 292 C-69.89 292 -146.78 292 -226 292 C-223.27411929 289.27411929 -220.09172651 288.46559227 -216.51953125 287.2421875 C-215.76367737 286.97825195 -215.00782349 286.71431641 -214.22906494 286.44238281 C-211.7587143 285.58120015 -209.28563641 284.72814576 -206.8125 283.875 C-205.10389253 283.28066452 -203.39547847 282.68577276 -201.68725586 282.09033203 C-194.62404863 279.63076488 -187.55402069 277.19098516 -180.484375 274.75 C-165.6317798 269.61789442 -150.86632238 264.26106542 -136.1350708 258.79156494 C-133.91885107 257.96991451 -131.70146562 257.15147056 -129.48388672 256.33349609 C-113.38148912 250.3876392 -97.33453569 244.3666731 -81.625 237.4375 C-79.99558472 236.72315796 -79.99558472 236.72315796 -78.33325195 235.99438477 C-72.73655087 233.46960783 -67.84722523 230.77537402 -63 227 C-65.75274873 224.24725127 -68.68293096 224.13578243 -72.38671875 223.53515625 C-73.51517464 223.34458397 -73.51517464 223.34458397 -74.66642761 223.15016174 C-83.68156615 221.66459741 -92.74524087 220.54933224 -101.8125 219.4375 C-112.24667311 218.14956449 -122.64549234 216.84010525 -133 215 C-134.42828137 214.76239456 -135.85665738 214.52535683 -137.28515625 214.2890625 C-157.21455458 210.78544542 -157.21455458 210.78544542 -162 206 C-162.5 203.6875 -162.5 203.6875 -162 201 C-154.65237608 193.26565903 -143.33762862 189.80131628 -133.6875 185.8125 C-79.10879916 162.89748329 -50.50035681 136.77334358 -27.75 81.8125 C-17.72369872 57.02132676 -8.33238893 31.46693593 -1.8828125 5.49609375 C-1 2 -1 2 0 0 Z " fill="#D7981A" transform="translate(353,191)"/>
<path d="M0 0 C1.40350797 37.66574631 2.80506305 75.3315648 4.20400497 112.99748098 C4.36922491 117.44591232 4.53446098 121.89434307 4.69970703 126.34277344 C4.73260379 127.22836292 4.76550056 128.1139524 4.79939419 129.02637793 C5.33184972 143.35918324 5.86561238 157.69193959 6.39985949 172.02467822 C6.94815827 186.73517705 7.49504914 201.44572775 8.04063749 216.15632737 C8.3772439 225.23099037 8.71494385 234.30561132 9.05404985 243.38018127 C9.28659142 249.60587876 9.51776341 255.83162617 9.7478677 262.05741422 C9.88059557 265.64746131 10.01391834 269.23748366 10.14887047 272.82744789 C10.29539275 276.72562045 10.4390264 280.62389649 10.58239746 284.52218628 C10.62519789 285.64866951 10.66799832 286.77515274 10.71209574 287.93577182 C10.75041309 288.99025079 10.78873044 290.04472976 10.82820892 291.13116264 C10.86162431 292.02958094 10.8950397 292.92799925 10.92946768 293.85364234 C11.02767897 298.23472396 11 302.61781771 11 307 C-7.81 307 -26.62 307 -46 307 C-47.62361498 243.69053069 -49.17297962 180.37987277 -50.53716451 117.06424272 C-50.65244711 111.72253327 -50.77011461 106.38087988 -50.88882446 101.03924561 C-51.62865919 67.69140516 -52.23975548 34.35815442 -52 1 C-48.86236149 2.21326076 -46.34795312 3.27462117 -43.80859375 5.49609375 C-43.25623047 5.97240234 -42.70386719 6.44871094 -42.13476562 6.93945312 C-41.57466797 7.43380859 -41.01457031 7.92816406 -40.4375 8.4375 C-38.77948791 9.8794968 -37.11984047 11.3188009 -35.44873047 12.74560547 C-34.2418936 13.79055455 -33.07103375 14.87687469 -31.91015625 15.97265625 C-30.96462891 16.48119141 -30.96462891 16.48119141 -30 17 C-26.56281175 15.88020175 -23.70196368 14.29723967 -20.71484375 12.28515625 C-19.93689453 11.76373047 -19.15894531 11.24230469 -18.35742188 10.70507812 C-17.55884766 10.16302734 -16.76027344 9.62097656 -15.9375 9.0625 C-15.13505859 8.52431641 -14.33261719 7.98613281 -13.50585938 7.43164062 C-9.12510414 4.50249295 -9.12510414 4.50249295 -4.92797852 1.32202148 C-3 0 -3 0 0 0 Z " fill="#D6981A" transform="translate(409,176)"/>
<path d="M0 0 C15.94255253 9.16309816 22.55412487 29.64328918 27.82421875 46.15625 C30.79289123 46.3502785 30.79289123 46.3502785 33.19921875 45.15625 C35.82421875 44.15625 35.82421875 44.15625 40.82421875 44.15625 C41.15421875 40.52625 41.48421875 36.89625 41.82421875 33.15625 C40.17421875 32.82625 38.52421875 32.49625 36.82421875 32.15625 C34.63702842 28.87546451 34.60629948 28.35034949 35.07421875 24.65625 C35.161875 23.8828125 35.24953125 23.109375 35.33984375 22.3125 C35.82421875 20.15625 35.82421875 20.15625 37.82421875 17.15625 C44.72596628 15.98226115 52.42169761 17.53897802 59.30859375 18.3984375 C60.36782043 18.52687042 61.42704712 18.65530334 62.51837158 18.78762817 C64.74063937 19.05873689 66.9625416 19.33285759 69.18408203 19.60986328 C72.57739552 20.03164487 75.97212168 20.44024835 79.3671875 20.84765625 C81.53525307 21.1137958 83.70322537 21.38069651 85.87109375 21.6484375 C86.88057068 21.7693576 87.89004761 21.89027771 88.93011475 22.01486206 C93.74688984 22.6242612 98.32946486 23.20790801 102.82421875 25.15625 C104.16394068 27.83569385 103.8090093 29.68223631 103.57421875 32.65625 C103.5071875 33.6359375 103.44015625 34.615625 103.37109375 35.625 C102.82421875 38.15625 102.82421875 38.15625 99.82421875 40.15625 C98.17421875 40.15625 96.52421875 40.15625 94.82421875 40.15625 C94.49421875 43.78625 94.16421875 47.41625 93.82421875 51.15625 C95.47421875 51.48625 97.12421875 51.81625 98.82421875 52.15625 C100.7734375 53.35546875 100.7734375 53.35546875 102.51171875 54.84375 C103.09308594 55.32199219 103.67445313 55.80023438 104.2734375 56.29296875 C107.29267563 59.92061759 108.00668137 63.60229812 107.72265625 68.2109375 C107.5634982 69.81929822 107.38783245 71.426077 107.19921875 73.03125 C107.1014917 73.91095459 107.00376465 74.79065918 106.90307617 75.69702148 C106.67785819 77.69657133 106.44691504 79.69548144 106.21142578 81.69384766 C105.85220538 84.90599372 105.54066543 88.11830771 105.24407959 91.33660889 C104.97011253 94.24323707 104.66709143 97.14643838 104.35894775 100.04962158 C104.21133829 101.49040508 104.07449149 102.93233368 103.94866943 104.37518311 C102.8952647 116.25900174 102.8952647 116.25900174 98.86328125 119.63671875 C98.24461182 119.86738037 97.62594238 120.09804199 96.98852539 120.33569336 C94.20750945 121.39006387 92.00233815 122.93454916 89.546875 124.609375 C88.62197266 125.228125 87.69707031 125.846875 86.74414062 126.484375 C85.80119141 127.11859375 84.85824219 127.7528125 83.88671875 128.40625 C82.91669922 129.0559375 81.94667969 129.705625 80.94726562 130.375 C78.57149579 131.96664876 76.19719776 133.56044473 73.82421875 135.15625 C71.18595681 133.90924083 68.90448118 132.57508757 66.6171875 130.765625 C66.03356445 130.30583252 65.44994141 129.84604004 64.84863281 129.37231445 C64.24245117 128.88851318 63.63626953 128.40471191 63.01171875 127.90625 C62.3887793 127.41406982 61.76583984 126.92188965 61.12402344 126.41479492 C57.87507524 123.83612293 54.68633923 121.21241647 51.57421875 118.46875 C49.16794315 115.94171669 49.16794315 115.94171669 46.82421875 116.15625 C45.72290179 117.29471456 44.62213832 118.43371751 43.5234375 119.57470703 C39.81111333 123.02994209 35.51313027 125.75600733 31.32421875 128.59375 C30.38707031 129.25568359 29.44992187 129.91761719 28.484375 130.59960938 C27.57558594 131.21513672 26.66679687 131.83066406 25.73046875 132.46484375 C24.90869141 133.03001709 24.08691406 133.59519043 23.24023438 134.17749023 C20.82421875 135.15625 20.82421875 135.15625 18.13012695 134.40063477 C14.88143169 132.64747439 12.53168563 130.67482384 9.82421875 128.15625 C9.82421875 127.49625 9.82421875 126.83625 9.82421875 126.15625 C10.77683594 125.64835937 11.72945313 125.14046875 12.7109375 124.6171875 C13.97822251 123.92252757 15.24512969 123.22717806 16.51171875 122.53125 C17.13755859 122.19996094 17.76339844 121.86867188 18.40820312 121.52734375 C22.93909895 119.01281518 25.71534735 116.30537474 28.82421875 112.15625 C20.82185085 114.24737971 13.50536794 116.47802527 6.12890625 120.30078125 C3.4042376 121.31214131 2.48552664 121.24873242 -0.17578125 120.15625 C-1.86570104 119.1960683 -3.53787413 118.20269066 -5.17578125 117.15625 C-5.63952148 117.67123047 -6.10326172 118.18621094 -6.58105469 118.71679688 C-8.68483614 121.04031362 -10.80495179 123.34828853 -12.92578125 125.65625 C-13.65539062 126.46707031 -14.385 127.27789062 -15.13671875 128.11328125 C-16.20019531 129.26376953 -16.20019531 129.26376953 -17.28515625 130.4375 C-17.93452148 131.14970703 -18.58388672 131.86191406 -19.25292969 132.59570312 C-21.17578125 134.15625 -21.17578125 134.15625 -25.17578125 134.15625 C-25.83578125 133.82625 -26.49578125 133.49625 -27.17578125 133.15625 C-27.02367187 132.1559375 -26.8715625 131.155625 -26.71484375 130.125 C-26.33649779 127.54028601 -26.10877804 125.05647321 -25.94921875 122.4375 C-25.49371255 118.11465684 -24.94531051 115.14100043 -23.17578125 111.15625 C-19.17228239 108.13126729 -15.01417838 106.59535321 -10.30908203 104.94970703 C-6.71952902 103.6146135 -3.33659603 101.88948741 0.07421875 100.15625 C0.74050293 99.82214111 1.40678711 99.48803223 2.09326172 99.14379883 C13.25344663 93.74705075 13.25344663 93.74705075 21.82421875 85.15625 C6.14377133 87.92901204 -8.10340976 96.12006426 -22.17578125 103.15625 C-22.17578125 91.60625 -22.17578125 80.05625 -22.17578125 68.15625 C-18.99953125 66.83625 -15.82328125 65.51625 -12.55078125 64.15625 C4.44660071 57.21638755 4.44660071 57.21638755 17.82421875 45.15625 C2.8908507 47.96723693 -10.77998207 55.22195395 -24.17578125 62.15625 C-24.55089844 61.61355469 -24.92601562 61.07085937 -25.3125 60.51171875 C-29.15902939 55.1343288 -32.41063697 51.4090545 -39.17578125 50.15625 C-39.17578125 47.84625 -39.17578125 45.53625 -39.17578125 43.15625 C-39.81644531 43.56617188 -40.45710938 43.97609375 -41.1171875 44.3984375 C-48.89977042 49.24660391 -54.99915874 51.47823675 -64.17578125 51.15625 C-64.27890625 51.94 -64.38203125 52.72375 -64.48828125 53.53125 C-65.17578125 56.15625 -65.17578125 56.15625 -68.17578125 58.15625 C-69.16578125 58.15625 -70.15578125 58.15625 -71.17578125 58.15625 C-71.67892688 55.38595414 -72.17841963 52.6150848 -72.67578125 49.84375 C-72.81886719 49.05806641 -72.96195313 48.27238281 -73.109375 47.46289062 C-73.24472656 46.70556641 -73.38007813 45.94824219 -73.51953125 45.16796875 C-73.64521484 44.47147217 -73.77089844 43.77497559 -73.90039062 43.05737305 C-74.17578125 41.15625 -74.17578125 41.15625 -74.17578125 38.15625 C-72.85578125 38.48625 -71.53578125 38.81625 -70.17578125 39.15625 C-69.76328125 38.43179688 -69.35078125 37.70734375 -68.92578125 36.9609375 C-62.50219328 26.20716299 -54.96538662 20.61776208 -42.92578125 17.24609375 C-37.55914913 15.93492795 -32.72150677 14.98996138 -27.17578125 15.15625 C-26.89734375 14.16625 -26.89734375 14.16625 -26.61328125 13.15625 C-24.04551673 7.79743709 -20.19258944 3.59042471 -15.36328125 0.15625 C-10.18137251 -1.46944686 -5.15946725 -2.00079879 0 0 Z " fill="#E29B75" transform="translate(307.17578125,58.84375)"/>
<path d="M0 0 C6.81106948 3.78050312 10.3406981 8.7507093 14.25 15.34765625 C18.209996 21.34952519 24.06948609 25.13827001 30 29 C32.43638232 31.10032958 32.94893544 31.84680631 34 35 C34.0685495 36.89470816 34.08480372 38.7916834 34.0625 40.6875 C34.05347656 41.68136719 34.04445312 42.67523438 34.03515625 43.69921875 C34.01775391 44.83810547 34.01775391 44.83810547 34 46 C32.02 46 30.04 46 28 46 C28.58602558 49.74546784 30.20496945 51.63342264 32.6875 54.4375 C39.57456646 62.84814411 43.9504285 72.01991218 44 83 C42.88625 82.71125 41.7725 82.4225 40.625 82.125 C22.72597502 77.49276396 22.72597502 77.49276396 5.125 81 C3.578125 81.99 3.578125 81.99 2 83 C1.34 83 0.68 83 0 83 C-0.4640625 84.175625 -0.4640625 84.175625 -0.9375 85.375 C-2 88 -2 88 -3 90 C-3.99 90 -4.98 90 -6 90 C-5.67 90.33 -5.34 90.66 -5 91 C-4.80883323 93.67026599 -4.67055641 96.32608497 -4.5625 99 C-4.25227668 105.42181628 -3.79817435 111.79976308 -3.0625 118.1875 C-2.98781494 118.86876953 -2.91312988 119.55003906 -2.83618164 120.25195312 C-2.30363142 124.66934 -1.2613041 128.7413533 0 133 C0.70434726 135.9920528 1.35921175 138.99374875 2 142 C-0.70739194 143.91799909 -3.41608371 145.8341546 -6.125 147.75 C-6.88554687 148.28882813 -7.64609375 148.82765625 -8.4296875 149.3828125 C-9.92571599 150.44034988 -11.42598377 151.49191861 -12.93066406 152.53710938 C-14.215271 153.44524585 -15.48208717 154.37985948 -16.71777344 155.35351562 C-18.2421875 156.515625 -18.2421875 156.515625 -21 158 C-25.01683542 156.82323575 -28.24953124 154.65949421 -31.703125 152.33984375 C-32.7653125 151.62892578 -33.8275 150.91800781 -34.921875 150.18554688 C-35.46779297 149.81679443 -36.01371094 149.44804199 -36.57617188 149.06811523 C-38.25607626 147.93339569 -39.94009141 146.8050068 -41.625 145.67773438 C-49.83189355 140.16810645 -49.83189355 140.16810645 -51 139 C-51.23481693 136.81707226 -51.41363323 134.62796826 -51.5625 132.4375 C-51.64628906 131.23996094 -51.73007813 130.04242188 -51.81640625 128.80859375 C-51.87699219 127.88175781 -51.93757813 126.95492187 -52 126 C-55.96762233 124.18869415 -59.70327271 122.80364852 -63.9375 121.75 C-69.46653488 120.10646067 -73.42597978 117.56441136 -77 113 C-79.49931116 107.8222156 -80.09887914 102.32823553 -80.875 96.6875 C-81.68276399 91.54539264 -82.73130066 89.2252395 -87 86 C-88.24032452 85.03500614 -89.46907869 84.0550057 -90.6875 83.0625 C-91.26886719 82.62035156 -91.85023437 82.17820312 -92.44921875 81.72265625 C-96.80695267 76.8819493 -96.42104462 70.26071493 -96.31640625 64.12890625 C-95.62587819 57.30035101 -91.80195858 53.67217591 -87 49 C-85.8384845 45.5154535 -86.00699278 42.916091 -86.125 39.25 C-86.15427949 33.56977868 -86.03657415 29.81663486 -83 25 C-77.32900414 19.47824087 -71.84290922 18.61403212 -64.25 18.625 C-63.0439209 18.62089111 -63.0439209 18.62089111 -61.81347656 18.61669922 C-56.40230697 18.70560484 -52.53253645 19.59786574 -47.75 22.22265625 C-45.81680168 23.26445052 -45.81680168 23.26445052 -42.75 22.5625 C-38.55989304 20.18175741 -35.71180076 18.18196868 -34.1640625 13.4375 C-33.67790869 11.5137946 -33.20009593 9.58796285 -32.73046875 7.66015625 C-31.31727463 2.51371135 -29.35325848 -0.21927396 -24.75 -2.875 C-15.91387991 -5.52583603 -8.38282287 -3.45598587 0 0 Z " fill="#287DED" transform="translate(190,36)"/>
<path d="M0 0 C6.30404105 0.36369468 6.30404105 0.36369468 9.1875 3 C15.22173269 12.98769548 18.69048798 24.26170442 18 36 C19.39412109 35.27683594 19.39412109 35.27683594 20.81640625 34.5390625 C22.06493755 33.90071567 23.31364495 33.26271322 24.5625 32.625 C25.17158203 32.30789062 25.78066406 31.99078125 26.40820312 31.6640625 C35.24539698 27.17532911 44.16432921 25.18233205 53.8125 28.1875 C58.85136742 31.05273834 62.58685609 34.27179182 66 39 C66.49177734 38.72849121 66.98355469 38.45698242 67.49023438 38.17724609 C76.07519848 33.46826973 84.64288807 28.8507904 93.8125 25.375 C94.45058594 25.1279834 95.08867187 24.8809668 95.74609375 24.62646484 C99.61545851 23.22382012 102.89702901 22.76123599 107 23 C102.18549973 33.99115184 85.30914293 39.84319295 74.6875 44 C69.33881579 46 69.33881579 46 67 46 C67.24556641 47.56234375 67.24556641 47.56234375 67.49609375 49.15625 C68.258398 55.25468399 68.1063241 61.36462636 68.0625 67.5 C68.05798828 68.70398438 68.05347656 69.90796875 68.04882812 71.1484375 C68.0371195 74.09901073 68.02071995 77.04947859 68 80 C68.48130371 79.73372803 68.96260742 79.46745605 69.45849609 79.19311523 C78.38502335 74.28869667 87.32636538 69.61084841 96.8125 65.875 C97.54581543 65.58036865 98.27913086 65.2857373 99.03466797 64.98217773 C103.17287827 63.40820212 106.50086547 62.67510175 111 63 C107.89681127 70.55273448 98.765724 74.27926345 91.9375 78 C91.31359375 78.34337402 90.6896875 78.68674805 90.046875 79.04052734 C86.560185 80.88626761 83.18712909 82.31704703 79.3984375 83.4296875 C71.47169587 85.52764455 71.47169587 85.52764455 65.88427734 91.01464844 C64.28174634 95.6068319 63.58834719 100.28147922 63.2109375 105.11816406 C63 107 63 107 62 110 C58.36124619 108.66207381 55.29056285 107.02493829 52.05859375 104.890625 C51.14529297 104.30152344 50.23199219 103.71242188 49.29101562 103.10546875 C47.37876353 101.86204678 45.47253213 100.60931922 43.57226562 99.34765625 C42.66025391 98.76371094 41.74824219 98.17976563 40.80859375 97.578125 C39.98157959 97.03575195 39.15456543 96.49337891 38.30249023 95.93457031 C36.04868662 94.72963487 36.04868662 94.72963487 33.8840332 95.703125 C31.0953205 97.62273649 28.41088417 99.6593053 25.75 101.75 C25.17443359 102.19375977 24.59886719 102.63751953 24.00585938 103.09472656 C21.48028834 105.04346964 18.9890126 107.00923781 16.546875 109.0625 C15.87140625 109.619375 15.1959375 110.17625 14.5 110.75 C13.9328125 111.23984375 13.365625 111.7296875 12.78125 112.234375 C11 113 11 113 8.77734375 112.28100586 C5.61463169 110.82225496 2.74068778 109.10673778 -0.21875 107.26953125 C-1.40975741 106.54166468 -2.60117624 105.81447098 -3.79296875 105.08789062 C-5.65356988 103.94883248 -7.5110457 102.80560694 -9.36181641 101.65063477 C-11.16041527 100.53097247 -12.96952097 99.43028273 -14.78125 98.33203125 C-15.85439453 97.66921143 -16.92753906 97.0063916 -18.03320312 96.32348633 C-21.30868516 94.86229573 -22.65492035 94.87788205 -26 96 C-28.90378013 88.47656967 -31.1784675 81.24477032 -32.0625 73.1875 C-32.14628906 72.46481934 -32.23007813 71.74213867 -32.31640625 70.99755859 C-33.01800866 64.61325074 -33.3756338 58.22047798 -33.57055664 51.80151367 C-33.71909748 48.04228792 -33.86490127 46.2026481 -36 43 C-34.35 43.66 -32.7 44.32 -31 45 C-30.7525 44.2575 -30.505 43.515 -30.25 42.75 C-27.99025662 37.77856456 -24.9349279 35.69623269 -19.93774414 33.6328125 C-9.49641346 30.22296884 6.30729618 33.15364809 16 38 C13.84909704 25.48379327 9.43219167 14.62942685 0.1875 5.68359375 C-1 4 -1 4 -0.6875 1.78515625 C-0.460625 1.19605469 -0.23375 0.60695313 0 0 Z " fill="#E53F46" transform="translate(218,81)"/>
<path d="M0 0 C6.90174753 -1.17398885 14.59747886 0.38272802 21.484375 1.2421875 C23.07321503 1.43483688 23.07321503 1.43483688 24.69415283 1.63137817 C26.91642062 1.90248689 29.13832285 2.17660759 31.35986328 2.45361328 C34.75317677 2.87539487 38.14790293 3.28399835 41.54296875 3.69140625 C43.71103432 3.9575458 45.87900662 4.22444651 48.046875 4.4921875 C49.05635193 4.6131076 50.06582886 4.73402771 51.105896 4.85861206 C55.92267109 5.4680112 60.50524611 6.05165801 65 8 C66.33972193 10.67944385 65.98479055 12.52598631 65.75 15.5 C65.68296875 16.4796875 65.6159375 17.459375 65.546875 18.46875 C65 21 65 21 62 23 C60.35 23 58.7 23 57 23 C56.67 26.63 56.34 30.26 56 34 C57.65 34.33 59.3 34.66 61 35 C62.94921875 36.19921875 62.94921875 36.19921875 64.6875 37.6875 C65.26886719 38.16574219 65.85023438 38.64398438 66.44921875 39.13671875 C69.46845688 42.76436759 70.18246262 46.44604812 69.8984375 51.0546875 C69.73927945 52.66304822 69.5636137 54.269827 69.375 55.875 C69.27727295 56.75470459 69.1795459 57.63440918 69.07885742 58.54077148 C68.85363944 60.54032133 68.62269629 62.53923144 68.38720703 64.53759766 C68.02798663 67.74974372 67.71644668 70.96205771 67.41986084 74.18035889 C67.14589378 77.08698707 66.84287268 79.99018838 66.534729 82.89337158 C66.38711954 84.33415508 66.25027274 85.77608368 66.12445068 87.21893311 C65.07104595 99.10275174 65.07104595 99.10275174 61.0390625 102.48046875 C60.42039307 102.71113037 59.80172363 102.94179199 59.16430664 103.17944336 C56.3832907 104.23381387 54.1781194 105.77829916 51.72265625 107.453125 C50.79775391 108.071875 49.87285156 108.690625 48.91992188 109.328125 C47.97697266 109.96234375 47.03402344 110.5965625 46.0625 111.25 C45.09248047 111.8996875 44.12246094 112.549375 43.12304688 113.21875 C40.74727704 114.81039876 38.37297901 116.40419473 36 118 C33.36173806 116.75299083 31.08026243 115.41883757 28.79296875 113.609375 C28.2093457 113.14958252 27.62572266 112.68979004 27.02441406 112.21606445 C26.41823242 111.73226318 25.81205078 111.24846191 25.1875 110.75 C24.56456055 110.25781982 23.94162109 109.76563965 23.29980469 109.25854492 C20.05085649 106.67987293 16.86212048 104.05616647 13.75 101.3125 C11.3437244 98.78546669 11.3437244 98.78546669 9 99 C8.175 99.825 7.35 100.65 6.5 101.5 C5.675 102.325 4.85 103.15 4 104 C3.34 104 2.68 104 2 104 C1.90501221 103.02466309 1.81002441 102.04932617 1.7121582 101.04443359 C-0.04775916 83.19532348 -1.94115889 65.69561713 -6.43164062 48.28955078 C-7.34933187 44.59276878 -8.08628066 40.86335373 -8.8125 37.125 C-9.16248047 35.33449219 -9.16248047 35.33449219 -9.51953125 33.5078125 C-9.67808594 32.68023437 -9.83664062 31.85265625 -10 31 C-8.77779263 30.32065893 -7.54681549 29.65708477 -6.3125 29 C-5.62800781 28.62875 -4.94351562 28.2575 -4.23828125 27.875 C-2 27 -2 27 3 27 C3.33 23.37 3.66 19.74 4 16 C2.35 15.67 0.7 15.34 -1 15 C-3.18719033 11.71921451 -3.21791927 11.19409949 -2.75 7.5 C-2.66234375 6.7265625 -2.5746875 5.953125 -2.484375 5.15625 C-2 3 -2 3 0 0 Z " fill="#85EAF8" transform="translate(345,76)"/>
<path d="M0 0 C0.79970215 -0.00128906 1.5994043 -0.00257812 2.42333984 -0.00390625 C8.55574981 0.10602491 12.91366044 1.21272471 18.25 4.375 C18.25 7.75552219 17.81634911 8.26369475 15.8125 10.8125 C11.88618844 15.81267455 11.75 20.97995324 11.75 27.2109375 C12.47839796 31.82033085 14.84209869 34.48097113 17.6875 38.06640625 C20.72902987 42.56026664 19.53199757 46.50676613 18.75 51.6875 C17.48295241 60.94509162 17.48295241 60.94509162 19.875 69.75 C23.37067923 73.61364546 27.10811417 76.61374278 31.4375 79.5 C36.05 82.575 36.05 82.575 37.25 84.375 C37.90720127 88.97540889 37.05063011 92.14734139 35.25 96.3125 C32.24624529 103.38896127 32.59799633 109.14035776 35.29296875 116.3515625 C38.18696956 122.47030707 44.62565782 125.87892211 50.01953125 129.60546875 C50.75558594 130.18941406 51.49164063 130.77335938 52.25 131.375 C52.25 132.035 52.25 132.695 52.25 133.375 C50.45703125 134.953125 50.45703125 134.953125 48.0625 136.625 C47.28519531 137.18703125 46.50789063 137.7490625 45.70703125 138.328125 C43.25 139.375 43.25 139.375 40.95288086 138.66918945 C37.95761118 137.23499881 35.30399503 135.56669871 32.546875 133.71484375 C31.4846875 133.00392578 30.4225 132.29300781 29.328125 131.56054688 C28.78220703 131.19179443 28.23628906 130.82304199 27.67382812 130.44311523 C25.99392374 129.30839569 24.30990859 128.1800068 22.625 127.05273438 C14.41810645 121.54310645 14.41810645 121.54310645 13.25 120.375 C13.01518307 118.19207226 12.83636677 116.00296826 12.6875 113.8125 C12.60371094 112.61496094 12.51992187 111.41742188 12.43359375 110.18359375 C12.37300781 109.25675781 12.31242187 108.32992187 12.25 107.375 C8.28237767 105.56369415 4.54672729 104.17864852 0.3125 103.125 C-5.21653488 101.48146067 -9.17597978 98.93941136 -12.75 94.375 C-15.24931116 89.1972156 -15.84887914 83.70323553 -16.625 78.0625 C-17.43276399 72.92039264 -18.48130066 70.6002395 -22.75 67.375 C-23.99032452 66.41000614 -25.21907869 65.4300057 -26.4375 64.4375 C-27.01886719 63.99535156 -27.60023437 63.55320313 -28.19921875 63.09765625 C-32.55695267 58.2569493 -32.17104462 51.63571493 -32.06640625 45.50390625 C-31.37587819 38.67535101 -27.55195858 35.04717591 -22.75 30.375 C-21.5884845 26.8904535 -21.75699278 24.291091 -21.875 20.625 C-21.90427949 14.94477868 -21.78657415 11.19163486 -18.75 6.375 C-13.07980647 0.85402209 -7.5925003 -0.01254181 0 0 Z " fill="#1572D6" transform="translate(125.75,54.625)"/>
<path d="M0 0 C6.90174753 -1.17398885 14.59747886 0.38272802 21.484375 1.2421875 C23.07321503 1.43483688 23.07321503 1.43483688 24.69415283 1.63137817 C26.91642062 1.90248689 29.13832285 2.17660759 31.35986328 2.45361328 C34.75317677 2.87539487 38.14790293 3.28399835 41.54296875 3.69140625 C43.71103432 3.9575458 45.87900662 4.22444651 48.046875 4.4921875 C49.05635193 4.6131076 50.06582886 4.73402771 51.105896 4.85861206 C55.92267109 5.4680112 60.50524611 6.05165801 65 8 C66.33972193 10.67944385 65.98479055 12.52598631 65.75 15.5 C65.68296875 16.4796875 65.6159375 17.459375 65.546875 18.46875 C65 21 65 21 62 23 C60.35 23 58.7 23 57 23 C56.67 26.63 56.34 30.26 56 34 C57.65 34.33 59.3 34.66 61 35 C62.94921875 36.19921875 62.94921875 36.19921875 64.6875 37.6875 C65.26886719 38.16574219 65.85023438 38.64398438 66.44921875 39.13671875 C69.46845688 42.76436759 70.18246262 46.44604812 69.8984375 51.0546875 C69.73927945 52.66304822 69.5636137 54.269827 69.375 55.875 C69.27727295 56.75470459 69.1795459 57.63440918 69.07885742 58.54077148 C68.85363944 60.54032133 68.62269629 62.53923144 68.38720703 64.53759766 C68.02798663 67.74974372 67.71644668 70.96205771 67.41986084 74.18035889 C67.14589378 77.08698707 66.84287268 79.99018838 66.534729 82.89337158 C66.38711954 84.33415508 66.25027274 85.77608368 66.12445068 87.21893311 C65.07104595 99.10275174 65.07104595 99.10275174 61.0390625 102.48046875 C60.42039307 102.71113037 59.80172363 102.94179199 59.16430664 103.17944336 C56.3832907 104.23381387 54.1781194 105.77829916 51.72265625 107.453125 C50.79775391 108.071875 49.87285156 108.690625 48.91992188 109.328125 C47.97697266 109.96234375 47.03402344 110.5965625 46.0625 111.25 C45.09248047 111.8996875 44.12246094 112.549375 43.12304688 113.21875 C40.74727704 114.81039876 38.37297901 116.40419473 36 118 C33.36173806 116.75299083 31.08026243 115.41883757 28.79296875 113.609375 C28.2093457 113.14958252 27.62572266 112.68979004 27.02441406 112.21606445 C26.41823242 111.73226318 25.81205078 111.24846191 25.1875 110.75 C24.56456055 110.25781982 23.94162109 109.76563965 23.29980469 109.25854492 C20.05085649 106.67987293 16.86212048 104.05616647 13.75 101.3125 C11.3437244 98.78546669 11.3437244 98.78546669 9 99 C8.175 99.825 7.35 100.65 6.5 101.5 C5.675 102.325 4.85 103.15 4 104 C3.34 104 2.68 104 2 104 C1.67 98.39 1.34 92.78 1 87 C2.60875 88.03125 4.2175 89.0625 5.875 90.125 C9.69117887 92.54945385 13.51509397 94.95818985 17.375 97.3125 C18.53128906 98.01826172 18.53128906 98.01826172 19.7109375 98.73828125 C24.57481342 101.4192231 28.386565 102.61237473 34 102 C37.9270319 98.98090969 38.93891257 95.89136205 40.1875 91.1875 C40.51105469 90.00542969 40.83460938 88.82335937 41.16796875 87.60546875 C43.10670676 79.20427071 43.21589554 71.01903518 43.25 62.4375 C43.270625 61.13619141 43.29125 59.83488281 43.3125 58.49414062 C43.31765625 57.23666016 43.3228125 55.97917969 43.328125 54.68359375 C43.3374707 53.54462646 43.34681641 52.40565918 43.35644531 51.23217773 C42.82005503 46.36829355 40.67635767 43.01453651 38 39 C38.125 37.0625 38.125 37.0625 39 35 C39.70125 34.401875 40.4025 33.80375 41.125 33.1875 C43.40348339 31.02880326 43.40348339 31.02880326 42.875 27.4375 C42.17969518 23.90954155 42.17969518 23.90954155 40 21 C30.65906905 17.92813547 19.76788971 18.0682467 10.03515625 17.3203125 C8.78605469 17.206875 7.53695313 17.0934375 6.25 16.9765625 C4.55617188 16.83855225 4.55617188 16.83855225 2.828125 16.69775391 C0 16 0 16 -1.8815918 14.07983398 C-3.23941943 11.55476662 -3.21737609 10.25257967 -2.8125 7.4375 C-2.71582031 6.67308594 -2.61914062 5.90867187 -2.51953125 5.12109375 C-2 3 -2 3 0 0 Z " fill="#43C3D6" transform="translate(345,76)"/>
<path d="M0 0 C-4.81450027 10.99115184 -21.69085707 16.84319295 -32.3125 21 C-37.66118421 23 -37.66118421 23 -40 23 C-39.75443359 24.56234375 -39.75443359 24.56234375 -39.50390625 26.15625 C-38.741602 32.25468399 -38.8936759 38.36462636 -38.9375 44.5 C-38.94201172 45.70398438 -38.94652344 46.90796875 -38.95117188 48.1484375 C-38.9628805 51.09901073 -38.97928005 54.04947859 -39 57 C-38.51869629 56.73372803 -38.03739258 56.46745605 -37.54150391 56.19311523 C-28.61497665 51.28869667 -19.67363462 46.61084841 -10.1875 42.875 C-9.45418457 42.58036865 -8.72086914 42.2857373 -7.96533203 41.98217773 C-3.82712173 40.40820212 -0.49913453 39.67510175 4 40 C0.89681127 47.55273448 -8.234276 51.27926345 -15.0625 55 C-15.68640625 55.34337402 -16.3103125 55.68674805 -16.953125 56.04052734 C-20.439815 57.88626761 -23.81287091 59.31704703 -27.6015625 60.4296875 C-35.52830413 62.52764455 -35.52830413 62.52764455 -41.11572266 68.01464844 C-42.71825366 72.6068319 -43.41165281 77.28147922 -43.7890625 82.11816406 C-44 84 -44 84 -45 87 C-48.63875381 85.66207381 -51.70943715 84.02493829 -54.94140625 81.890625 C-55.85470703 81.30152344 -56.76800781 80.71242188 -57.70898438 80.10546875 C-59.62123647 78.86204678 -61.52746787 77.60931922 -63.42773438 76.34765625 C-64.33974609 75.76371094 -65.25175781 75.17976563 -66.19140625 74.578125 C-67.01842041 74.03575195 -67.84543457 73.49337891 -68.69750977 72.93457031 C-70.95131338 71.72963487 -70.95131338 71.72963487 -73.1159668 72.703125 C-75.9046795 74.62273649 -78.58911583 76.6593053 -81.25 78.75 C-81.82556641 79.19375977 -82.40113281 79.63751953 -82.99414062 80.09472656 C-85.51971166 82.04346964 -88.0109874 84.00923781 -90.453125 86.0625 C-91.12859375 86.619375 -91.8040625 87.17625 -92.5 87.75 C-93.0671875 88.23984375 -93.634375 88.7296875 -94.21875 89.234375 C-96 90 -96 90 -98.22265625 89.28100586 C-101.38536831 87.82225496 -104.25931222 86.10673778 -107.21875 84.26953125 C-108.40975741 83.54166468 -109.60117624 82.81447098 -110.79296875 82.08789062 C-112.65356988 80.94883248 -114.5110457 79.80560694 -116.36181641 78.65063477 C-118.16041527 77.53097247 -119.96952097 76.43028273 -121.78125 75.33203125 C-122.85439453 74.66921143 -123.92753906 74.0063916 -125.03320312 73.32348633 C-128.30868516 71.86229573 -129.65492035 71.87788205 -133 73 C-133.99 70.03 -133.99 70.03 -135 67 C-111.39783491 71.60216509 -111.39783491 71.60216509 -106 77 C-101.82967449 77.59576079 -99.34659336 77.83788031 -95.71484375 75.578125 C-94.18137938 74.34714502 -92.66451912 73.0952241 -91.1640625 71.82421875 C-87.49188594 68.72871974 -83.976135 66.395227 -79.1875 65.4375 C-75.1570525 66.14875544 -72.13243416 67.89714895 -68.546875 69.8203125 C-64.97408067 71.47519576 -61.90893257 71.78283708 -58 72 C-48.50699753 61.64399731 -51.8799366 40.27295411 -51.9375 27.3125 C-51.94252443 25.33919384 -51.94708567 23.36588645 -51.95117188 21.39257812 C-51.96210412 16.59502115 -51.9793169 11.79752444 -52 7 C-47.59303564 8.57339554 -45.75967144 10.19355664 -43 14 C-42.01 14.99 -42.01 14.99 -41 16 C-40.26233398 15.59273682 -40.26233398 15.59273682 -39.50976562 15.17724609 C-30.92480152 10.46826973 -22.35711193 5.8507904 -13.1875 2.375 C-12.54941406 2.1279834 -11.91132813 1.8809668 -11.25390625 1.62646484 C-7.38454149 0.22382012 -4.10297099 -0.23876401 0 0 Z " fill="#CC3945" transform="translate(325,104)"/>
<path d="M0 0 C-2.56239938 10.56427816 -7.61460039 20.81471263 -16 28 C-22.40090134 31.86072761 -28.66559781 35.1889067 -36.25 35.0625 C-38.10625 35.0315625 -38.10625 35.0315625 -40 35 C-40.103125 35.78375 -40.20625 36.5675 -40.3125 37.375 C-41 40 -41 40 -44 42 C-44.99 42 -45.98 42 -47 42 C-47.50314563 39.22970414 -48.00263838 36.4588348 -48.5 33.6875 C-48.64308594 32.90181641 -48.78617188 32.11613281 -48.93359375 31.30664062 C-49.06894531 30.54931641 -49.20429688 29.79199219 -49.34375 29.01171875 C-49.53227539 27.96697388 -49.53227539 27.96697388 -49.72460938 26.90112305 C-50 25 -50 25 -50 22 C-48.68 22.33 -47.36 22.66 -46 23 C-45.5875 22.27554688 -45.175 21.55109375 -44.75 20.8046875 C-37.58315878 8.80662742 -28.86322953 3.64109366 -15.5 0.1875 C-9.94178051 -1.02733998 -5.57288304 -1.03901209 0 0 Z " fill="#86EAF8" transform="translate(283,75)"/>
<path d="M0 0 C6.90174753 -1.17398885 14.59747886 0.38272802 21.484375 1.2421875 C23.07321503 1.43483688 23.07321503 1.43483688 24.69415283 1.63137817 C26.91642062 1.90248689 29.13832285 2.17660759 31.35986328 2.45361328 C34.75317677 2.87539487 38.14790293 3.28399835 41.54296875 3.69140625 C43.71103432 3.9575458 45.87900662 4.22444651 48.046875 4.4921875 C49.05635193 4.6131076 50.06582886 4.73402771 51.105896 4.85861206 C55.92267109 5.4680112 60.50524611 6.05165801 65 8 C66.33972193 10.67944385 65.98479055 12.52598631 65.75 15.5 C65.68296875 16.4796875 65.6159375 17.459375 65.546875 18.46875 C65 21 65 21 62 23 C59.96435547 23.06445312 59.96435547 23.06445312 57.4921875 22.78125 C56.02217285 22.61689453 56.02217285 22.61689453 54.52246094 22.44921875 C53.36004883 22.30097656 52.19763672 22.15273437 51 22 C50.32279907 21.91379395 49.64559814 21.82758789 48.94787598 21.73876953 C42.49801767 20.91161651 36.05464605 20.03672842 29.61181641 19.15673828 C27.14006632 18.82005472 24.6678086 18.48740718 22.1953125 18.15625 C21.40199524 18.04829102 20.60867798 17.94033203 19.7913208 17.82910156 C14.0215517 17.06742777 8.28606741 16.66043186 2.46435547 16.52148438 C0 16 0 16 -1.83422852 14.10375977 C-3.24417557 11.55935898 -3.22287901 10.29084113 -2.8125 7.4375 C-2.71582031 6.67308594 -2.61914062 5.90867187 -2.51953125 5.12109375 C-2 3 -2 3 0 0 Z " fill="#287EEE" transform="translate(345,76)"/>
<path d="M0 0 C-4.33878636 10.56000913 -21.6640142 16.76138912 -31.7421875 21.0625 C-35.80901128 22.75774278 -39.8975178 24.39315263 -44 26 C-45 23 -45 23 -44.59375 20.12109375 C-42.27090272 15.57218449 -38.98486983 14.24690477 -34.5 12.0625 C-33.65864502 11.63791504 -32.81729004 11.21333008 -31.95043945 10.77587891 C-26.13183841 7.89723115 -20.21698518 5.27910598 -14.1875 2.875 C-13.45402344 2.57988525 -12.72054687 2.28477051 -11.96484375 1.98071289 C-7.82632665 0.40913018 -4.49878912 -0.32487331 0 0 Z " fill="#864C29" transform="translate(329,144)"/>
<path d="M0 0 C-4.80762773 10.97546233 -21.6496879 16.81909478 -32.25 21 C-35.44599857 22.20843727 -37.58189965 23 -41 23 C-41.33 21.02 -41.66 19.04 -42 17 C-13.78514801 -0.30633662 -13.78514801 -0.30633662 0 0 Z " fill="#864C29" transform="translate(325,104)"/>
<path d="M0 0 C6.30404105 0.36369468 6.30404105 0.36369468 9.1875 3 C15.47466303 13.40633881 18.61947443 24.81700297 18 37 C17.01 37.495 17.01 37.495 16 38 C15.86464844 37.21238281 15.72929687 36.42476562 15.58984375 35.61328125 C13.29265276 23.98976997 8.78071399 13.99900987 0.1875 5.68359375 C-1 4 -1 4 -0.6875 1.78515625 C-0.460625 1.19605469 -0.23375 0.60695313 0 0 Z " fill="#2C1D32" transform="translate(218,81)"/>
<path d="M0 0 C-3.44024586 7.99857162 -12.51829218 11.53511072 -20 15 C-21.98 13.35 -23.96 11.7 -26 10 C-23.27320247 6.55018797 -19.47910885 5.38327174 -15.5 3.875 C-14.82324219 3.61074219 -14.14648438 3.34648437 -13.44921875 3.07421875 C-8.76260043 1.2531856 -5.04411899 -0.13632754 0 0 Z " fill="#884F2B" transform="translate(336,171)"/>
<path d="M0 0 C3.51131294 3.51131294 4.33632871 8.59005833 5.8125 13.25 C6.16634766 14.35851318 6.52019531 15.46702637 6.88476562 16.60913086 C10.22241633 27.29766847 12.67899726 38.04776833 15 49 C17.31 39.1 19.62 29.2 22 19 C22.66 19 23.32 19 24 19 C18.64974842 46.16403693 18.64974842 46.16403693 16 57 C12.9879568 54.13488574 11.32414389 51.97243168 10 48 C10.66 48.33 11.32 48.66 12 49 C10.77471985 40.56852326 8.92509987 32.49381718 6.5625 24.3125 C6.26279297 23.24966797 5.96308594 22.18683594 5.65429688 21.09179688 C4.09591443 15.61210503 2.44787409 10.19445817 0.53100586 4.82885742 C0 3 0 3 0 0 Z " fill="#2B3B6D" transform="translate(185,57)"/>
<path d="M0 0 C2.31 0.33 4.62 0.66 7 1 C6.6875 3.375 6.6875 3.375 6 6 C3 8 3 8 0 8 C0 5.36 0 2.72 0 0 Z " fill="#2C7AE5" transform="translate(236,109)"/>
<path d="M0 0 C2.475 0.99 2.475 0.99 5 2 C4.34 5.3 3.68 8.6 3 12 C2.67 12 2.34 12 2 12 C1.34 8.04 0.68 4.08 0 0 Z " fill="#3085EB" transform="translate(233,97)"/>
</svg>
