<?xml version="1.0" encoding="UTF-8"?>
<svg version="1.1" xmlns="http://www.w3.org/2000/svg" width="512" height="512">
<path d="M0 0 C5.31152741 3.7057168 8.50716735 8.95981372 11.734375 14.4765625 C12.10254333 15.10178802 12.47071167 15.72701355 12.85003662 16.3711853 C13.63939633 17.71273367 14.42638337 19.05568048 15.21118164 20.39990234 C17.3223594 24.01534154 19.45147373 27.62021113 21.578125 31.2265625 C22.00955811 31.95925354 22.44099121 32.69194458 22.88549805 33.44683838 C26.92275689 40.2953115 31.04527963 47.08966728 35.1875 53.875 C41.10533125 63.58739589 46.97162622 73.32920654 52.78588867 83.10400391 C53.62811344 84.51979195 54.47103474 85.9351659 55.31469727 87.35009766 C56.49069767 89.32321474 57.66377076 91.29804112 58.8359375 93.2734375 C59.50802246 94.40442871 60.18010742 95.53541992 60.87255859 96.70068359 C66.12369508 105.88487468 66.12369508 105.88487468 66.1875 110.75 C66.23390625 111.92175781 66.23390625 111.92175781 66.28125 113.1171875 C65.10485916 118.5812134 62.14218445 122.70609258 57.82421875 126.17578125 C56.68597656 126.83964844 55.54773438 127.50351563 54.375 128.1875 C53.70823242 128.58445068 53.04146484 128.98140137 52.35449219 129.39038086 C50.76436021 130.33407173 49.16897788 131.26894469 47.56982422 132.19726562 C44.20205448 134.15756663 40.85219977 136.14733233 37.50390625 138.140625 C33.41562228 140.57328414 29.32650762 143.00445218 25.23193359 145.42651367 C16.28247073 150.72198244 7.37569999 156.08195218 -1.5 161.5 C-11.48264976 167.59190971 -21.53654311 173.54940947 -31.63909912 179.44006348 C-41.10454555 184.96202229 -50.49600788 190.59443617 -59.85009766 196.30273438 C-69.29561569 202.06537915 -78.79023606 207.74015137 -88.3125 213.375 C-98.34959465 219.31531213 -108.35421172 225.30348533 -118.3125 231.375 C-130.46908478 238.7845535 -142.69883184 246.06612674 -154.94766235 253.32196045 C-155.60173065 253.70942444 -156.25579895 254.09688843 -156.9296875 254.49609375 C-157.5732016 254.87727356 -158.2167157 255.25845337 -158.87973022 255.65118408 C-164.24444173 258.83068886 -169.59409716 262.03481404 -174.9375 265.25 C-182.03381554 269.51318292 -189.13528659 273.76757987 -196.25 278 C-197.64629639 278.8360376 -197.64629639 278.8360376 -199.07080078 279.68896484 C-199.94333496 280.20668457 -200.81586914 280.7244043 -201.71484375 281.2578125 C-202.48304443 281.71559082 -203.25124512 282.17336914 -204.04272461 282.64501953 C-208.94929733 285.30386791 -212.68013237 286.44778315 -218.3125 285.875 C-229.58403352 282.42363896 -234.35674025 270.69693979 -239.91162109 261.19921875 C-242.0104929 257.61128819 -244.12528915 254.03275172 -246.23828125 250.453125 C-246.66662262 249.72661743 -247.09496399 249.00010986 -247.5362854 248.25158691 C-251.5677786 241.42210068 -255.68087141 234.6442242 -259.8125 227.875 C-266.21404176 217.37338864 -272.53491874 206.82614049 -278.8125 196.25 C-279.23426514 195.5398877 -279.65603027 194.82977539 -280.09057617 194.09814453 C-281.280107 192.09465044 -282.46847275 190.0904716 -283.65625 188.0859375 C-284.01267578 187.48526459 -284.36910156 186.88459167 -284.73632812 186.26571655 C-287.33672311 181.87024282 -288.50250381 179.32589279 -288.625 174.1875 C-288.66238281 173.17300781 -288.69976562 172.15851563 -288.73828125 171.11328125 C-288.18470367 166.90304444 -287.13082561 164.01045577 -284.3125 160.875 C-280.4340334 157.94721791 -276.26726079 155.54607726 -272.0625 153.125 C-270.81414355 152.3889967 -269.56676793 151.65132758 -268.3203125 150.91210938 C-265.681697 149.35085765 -263.03761527 147.79952153 -260.38867188 146.25585938 C-256.35626552 143.90454716 -252.34012785 141.52654861 -248.328125 139.140625 C-247.33930328 138.55266144 -247.33930328 138.55266144 -246.33050537 137.95281982 C-244.99540866 137.15891141 -243.66034604 136.36494568 -242.32531738 135.57092285 C-240.2984225 134.3666358 -238.27004527 133.16488364 -236.24121094 131.96386719 C-227.56299904 126.82463224 -218.92382363 121.62544703 -210.3125 116.375 C-199.68025159 109.89236625 -188.9913318 103.51074333 -178.27450562 97.16900635 C-168.85237913 91.59194455 -159.47112 85.95343468 -150.125 80.25 C-140.14211814 74.15846246 -130.08846536 68.20059547 -119.98590088 62.30993652 C-110.52045445 56.78797771 -101.12899212 51.15556383 -91.77490234 45.44726562 C-81.66347283 39.27835289 -71.49305896 33.21404327 -61.29849243 27.18365479 C-50.2002161 20.61696501 -39.16056511 13.9589433 -28.16796875 7.21679688 C-27.08902344 6.55744141 -26.01007813 5.89808594 -24.8984375 5.21875 C-23.9604834 4.64318359 -23.0225293 4.06761719 -22.05615234 3.47460938 C-14.45638183 -0.95622319 -8.57223572 -2.91132534 0 0 Z " fill="#627FFE" transform="translate(288.3125,33.125)"/>
<path d="M0 0 C0.76969116 0.29912292 1.53938232 0.59824585 2.33239746 0.90643311 C4.8274583 1.87886034 7.31614137 2.86650158 9.8046875 3.85546875 C11.53661036 4.53658155 13.26887355 5.21682957 15.00146484 5.89624023 C17.64213618 6.93189762 20.28244024 7.96839521 22.92105103 9.0092926 C28.57790135 11.23704955 34.25725239 13.39147798 39.9609375 15.49609375 C42.07430073 16.28363926 44.18711991 17.07262528 46.29974365 17.8621521 C47.62423606 18.3531969 48.95092403 18.83836432 50.27984619 19.31729126 C63.55577749 24.11047298 63.55577749 24.11047298 66.6796875 30.04296875 C68.0369862 37.73715574 64.57045307 44.32778327 61.6796875 51.35546875 C60.73791578 53.68317209 59.80021025 56.012526 58.8671875 58.34375 C58.44824219 59.36637939 58.02929688 60.38900879 57.59765625 61.44262695 C56.51324502 64.05484987 56.51324502 64.05484987 56.6796875 67.04296875 C58.47838828 68.68043415 58.47838828 68.68043415 60.8046875 70.23046875 C68.27357855 75.83506831 73.5104246 82.85056738 75.6796875 92.04296875 C76.89790308 101.31115286 76.01130143 109.26193484 72.74609375 118.01171875 C72.43738342 118.8651889 72.1286731 119.71865906 71.81060791 120.59799194 C70.78286796 123.41914412 69.7344673 126.23181984 68.6796875 129.04296875 C68.31531586 130.01606995 67.95094421 130.98917114 67.57553101 131.99176025 C65.16657864 138.40322276 62.72198481 144.80069955 60.26489258 151.19384766 C58.41175984 156.01558452 56.565009 160.83975879 54.71777344 165.66375732 C53.76431732 168.15350464 52.81060223 170.64315077 51.85644531 173.13262939 C47.66031135 184.0834936 43.49156036 195.04463447 39.33102417 206.00906372 C32.48818801 224.0407269 25.63039695 242.06669759 18.75683594 260.08666992 C17.84381132 262.48071286 16.93120091 264.87491382 16.01904297 267.26928711 C13.59413933 273.63386952 11.16123032 279.99523784 8.71340942 286.3510437 C7.76707415 288.81540436 6.83089616 291.28339113 5.89624023 293.75219727 C5.37940828 295.09416898 4.86197055 296.43590765 4.34375 297.77734375 C3.92432129 298.8765918 3.50489258 299.97583984 3.07275391 301.10839844 C-1.26307988 310.24206864 -9.71706751 317.51683283 -19.09765625 321.10546875 C-34.18322223 325.54589816 -46.91206066 320.48135234 -60.8828125 315.04296875 C-62.75590535 314.32764737 -64.62953308 313.61372523 -66.50366211 312.90112305 C-70.42964812 311.40447507 -74.35117031 309.89686756 -78.26953125 308.38037109 C-83.3476781 306.41548946 -88.43354185 304.47161447 -93.52259827 302.53518677 C-98.47854612 300.64858432 -103.43073253 298.75219507 -108.3828125 296.85546875 C-109.31747345 296.498479 -110.2521344 296.14148926 -111.21511841 295.77368164 C-144.25765586 283.12846194 -144.25765586 283.12846194 -151.3203125 268.04296875 C-157.03191705 252.86048538 -152.7150207 239.97005836 -147.0703125 225.66796875 C-146.40226857 223.93669124 -145.73598309 222.20473437 -145.07128906 220.47216797 C-143.61863187 216.69289619 -142.15635756 212.9175352 -140.6875 209.14453125 C-138.20400621 202.75662896 -135.75924047 196.35424707 -133.3203125 189.94921875 C-132.45386377 187.67431399 -131.58740863 185.39941167 -130.72094727 183.12451172 C-130.28565704 181.98157654 -129.85036682 180.83864136 -129.40188599 179.66107178 C-127.15951909 173.77869377 -124.9093286 167.89930964 -122.66015625 162.01953125 C-118.02526659 149.89903863 -113.41265343 137.7701887 -108.80831909 125.63806152 C-107.6414536 122.56572066 -106.47257314 119.49415442 -105.30297852 116.42285156 C-101.71030761 106.98613226 -98.12876593 97.5458141 -94.59205627 88.08795166 C-92.96269043 83.73615127 -91.32323984 79.38818887 -89.68222046 75.04077148 C-88.90912861 72.98508605 -88.14063106 70.927666 -87.37710571 68.8684082 C-86.32185157 66.02354193 -85.2506157 63.18517193 -84.17578125 60.34765625 C-83.87340546 59.51978607 -83.57102966 58.69191589 -83.25949097 57.83895874 C-79.23137013 47.32996316 -71.93326715 38.39851291 -61.5703125 33.66796875 C-57.43360831 31.9567422 -53.70539932 30.91126355 -49.2109375 30.9453125 C-48.45683594 30.94853516 -47.70273437 30.95175781 -46.92578125 30.95507812 C-46.14847656 30.96345703 -45.37117188 30.97183594 -44.5703125 30.98046875 C-43.77753906 30.98498047 -42.98476563 30.98949219 -42.16796875 30.99414062 C-40.21871742 31.0058831 -38.26950512 31.02381729 -36.3203125 31.04296875 C-35.85975464 29.81779541 -35.85975464 29.81779541 -35.38989258 28.56787109 C-34.23443649 25.51139139 -33.06842982 22.45937167 -31.89526367 19.40966797 C-31.39169113 18.09421976 -30.89225687 16.777179 -30.3972168 15.45849609 C-25.17441762 1.56258931 -25.17441762 1.56258931 -20.3203125 -2.95703125 C-13.4695292 -5.24062568 -6.44429981 -2.59175716 0 0 Z " fill="#4863CE" transform="translate(436.3203125,162.95703125)"/>
<path d="M0 0 C5.92527548 1.71696402 11.72096819 3.55980332 17.46875 5.80078125 C18.16166138 6.06932419 18.85457275 6.33786713 19.56848145 6.61454773 C21.08076173 7.20087217 22.59242041 7.78880191 24.10351562 8.37817383 C28.38848312 10.04876985 32.67877753 11.70558901 36.96875 13.36328125 C38.37616455 13.90748215 38.37616455 13.90748215 39.81201172 14.462677 C51.89395869 19.12770938 64.00951615 23.70432252 76.12207794 28.28911209 C99.44388595 37.11758889 122.73960107 46.01098958 146 55 C137.09887227 79.79510192 127.60978426 104.36215041 118.10809326 128.93203735 C116.04246451 134.27733474 114.00160994 139.63038792 112 145 C105.59886091 143.1525589 99.33593887 141.10448629 93.11328125 138.7265625 C92.27858307 138.41075729 91.44388489 138.09495209 90.58389282 137.76957703 C87.82544432 136.72482203 85.068948 135.67502055 82.3125 134.625 C80.34001009 133.87632236 78.36743303 133.12787427 76.39477539 132.37963867 C71.05429448 130.35256172 65.71576617 128.32039083 60.37780762 126.28668213 C56.95043818 124.9811208 53.52263109 123.67671426 50.09472656 122.37255859 C22.02090779 111.68989221 -6.02874309 100.94869297 -34 90 C-29.00792064 75.44260077 -23.65843681 61.04696808 -18.125 46.6875 C-17.36563319 44.70908117 -16.60651811 42.73056569 -15.84765625 40.75195312 C-10.62339093 27.14512044 -5.32670295 13.56702438 0 0 Z " fill="#FA0AB2" transform="translate(343,263)"/>
<path d="M0 0 C5.31152741 3.7057168 8.50716735 8.95981372 11.734375 14.4765625 C12.10254333 15.10178802 12.47071167 15.72701355 12.85003662 16.3711853 C13.63939633 17.71273367 14.42638337 19.05568048 15.21118164 20.39990234 C17.3223594 24.01534154 19.45147373 27.62021113 21.578125 31.2265625 C22.00955811 31.95925354 22.44099121 32.69194458 22.88549805 33.44683838 C26.92275689 40.2953115 31.04527963 47.08966728 35.1875 53.875 C41.10533125 63.58739589 46.97162622 73.32920654 52.78588867 83.10400391 C53.62811344 84.51979195 54.47103474 85.9351659 55.31469727 87.35009766 C56.49069767 89.32321474 57.66377076 91.29804112 58.8359375 93.2734375 C59.50802246 94.40442871 60.18010742 95.53541992 60.87255859 96.70068359 C66.12369508 105.88487468 66.12369508 105.88487468 66.1875 110.75 C66.23390625 111.92175781 66.23390625 111.92175781 66.28125 113.1171875 C65.10485916 118.5812134 62.14218445 122.70609258 57.82421875 126.17578125 C56.68597656 126.83964844 55.54773438 127.50351563 54.375 128.1875 C53.70823242 128.58445068 53.04146484 128.98140137 52.35449219 129.39038086 C50.76436021 130.33407173 49.16897788 131.26894469 47.56982422 132.19726562 C44.20205448 134.15756663 40.85219977 136.14733233 37.50390625 138.140625 C33.41562228 140.57328414 29.32650762 143.00445218 25.23193359 145.42651367 C16.28247073 150.72198244 7.37569999 156.08195218 -1.5 161.5 C-11.48264976 167.59190971 -21.53654311 173.54940947 -31.63909912 179.44006348 C-41.10454555 184.96202229 -50.49600788 190.59443617 -59.85009766 196.30273438 C-69.29561569 202.06537915 -78.79023606 207.74015137 -88.3125 213.375 C-98.34959465 219.31531213 -108.35421172 225.30348533 -118.3125 231.375 C-130.46908478 238.7845535 -142.69883184 246.06612674 -154.94766235 253.32196045 C-155.60173065 253.70942444 -156.25579895 254.09688843 -156.9296875 254.49609375 C-157.5732016 254.87727356 -158.2167157 255.25845337 -158.87973022 255.65118408 C-164.24444173 258.83068886 -169.59409716 262.03481404 -174.9375 265.25 C-182.03381554 269.51318292 -189.13528659 273.76757987 -196.25 278 C-197.64629639 278.8360376 -197.64629639 278.8360376 -199.07080078 279.68896484 C-199.94333496 280.20668457 -200.81586914 280.7244043 -201.71484375 281.2578125 C-202.48304443 281.71559082 -203.25124512 282.17336914 -204.04272461 282.64501953 C-208.94929733 285.30386791 -212.68013237 286.44778315 -218.3125 285.875 C-229.58403352 282.42363896 -234.35674025 270.69693979 -239.91162109 261.19921875 C-242.0104929 257.61128819 -244.12528915 254.03275172 -246.23828125 250.453125 C-246.66662262 249.72661743 -247.09496399 249.00010986 -247.5362854 248.25158691 C-251.5677786 241.42210068 -255.68087141 234.6442242 -259.8125 227.875 C-266.21404176 217.37338864 -272.53491874 206.82614049 -278.8125 196.25 C-279.23426514 195.5398877 -279.65603027 194.82977539 -280.09057617 194.09814453 C-281.280107 192.09465044 -282.46847275 190.0904716 -283.65625 188.0859375 C-284.01267578 187.48526459 -284.36910156 186.88459167 -284.73632812 186.26571655 C-287.33672311 181.87024282 -288.50250381 179.32589279 -288.625 174.1875 C-288.66238281 173.17300781 -288.69976562 172.15851563 -288.73828125 171.11328125 C-288.18470367 166.90304444 -287.13082561 164.01045577 -284.3125 160.875 C-280.4340334 157.94721791 -276.26726079 155.54607726 -272.0625 153.125 C-270.81414355 152.3889967 -269.56676793 151.65132758 -268.3203125 150.91210938 C-265.681697 149.35085765 -263.03761527 147.79952153 -260.38867188 146.25585938 C-256.35626552 143.90454716 -252.34012785 141.52654861 -248.328125 139.140625 C-247.33930328 138.55266144 -247.33930328 138.55266144 -246.33050537 137.95281982 C-244.99540866 137.15891141 -243.66034604 136.36494568 -242.32531738 135.57092285 C-240.2984225 134.3666358 -238.27004527 133.16488364 -236.24121094 131.96386719 C-227.56299904 126.82463224 -218.92382363 121.62544703 -210.3125 116.375 C-199.68025159 109.89236625 -188.9913318 103.51074333 -178.27450562 97.16900635 C-168.85237913 91.59194455 -159.47112 85.95343468 -150.125 80.25 C-140.14211814 74.15846246 -130.08846536 68.20059547 -119.98590088 62.30993652 C-110.52045445 56.78797771 -101.12899212 51.15556383 -91.77490234 45.44726562 C-81.66347283 39.27835289 -71.49305896 33.21404327 -61.29849243 27.18365479 C-50.2002161 20.61696501 -39.16056511 13.9589433 -28.16796875 7.21679688 C-27.08902344 6.55744141 -26.01007813 5.89808594 -24.8984375 5.21875 C-23.9604834 4.64318359 -23.0225293 4.06761719 -22.05615234 3.47460938 C-14.45638183 -0.95622319 -8.57223572 -2.91132534 0 0 Z M-28.7265625 13.50390625 C-29.36423553 13.88461777 -30.00190857 14.26532928 -30.65890503 14.65757751 C-32.75553865 15.91137904 -34.84646015 17.17439538 -36.9375 18.4375 C-38.40003321 19.31439848 -39.86292746 20.19069505 -41.32617188 21.06640625 C-44.989467 23.2607173 -48.64836214 25.46224105 -52.30578613 27.6663208 C-55.15747488 29.38394329 -58.01222319 31.09642089 -60.8671875 32.80859375 C-63.84626489 34.59526558 -66.8249836 36.38250647 -69.80200195 38.17260742 C-77.53974203 42.82317048 -85.30209929 47.43120476 -93.06933594 52.03222656 C-104.42761149 58.76085821 -115.74873787 65.54410034 -127.0206604 72.41644287 C-137.0855022 78.55063321 -147.21025471 84.57955625 -157.35351562 90.58300781 C-166.70934031 96.12205071 -176.02940012 101.71496139 -185.3125 107.375 C-195.27070482 113.44665974 -205.27559871 119.43436057 -215.3125 125.375 C-226.76206242 132.15218895 -238.17060239 138.99184065 -249.52539062 145.92675781 C-254.7805242 149.13382279 -260.04428107 152.31888636 -265.359375 155.42578125 C-266.2865332 155.97049072 -267.21369141 156.5152002 -268.16894531 157.07641602 C-269.86658221 158.07088506 -271.56871837 159.05773495 -273.27636719 160.03491211 C-279.1982191 163.50157179 -279.1982191 163.50157179 -283.3125 168.875 C-284.36076929 175.0349404 -283.10571626 179.34368766 -279.875 184.6875 C-279.285979 185.68040039 -279.285979 185.68040039 -278.68505859 186.69335938 C-277.24825471 189.10031289 -275.78051683 191.48696045 -274.3125 193.875 C-273.07300837 195.91983973 -271.83481537 197.96546698 -270.59765625 200.01171875 C-268.48689712 203.49773851 -266.37363467 206.98206991 -264.24951172 210.45996094 C-259.0014807 219.05614529 -253.84212823 227.70157928 -248.71957397 236.37304688 C-241.45305508 248.67356161 -234.06270889 260.87068444 -226.3125 272.875 C-222.71430674 272.28730439 -219.86616857 271.32541031 -216.63671875 269.64453125 C-215.2899707 268.94577881 -215.2899707 268.94577881 -213.91601562 268.23291016 C-212.95373047 267.7229248 -211.99144531 267.21293945 -211 266.6875 C-209.98744141 266.15431152 -208.97488281 265.62112305 -207.93164062 265.07177734 C-188.61194845 254.80186704 -169.91879864 243.37440253 -151.3125 231.875 C-150.14533447 231.15594482 -150.14533447 231.15594482 -148.95458984 230.42236328 C-146.9221974 229.16563787 -144.89694842 227.89844121 -142.875 226.625 C-141.78316406 225.93921875 -140.69132813 225.2534375 -139.56640625 224.546875 C-138.82261719 223.99515625 -138.07882813 223.4434375 -137.3125 222.875 C-137.3125 222.215 -137.3125 221.555 -137.3125 220.875 C-136.384375 220.71 -135.45625 220.545 -134.5 220.375 C-129.77825439 219.01785156 -126.33785692 216.15140195 -122.46484375 213.21875 C-118.39076326 210.18969387 -114.18295888 207.39563721 -109.94482422 204.60327148 C-106.94014535 202.6234888 -103.94873823 200.63447131 -101.00390625 198.56640625 C-95.83722811 194.97934945 -91.33693501 192.29151427 -85.28515625 190.578125 C-81.88494253 189.36616763 -79.85610447 187.41860447 -77.3125 184.875 C-77.02503906 184.22402344 -76.73757812 183.57304687 -76.44140625 182.90234375 C-74.95450126 180.23208876 -73.32436046 179.40453839 -70.6875 177.875 C-67.04134535 175.6853907 -63.68553174 173.43146249 -60.37890625 170.75390625 C-59.69586426 170.20798828 -59.01282227 169.66207031 -58.30908203 169.09960938 C-56.96493672 168.01460329 -55.63551689 166.91102271 -54.32373047 165.78710938 C-49.70784494 162.10378522 -46.52633211 161.33347718 -40.63598633 161.83203125 C-35.79905483 161.9214817 -32.2239522 159.43103479 -28.58984375 156.47265625 C-25.09214362 152.95776841 -24.0704882 150.17787727 -23.3125 145.3125 C-21.51390354 136.2736936 -13.8975851 130.75547229 -7.3125 124.875 C-5.1067579 125.93872949 -3.20954279 126.95299789 -1.25 128.4375 C3.39253006 131.88195778 9.17741808 131.63272822 14.6875 130.875 C19.62672919 128.84999075 23.4943522 125.85559318 26.25 121.25 C28.44656864 115.98633322 28.45971458 110.46173608 27.6875 104.875 C25.37602898 99.98534976 22.05837422 96.93461195 17.6875 93.875 C15.69900687 93.47875993 13.69829005 93.13545052 11.6875 92.875 C11.7189209 92.00101563 11.7189209 92.00101563 11.75097656 91.109375 C12.61755816 63.2032537 4.04844653 41.35757585 -12.3125 18.875 C-12.99828125 17.91207031 -13.6840625 16.94914062 -14.390625 15.95703125 C-16.69116773 12.77631015 -16.69116773 12.77631015 -19.3125 9.875 C-23.19474745 9.875 -25.5104375 11.54810248 -28.7265625 13.50390625 Z " fill="#4863CD" transform="translate(288.3125,33.125)"/>
<path d="M0 0 C5.81811541 2.25834926 11.65054397 4.47582619 17.49279785 6.67089844 C19.0583507 7.26111967 20.62386261 7.85144948 22.18933105 8.44189453 C24.41507184 9.28127035 26.64149671 10.11840682 28.87106323 10.9475708 C30.90773911 11.7053723 32.94074421 12.47235194 34.9732666 13.24121094 C36.11803467 13.66942139 37.26280273 14.09763184 38.44226074 14.53881836 C47.37932475 18.49569163 55.13772175 25.57959776 58.73498535 34.78808594 C62.20394069 47.0967915 58.23319587 57.59400789 53.78186035 68.98828125 C52.48915213 72.29757062 51.22842482 75.61819994 49.96936035 78.94042969 C43.09770157 97.00405974 43.09770157 97.00405974 41.62561035 99.94824219 C34.55465838 97.93097209 27.68232337 95.56625165 20.81311035 92.94824219 C19.78658356 92.56015381 18.76005676 92.17206543 17.7024231 91.7722168 C14.34221655 90.50088075 10.98389412 89.22464772 7.62561035 87.94824219 C5.26421981 87.05344608 2.90272731 86.15891899 0.5411377 85.26464844 C-5.56363177 82.95191954 -11.66676713 80.63490898 -17.76953125 78.31689453 C-22.37770989 76.56731277 -26.987021 74.82072739 -31.59635925 73.07420349 C-42.06496153 69.10753873 -52.52857608 65.12810945 -62.98735046 61.13560486 C-68.31314875 59.10526903 -73.6458585 57.09551299 -78.98944092 55.11245728 C-81.9664265 54.00612171 -84.9391303 52.88860321 -87.91107178 51.76879883 C-89.24420204 51.26994438 -90.57941711 50.77662046 -91.91680908 50.28930664 C-93.70084155 49.63893741 -95.4773655 48.96807638 -97.2532959 48.29589844 C-98.71618042 47.75461304 -98.71618042 47.75461304 -100.20861816 47.20239258 C-102.37438965 45.94824219 -102.37438965 45.94824219 -103.08850098 44.13027954 C-103.42483476 41.56322131 -103.02612787 40.19402088 -102.11437988 37.78149414 C-101.81333847 36.96997391 -101.51229706 36.15845367 -101.20213318 35.32234192 C-100.86581375 34.45252182 -100.52949432 33.58270172 -100.1829834 32.68652344 C-99.84066177 31.7812944 -99.49834015 30.87606537 -99.14564514 29.94340515 C-98.41702109 28.02570905 -97.68281339 26.11012658 -96.94348145 24.1965332 C-95.8250629 21.29491874 -94.73040448 18.38514787 -93.63806152 15.47363281 C-92.92529409 13.60655163 -92.21114368 11.7399977 -91.4954834 9.87402344 C-91.17333359 9.01432449 -90.85118378 8.15462555 -90.51927185 7.26887512 C-86.15795564 -3.89782619 -79.77986357 -12.97498673 -68.56188965 -17.98925781 C-47.2439163 -24.50077886 -19.62477965 -7.63118134 0 0 Z " fill="#637FFD" transform="translate(447.3743896484375,218.0517578125)"/>
<path d="M0 0 C0.76969116 0.29912292 1.53938232 0.59824585 2.33239746 0.90643311 C4.8274583 1.87886034 7.31614137 2.86650158 9.8046875 3.85546875 C11.53661036 4.53658155 13.26887355 5.21682957 15.00146484 5.89624023 C17.64213618 6.93189762 20.28244024 7.96839521 22.92105103 9.0092926 C28.57790135 11.23704955 34.25725239 13.39147798 39.9609375 15.49609375 C42.07430073 16.28363926 44.18711991 17.07262528 46.29974365 17.8621521 C47.62423606 18.3531969 48.95092403 18.83836432 50.27984619 19.31729126 C63.55577749 24.11047298 63.55577749 24.11047298 66.6796875 30.04296875 C68.0369862 37.73715574 64.57045307 44.32778327 61.6796875 51.35546875 C60.73791578 53.68317209 59.80021025 56.012526 58.8671875 58.34375 C58.44824219 59.36637939 58.02929688 60.38900879 57.59765625 61.44262695 C56.51324502 64.05484987 56.51324502 64.05484987 56.6796875 67.04296875 C58.47838828 68.68043415 58.47838828 68.68043415 60.8046875 70.23046875 C68.27357855 75.83506831 73.5104246 82.85056738 75.6796875 92.04296875 C76.89790308 101.31115286 76.01130143 109.26193484 72.74609375 118.01171875 C72.43738342 118.8651889 72.1286731 119.71865906 71.81060791 120.59799194 C70.78286796 123.41914412 69.7344673 126.23181984 68.6796875 129.04296875 C68.31531586 130.01606995 67.95094421 130.98917114 67.57553101 131.99176025 C65.16657864 138.40322276 62.72198481 144.80069955 60.26489258 151.19384766 C58.41175984 156.01558452 56.565009 160.83975879 54.71777344 165.66375732 C53.76431732 168.15350464 52.81060223 170.64315077 51.85644531 173.13262939 C47.66031135 184.0834936 43.49156036 195.04463447 39.33102417 206.00906372 C32.48818801 224.0407269 25.63039695 242.06669759 18.75683594 260.08666992 C17.84381132 262.48071286 16.93120091 264.87491382 16.01904297 267.26928711 C13.59413933 273.63386952 11.16123032 279.99523784 8.71340942 286.3510437 C7.76707415 288.81540436 6.83089616 291.28339113 5.89624023 293.75219727 C5.37940828 295.09416898 4.86197055 296.43590765 4.34375 297.77734375 C3.92432129 298.8765918 3.50489258 299.97583984 3.07275391 301.10839844 C-1.26307988 310.24206864 -9.71706751 317.51683283 -19.09765625 321.10546875 C-34.18322223 325.54589816 -46.91206066 320.48135234 -60.8828125 315.04296875 C-62.75590535 314.32764737 -64.62953308 313.61372523 -66.50366211 312.90112305 C-70.42964812 311.40447507 -74.35117031 309.89686756 -78.26953125 308.38037109 C-83.3476781 306.41548946 -88.43354185 304.47161447 -93.52259827 302.53518677 C-98.47854612 300.64858432 -103.43073253 298.75219507 -108.3828125 296.85546875 C-109.31747345 296.498479 -110.2521344 296.14148926 -111.21511841 295.77368164 C-144.25765586 283.12846194 -144.25765586 283.12846194 -151.3203125 268.04296875 C-157.03191705 252.86048538 -152.7150207 239.97005836 -147.0703125 225.66796875 C-146.40226857 223.93669124 -145.73598309 222.20473437 -145.07128906 220.47216797 C-143.61863187 216.69289619 -142.15635756 212.9175352 -140.6875 209.14453125 C-138.20400621 202.75662896 -135.75924047 196.35424707 -133.3203125 189.94921875 C-132.45386377 187.67431399 -131.58740863 185.39941167 -130.72094727 183.12451172 C-130.28565704 181.98157654 -129.85036682 180.83864136 -129.40188599 179.66107178 C-127.15951909 173.77869377 -124.9093286 167.89930964 -122.66015625 162.01953125 C-118.02526659 149.89903863 -113.41265343 137.7701887 -108.80831909 125.63806152 C-107.6414536 122.56572066 -106.47257314 119.49415442 -105.30297852 116.42285156 C-101.71030761 106.98613226 -98.12876593 97.5458141 -94.59205627 88.08795166 C-92.96269043 83.73615127 -91.32323984 79.38818887 -89.68222046 75.04077148 C-88.90912861 72.98508605 -88.14063106 70.927666 -87.37710571 68.8684082 C-86.32185157 66.02354193 -85.2506157 63.18517193 -84.17578125 60.34765625 C-83.87340546 59.51978607 -83.57102966 58.69191589 -83.25949097 57.83895874 C-79.23137013 47.32996316 -71.93326715 38.39851291 -61.5703125 33.66796875 C-57.43360831 31.9567422 -53.70539932 30.91126355 -49.2109375 30.9453125 C-48.45683594 30.94853516 -47.70273437 30.95175781 -46.92578125 30.95507812 C-46.14847656 30.96345703 -45.37117188 30.97183594 -44.5703125 30.98046875 C-43.77753906 30.98498047 -42.98476563 30.98949219 -42.16796875 30.99414062 C-40.21871742 31.0058831 -38.26950512 31.02381729 -36.3203125 31.04296875 C-35.85975464 29.81779541 -35.85975464 29.81779541 -35.38989258 28.56787109 C-34.23443649 25.51139139 -33.06842982 22.45937167 -31.89526367 19.40966797 C-31.39169113 18.09421976 -30.89225687 16.777179 -30.3972168 15.45849609 C-25.17441762 1.56258931 -25.17441762 1.56258931 -20.3203125 -2.95703125 C-13.4695292 -5.24062568 -6.44429981 -2.59175716 0 0 Z M-71.75683594 47.69799805 C-77.25367763 55.45296441 -80.12469074 64.32101159 -83.3828125 73.16796875 C-84.07251403 75.01350637 -84.76355182 76.85854506 -85.45581055 78.703125 C-86.56601354 81.66247743 -87.67509074 84.62221742 -88.77998352 87.58355713 C-92.89088815 98.60148287 -97.09653499 109.58279367 -101.30163574 120.56503296 C-103.54048726 126.41443032 -105.77430512 132.26574786 -108.0078125 138.1171875 C-108.67281769 139.8593026 -108.67281769 139.8593026 -109.35125732 141.63661194 C-112.34625662 149.48489041 -115.33547794 157.33535042 -118.3203125 165.1875 C-118.72289276 166.24614258 -119.12547302 167.30478516 -119.54025269 168.39550781 C-121.52086009 173.60581735 -123.49716655 178.81769191 -125.46533203 184.03271484 C-128.87242336 193.04981654 -132.30223239 202.05300026 -135.88710022 211.00120544 C-137.41466992 214.81726417 -138.9234652 218.64062921 -140.43148804 222.46444702 C-141.13472737 224.23085007 -141.84757324 225.99346693 -142.57119751 227.75161743 C-147.7227048 240.27173061 -151.25040247 252.1094146 -146.7578125 265.54296875 C-139.77261417 280.04881615 -125.89872401 284.89706782 -111.6953125 290.05065918 C-108.17995778 291.32621448 -104.67280468 292.62363746 -101.16513062 293.9201355 C-99.33530046 294.59642463 -97.50507558 295.27164666 -95.67446899 295.9458313 C-85.68526125 299.63000539 -75.75135269 303.45532556 -65.8203125 307.29296875 C-63.37627991 308.23653648 -60.93217604 309.17991903 -58.48799133 310.12309265 C-57.04220964 310.68122165 -55.59662338 311.23985733 -54.15129089 311.79914856 C-52.85466254 312.30032075 -51.55735598 312.79974257 -50.25930786 313.29722595 C-48.90038609 313.8198709 -47.54403596 314.34922867 -46.18966675 314.88356018 C-37.63763037 318.20577844 -27.64458975 318.62810159 -18.8828125 315.54296875 C-3.29330576 308.03690995 0.68168107 292.83630029 6.29119873 277.74893188 C8.16601098 272.70733639 10.05931304 267.67267103 11.94921875 262.63671875 C12.34028809 261.59304642 12.73135742 260.54937408 13.13427734 259.47407532 C17.21938845 248.58004361 21.38342105 237.71673565 25.5546875 226.85546875 C32.63189252 208.41273185 39.66623513 189.95403169 46.67480469 171.48510742 C47.45764926 169.42235074 48.24052671 167.35960655 49.0234375 165.296875 C49.4080011 164.28366684 49.7925647 163.27045868 50.18878174 162.22654724 C52.91565793 155.04575657 55.65444066 147.86957629 58.3984375 140.6953125 C59.14895367 138.73153735 59.89944254 136.76775177 60.64990234 134.80395508 C61.71668251 132.01252806 62.78419671 129.2213953 63.85430908 126.4312439 C64.82153027 123.90934619 65.78603228 121.38642397 66.75 118.86328125 C67.0344397 118.12411972 67.31887939 117.38495819 67.61193848 116.62339783 C71.05555639 107.59057759 72.94008536 97.33845569 68.9921875 88.10546875 C68.25892233 86.73059655 67.48918694 85.3743823 66.6796875 84.04296875 C66.3290625 83.4190625 65.9784375 82.79515625 65.6171875 82.15234375 C60.36316168 73.76049696 51.10564383 70.06459076 42.1640625 66.79296875 C41.16621231 66.41724228 40.16836212 66.04151581 39.14027405 65.65440369 C35.90732321 64.43983385 32.66869923 63.24127023 29.4296875 62.04296875 C27.18929096 61.20494285 24.94930381 60.36582169 22.7097168 59.52563477 C18.19624055 57.83371362 13.68071302 56.14744888 9.16357422 54.46533203 C3.23364677 52.25421169 -2.68455201 50.01348541 -8.59765625 47.7578125 C-9.45386566 47.43156891 -10.31007507 47.10532532 -11.19223022 46.76919556 C-14.40617592 45.54450669 -17.62006672 44.319683 -20.83288574 43.09204102 C-22.98780192 42.26950756 -25.14409847 41.4507006 -27.30078125 40.6328125 C-28.49598389 40.17769287 -29.69118652 39.72257324 -30.92260742 39.25366211 C-46.20984359 33.80641025 -60.59718507 34.84088159 -71.75683594 47.69799805 Z " fill="#030F42" transform="translate(436.3203125,162.95703125)"/>
<path d="M0 0 C5.31152741 3.7057168 8.50716735 8.95981372 11.734375 14.4765625 C12.10254333 15.10178802 12.47071167 15.72701355 12.85003662 16.3711853 C13.63939633 17.71273367 14.42638337 19.05568048 15.21118164 20.39990234 C17.3223594 24.01534154 19.45147373 27.62021113 21.578125 31.2265625 C22.00955811 31.95925354 22.44099121 32.69194458 22.88549805 33.44683838 C26.92275689 40.2953115 31.04527963 47.08966728 35.1875 53.875 C41.10533125 63.58739589 46.97162622 73.32920654 52.78588867 83.10400391 C53.62811344 84.51979195 54.47103474 85.9351659 55.31469727 87.35009766 C56.49069767 89.32321474 57.66377076 91.29804112 58.8359375 93.2734375 C59.50802246 94.40442871 60.18010742 95.53541992 60.87255859 96.70068359 C66.12369508 105.88487468 66.12369508 105.88487468 66.1875 110.75 C66.23390625 111.92175781 66.23390625 111.92175781 66.28125 113.1171875 C65.10485916 118.5812134 62.14218445 122.70609258 57.82421875 126.17578125 C56.68597656 126.83964844 55.54773438 127.50351563 54.375 128.1875 C53.70823242 128.58445068 53.04146484 128.98140137 52.35449219 129.39038086 C50.76436021 130.33407173 49.16897788 131.26894469 47.56982422 132.19726562 C44.20205448 134.15756663 40.85219977 136.14733233 37.50390625 138.140625 C33.41562228 140.57328414 29.32650762 143.00445218 25.23193359 145.42651367 C16.28247073 150.72198244 7.37569999 156.08195218 -1.5 161.5 C-11.48264976 167.59190971 -21.53654311 173.54940947 -31.63909912 179.44006348 C-41.10454555 184.96202229 -50.49600788 190.59443617 -59.85009766 196.30273438 C-69.29561569 202.06537915 -78.79023606 207.74015137 -88.3125 213.375 C-98.34959465 219.31531213 -108.35421172 225.30348533 -118.3125 231.375 C-130.46908478 238.7845535 -142.69883184 246.06612674 -154.94766235 253.32196045 C-155.60173065 253.70942444 -156.25579895 254.09688843 -156.9296875 254.49609375 C-157.5732016 254.87727356 -158.2167157 255.25845337 -158.87973022 255.65118408 C-164.24444173 258.83068886 -169.59409716 262.03481404 -174.9375 265.25 C-182.03381554 269.51318292 -189.13528659 273.76757987 -196.25 278 C-197.64629639 278.8360376 -197.64629639 278.8360376 -199.07080078 279.68896484 C-199.94333496 280.20668457 -200.81586914 280.7244043 -201.71484375 281.2578125 C-202.48304443 281.71559082 -203.25124512 282.17336914 -204.04272461 282.64501953 C-208.94929733 285.30386791 -212.68013237 286.44778315 -218.3125 285.875 C-229.58403352 282.42363896 -234.35674025 270.69693979 -239.91162109 261.19921875 C-242.0104929 257.61128819 -244.12528915 254.03275172 -246.23828125 250.453125 C-246.66662262 249.72661743 -247.09496399 249.00010986 -247.5362854 248.25158691 C-251.5677786 241.42210068 -255.68087141 234.6442242 -259.8125 227.875 C-266.21404176 217.37338864 -272.53491874 206.82614049 -278.8125 196.25 C-279.23426514 195.5398877 -279.65603027 194.82977539 -280.09057617 194.09814453 C-281.280107 192.09465044 -282.46847275 190.0904716 -283.65625 188.0859375 C-284.01267578 187.48526459 -284.36910156 186.88459167 -284.73632812 186.26571655 C-287.33672311 181.87024282 -288.50250381 179.32589279 -288.625 174.1875 C-288.66238281 173.17300781 -288.69976562 172.15851563 -288.73828125 171.11328125 C-288.18470367 166.90304444 -287.13082561 164.01045577 -284.3125 160.875 C-280.4340334 157.94721791 -276.26726079 155.54607726 -272.0625 153.125 C-270.81414355 152.3889967 -269.56676793 151.65132758 -268.3203125 150.91210938 C-265.681697 149.35085765 -263.03761527 147.79952153 -260.38867188 146.25585938 C-256.35626552 143.90454716 -252.34012785 141.52654861 -248.328125 139.140625 C-247.33930328 138.55266144 -247.33930328 138.55266144 -246.33050537 137.95281982 C-244.99540866 137.15891141 -243.66034604 136.36494568 -242.32531738 135.57092285 C-240.2984225 134.3666358 -238.27004527 133.16488364 -236.24121094 131.96386719 C-227.56299904 126.82463224 -218.92382363 121.62544703 -210.3125 116.375 C-199.68025159 109.89236625 -188.9913318 103.51074333 -178.27450562 97.16900635 C-168.85237913 91.59194455 -159.47112 85.95343468 -150.125 80.25 C-140.14211814 74.15846246 -130.08846536 68.20059547 -119.98590088 62.30993652 C-110.52045445 56.78797771 -101.12899212 51.15556383 -91.77490234 45.44726562 C-81.66347283 39.27835289 -71.49305896 33.21404327 -61.29849243 27.18365479 C-50.2002161 20.61696501 -39.16056511 13.9589433 -28.16796875 7.21679688 C-27.08902344 6.55744141 -26.01007813 5.89808594 -24.8984375 5.21875 C-23.9604834 4.64318359 -23.0225293 4.06761719 -22.05615234 3.47460938 C-14.45638183 -0.95622319 -8.57223572 -2.91132534 0 0 Z M-22 9.3125 C-22.95060303 9.89161133 -23.90120605 10.47072266 -24.88061523 11.06738281 C-26.94687806 12.32792786 -29.00898638 13.59530243 -31.06738281 14.86865234 C-36.06848967 17.96066981 -41.0961067 21.00897605 -46.1222229 24.06008911 C-47.89322733 25.13607413 -49.66288178 26.21425329 -51.43237305 27.29272461 C-59.84021759 32.4111236 -68.30896101 37.41750706 -76.8125 42.375 C-86.88842487 48.24986912 -96.89403484 54.22708438 -106.85009766 60.30273438 C-116.29561569 66.06537915 -125.79023606 71.74015137 -135.3125 77.375 C-145.34959232 83.31531075 -155.3543 89.3033432 -165.3125 95.375 C-175.94578845 101.85826787 -186.6361673 108.23977342 -197.35351562 114.58300781 C-207.84526229 120.79456444 -218.28366465 127.08763889 -228.69262695 133.43676758 C-235.05695708 137.31408613 -241.44283935 141.15224011 -247.85546875 144.94921875 C-248.57670929 145.37635162 -249.29794983 145.8034845 -250.04104614 146.24356079 C-253.54768943 148.3189211 -257.05658023 150.39037421 -260.56835938 152.45703125 C-273.3891395 159.03430473 -273.3891395 159.03430473 -283.3125 168.875 C-284.48948391 174.90435179 -283.01669115 179.49094091 -279.875 184.6875 C-279.285979 185.68040039 -279.285979 185.68040039 -278.68505859 186.69335938 C-277.24825471 189.10031289 -275.78051683 191.48696045 -274.3125 193.875 C-273.07300837 195.91983973 -271.83481537 197.96546698 -270.59765625 200.01171875 C-268.4851315 203.50047782 -266.37019929 206.98762733 -264.24511719 210.46875 C-259.04491716 218.98981728 -253.91957273 227.55262333 -248.83547974 236.14343262 C-247.63156478 238.17641444 -246.42546459 240.20808176 -245.21850586 242.23925781 C-244.82600143 242.89983185 -244.43349701 243.56040588 -244.02909851 244.24099731 C-243.24846285 245.55471818 -242.46779308 246.86841877 -241.68708801 248.18209839 C-239.8533263 251.2702182 -238.02487451 254.36120922 -236.20996094 257.46044922 C-234.317823 260.68873048 -232.41054103 263.90758773 -230.5 267.125 C-229.68366089 268.53519409 -229.68366089 268.53519409 -228.85083008 269.97387695 C-225.9634702 274.8006232 -223.6044438 278.46279514 -218.3125 280.875 C-212.92299301 281.3337237 -209.87125224 280.53317816 -205.26953125 277.75390625 C-204.71230881 277.42305527 -204.15508636 277.09220428 -203.58097839 276.75132751 C-201.75322732 275.66112292 -199.93946801 274.54964682 -198.125 273.4375 C-196.83347683 272.66143662 -195.54114388 271.88671943 -194.24804688 271.11328125 C-190.9075228 269.10977 -187.57856354 267.08791091 -184.253479 265.05889893 C-181.81587289 263.5720826 -179.37468568 262.09121457 -176.93339539 260.61045837 C-172.89844232 258.16305809 -168.86512664 255.71303167 -164.8371582 253.25415039 C-156.54973898 248.19993404 -148.19851156 243.26360056 -139.8125 238.375 C-129.73652269 232.50022372 -119.73096296 226.52291427 -109.77490234 220.44726562 C-100.32938431 214.68462085 -90.83476394 209.00984863 -81.3125 203.375 C-71.27540768 197.43468925 -61.2707 191.4466568 -51.3125 185.375 C-40.67921155 178.89173213 -29.9888327 172.51022658 -19.27148438 166.16699219 C-8.78225825 159.95692783 1.65667984 153.67016974 12.05883789 147.31542969 C18.46489369 143.41031493 24.89909079 139.56054441 31.37109375 135.765625 C32.84310337 134.90039813 34.3151086 134.03516379 35.78710938 133.16992188 C38.61818508 131.50646318 41.45486921 129.85315142 44.29492188 128.20507812 C45.59135381 127.44436474 46.88758775 126.6833138 48.18359375 125.921875 C49.31982178 125.26026367 50.4560498 124.59865234 51.62670898 123.91699219 C55.76647338 121.15516803 59.08708036 118.67625892 60.6875 113.875 C61.15775223 108.3313223 60.08515047 104.83709661 57.25 100.1875 C56.85731934 99.51654297 56.46463867 98.84558594 56.06005859 98.15429688 C54.62217321 95.71560907 53.15691559 93.29481947 51.6875 90.875 C51.09727051 89.89837402 50.50704102 88.92174805 49.89892578 87.91552734 C47.14742851 83.3659667 44.39038 78.81989237 41.62011719 74.28173828 C36.42020124 65.76014543 31.29431154 57.19728465 26.20993042 48.60629272 C23.07699505 43.31419459 19.93548809 38.027173 16.79467773 32.73974609 C15.71313375 30.91817322 14.63291439 29.09581942 13.55273438 27.2734375 C11.62700662 24.03127265 9.69043984 20.7958749 7.75 17.5625 C7.18901611 16.6139917 6.62803223 15.6654834 6.05004883 14.68823242 C5.52950928 13.82560791 5.00896973 12.9629834 4.47265625 12.07421875 C4.02801025 11.33002686 3.58336426 10.58583496 3.12524414 9.8190918 C0.76567599 6.62852614 -1.56738836 5.12337055 -5.3125 3.875 C-12.27278428 2.96636973 -16.32753352 5.74928627 -22 9.3125 Z " fill="#010F41" transform="translate(288.3125,33.125)"/>
<path d="M0 0 C7.36781572 2.08386754 14.49502168 4.60565412 21.63671875 7.359375 C23.29031906 7.99195473 23.29031906 7.99195473 24.97732544 8.63731384 C28.54878014 10.0045976 32.11821447 11.37706466 35.6875 12.75 C38.15119547 13.69530385 40.61498196 14.64037049 43.07885742 15.58520508 C48.02816771 17.48363488 52.97667461 19.38414106 57.92480469 21.28564453 C63.39507524 23.38636557 68.86937395 25.47619224 74.34690857 27.55789185 C77.99502113 28.94440697 81.64162666 30.3348558 85.28799438 31.72595215 C86.96488388 32.36465522 88.64243213 33.00163154 90.32064819 33.63684082 C92.61801999 34.50688359 94.91279679 35.38344321 97.20703125 36.26171875 C97.87517853 36.5128392 98.54332581 36.76395966 99.23171997 37.02268982 C101.99781483 38.08836935 103.87804622 38.87804622 106 41 C96.73821849 51.14385593 84.05758045 60.38065162 71 65 C66.89669533 64.72344498 63.23744889 63.01469574 59.4375 61.5 C45.17570173 55.82825595 27.9208592 55.63725348 13.69140625 61.61328125 C11.44526368 62.77058257 9.44556368 64.00327976 7.375 65.4375 C-0.41342093 69.04325043 -10.0249077 64.54007712 -17.69921875 61.90234375 C-20 61 -20 61 -21 60 C-20.6576076 52.46352016 -18.50726587 46.20674381 -15.78125 39.21875 C-15.36331177 38.12405396 -14.94537354 37.02935791 -14.51477051 35.90148926 C-13.63538359 33.60365691 -12.75097749 31.30773975 -11.86181641 29.01367188 C-10.49497604 25.48703751 -9.14266874 21.95510051 -7.79296875 18.421875 C-6.93572429 16.18718202 -6.07767993 13.95279569 -5.21875 11.71875 C-4.81144653 10.65845581 -4.40414307 9.59816162 -3.98449707 8.5057373 C-3.41886047 7.04786804 -3.41886047 7.04786804 -2.84179688 5.56054688 C-2.50950073 4.7016687 -2.17720459 3.84279053 -1.83483887 2.95788574 C-1 1 -1 1 0 0 Z " fill="#617FFE" transform="translate(309,353)"/>
<path d="M0 0 C9.5777382 5.84174103 16.2840199 13.33423299 19.56640625 24.0546875 C22.142832 34.91141799 20.70581923 43.5907433 15.75390625 53.6796875 C10.01027074 62.09162612 2.54489028 67.52033752 -6.93359375 71.0546875 C-19.79633092 73.46159808 -29.47020841 71.8048006 -40.24609375 64.6796875 C-48.27372676 58.53867487 -52.45929559 50.25702441 -55.24609375 40.6796875 C-56.56846458 30.08680115 -54.4115695 20.61631041 -48.26171875 11.8515625 C-36.12021914 -2.52879519 -17.43547496 -8.39749406 0 0 Z " fill="#FEFAFD" transform="translate(416.24609375,301.3203125)"/>
<path d="M0 0 C3.52898049 2.13997647 6.74819636 4.61970285 9.98193359 7.17724609 C11.47527297 8.33889754 12.96876707 9.50035013 14.46240234 10.66162109 C15.21956543 11.25394531 15.97672852 11.84626953 16.75683594 12.45654297 C19.70441972 14.75421127 22.67346452 17.02292722 25.64550781 19.28881836 C27.76950205 20.90823728 29.88959494 22.53265803 32.00927734 24.15771484 C34.61602859 26.15375219 37.23290053 28.13498215 39.86083984 30.10302734 C40.45348633 30.55009033 41.04613281 30.99715332 41.65673828 31.45776367 C43.23734147 32.64957116 44.82235249 33.83552668 46.40771484 35.02099609 C51.73136815 39.50075177 54.59534678 43.80331275 55.30224609 50.78662109 C55.63768103 58.88178427 53.88577821 63.96127154 48.60693359 70.05224609 C42.86273536 74.95582995 37.9188558 76.65924608 30.45458984 76.50146484 C21.45139259 75.52380809 14.71726529 69.1622918 7.90576172 63.71533203 C4.57158227 61.07212891 1.17897256 58.50540811 -2.20556641 55.92724609 C-3.64179571 54.82702665 -5.07799325 53.72676574 -6.51416016 52.62646484 C-9.55669976 50.30005581 -12.61290621 47.99308134 -15.67822266 45.69677734 C-16.44682617 45.11774658 -17.21542969 44.53871582 -18.00732422 43.94213867 C-19.47547883 42.83658337 -20.94729334 41.73586558 -22.42333984 40.64086914 C-29.28932739 35.45487492 -33.99069059 29.95476022 -35.24462891 21.22802734 C-35.53077264 14.6077019 -33.42315478 9.42016311 -29.76806641 3.98974609 C-21.45223147 -4.14129251 -10.32057603 -5.55078964 0 0 Z " fill="#BA0B93" transform="translate(113.95556640625,354.76025390625)"/>
<path d="M0 0 C4.910182 5.00282695 6.13120635 9.74976904 6.87109375 16.6484375 C6.34500239 24.09023889 3.111994 30.14167591 -1.03125 36.1875 C-2.01173585 37.65797542 -2.99081063 39.12939232 -3.96875 40.6015625 C-4.77119141 41.80280762 -4.77119141 41.80280762 -5.58984375 43.02832031 C-7.54049703 45.98579741 -9.44537551 48.9696417 -11.34375 51.9609375 C-12.03637939 53.05212891 -12.72900879 54.14332031 -13.44262695 55.26757812 C-14.79967644 57.40840102 -16.1550767 59.55027054 -17.50854492 61.69335938 C-31.49910767 83.67274641 -31.49910767 83.67274641 -40.28125 86.2578125 C-46.89688236 87.63606924 -53.44431843 87.07576823 -59.34375 83.6875 C-64.61844174 79.69184173 -67.99801731 75.21006022 -69.34375 68.6875 C-70.64374287 58.25093753 -65.97642824 50.62296675 -60.34375 42.25 C-59.17289094 40.48065807 -58.00232294 38.7111235 -56.83203125 36.94140625 C-56.24631348 36.0611377 -55.6605957 35.18086914 -55.05712891 34.27392578 C-52.981536 31.14072098 -50.94104799 27.98601735 -48.9074707 24.82543945 C-47.55612384 22.72614116 -46.19689864 20.63213722 -44.8359375 18.5390625 C-43.25734818 16.10907206 -41.7004741 13.66778001 -40.1640625 11.2109375 C-35.49924531 3.89606852 -30.7774802 -3.36940736 -22.03125 -5.875 C-13.85797175 -7.12917546 -6.3097811 -5.37882979 0 0 Z " fill="#BA0B93" transform="translate(251.34375,377.3125)"/>
<path d="M0 0 C5.62311371 3.32221541 9.69328237 8.03606934 12.125 14.0625 C13.35464163 21.57697663 12.8115828 27.96371782 8.6875 34.5 C2.35925262 41.78015651 -6.50895117 45.3310365 -15.0625 49.3125 C-16.54322583 50.01300248 -18.02328446 50.71491699 -19.50268555 51.41821289 C-21.71002806 52.46746805 -23.91769226 53.51592893 -26.12773132 54.55949402 C-32.99107181 57.802847 -39.77123991 61.20258754 -46.52441406 64.66918945 C-53.52366159 68.22283425 -59.87756561 69.92451536 -67.65234375 67.88671875 C-74.72748938 65.14132036 -79.4299765 60.34689585 -82.75 53.5625 C-84.2941485 45.15546927 -83.36232144 38.36707256 -78.8046875 31.09375 C-75.26823254 27.41317618 -71.2249007 25.51202077 -66.6875 23.25 C-65.71071289 22.75201904 -64.73392578 22.25403809 -63.72753906 21.7409668 C-60.91161812 20.31036684 -58.08991024 18.89196282 -55.26525879 17.47869873 C-53.1590835 16.42310954 -51.05539928 15.36267323 -48.95214844 14.30126953 C-44.32493213 11.96635869 -39.69476027 9.63738735 -35.0625 7.3125 C-34.30249695 6.93097778 -33.5424939 6.54945557 -32.75946045 6.15637207 C-30.58565673 5.06662038 -28.41032366 3.97999261 -26.234375 2.89453125 C-25.57907806 2.56590591 -24.92378113 2.23728058 -24.24862671 1.8986969 C-16.66317855 -1.87477254 -8.08458045 -3.5984309 0 0 Z " fill="#BA0B94" transform="translate(232.3125,295.5)"/>
<path d="M0 0 C4.19145577 1.12156014 8.19966024 2.69403832 12.2355957 4.27514648 C13.21435669 4.65191528 14.19311768 5.02868408 15.20153809 5.41687012 C18.33018036 6.6231729 21.45475642 7.83963954 24.5793457 9.05639648 C26.61684995 9.84351825 28.65460846 10.62998216 30.69262695 11.41577148 C35.78475484 13.38129702 40.87128973 15.36090009 45.95678711 17.34350586 C49.19112425 18.59981445 52.42975483 19.84454637 55.66918945 21.08764648 C57.77468996 21.90006417 59.88015982 22.71256132 61.9855957 23.52514648 C62.9710437 23.90086792 63.9564917 24.27658936 64.97180176 24.66369629 C65.87676392 25.01436157 66.78172607 25.36502686 67.71411133 25.72631836 C68.51127563 26.03243042 69.30843994 26.33854248 70.12976074 26.65393066 C72.0793457 27.55639648 72.0793457 27.55639648 74.0793457 29.55639648 C74.56837534 34.36085251 73.46257356 37.83430929 71.6730957 42.26733398 C71.30686096 43.18683334 71.30686096 43.18683334 70.93322754 44.12490845 C70.15817999 46.06441571 69.36906133 47.99782185 68.5793457 49.93139648 C68.04845439 51.25263239 67.51849678 52.57424388 66.98950195 53.89624023 C65.69688608 57.12070657 64.39159517 60.33986236 63.0793457 63.55639648 C57.17486187 62.90932131 51.96724717 60.77792474 46.4699707 58.65405273 C45.43748199 58.260224 44.40499329 57.86639526 43.34121704 57.46063232 C40.00185912 56.18538557 36.66559202 54.90225896 33.3293457 53.61889648 C31.05234767 52.7475686 28.77516653 51.8767191 26.49780273 51.00634766 C20.99430347 48.90149303 15.4932302 46.79039437 9.99328613 44.67626953 C6.66815634 43.39836996 3.34214335 42.12278494 0.01599121 40.84754944 C-6.29961485 38.42592866 -12.61241416 35.99714217 -18.9206543 33.55639648 C-16.8893529 26.45357412 -14.5395772 19.52556723 -11.9206543 12.61889648 C-11.57776367 11.68754883 -11.23487305 10.75620117 -10.8815918 9.79663086 C-10.54385742 8.90395508 -10.20612305 8.0112793 -9.8581543 7.09155273 C-9.55780273 6.29112549 -9.25745117 5.49069824 -8.94799805 4.66601562 C-6.73666265 0.12510564 -5.1734041 -1.00682247 0 0 Z " fill="#F909B0" transform="translate(423.920654296875,164.443603515625)"/>
<path d="M0 0 C2.62061047 1.62658581 2.95260661 2.82227477 3.75 5.8125 C2.87511173 9.53077517 2.45770193 9.69183976 -0.62109375 11.6484375 C-1.44109863 12.17058838 -2.26110352 12.69273926 -3.10595703 13.23071289 C-8.29305248 16.40186868 -13.51169414 19.51569699 -18.7512207 22.59912109 C-22.32342944 24.70191363 -25.89039747 26.81355038 -29.45703125 28.92578125 C-30.18044708 29.35412262 -30.90386292 29.78246399 -31.64920044 30.2237854 C-38.46422139 34.26467728 -45.23611967 38.37425284 -52 42.5 C-62.6328381 48.98399529 -73.32367854 55.36478008 -84.04101562 61.70800781 C-93.39684031 67.24705071 -102.71690012 72.83996139 -112 78.5 C-122.63224841 84.98263375 -133.3211682 91.36425667 -144.03799438 97.70599365 C-152.88245751 102.94113006 -161.6949444 108.22373039 -170.46844482 113.57693481 C-175.03279362 116.35970476 -179.60548121 119.12874932 -184.17877197 121.89678955 C-185.4324642 122.6562147 -186.68564996 123.41647638 -187.93841553 124.1774292 C-191.9312697 126.60258188 -195.93197398 129.0137733 -199.94424438 131.40667725 C-201.21818643 132.16930675 -202.48940135 132.93651288 -203.75765991 133.70855713 C-205.51615079 134.77791722 -207.28384537 135.83016346 -209.0546875 136.87890625 C-210.05999512 137.4829126 -211.06530273 138.08691895 -212.10107422 138.70922852 C-215.34280357 140.15263622 -217.48951607 140.33882934 -221 140 C-222.9375 138.875 -222.9375 138.875 -224 137 C-223.88500977 134.11010742 -223.88500977 134.11010742 -223 131 C-220.82397461 129.05981445 -220.82397461 129.05981445 -217.90234375 127.36328125 C-216.80664062 126.71319092 -215.7109375 126.06310059 -214.58203125 125.39331055 C-213.36734495 124.69943133 -212.15249644 124.005836 -210.9375 123.3125 C-209.68116026 122.57590094 -208.42597198 121.83733485 -207.171875 121.09692383 C-204.50696309 119.52737473 -201.83588016 117.96914492 -199.15966797 116.41894531 C-194.99635475 114.00400092 -190.85694497 111.55016656 -186.72265625 109.0859375 C-186.04234848 108.68056259 -185.36204071 108.27518768 -184.66111755 107.85752869 C-183.29164099 107.04148597 -181.92219002 106.22540028 -180.55276489 105.40927124 C-177.1530347 103.38580884 -173.74815773 101.37104759 -170.34375 99.35546875 C-164.55026793 95.92385197 -158.7690704 92.47253661 -153 89 C-147.23092807 85.52746247 -141.44962653 82.07632782 -135.65625 78.64453125 C-134.99971436 78.25558685 -134.34317871 77.86664246 -133.66674805 77.46591187 C-132.99812744 77.0698172 -132.32950684 76.67372253 -131.640625 76.265625 C-119.48335092 69.06344841 -107.35813859 61.81530124 -95.29321289 54.4593811 C-85.90303853 48.73638632 -76.46320293 43.10131339 -67 37.5 C-57.27185218 31.74085681 -47.5642229 25.95091399 -37.90286255 20.08029175 C-36.15058205 19.01554455 -34.39744647 17.9522153 -32.64428711 16.88891602 C-27.55078124 13.79371995 -22.47238688 10.67969071 -17.43359375 7.49609375 C-16.60005371 6.97337891 -15.76651367 6.45066406 -14.90771484 5.91210938 C-13.40318609 4.96610129 -11.90424122 4.01111934 -10.41259766 3.04492188 C-6.84222753 0.80559139 -4.26489593 -0.69265646 0 0 Z " fill="#322CC0" transform="translate(287,105)"/>
<path d="M0 0 C7.92 2.97 15.84 5.94 24 9 C15.03864051 33.77552329 5.61075454 58.35964142 -3.89190674 82.93203735 C-5.95753549 88.27733474 -7.99839006 93.63038792 -10 99 C-18.56827947 96.59557399 -26.82752581 93.50281336 -35.125 90.3125 C-36.47643786 89.79589779 -37.82799958 89.27961945 -39.1796875 88.76367188 C-42.45455893 87.51283904 -45.7277407 86.257653 -49 85 C-47.21131008 81.18937906 -44.77374723 78.31504881 -42 75.1875 C-35.97573869 68.19860496 -30.84227783 60.84653233 -26 53 C-25.53480957 52.24783203 -25.06961914 51.49566406 -24.59033203 50.72070312 C-14.73458721 34.5853374 -7.01499424 17.53748561 0 0 Z " fill="#BC0B95" transform="translate(465,309)"/>
<path d="M0 0 C7.83540197 4.85794922 12.49909426 11.06658444 15 20 C16.70139296 31.35265747 13.22012903 40.63755461 9.15625 51.04003906 C7.86354178 54.34932843 6.60281447 57.66995776 5.34375 60.9921875 C-1.52790878 79.05581755 -1.52790878 79.05581755 -3 82 C-10.86379677 79.81659819 -18.41675284 77.00714974 -26 74 C-25.44320074 67.856978 -23.52151617 62.74749638 -21.17578125 57.0703125 C-20.79189743 56.12171356 -20.40801361 55.17311462 -20.01249695 54.19577026 C-18.78653848 51.16912179 -17.55026498 48.14683715 -16.3125 45.125 C-9.64129107 28.84472524 -9.64129107 28.84472524 -3.48046875 12.3671875 C-3.23847244 11.68729767 -2.99647614 11.00740784 -2.74714661 10.30691528 C-1.5634006 6.89870769 -0.60195664 3.5589142 0 0 Z " fill="#4963CE" transform="translate(492,236)"/>
<path d="M0 0 C4.34178698 2.20800278 6.83559146 4.90932176 9.078125 9.3046875 C9.17578125 11.99609375 9.17578125 11.99609375 9.078125 14.3046875 C9.92375 14.25828125 10.769375 14.211875 11.640625 14.1640625 C18.72569191 13.93862855 24.2416369 14.00335508 30.078125 18.3046875 C30.820625 19.0678125 31.563125 19.8309375 32.328125 20.6171875 C32.905625 21.1740625 33.483125 21.7309375 34.078125 22.3046875 C36.44977922 22.15645911 37.80986089 21.46756214 39.828125 20.2421875 C44.42253352 18.32785062 48.71557086 18.82378604 53.265625 20.4296875 C57.15009178 23.01933202 59.96469521 26.07782791 62.078125 30.3046875 C62.67060976 36.22953515 61.55919803 40.54274487 58.078125 45.3046875 C54.51896421 48.67503339 50.83840996 49.57261364 46.015625 49.8046875 C41.32573581 49.58407056 38.59179729 48.5673832 35.078125 45.3046875 C31.14240952 40.44653871 30.56605693 36.44950432 31.078125 30.3046875 C31.573125 28.8196875 31.573125 28.8196875 32.078125 27.3046875 C27.21082474 21.65233881 21.64152739 18.58749721 14.140625 17.9921875 C11.16627337 18.11306884 11.16627337 18.11306884 9.078125 19.3046875 C8.3975 20.449375 8.3975 20.449375 7.703125 21.6171875 C5.37404188 25.46913267 3.39024721 27.86731343 -0.921875 29.3046875 C-5.94700573 29.83228298 -9.80238012 29.87461216 -14.359375 27.5546875 C-18.1656745 24.21257086 -20.55819759 21.43469801 -21.16015625 16.25390625 C-21.34096144 10.74410598 -20.77431063 7.55224474 -16.921875 3.3046875 C-11.81467771 -0.8457184 -6.30003469 -2.27928084 0 0 Z " fill="#F5F7FF" transform="translate(411.921875,223.6953125)"/>
<path d="M0 0 C5.038249 2.72950106 7.9067655 5.54943283 10.82421875 10.55078125 C12.1952536 16.03492063 11.09858672 20.79533732 9.07421875 25.98828125 C6.02891162 30.65775218 1.34905483 32.80409166 -3.48828125 35.30078125 C-4.20580566 35.67589844 -4.92333008 36.05101562 -5.66259766 36.4375 C-8.07757654 37.69584938 -10.49956818 38.93923888 -12.92578125 40.17578125 C-13.71936035 40.5816748 -14.51293945 40.98756836 -15.33056641 41.40576172 C-16.08257324 41.78104004 -16.83458008 42.15631836 -17.609375 42.54296875 C-18.28411865 42.88183105 -18.9588623 43.22069336 -19.65405273 43.56982422 C-21.48828125 44.30078125 -21.48828125 44.30078125 -24.48828125 44.30078125 C-29.43828125 34.40078125 -34.38828125 24.50078125 -39.48828125 14.30078125 C-34.5338797 10.58498009 -29.30335697 7.92585608 -23.80078125 5.11328125 C-22.74955078 4.55447266 -21.69832031 3.99566406 -20.61523438 3.41992188 C-13.4664951 -0.22339951 -7.87949948 -2.21417646 0 0 Z " fill="#617EFC" transform="translate(228.48828125,299.69921875)"/>
<path d="M0 0 C0.81726563 -0.03738281 1.63453125 -0.07476562 2.4765625 -0.11328125 C10.41350527 1.05265778 16.59631331 6.51517168 22.6875 11.375 C23.48478516 11.99955078 24.28207031 12.62410156 25.10351562 13.26757812 C28.34996522 15.82596607 31.50155435 18.33381223 34.375 21.3125 C33.61316406 22.25609375 32.85132813 23.1996875 32.06640625 24.171875 C25.67791781 32.10767278 19.42176842 40.11271555 13.375 48.3125 C7.73204171 44.77445473 2.38588443 40.88944297 -2.875 36.8125 C-3.46490723 36.36221436 -4.05481445 35.91192871 -4.66259766 35.44799805 C-11.04962323 30.44251191 -15.96286097 25.32583834 -17.0625 17 C-16.3443197 10.94676608 -13.39573445 6.91851497 -8.9375 2.875 C-5.71795742 0.69963339 -3.85783828 0.11346583 0 0 Z " fill="#617FFC" transform="translate(100.625,356.6875)"/>
<path d="M0 0 C4.23765701 3.02689787 8.08321142 6.87471797 9.0390625 12.16796875 C9.78943131 22.46469628 5.18787834 28.73404497 -0.375 36.875 C-1.17054167 38.08033702 -1.9635935 39.2873218 -2.75390625 40.49609375 C-4.6040537 43.30606725 -6.47672627 46.09741691 -8.375 48.875 C-13.89369735 46.23189883 -18.95524493 43.32887795 -24 39.875 C-24.6290625 39.44960938 -25.258125 39.02421875 -25.90625 38.5859375 C-27.13955929 37.75179055 -28.37170224 36.91591593 -29.60253906 36.078125 C-32.18230675 34.32700996 -34.7782646 32.6008303 -37.375 30.875 C-36.73786549 27.64277463 -35.58344085 25.3165917 -33.828125 22.5390625 C-33.3125 21.72179687 -32.796875 20.90453125 -32.265625 20.0625 C-31.45351562 18.7940625 -31.45351562 18.7940625 -30.625 17.5 C-29.83609375 16.24316406 -29.83609375 16.24316406 -29.03125 14.9609375 C-21.66844324 3.36998429 -14.84759964 -4.94919988 0 0 Z " fill="#617FFD" transform="translate(243.375,378.125)"/>
<path d="M0 0 C3.71551652 1.05502321 7.36847468 1.41695074 11.21484375 1.62890625 C12.16488281 1.69335938 13.11492187 1.7578125 14.09375 1.82421875 C21.40760535 2.10444309 26.64336273 0.73383751 33.21484375 -2.37109375 C34.20484375 -2.70109375 35.19484375 -3.03109375 36.21484375 -3.37109375 C36.54484375 -4.03109375 36.87484375 -4.69109375 37.21484375 -5.37109375 C37.49704181 -0.52883151 36.61741212 2.85890734 34.80859375 7.33984375 C34.44235901 8.25934311 34.44235901 8.25934311 34.06872559 9.19741821 C33.29367804 11.13692547 32.50455938 13.07033162 31.71484375 15.00390625 C31.18395244 16.32514216 30.65399483 17.64675364 30.125 18.96875 C28.83238412 22.19321634 27.52709322 25.41237213 26.21484375 28.62890625 C20.25116934 27.98352488 14.98029326 25.80191674 9.4296875 23.65625 C7.85242638 23.05424522 7.85242638 23.05424522 6.24330139 22.44007874 C2.8776118 21.15410585 -0.48505155 19.86042131 -3.84765625 18.56640625 C-6.05123416 17.72278959 -8.2550085 16.8796858 -10.45898438 16.03710938 C-14.79420985 14.37893669 -19.12829902 12.71784824 -23.46142578 11.05419922 C-32.56251682 7.5612174 -41.67379227 4.09498245 -50.78515625 0.62890625 C-35.26328836 -9.71900568 -16.66693713 -5.29681363 0 0 Z " fill="#BB0B94" transform="translate(460.78515625,199.37109375)"/>
<path d="M0 0 C-0.33 5.61 -0.66 11.22 -1 17 C0.32 17.66 1.64 18.32 3 19 C8.63296517 23.1971113 8.63296517 23.1971113 10 26.1875 C10 26.785625 10 27.38375 10 28 C7.33359523 30.66640477 5.32063423 30.53535948 1.625 31.125 C-3.01155334 32.01616339 -3.01155334 32.01616339 -6.640625 34.76171875 C-7.62646437 36.81555078 -8.33578623 38.82285488 -9 41 C-10 43 -11 45 -12 47 C-14.30078125 46.84375 -14.30078125 46.84375 -17 46 C-18.73046875 43.53125 -18.73046875 43.53125 -20.1875 40.5 C-21.84515061 36.53114713 -21.84515061 36.53114713 -25 34 C-26.80870138 33.79620266 -28.62236592 33.63499005 -30.4375 33.5 C-33.56308718 33.26693358 -36.01424829 32.99525057 -39 32 C-39.33 31.01 -39.66 30.02 -40 29 C-38.09375 26.58203125 -38.09375 26.58203125 -35.5 23.8125 C-32.24405593 20.19947339 -32.24405593 20.19947339 -30.5859375 15.78125 C-30.87737973 13.47510797 -30.87737973 13.47510797 -32 10 C-32.42848801 7.33592236 -32.71734371 4.68523474 -33 2 C-32.67 1.67 -32.34 1.34 -32 1 C-28.02363256 1.3181094 -25.03068372 1.98624523 -21.375 3.625 C-17.67114857 5.13397651 -16.65543521 5.4265113 -13 4 C-10.97905026 2.70229403 -9.00270945 1.37697746 -7.0625 -0.0390625 C-5 -1 -5 -1 0 0 Z " fill="#FD8A01" transform="translate(498,99)"/>
<path d="M0 0 C4.910182 5.00282695 6.13120635 9.74976904 6.87109375 16.6484375 C6.34500239 24.09023889 3.111994 30.14167591 -1.03125 36.1875 C-2.01173585 37.65797542 -2.99081063 39.12939232 -3.96875 40.6015625 C-4.77119141 41.80280762 -4.77119141 41.80280762 -5.58984375 43.02832031 C-7.54049703 45.98579741 -9.44537551 48.9696417 -11.34375 51.9609375 C-12.03637939 53.05212891 -12.72900879 54.14332031 -13.44262695 55.26757812 C-14.79967644 57.40840102 -16.1550767 59.55027054 -17.50854492 61.69335938 C-31.49910767 83.67274641 -31.49910767 83.67274641 -40.28125 86.2578125 C-46.89688236 87.63606924 -53.44431843 87.07576823 -59.34375 83.6875 C-64.61844174 79.69184173 -67.99801731 75.21006022 -69.34375 68.6875 C-70.64374287 58.25093753 -65.97642824 50.62296675 -60.34375 42.25 C-59.17289094 40.48065807 -58.00232294 38.7111235 -56.83203125 36.94140625 C-56.24631348 36.0611377 -55.6605957 35.18086914 -55.05712891 34.27392578 C-52.981536 31.14072098 -50.94104799 27.98601735 -48.9074707 24.82543945 C-47.55612384 22.72614116 -46.19689864 20.63213722 -44.8359375 18.5390625 C-43.25734818 16.10907206 -41.7004741 13.66778001 -40.1640625 11.2109375 C-35.49924531 3.89606852 -30.7774802 -3.36940736 -22.03125 -5.875 C-13.85797175 -7.12917546 -6.3097811 -5.37882979 0 0 Z M-34.23828125 11.14453125 C-35.55930447 13.25367908 -36.86473367 15.372656 -38.15625 17.5 C-39.5568307 19.75028697 -40.95787394 22.00028612 -42.359375 24.25 C-43.37547852 25.89742188 -43.37547852 25.89742188 -44.41210938 27.578125 C-46.57093145 31.05319553 -48.78897051 34.48443014 -51.03271484 37.9050293 C-52.77067199 40.55583098 -54.48261365 43.22277703 -56.19042969 45.89306641 C-56.94773051 47.07133928 -57.71122819 48.24565679 -58.48144531 49.41552734 C-63.80154855 57.35680952 -63.80154855 57.35680952 -64.890625 66.59375 C-63.40803937 72.26993496 -60.3460099 76.30389095 -55.59375 79.6875 C-51.19503147 82.11837077 -47.26758733 82.76163554 -42.34375 81.6875 C-34.98314029 78.49573119 -31.05135505 72.96487178 -26.83984375 66.328125 C-26.18661133 65.30251465 -25.53337891 64.2769043 -24.86035156 63.22021484 C-23.83119629 61.595271 -23.83119629 61.595271 -22.78125 59.9375 C-21.70669788 58.24839406 -20.63214365 56.55928936 -19.55697632 54.87057495 C-18.48852203 53.19233691 -17.42077198 51.51365057 -16.35302734 49.83496094 C-13.19955418 44.89515826 -10.00571862 39.98165675 -6.79467773 35.07910156 C-5.62999079 33.2905837 -4.48310576 31.49223751 -3.34375 29.6875 C-2.95960938 29.09428955 -2.57546875 28.5010791 -2.1796875 27.88989258 C1.3724475 22.13578028 1.56203398 17.26587054 0.65625 10.6875 C-1.50312638 6.20879344 -4.27327939 3.50551812 -8.34375 0.6875 C-11.25638382 -0.28337794 -13.4811237 -0.60803361 -16.53125 -0.75 C-17.88283203 -0.84087891 -17.88283203 -0.84087891 -19.26171875 -0.93359375 C-26.30068888 0.48490593 -30.37875507 5.37058655 -34.23828125 11.14453125 Z " fill="#020F41" transform="translate(251.34375,377.3125)"/>
<path d="M0 0 C3.52898049 2.13997647 6.74819636 4.61970285 9.98193359 7.17724609 C11.47527297 8.33889754 12.96876707 9.50035013 14.46240234 10.66162109 C15.21956543 11.25394531 15.97672852 11.84626953 16.75683594 12.45654297 C19.70441972 14.75421127 22.67346452 17.02292722 25.64550781 19.28881836 C27.76950205 20.90823728 29.88959494 22.53265803 32.00927734 24.15771484 C34.61602859 26.15375219 37.23290053 28.13498215 39.86083984 30.10302734 C40.45348633 30.55009033 41.04613281 30.99715332 41.65673828 31.45776367 C43.23734147 32.64957116 44.82235249 33.83552668 46.40771484 35.02099609 C51.73136815 39.50075177 54.59534678 43.80331275 55.30224609 50.78662109 C55.63768103 58.88178427 53.88577821 63.96127154 48.60693359 70.05224609 C42.86273536 74.95582995 37.9188558 76.65924608 30.45458984 76.50146484 C21.45139259 75.52380809 14.71726529 69.1622918 7.90576172 63.71533203 C4.57158227 61.07212891 1.17897256 58.50540811 -2.20556641 55.92724609 C-3.64179571 54.82702665 -5.07799325 53.72676574 -6.51416016 52.62646484 C-9.55669976 50.30005581 -12.61290621 47.99308134 -15.67822266 45.69677734 C-16.44682617 45.11774658 -17.21542969 44.53871582 -18.00732422 43.94213867 C-19.47547883 42.83658337 -20.94729334 41.73586558 -22.42333984 40.64086914 C-29.28932739 35.45487492 -33.99069059 29.95476022 -35.24462891 21.22802734 C-35.53077264 14.6077019 -33.42315478 9.42016311 -29.76806641 3.98974609 C-21.45223147 -4.14129251 -10.32057603 -5.55078964 0 0 Z M-26.20556641 8.73974609 C-29.52098875 13.47606373 -30.54936133 16.30179687 -29.95556641 22.23974609 C-26.58467571 34.03786354 -13.60041271 41.15272464 -4.25244141 48.04833984 C-0.57023187 50.76780853 3.05501633 53.55459203 6.67114258 56.36108398 C19.38639025 67.66995745 19.38639025 67.66995745 34.91552734 71.78662109 C40.57714354 70.33226097 44.6415742 67.26463284 48.04443359 62.55224609 C50.6488556 57.88194357 50.96196748 53.46263128 50.04443359 48.23974609 C45.99101449 39.42796544 36.07631504 33.39761962 28.48583984 27.79443359 C24.4431579 24.80932585 20.46657516 21.73911006 16.48193359 18.67724609 C11.60464719 14.94412133 6.72639664 11.21294741 1.79443359 7.55224609 C0.58013672 6.64925781 0.58013672 6.64925781 -0.65869141 5.72802734 C-9.77152648 -0.17671783 -18.90750235 0.63078603 -26.20556641 8.73974609 Z " fill="#020E41" transform="translate(113.95556640625,354.76025390625)"/>
<path d="M0 0 C5.62311371 3.32221541 9.69328237 8.03606934 12.125 14.0625 C13.35464163 21.57697663 12.8115828 27.96371782 8.6875 34.5 C2.35925262 41.78015651 -6.50895117 45.3310365 -15.0625 49.3125 C-16.54322583 50.01300248 -18.02328446 50.71491699 -19.50268555 51.41821289 C-21.71002806 52.46746805 -23.91769226 53.51592893 -26.12773132 54.55949402 C-32.99107181 57.802847 -39.77123991 61.20258754 -46.52441406 64.66918945 C-53.52366159 68.22283425 -59.87756561 69.92451536 -67.65234375 67.88671875 C-74.72748938 65.14132036 -79.4299765 60.34689585 -82.75 53.5625 C-84.2941485 45.15546927 -83.36232144 38.36707256 -78.8046875 31.09375 C-75.26823254 27.41317618 -71.2249007 25.51202077 -66.6875 23.25 C-65.71071289 22.75201904 -64.73392578 22.25403809 -63.72753906 21.7409668 C-60.91161812 20.31036684 -58.08991024 18.89196282 -55.26525879 17.47869873 C-53.1590835 16.42310954 -51.05539928 15.36267323 -48.95214844 14.30126953 C-44.32493213 11.96635869 -39.69476027 9.63738735 -35.0625 7.3125 C-34.30249695 6.93097778 -33.5424939 6.54945557 -32.75946045 6.15637207 C-30.58565673 5.06662038 -28.41032366 3.97999261 -26.234375 2.89453125 C-25.57907806 2.56590591 -24.92378113 2.23728058 -24.24862671 1.8986969 C-16.66317855 -1.87477254 -8.08458045 -3.5984309 0 0 Z M-24.37890625 7.59375 C-25.21606674 8.01869751 -26.05322723 8.44364502 -26.91575623 8.88146973 C-29.57784638 10.23751121 -32.22633075 11.61795937 -34.875 13 C-36.62479117 13.89751171 -38.37543705 14.79335913 -40.12695312 15.6875 C-43.56034386 17.44162457 -46.98548125 19.21062718 -50.40673828 20.98828125 C-53.57343101 22.62537899 -56.75778678 24.20559576 -59.97998047 25.73046875 C-60.70765121 26.07871704 -61.43532196 26.42696533 -62.18504333 26.7857666 C-63.52567389 27.42361739 -64.8717197 28.05028043 -66.22425842 28.66247559 C-71.87591714 31.36863253 -76.04957176 35.55981337 -78.3125 41.5 C-79.36007996 46.76811846 -78.5684865 50.75782582 -75.75 55.3125 C-72.66632355 59.44332653 -70.11512081 61.59551244 -65.3125 63.5 C-58.18088445 64.23402327 -53.65755269 62.22330574 -47.375 59 C-45.3583708 57.99809811 -43.34142312 56.9968371 -41.32421875 55.99609375 C-40.22126465 55.4429248 -39.11831055 54.88975586 -37.98193359 54.31982422 C-33.89275484 52.28021156 -29.76928378 50.31406143 -25.64453125 48.34765625 C-23.40048708 47.27438258 -21.15673411 46.20050231 -18.91305542 45.12646484 C-17.43667991 44.42065827 -15.95957381 43.71637779 -14.48171997 43.01367188 C-12.38838716 42.01668063 -10.29928923 41.01128105 -8.2109375 40.00390625 C-7.58786209 39.70944107 -6.96478668 39.41497589 -6.3228302 39.11158752 C0.27318517 35.90964875 4.28038105 32.71708668 7.0234375 25.9375 C8.50733002 20.49074158 7.52070904 16.13555848 5 11.1875 C1.4089446 7.01411129 -2.6730761 3.95250213 -8.25547791 3.25842285 C-14.57976701 3.03545609 -18.84755865 4.66301289 -24.37890625 7.59375 Z " fill="#030E41" transform="translate(232.3125,295.5)"/>
<path d="M0 0 C5.71046825 3.05079811 8.80134787 6.7165436 10.875 12.9375 C11.27309154 18.80935027 10.92145923 23.7819536 7.875 28.9375 C4.1640115 32.98911063 -0.09357633 36.49031794 -5.640625 37.30859375 C-12.50269679 37.47524406 -16.88128209 36.46222113 -22.125 31.9375 C-26.26707049 27.5774258 -28.1918326 23.61371989 -28.5 17.625 C-28.34394683 12.68057864 -27.22406489 8.84002615 -24.125 4.9375 C-16.54996998 -1.35223612 -9.4380239 -4.29001086 0 0 Z " fill="#CFD2DD" transform="translate(269.125,66.0625)"/>
<path d="M0 0 C6.10848231 2.78185153 10.08507976 7.11513848 12.74609375 13.3125 C13.83649299 19.94364887 12.23215387 25.6505004 8.74609375 31.3125 C4.34242162 35.83519029 -0.86688657 37.96031677 -7.06640625 38.875 C-12.64011924 38.60390501 -17.1082003 35.89643791 -21.25390625 32.3125 C-25.44317755 26.68931705 -27.25923206 21.23807782 -26.25390625 14.3125 C-24.04105837 7.67395637 -20.38189893 3.73471058 -14.36328125 0.203125 C-9.8403072 -1.70657516 -4.64533936 -1.41694927 0 0 Z " fill="#CFD2DD" transform="translate(114.25390625,156.6875)"/>
<path d="M0 0 C5.35304403 3.1937486 9.18371259 7.2848531 11.64453125 13.0546875 C12.39897083 18.99222494 12.05566686 23.99679677 8.64453125 29.0546875 C4.18342535 34.40801458 -0.96763034 37.57071058 -7.85546875 38.5546875 C-14.74330716 37.57071058 -19.89436285 34.40801458 -24.35546875 29.0546875 C-27.58370371 24.15667584 -28.21717345 19.7671119 -27.35546875 14.0546875 C-25.24802494 7.41088158 -21.44170633 3.48411026 -15.49609375 -0.05078125 C-10.67178087 -2.06678061 -4.82692457 -1.93717371 0 0 Z " fill="#CFD3DD" transform="translate(217.35546875,95.9453125)"/>
<path d="M0 0 C4.71986614 2.75325525 7.70931937 6.51686108 9.75 11.5625 C10.58813716 16.95844089 10.32632394 21.73182395 8.6875 26.9375 C5.16066602 31.71579121 0.65372836 36.12256625 -5.25 37.5625 C-11.58329417 38.18544697 -15.99292844 37.23231869 -21.25 33.5625 C-24.83798786 30.16526593 -27.90774187 26.21611172 -28.55078125 21.23046875 C-28.58151223 14.72574408 -28.11371981 9.53957538 -23.375 4.61328125 C-16.52172983 -1.59749484 -8.90470079 -3.77463232 0 0 Z " fill="#CFD2DC" transform="translate(255.25,157.4375)"/>
<path d="M0 0 C5.7287763 2.0799313 9.09825646 5.66079189 12 11 C13.66881717 16.0064515 14.09634876 21.32964015 12.05859375 26.29296875 C8.8398292 31.6710299 4.81248678 35.5268234 -1 38 C-7.64874769 38.98079353 -12.86657719 38.40488773 -18.34765625 34.42578125 C-22.69992425 30.67027813 -25.46768355 26.69782495 -26.29296875 20.96484375 C-26.68808535 14.73908755 -24.97980174 10.74475065 -21 6 C-14.49474612 -0.40982228 -8.95007168 -0.92117697 0 0 Z " fill="#D0D3DD" transform="translate(165,126)"/>
<path d="M0 0 C4.70986201 3.17641857 8.10838573 6.74925301 10.6875 11.8125 C11.55566239 18.13646721 11.58067436 24.53787667 7.6875 29.8125 C2.88684682 34.71983436 -1.18343038 37.50472266 -8.125 38.1875 C-13.47448154 38.02600622 -17.96989714 36.03055941 -21.85546875 32.3515625 C-26.63000937 26.83493786 -27.77770396 22.73394833 -27.625 15.56640625 C-27.00630749 10.11417847 -24.40809086 6.58624073 -20.3125 3 C-13.81554076 -1.73736611 -7.71229354 -2.76478448 0 0 Z " fill="#D0D3DD" transform="translate(152.3125,218.1875)"/>
<path d="M0 0 C5.00341172 2.23862016 8.01597377 5.56155248 10.60546875 10.3515625 C12.27428592 15.358014 12.70181751 20.68120265 10.6640625 25.64453125 C7.30765162 31.25257828 3.06509315 35.62899599 -3.39453125 37.3515625 C-9.83429775 38.18717234 -14.37968019 37.59026638 -19.70703125 33.77734375 C-24.10114784 30.06472209 -26.86280683 26.04527483 -27.6875 20.31640625 C-28.0826166 14.09065005 -26.37433299 10.09631315 -22.39453125 5.3515625 C-15.86746293 -1.0797542 -8.94916522 -2.4234281 0 0 Z " fill="#D0D3DC" transform="translate(64.39453125,187.6484375)"/>
<path d="M0 0 C3.90387701 2.95171189 7.35807825 6.52865649 9.5625 10.9375 C10.24583376 18.21892527 10.38015779 25.07818648 5.5625 30.9375 C1.13988994 35.21330142 -2.935389 37.30604761 -9.125 37.5 C-15.93873326 37.05459602 -19.65608016 34.98370698 -24.25 30 C-28.44952325 25.18862568 -28.86022361 20.7879812 -28.77734375 14.53515625 C-28.03634099 8.87116966 -24.61774982 4.65906904 -20.4375 0.9375 C-14.52529284 -2.90868312 -6.44403866 -1.99179377 0 0 Z " fill="#D0D3DC" transform="translate(306.4375,127.0625)"/>
<path d="M0 0 C4.44460371 2.70162186 7.8480979 6.2586958 10.1875 10.9375 C10.90048073 18.12841993 11.11888568 24.38429882 6.6875 30.3515625 C2.19489362 35.10155779 -2.52805008 37.07370107 -8.9375 37.375 C-15.25477468 37.32472991 -19.20010684 35.14233256 -23.8125 30.9375 C-27.59214203 25.97671984 -28.29111061 20.72898533 -28.21875 14.60546875 C-27.38862345 9.15377228 -24.22048541 5.15979499 -20.2421875 1.48828125 C-14.20397715 -2.66845776 -6.74172603 -1.87884168 0 0 Z " fill="#D0D3DD" transform="translate(101.8125,249.0625)"/>
<path d="M0 0 C4.85099493 2.39860725 8.64039443 6.48156803 10.88671875 11.37109375 C11.99668846 17.67504388 11.66478092 24.03016842 8.3359375 29.61328125 C4.85756601 33.83233023 0.75933026 36.84123705 -4.67578125 37.84375 C-11.42774454 38.08048042 -16.58332173 36.44106063 -21.86328125 32.12109375 C-26.23158742 26.78205287 -27.76786942 21.67188596 -27.51953125 14.86328125 C-26.56365359 8.99933947 -23.23920872 4.86539147 -18.55078125 1.37109375 C-12.85745984 -1.80983393 -6.1804844 -1.83929388 0 0 Z " fill="#D0D3DC" transform="translate(203.11328125,187.62890625)"/>
<path d="M0 0 C3.125 0.375 3.125 0.375 5.5625 1.9375 C7.32267712 4.68337631 7.40944108 6.12570046 6.75390625 9.29296875 C5.502891 13.43452855 3.84121571 17.40774788 2.125 21.375 C2.99511719 21.75591797 2.99511719 21.75591797 3.8828125 22.14453125 C16.75116822 27.81425234 16.75116822 27.81425234 19.125 31.375 C18.68055556 36.81944444 18.68055556 36.81944444 16.125 39.375 C8.5839848 40.35253901 2.87932019 37.52701609 -3.875 34.375 C-4.00003906 35.09300781 -4.12507813 35.81101562 -4.25390625 36.55078125 C-4.87452976 39.37286175 -5.73826301 41.88298812 -6.8125 44.5625 C-7.15152344 45.42230469 -7.49054688 46.28210938 -7.83984375 47.16796875 C-8.875 49.375 -8.875 49.375 -10.875 51.375 C-17.01731015 52.0450702 -17.01731015 52.0450702 -19.875 49.8125 C-22.5835144 43.21049614 -18.28454332 35.57256958 -15.875 29.375 C-16.52726562 29.20484375 -17.17953125 29.0346875 -17.8515625 28.859375 C-23.09445467 27.40559369 -27.74359588 26.08267036 -31.875 22.375 C-33.06956603 19.00210767 -33.20650019 17.29846481 -32 13.9375 C-29.875 12.375 -29.875 12.375 -25.875 12.375 C-20.28582105 13.24974794 -15.1038092 15.27370285 -9.875 17.375 C-9.71064453 16.50488281 -9.71064453 16.50488281 -9.54296875 15.6171875 C-6.546457 0.8538857 -6.546457 0.8538857 0 0 Z " fill="#FC0EB3" transform="translate(405.875,309.625)"/>
<path d="M0 0 C1.953125 1.4765625 1.953125 1.4765625 2.78125 4.515625 C2.92046875 5.69898438 3.0596875 6.88234375 3.203125 8.1015625 C3.35265625 9.29007813 3.5021875 10.47859375 3.65625 11.703125 C3.80320312 13.07597656 3.80320312 13.07597656 3.953125 14.4765625 C4.87544922 14.76660156 4.87544922 14.76660156 5.81640625 15.0625 C6.62464844 15.32289062 7.43289063 15.58328125 8.265625 15.8515625 C9.06613281 16.10679688 9.86664063 16.36203125 10.69140625 16.625 C12.953125 17.4765625 12.953125 17.4765625 15.953125 19.4765625 C15.73046875 21.3046875 15.73046875 21.3046875 14.953125 23.4765625 C12.95703125 24.9609375 12.95703125 24.9609375 10.515625 26.2265625 C9.71253906 26.65453125 8.90945313 27.0825 8.08203125 27.5234375 C5.953125 28.4765625 5.953125 28.4765625 3.953125 28.4765625 C3.90414063 29.30800781 3.85515625 30.13945313 3.8046875 30.99609375 C3.72992188 32.08277344 3.65515625 33.16945312 3.578125 34.2890625 C3.50851562 35.36800781 3.43890625 36.44695312 3.3671875 37.55859375 C2.953125 40.4765625 2.953125 40.4765625 0.953125 43.4765625 C-2.67247482 42.41020961 -4.28421082 41.22488529 -6.484375 38.2890625 C-8.8767389 35.66825006 -9.90414159 35.48342008 -13.54296875 35.30859375 C-17.07319054 35.57522682 -20.54666558 35.94913368 -24.046875 36.4765625 C-25.27459006 32.06446149 -25.27459006 32.06446149 -24.234375 29.37890625 C-23.8425 28.73050781 -23.450625 28.08210938 -23.046875 27.4140625 C-21.33704225 24.63788273 -21.33704225 24.63788273 -21.2890625 21.48046875 C-22.35919552 18.65068402 -23.81632597 16.10429044 -25.3046875 13.4765625 C-26.20071904 11.0619933 -25.88978832 9.86659522 -25.046875 7.4765625 C-24.11746094 7.6415625 -23.18804687 7.8065625 -22.23046875 7.9765625 C-15.09523338 9.19680206 -15.09523338 9.19680206 -8.62890625 6.796875 C-6.93394047 4.76580726 -5.49526234 2.68581155 -4.046875 0.4765625 C-2.046875 -0.5234375 -2.046875 -0.5234375 0 0 Z " fill="#FD8A01" transform="translate(377.046875,40.5234375)"/>
<path d="M0 0 C0.83144531 0.37253906 1.66289062 0.74507813 2.51953125 1.12890625 C18.79414829 9.3089677 28.49781548 23.40123908 34.77734375 40.0625 C35.97421522 43.69222787 36.10915097 46.33980181 35 50 C33.515 49.505 33.515 49.505 32 49 C30.640625 46.19140625 30.640625 46.19140625 29.25 42.5625 C26.62008541 36.03015835 23.36717105 30.55640069 19 25 C18.52949219 24.36578125 18.05898438 23.7315625 17.57421875 23.078125 C9.00023011 12.16138453 -5.40383877 4.88634041 -19 3 C-34.01431596 1.82569596 -48.22283263 2.57973916 -61.1328125 11.14453125 C-63.48646551 12.22287855 -64.61420494 11.86418799 -67 11 C-65.6835193 7.05055791 -63.28536826 6.01590657 -59.875 4 C-58.20050781 2.9790625 -58.20050781 2.9790625 -56.4921875 1.9375 C-39.2037033 -7.65432121 -17.96452566 -8.3037052 0 0 Z " fill="#332DC0" transform="translate(373,415)"/>
<path d="M0 0 C0.99 0.33 1.98 0.66 3 1 C3.81640625 3.1796875 3.81640625 3.1796875 4.5625 5.875 C5.77052931 9.21737359 6.30674291 10.62880723 9.48046875 12.328125 C11.98598233 13.04903441 14.42241787 13.61631411 17 14 C17.495 16.475 17.495 16.475 18 19 C17.13375 19.44085938 17.13375 19.44085938 16.25 19.890625 C13.71819844 21.42025511 11.9038056 22.7204433 10 25 C9.2936742 29.08214762 9.52215317 32.89848135 10 37 C8.2109375 37.65625 8.2109375 37.65625 6 38 C4.2890625 36.96875 4.2890625 36.96875 2.625 35.5 C-0.25770781 33.23715644 -0.25770781 33.23715644 -3.9375 33.125 C-5.4534375 33.558125 -5.4534375 33.558125 -7 34 C-8.45545402 34.20867671 -9.91416338 34.3956206 -11.375 34.5625 C-12.57125 34.706875 -13.7675 34.85125 -15 35 C-14.86980469 34.05898438 -14.73960937 33.11796875 -14.60546875 32.1484375 C-13.55556171 25.35422144 -13.55556171 25.35422144 -15.046875 18.875 C-16.30136076 17.52184682 -17.64667541 16.25430084 -19 15 C-19 13.68 -19 12.36 -19 11 C-16.57314768 9.78657384 -15.01487524 10 -12.3125 10 C-8.79880413 9.71951629 -7.39412183 9.36770803 -4.78515625 6.93359375 C-3.0617718 4.68156377 -1.47649905 2.42008951 0 0 Z " fill="#FD8A01" transform="translate(460,26)"/>
<path d="M0 0 C0.96258585 3.34613176 1.27950648 6.5825972 1.53515625 10.05078125 C1.62216797 11.22447266 1.70917969 12.39816406 1.79882812 13.60742188 C1.88583984 14.83009766 1.97285156 16.05277344 2.0625 17.3125 C2.15337891 18.52357422 2.24425781 19.73464844 2.33789062 20.98242188 C2.75173162 26.66729023 3.12630088 32.29962048 3 38 C-3.37220867 38.66377174 -7.01810529 36.96163741 -12 33 C-16.14207049 28.6399258 -18.0668326 24.67621989 -18.375 18.6875 C-18.21864404 13.73348475 -17.08854944 9.91818639 -14 6 C-9.58389292 2.1359063 -6.01021819 -0.42400128 0 0 Z " fill="#FBFCFE" transform="translate(259,65)"/>
<path d="M0 0 C0.43165053 4.28627447 0.85873209 8.57297328 1.28173828 12.86010742 C1.42601622 14.315959 1.57150299 15.77169133 1.71826172 17.22729492 C1.93000536 19.32960677 2.13727771 21.43232092 2.34375 23.53515625 C2.46943359 24.797229 2.59511719 26.05930176 2.72460938 27.35961914 C2.99413668 30.9224929 3.04829023 34.42853471 3 38 C-3.37220867 38.66377174 -7.01810529 36.96163741 -12 33 C-16.77491343 27.97377533 -18.55038762 23.21053051 -18.37890625 16.33984375 C-17.27225979 9.50601666 -12.34713012 4.92122876 -7 1 C-4.53721199 -0.231394 -2.7204945 -0.07159196 0 0 Z " fill="#FCFCFE" transform="translate(55,187)"/>
<path d="M0 0 C0.02505615 0.55236328 0.0501123 1.10472656 0.07592773 1.67382812 C0.61407871 13.45701601 1.21757423 25.2303187 2 37 C-3.8189437 37.18241203 -7.31406929 37.12563321 -12.16796875 33.74609375 C-16.51779211 29.60031328 -19.19499865 23.88542525 -19.5625 17.875 C-18.67246796 11.74366819 -16.6383366 7.12534592 -11.875 3.0625 C-7.55807748 -0.03442268 -5.30924783 -0.0983194 0 0 Z " fill="#FCFCFE" transform="translate(107,157)"/>
<path d="M0 0 C1.24380656 12.69112734 2.36285311 25.23966572 2 38 C-4.05174197 37.73103369 -8.24566965 37.09093541 -13 33 C-17.84645089 26.71271235 -19.01290562 20.83235157 -18 13 C-15.87602941 7.27321949 -12.17546939 3.94625543 -7.0625 0.8125 C-4.59844318 -0.15818905 -2.62743242 -0.0562712 0 0 Z " fill="#FCFDFE" transform="translate(194,187)"/>
<path d="M0 0 C0.34028527 4.27030858 0.67093409 8.54131339 1 12.8125 C1.09539062 14.00810547 1.19078125 15.20371094 1.2890625 16.43554688 C1.83884038 23.64156405 2.13319338 30.7733342 2 38 C-4.00846358 38.7670379 -7.17659476 37.1725293 -12.046875 33.65234375 C-16.28705202 30.06515399 -17.58172824 26.06556135 -18.30859375 20.73828125 C-18.63457363 14.60393251 -17.47627141 10.84175907 -13.78125 5.91796875 C-9.77854331 1.60803676 -5.94607066 -0.23377714 0 0 Z " fill="#FCFDFE" transform="translate(92,248)"/>
<path d="M0 0 C0.42888063 4.92946577 0.85608624 9.85907275 1.28173828 14.78881836 C1.42678503 16.46594163 1.57228991 18.14302535 1.71826172 19.82006836 C1.92796273 22.23020343 2.13601732 24.64047583 2.34375 27.05078125 C2.40937134 27.80087967 2.47499268 28.55097809 2.54260254 29.32380676 C2.79154617 32.22721 3 35.08431443 3 38 C-3.37220867 38.66377174 -7.01810529 36.96163741 -12 33 C-16.77491343 27.97377533 -18.55038762 23.21053051 -18.37890625 16.33984375 C-17.27225979 9.50601666 -12.34713012 4.92122876 -7 1 C-4.53721199 -0.231394 -2.7204945 -0.07159196 0 0 Z " fill="#FCFCFE" transform="translate(157,126)"/>
<path d="M0 0 C0.33937404 4.4578947 0.67039125 8.91637349 1 13.375 C1.09539062 14.62667969 1.19078125 15.87835938 1.2890625 17.16796875 C1.79918597 24.12751043 2.1466168 31.02144775 2 38 C-4.68280596 37.94960043 -8.49632923 36.70206113 -13.3359375 31.94921875 C-17.57278463 26.98633913 -18.63246049 21.85202175 -18.41015625 15.4921875 C-17.33090133 8.93442901 -13.13426036 4.61642204 -7.94140625 0.8125 C-5.27150718 -0.30488231 -2.86668854 -0.05057003 0 0 Z " fill="#FCFDFE" transform="translate(296,126)"/>
<path d="M0 0 C0.33961036 4.29119369 0.6705324 8.58301661 1 12.875 C1.09539062 14.07898438 1.19078125 15.28296875 1.2890625 16.5234375 C1.80967058 23.36571517 2.14267384 30.13778476 2 37 C-3.07286116 37.54352084 -6.02428179 37.43204091 -10.25 34.4375 C-14.60452081 30.76015861 -17.53229881 27.33304296 -18.33984375 21.578125 C-18.58352576 15.14492002 -17.62720211 10.00589791 -13.265625 5.015625 C-8.76006945 0.6497766 -6.44120332 -0.38118232 0 0 Z " fill="#FDFDFE" transform="translate(245,157)"/>
<path d="M0 0 C0.42833039 4.94782362 0.85555237 9.8957412 1.28173828 14.84375 C1.42693962 16.52769573 1.57244614 18.21161516 1.71826172 19.89550781 C1.92755708 22.31308285 2.13576197 24.73074968 2.34375 27.1484375 C2.40937134 27.9036972 2.47499268 28.65895691 2.54260254 29.43710327 C3 34.77225659 3 34.77225659 3 37 C-2.75837618 37.51414073 -6.38237971 37.02663748 -11.16796875 33.67578125 C-15.66062167 29.56629703 -18.23604456 24.53484515 -18.5625 18.4375 C-18.21019382 12.98151506 -16.29577514 8.3601974 -12.46875 4.42578125 C-8.08331337 0.67451315 -5.68764491 -0.12364445 0 0 Z " fill="#FCFDFE" transform="translate(208,96)"/>
<path d="M0 0 C0.33961036 4.29119369 0.6705324 8.58301661 1 12.875 C1.09539062 14.07898438 1.19078125 15.28296875 1.2890625 16.5234375 C1.80967058 23.36571517 2.14267384 30.13778476 2 37 C-4.09940955 37.42064893 -7.13663653 37.08964656 -12 33 C-17.08139684 27.35400351 -18.47281143 23.2785242 -18.3125 15.75390625 C-17.68660969 10.23824791 -15.04035643 6.71864084 -10.875 3.125 C-6.84261767 0.14454349 -4.97539956 -0.10816086 0 0 Z " fill="#FDFDFE" transform="translate(143,218)"/>
<path d="M0 0 C0.99 0.33 1.98 0.66 3 1 C1.43296234 10.45886588 -1.56723106 19.31727413 -4.625 28.375 C-5.02434753 29.56772522 -5.02434753 29.56772522 -5.4317627 30.7845459 C-9.53590822 43.03276837 -13.92392025 55.11600152 -19 67 C-21.64 66.34 -24.28 65.68 -27 65 C-25.89601553 58.61726909 -23.41842686 52.71895921 -21.125 46.6875 C-20.88345184 46.04971619 -20.64190369 45.41193237 -20.39303589 44.75482178 C-14.57977091 29.46022503 -8.36779213 14.09516725 0 0 Z " fill="#FD80D7" transform="translate(348,293)"/>
<path d="M0 0 C6.51116799 4.85145851 10.92547546 10.21264855 12.4453125 18.3984375 C12.7319874 23.99815381 11.11980281 27.41778962 8 32 C4.280958 31.45499233 1.98061612 30.57039456 -0.98828125 28.27734375 C-1.69404297 27.73916016 -2.39980469 27.20097656 -3.12695312 26.64648438 C-3.84818359 26.08251953 -4.56941406 25.51855469 -5.3125 24.9375 C-6.05306641 24.36966797 -6.79363281 23.80183594 -7.55664062 23.21679688 C-9.37732894 21.8189781 -11.19132942 20.41331191 -13 19 C-11.44301719 14.09456622 -8.56676327 10.62049764 -5.375 6.6875 C-4.859375 6.04232422 -4.34375 5.39714844 -3.8125 4.73242188 C-2.54705818 3.1506196 -1.27425738 1.57470937 0 0 Z " fill="#F70AB1" transform="translate(127,387)"/>
<path d="M0 0 C6.55331386 3.73399 12.96189113 7.47141835 19 12 C16.46126875 17.86356709 11.16124291 22.21807464 5.4375 24.9375 C1.02115127 26.30255325 -2.64454267 27.06479578 -6.99609375 25.09765625 C-8.70375257 24.13215901 -10.35752289 23.07263811 -12 22 C-11.44090034 18.35889821 -10.53031893 15.85599747 -8.49609375 12.79296875 C-7.75649414 11.66665039 -7.75649414 11.66665039 -7.00195312 10.51757812 C-6.48568359 9.74865234 -5.96941406 8.97972656 -5.4375 8.1875 C-4.91736328 7.39923828 -4.39722656 6.61097656 -3.86132812 5.79882812 C-2.58123434 3.86107147 -1.2940192 1.92847323 0 0 Z " fill="#F70BB1" transform="translate(205,408)"/>
<path d="M0 0 C1.50647598 2.95507906 3.00406365 5.91457341 4.5 8.875 C4.92925781 9.71675781 5.35851562 10.55851562 5.80078125 11.42578125 C6.40986328 12.63427734 6.40986328 12.63427734 7.03125 13.8671875 C7.40830078 14.61081543 7.78535156 15.35444336 8.17382812 16.12060547 C9 18 9 18 9 20 C1.62873428 23.33793165 -5.38377028 24.42037838 -13.25 22 C-17.05940692 19.22952224 -20.47298659 16.00446854 -23 12 C-22 9 -22 9 -20.18994141 7.83325195 C-19.41827637 7.47191162 -18.64661133 7.11057129 -17.8515625 6.73828125 C-17.01109375 6.34189453 -16.170625 5.94550781 -15.3046875 5.53710938 C-14.42039063 5.13298828 -13.53609375 4.72886719 -12.625 4.3125 C-11.31015625 3.68891602 -11.31015625 3.68891602 -9.96875 3.05273438 C-3.41213824 0 -3.41213824 0 0 0 Z " fill="#F80AB1" transform="translate(190,314)"/>
<path d="M0 0 C3.47485838 2.07012839 5.74352278 4.11634312 7 8 C7.52055293 11.99090581 7.16996586 13.69523363 5.1875 17.25 C3.00736386 19.99074258 1.46430532 21.76417555 -2.0859375 22.3359375 C-6.11172399 22.40463693 -8.40531432 22.35428083 -11.9375 20.25 C-14.78206465 17.14683856 -15.82909642 15.31026074 -16.375 11.125 C-15.89861498 7.15512486 -14.46959574 5.10463464 -12 2 C-7.97297943 -0.68468038 -4.7315637 -0.68187737 0 0 Z " fill="#6682FA" transform="translate(463,247)"/>
<path d="M0 0 C3.62535141 1.647887 6.20557709 3.41115419 8 7 C8.71909475 11.67411586 8.66234072 14.94025485 6.125 19 C2.42910391 22.47849044 -0.59606367 22.39101471 -5.515625 22.35546875 C-8 22 -8 22 -11.0625 19.6875 C-14.11362214 15.45529832 -14.44328093 12.14205878 -14 7 C-10.22406537 1.14079109 -6.94040262 -0.59831057 0 0 Z " fill="#6481FA" transform="translate(409,227)"/>
<path d="M0 0 C13.76045274 8.22655947 22.46689315 22.99028381 27.375 37.875 C28.00356303 41.01781514 27.92224268 42.95659914 27 46 C26.01 45.67 25.02 45.34 24 45 C22.640625 42.19140625 22.640625 42.19140625 21.25 38.5625 C18.62008541 32.03015835 15.36717105 26.55640069 11 21 C10.52949219 20.36578125 10.05898438 19.7315625 9.57421875 19.078125 C5.53041997 13.92940091 0.44043176 10.5565282 -5 7 C-6.20860024 6.18789707 -7.41698671 5.37547577 -8.625 4.5625 C-9.40875 4.046875 -10.1925 3.53125 -11 3 C-7.70491834 -0.29508166 -4.48644777 -0.45802603 0 0 Z " fill="#2626A1" transform="translate(381,419)"/>
<path d="M0 0 C4.64376469 1.75236404 7.37287815 3.75618777 10 8 C10.5625 10.5625 10.5625 10.5625 10 13 C7.33567356 15.9872751 5.65395443 16.9012899 1.6875 17.5 C-4.13316356 16.71075748 -8.29591459 14.66148327 -12.5 10.5625 C-14.21675127 7.62971658 -14.76656226 6.32176981 -14 3 C-9.9109598 -2.01237186 -5.77265523 -1.41766621 0 0 Z " fill="#F60DB4" transform="translate(453,274)"/>
<path d="M0 0 C3.5983171 1.2619997 6.21575422 3.26476958 9 5.875 C10.45643298 8.96992009 10.0260106 10.78516678 9 14 C6.69451652 16.66017324 5.24769966 16.96665582 1.75 17.4375 C-3.92136775 16.77584043 -7.97490413 14.5188219 -12.5 11.125 C-14.54123902 8.23324472 -14.51573787 6.46281138 -14 3 C-10.61290875 -1.6779371 -5.20103839 -0.66102583 0 0 Z " fill="#F70CB4" transform="translate(398,253)"/>
<path d="M0 0 C0.66 0.66 1.32 1.32 2 2 C0.60432165 2.31319144 -0.79155082 2.62551788 -2.1875 2.9375 C-2.96480469 3.11152344 -3.74210937 3.28554688 -4.54296875 3.46484375 C-5.35378906 3.64144531 -6.16460937 3.81804687 -7 4 C-7.71800781 4.18304688 -8.43601562 4.36609375 -9.17578125 4.5546875 C-13.44559953 5.22793686 -17.68378968 5.19056467 -22 5.1875 C-23.39545044 5.1884668 -23.39545044 5.1884668 -24.8190918 5.18945312 C-32.04845881 5.13432928 -38.90853638 4.47355088 -46 3 C-46 2.34 -46 1.68 -46 1 C-32.16435868 -4.74987691 -14.05974724 -5.75051576 0 0 Z " fill="#5F7CFA" transform="translate(366,420)"/>
<path d="M0 0 C0.69488525 -0.00153076 1.38977051 -0.00306152 2.10571289 -0.00463867 C7.04245793 0.10495793 7.04245793 0.10495793 9.3125 2.375 C6.27138251 3.98020934 3.22950767 5.58397836 0.1875 7.1875 C-0.6684375 7.63931641 -1.524375 8.09113281 -2.40625 8.55664062 C-4.07706929 9.43703387 -5.74923744 10.31487277 -7.42285156 11.18994141 C-9.32502032 12.1853195 -11.22176181 13.19105953 -13.1171875 14.19921875 C-15.6875 15.375 -15.6875 15.375 -18.6875 15.375 C-19.38715443 14.11081754 -20.07184763 12.83834598 -20.75 11.5625 C-21.13285156 10.85480469 -21.51570312 10.14710938 -21.91015625 9.41796875 C-22.6875 7.375 -22.6875 7.375 -21.6875 4.375 C-14.81972303 1.00313577 -7.55346456 0.00943218 0 0 Z " fill="#4862CC" transform="translate(222.6875,328.625)"/>
<path d="M0 0 C-10.76595745 17.34042553 -10.76595745 17.34042553 -16 25 C-17.27450447 24.40361667 -18.54446877 23.79752584 -19.8125 23.1875 C-20.52019531 22.85105469 -21.22789062 22.51460938 -21.95703125 22.16796875 C-24.01129035 20.99354529 -25.41616278 19.74371984 -27 18 C-25.84700061 16.84700061 -24.69228393 15.69568971 -23.53125 14.55078125 C-22.50475221 13.51119038 -21.50443644 12.44512697 -20.53125 11.35546875 C-15.88951649 6.31554732 -7.07615186 -2.35871729 0 0 Z " fill="#4962CD" transform="translate(251,402)"/>
<path d="M0 0 C5.37667693 2.89031208 10.02759885 6.20603013 14.75 10.0625 C15.40871094 10.59166016 16.06742188 11.12082031 16.74609375 11.66601562 C19.65549639 14.01773358 22.34673465 16.34673465 25 19 C22.69 21.97 20.38 24.94 18 28 C16.30431431 26.35730448 14.64922599 24.68887085 13 23 C12.0409375 22.05253906 12.0409375 22.05253906 11.0625 21.0859375 C5.80389685 15.60822589 0 7.98351533 0 0 Z " fill="#4962CC" transform="translate(110,359)"/>
<path d="M0 0 C6.75 0.75 6.75 0.75 9 3 C7.18873171 7.07668602 5.37386424 11.15174431 3.55566406 15.2253418 C2.93781283 16.61096882 2.3209422 17.99703353 1.70507812 19.38354492 C0.81899164 21.37795409 -0.07062505 23.37075564 -0.9609375 25.36328125 C-1.49509277 26.56251221 -2.02924805 27.76174316 -2.57958984 28.99731445 C-4 32 -4 32 -6 35 C-6.99 34.67 -7.98 34.34 -9 34 C-8.47875863 26.19792687 -6.40804775 19.33207557 -3.9375 11.9375 C-3.37192383 10.20983398 -3.37192383 10.20983398 -2.79492188 8.44726562 C-1.87104288 5.62884995 -0.93926223 2.81331858 0 0 Z " fill="#ADBCFE" transform="translate(320,358)"/>
<path d="M0 0 C4.54554784 1.61804822 8.70607463 3.5555196 11 8 C11 8.99 11 9.98 11 11 C7.00025474 12.99987263 2.33702787 12.6383246 -2 12 C-5.63240516 10.06061151 -8.44315986 7.80493011 -9.6796875 3.796875 C-9.78539062 3.20390625 -9.89109375 2.6109375 -10 2 C-6.20991318 -0.52672455 -4.50802658 -0.44341245 0 0 Z " fill="#F58ADA" transform="translate(426,257)"/>
<path d="M0 0 C12.36462371 4.44678576 12.36462371 4.44678576 15 8 C14.875 11.0625 14.875 11.0625 14 14 C13.01 14.66 12.02 15.32 11 16 C10.2265625 14.6078125 10.2265625 14.6078125 9.4375 13.1875 C6.95936588 9.49647629 4.26529285 8.30127579 0 7 C-3.79259397 6.7471604 -6.39894834 6.79964945 -10 8 C-10.35664336 2.65034965 -10.35664336 2.65034965 -8.9375 0.0625 C-5.81607987 -1.64924652 -3.26098454 -0.94471803 0 0 Z " fill="#051245" transform="translate(426,251)"/>
<path d="M0 0 C2.0625 1.0625 2.0625 1.0625 3 3 C2.93273404 6.76689361 2.82032733 9.09178045 0.25 11.9375 C-2.49491218 13.23370853 -4.00074212 13.52487013 -7 13 C-9.3125 11.375 -9.3125 11.375 -11 9 C-11.44912849 5.85610056 -11.504106 3.94519875 -10 1.125 C-6.77767918 -0.68755546 -3.60182435 -0.53166222 0 0 Z " fill="#031246" transform="translate(461,253)"/>
<path d="M0 0 C4.42171053 1.41118421 4.42171053 1.41118421 5.9375 3.9375 C6.375 7.4375 6.375 7.4375 5.9375 10.9375 C3.86058202 13.32210953 2.53193084 13.8334746 -0.5625 14.375 C-3.96084723 13.78028924 -5.07491034 12.73484842 -7.0625 9.9375 C-7.67814756 6.24361466 -7.52312609 4.62843913 -5.4375 1.5 C-3.0625 -0.0625 -3.0625 -0.0625 0 0 Z " fill="#031145" transform="translate(407.0625,233.0625)"/>
<path d="M0 0 C-1.4327417 3.59868175 -2.99338845 4.91276268 -6.359375 6.76171875 C-7.22820312 7.24060547 -8.09703125 7.71949219 -8.9921875 8.21289062 C-9.90226562 8.69951172 -10.81234375 9.18613281 -11.75 9.6875 C-12.64460938 10.18572266 -13.53921875 10.68394531 -14.4609375 11.19726562 C-18.95364168 13.63909673 -22.80158063 15.62991385 -28 16 C-28.33 14.68 -28.66 13.36 -29 12 C-7.15533981 0 -7.15533981 0 0 0 Z " fill="#ABBBFE" transform="translate(221,306)"/>
<path d="M0 0 C0.66 0 1.32 0 2 0 C1.41824104 4.91157157 -0.76229651 8.60297286 -3.1875 12.8125 C-3.59025146 13.52083984 -3.99300293 14.22917969 -4.40795898 14.95898438 C-7.27754355 19.9328547 -10.37412696 24.53738703 -14 29 C-15.32 28.34 -16.64 27.68 -18 27 C-16.34744569 21.85871994 -13.24539753 17.83263829 -10.125 13.5 C-9.59519531 12.75363281 -9.06539062 12.00726563 -8.51953125 11.23828125 C-2.59606539 2.93367031 -2.59606539 2.93367031 0 0 Z " fill="#ACBBFE" transform="translate(228,385)"/>
<path d="M0 0 C9.88353767 1.83028475 19.17437863 10.97713958 27 17 C26.34 18.32 25.68 19.64 25 21 C21.74283459 20.39723772 19.83341627 19.32883529 17.28515625 17.234375 C16.59873047 16.67363281 15.91230469 16.11289062 15.20507812 15.53515625 C14.49802734 14.94605469 13.79097656 14.35695313 13.0625 13.75 C12.00772461 12.88955078 12.00772461 12.88955078 10.93164062 12.01171875 C7.09103963 8.85141165 3.34289627 5.68961545 0 2 C0 1.34 0 0.68 0 0 Z " fill="#ACBBFE" transform="translate(93,379)"/>
<path d="M0 0 C1.32 0.33 2.64 0.66 4 1 C4 5.00278065 2.47550007 6.48797589 0.125 9.6875 C-0.59429687 10.68136719 -1.31359375 11.67523438 -2.0546875 12.69921875 C-3.01761719 13.83810547 -3.01761719 13.83810547 -4 15 C-4.66 15 -5.32 15 -6 15 C-5.54979057 9.14727744 -2.96160773 4.91779881 0 0 Z " fill="#FD7BD6" transform="translate(209,412)"/>
<path d="M0 0 C3.15703606 1.42598708 5.58028568 3.1629134 8.1875 5.4375 C9.22970703 6.33275391 9.22970703 6.33275391 10.29296875 7.24609375 C12 9 12 9 13 12 C8.7170548 11.4520917 6.14864359 9.97567196 2.6875 7.4375 C1.80449219 6.79683594 0.92148438 6.15617187 0.01171875 5.49609375 C-0.98408203 4.75552734 -0.98408203 4.75552734 -2 4 C-1.34 2.68 -0.68 1.36 0 0 Z " fill="#FC7DD6" transform="translate(119,397)"/>
<path d="M0 0 C0.99 1.32 1.98 2.64 3 4 C0.10357159 6.35082212 -2.65356331 7.83519406 -6.125 9.1875 C-6.99382812 9.53167969 -7.86265625 9.87585938 -8.7578125 10.23046875 C-11 11 -11 11 -13 11 C-12.87890625 9.234375 -12.87890625 9.234375 -12 7 C-9.27734375 5.078125 -9.27734375 5.078125 -5.9375 3.25 C-4.83277344 2.63640625 -3.72804687 2.0228125 -2.58984375 1.390625 C-1.73519531 0.93171875 -0.88054687 0.4728125 0 0 Z " fill="#FC7BD6" transform="translate(191,318)"/>
<path d="M0 0 C0 0.66 0 1.32 0 2 C-1.24176695 2.70226141 -2.49385599 3.38629109 -3.75 4.0625 C-4.79414063 4.63677734 -4.79414063 4.63677734 -5.859375 5.22265625 C-8.36140628 6.1312406 -9.5332355 5.88336837 -12 5 C-11 2 -11 2 -8.8125 0.25 C-5.39631501 -1.26830444 -3.56486048 -0.91194105 0 0 Z " fill="#2829A4" transform="translate(318,421)"/>
</svg>
