<?xml version="1.0" encoding="UTF-8"?>
<svg version="1.1" xmlns="http://www.w3.org/2000/svg" width="512" height="512">
<path d="M0 0 C9.36822994 8.41522382 14.04402708 20.41575778 15.12109375 32.7421875 C15.63856121 45.2808222 11.23028783 57.396979 3.28515625 67.015625 C-4.72958842 75.37909236 -14.4575091 79.6209824 -25.27734375 83.265625 C-26.42009766 83.66330078 -27.56285156 84.06097656 -28.74023438 84.47070312 C-31.51935597 85.4358374 -34.30218679 86.3879929 -37.08984375 87.328125 C-36.42984375 89.638125 -35.76984375 91.948125 -35.08984375 94.328125 C-31.45984375 94.988125 -27.82984375 95.648125 -24.08984375 96.328125 C-23.31640625 94.91080078 -23.31640625 94.91080078 -22.52734375 93.46484375 C-19.53774567 89.61765264 -17.78427478 89.18220188 -13.08984375 88.140625 C-12.43209961 87.98754883 -11.77435547 87.83447266 -11.09667969 87.67675781 C-9.75076706 87.36416294 -8.40273144 87.06056916 -7.05273438 86.76611328 C-4.12851288 86.11361908 -1.23773209 85.33793719 1.66015625 84.578125 C4.59341856 83.82477348 6.8737538 83.328125 9.91015625 83.328125 C8.38772918 87.96500288 5.8527483 91.2624478 2.84765625 95.015625 C-0.41542679 98.97742131 -0.41542679 98.97742131 -3.08984375 103.328125 C-2.00251953 103.43697021 -0.91519531 103.54581543 0.20507812 103.65795898 C5.64513027 104.34154488 10.88542692 105.69713563 16.19140625 107.05078125 C17.24549683 107.31571884 18.2995874 107.58065643 19.38562012 107.85362244 C22.72827008 108.69485022 26.06921664 109.54263291 29.41015625 110.390625 C31.6860883 110.9646275 33.96212891 111.53819977 36.23828125 112.11132812 C41.79683887 113.51195047 47.35401539 114.91794792 52.91015625 116.328125 C53.54252982 114.75682482 54.17392977 113.18513278 54.80493164 111.61328125 C55.15664932 110.73808838 55.508367 109.86289551 55.8707428 108.96118164 C58.59869437 102.05069671 60.37780925 95.74419054 60.97265625 88.328125 C61.05008057 87.491604 61.12750488 86.65508301 61.20727539 85.79321289 C61.66486877 80.72459274 62.02955831 75.65185639 62.37109375 70.57421875 C62.49085571 68.87749023 62.49085571 68.87749023 62.61303711 67.14648438 C62.76749228 64.92078693 62.90926981 62.69416754 63.03735352 60.46679688 C63.10752686 59.45037109 63.1777002 58.43394531 63.25 57.38671875 C63.30534912 56.48236084 63.36069824 55.57800293 63.41772461 54.64624023 C63.99920613 51.90892392 64.69626646 50.99886862 66.91015625 49.328125 C85.36458108 42.94005487 109.39195792 44.79607964 127.1875 52.4609375 C128.91015625 53.328125 128.91015625 53.328125 129.91015625 54.328125 C129.52369587 63.64385407 126.37296854 72.36531434 123.625 81.20068359 C122.98894708 83.2559534 122.36691088 85.31508594 121.74609375 87.375 C121.3701709 88.59026367 120.99424805 89.80552734 120.60693359 91.05761719 C119.9060499 94.34739922 119.860095 96.16543224 120.91015625 99.328125 C122.88420561 101.9312962 122.88420561 101.9312962 125.41015625 104.453125 C130.51946381 109.87539584 135.24871011 115.51384809 139.91015625 121.328125 C141.05097656 122.73578125 141.05097656 122.73578125 142.21484375 124.171875 C147.78890529 131.07498324 149.685845 134.358224 148.91015625 143.328125 C147.98134613 147.65743493 146.67701811 151.83843757 145.33203125 156.0546875 C144.96418518 157.24234711 144.59633911 158.43000671 144.21734619 159.65365601 C143.4404875 162.15172826 142.65681415 164.64769041 141.86669922 167.14160156 C140.66309905 170.94382856 139.48228031 174.75214962 138.3046875 178.5625 C137.54429276 180.99780963 136.78261691 183.4327197 136.01953125 185.8671875 C135.66832214 186.99758453 135.31711304 188.12798157 134.95526123 189.29263306 C133.05285225 195.26900077 131.12820011 200.92556387 127.91015625 206.328125 C125.93015625 207.318125 125.93015625 207.318125 123.91015625 208.328125 C123.91015625 237.368125 123.91015625 266.408125 123.91015625 296.328125 C17.66015627 355.82812499 17.66015627 355.82812499 14.53295898 357.5793457 C12.45693876 358.74192352 10.38092958 359.90452107 8.30493164 361.06713867 C2.98479977 364.04652947 -2.3355442 367.0255405 -7.65625 370.00390625 C-8.73543701 370.60823486 -9.81462402 371.21256348 -10.92651367 371.83520508 C-13.05234288 373.02498083 -15.1787934 374.21364725 -17.3059082 375.40112305 C-21.88946925 377.96210497 -26.464175 380.5338471 -31.00390625 383.171875 C-32.10206665 383.8054895 -32.10206665 383.8054895 -33.22241211 384.4519043 C-34.53504283 385.2112246 -35.84361387 385.97763596 -37.14672852 386.75317383 C-40.78338642 388.84945575 -43.91503108 389.89100501 -48.08984375 390.328125 C-48.41984375 389.338125 -48.74984375 388.348125 -49.08984375 387.328125 C-50.84796914 386.63671405 -50.84796914 386.63671405 -53.00812435 386.34784889 C-58.30653328 385.32916473 -63.28890643 383.73154522 -68.39735413 382.01254272 C-69.39734717 381.68006613 -70.39734022 381.34758954 -71.42763609 381.0050379 C-74.75926714 379.89613397 -78.08872049 378.78083459 -81.41821289 377.66552734 C-83.81346971 376.86682618 -86.20885889 376.06852189 -88.60437012 375.27058411 C-93.75181852 373.55499528 -98.89833773 371.83666277 -104.04402351 370.11579514 C-111.48370346 367.62775418 -118.92504697 365.14472042 -126.3667981 362.66288228 C-138.44224273 358.63554867 -150.51634364 354.60420219 -162.58959961 350.5703125 C-174.31350328 346.65315723 -186.0380428 342.73791452 -197.76342773 338.82519531 C-198.85968962 338.45937269 -198.85968962 338.45937269 -199.97809821 338.08615971 C-205.69426792 336.17869023 -211.41047447 334.27133117 -217.12669265 332.364007 C-245.11640417 323.02467964 -273.10289277 313.67572939 -301.08984375 304.328125 C-301.41984375 249.548125 -301.74984375 194.768125 -302.08984375 138.328125 C-268.83013335 125.71237278 -268.83013335 125.71237278 -258.24609375 121.8359375 C-257.05278442 121.39724335 -255.8594751 120.95854919 -254.63000488 120.50656128 C-250.95046684 119.1540068 -247.27023101 117.80336677 -243.58984375 116.453125 C-239.85235322 115.08139358 -236.11513766 113.70891672 -232.3782959 112.3354187 C-230.08902648 111.49403801 -227.79942371 110.65356344 -225.50939941 109.8142395 C-218.00780835 107.05791512 -210.54184084 104.21575964 -203.08984375 101.328125 C-204.60334772 84.61110029 -215.09908473 76.15400873 -226.90673828 65.43432617 C-229.08984375 63.328125 -229.08984375 63.328125 -231.08984375 60.328125 C-230.67932306 50.14962661 -222.99490563 41.83520599 -215.96484375 35.015625 C-208.40515441 28.46246653 -198.6909751 22.72451817 -188.83984375 20.640625 C-184.49103245 21.43790707 -184.1721505 21.93896622 -181.71484375 25.390625 C-179.57655735 28.5980546 -177.90085343 31.71201473 -176.52734375 35.296875 C-174.72273668 39.5958751 -172.98923581 43.57204784 -169.08984375 46.328125 C-164.16845549 47.49448238 -159.19365865 47.13388082 -154.171875 46.97192383 C-142.33914913 46.79501974 -133.8771751 51.26355507 -123.73535156 56.90429688 C-118.14321498 59.91401823 -112.33272452 62.98350453 -106.08984375 64.328125 C-106.29480469 63.74804688 -106.49976563 63.16796875 -106.7109375 62.5703125 C-106.98035156 61.78914063 -107.24976563 61.00796875 -107.52734375 60.203125 C-107.79417969 59.43742187 -108.06101563 58.67171875 -108.3359375 57.8828125 C-112.41000055 44.07743824 -110.20427225 30.214894 -103.52734375 17.67578125 C-94.21073582 2.46034276 -78.71477328 -2.52095142 -62.32397461 -6.76391602 C-60.02646529 -7.35960276 -57.73289365 -7.96893489 -55.43945312 -8.58007812 C-53.95724437 -8.96956196 -52.47482906 -9.35826073 -50.9921875 -9.74609375 C-50.31800278 -9.92524826 -49.64381805 -10.10440277 -48.94920349 -10.28898621 C-30.59018852 -15.00387149 -14.74643504 -11.79714803 0 0 Z " fill="#FCC400" transform="translate(332.08984375,67.671875)"/>
<path d="M0 0 C9.36822994 8.41522382 14.04402708 20.41575778 15.12109375 32.7421875 C15.63856121 45.2808222 11.23028783 57.396979 3.28515625 67.015625 C-4.72958842 75.37909236 -14.4575091 79.6209824 -25.27734375 83.265625 C-26.42009766 83.66330078 -27.56285156 84.06097656 -28.74023438 84.47070312 C-31.51935597 85.4358374 -34.30218679 86.3879929 -37.08984375 87.328125 C-36.09984375 90.793125 -36.09984375 90.793125 -35.08984375 94.328125 C-29.64484375 95.318125 -29.64484375 95.318125 -24.08984375 96.328125 C-23.31640625 94.91080078 -23.31640625 94.91080078 -22.52734375 93.46484375 C-19.53774567 89.61765264 -17.78427478 89.18220188 -13.08984375 88.140625 C-12.43209961 87.98754883 -11.77435547 87.83447266 -11.09667969 87.67675781 C-9.75076706 87.36416294 -8.40273144 87.06056916 -7.05273438 86.76611328 C-4.12851288 86.11361908 -1.23773209 85.33793719 1.66015625 84.578125 C4.59341856 83.82477348 6.8737538 83.328125 9.91015625 83.328125 C8.38772918 87.96500288 5.8527483 91.2624478 2.84765625 95.015625 C-0.41542679 98.97742131 -0.41542679 98.97742131 -3.08984375 103.328125 C-2.00251953 103.43697021 -0.91519531 103.54581543 0.20507812 103.65795898 C5.64513027 104.34154488 10.88542692 105.69713563 16.19140625 107.05078125 C17.24549683 107.31571884 18.2995874 107.58065643 19.38562012 107.85362244 C22.72827008 108.69485022 26.06921664 109.54263291 29.41015625 110.390625 C31.6860883 110.9646275 33.96212891 111.53819977 36.23828125 112.11132812 C41.79683887 113.51195047 47.35401539 114.91794792 52.91015625 116.328125 C53.54252982 114.75682482 54.17392977 113.18513278 54.80493164 111.61328125 C55.15664932 110.73808838 55.508367 109.86289551 55.8707428 108.96118164 C58.59869437 102.05069671 60.37780925 95.74419054 60.97265625 88.328125 C61.08879272 87.07334351 61.08879272 87.07334351 61.20727539 85.79321289 C61.66486877 80.72459274 62.02955831 75.65185639 62.37109375 70.57421875 C62.49085571 68.87749023 62.49085571 68.87749023 62.61303711 67.14648438 C62.76749228 64.92078693 62.90926981 62.69416754 63.03735352 60.46679688 C63.10752686 59.45037109 63.1777002 58.43394531 63.25 57.38671875 C63.30534912 56.48236084 63.36069824 55.57800293 63.41772461 54.64624023 C63.99920613 51.90892392 64.69626646 50.99886862 66.91015625 49.328125 C85.36458108 42.94005487 109.39195792 44.79607964 127.1875 52.4609375 C128.91015625 53.328125 128.91015625 53.328125 129.91015625 54.328125 C129.52369587 63.64385407 126.37296854 72.36531434 123.625 81.20068359 C122.98894708 83.2559534 122.36691088 85.31508594 121.74609375 87.375 C121.3701709 88.59026367 120.99424805 89.80552734 120.60693359 91.05761719 C119.9060499 94.34739922 119.860095 96.16543224 120.91015625 99.328125 C122.88420561 101.9312962 122.88420561 101.9312962 125.41015625 104.453125 C130.51946381 109.87539584 135.24871011 115.51384809 139.91015625 121.328125 C141.05097656 122.73578125 141.05097656 122.73578125 142.21484375 124.171875 C147.78890529 131.07498324 149.685845 134.358224 148.91015625 143.328125 C147.98134613 147.65743493 146.67701811 151.83843757 145.33203125 156.0546875 C144.96418518 157.24234711 144.59633911 158.43000671 144.21734619 159.65365601 C143.4404875 162.15172826 142.65681415 164.64769041 141.86669922 167.14160156 C140.66309905 170.94382856 139.48228031 174.75214962 138.3046875 178.5625 C137.54429276 180.99780963 136.78261691 183.4327197 136.01953125 185.8671875 C135.66832214 186.99758453 135.31711304 188.12798157 134.95526123 189.29263306 C133.05285225 195.26900077 131.12820011 200.92556387 127.91015625 206.328125 C125.93015625 207.318125 125.93015625 207.318125 123.91015625 208.328125 C123.91015625 237.368125 123.91015625 266.408125 123.91015625 296.328125 C17.66015624 355.82812501 17.66015624 355.82812501 14.53295898 357.5793457 C12.45693876 358.74192352 10.38092958 359.90452107 8.30493164 361.06713867 C2.98479977 364.04652947 -2.3355442 367.0255405 -7.65625 370.00390625 C-9.27515137 370.91064087 -9.27515137 370.91064087 -10.92675781 371.83569336 C-13.05137305 373.02455806 -15.17700032 374.21161623 -17.30371094 375.39672852 C-21.91022148 377.96681985 -26.50058601 380.55347697 -31.0390625 383.2421875 C-31.77568115 383.67362061 -32.5122998 384.10505371 -33.27124023 384.54956055 C-34.59962486 385.33047449 -35.92145234 386.12271364 -37.23461914 386.92895508 C-41.35291613 389.33566227 -42.06075429 389.33394289 -47.08984375 388.328125 C-47.08984375 332.228125 -47.08984375 276.128125 -47.08984375 218.328125 C-33.82971062 211.69805843 -20.60410145 205.11005065 -7.22265625 198.75 C2.83263268 193.94611083 12.83607235 189.03473536 22.84765625 184.140625 C23.83754547 183.65675323 24.82743469 183.17288147 25.84732056 182.67434692 C31.53555058 179.89353547 37.22311869 177.11137428 42.91015625 174.328125 C39.87450883 175.81988007 36.83070563 177.29420488 33.78515625 178.765625 C32.92921875 179.18650391 32.07328125 179.60738281 31.19140625 180.04101562 C23.97946718 183.50829402 19.10812789 185.01666763 11.22265625 182.703125 C9.88564262 182.32212286 8.54839151 181.94195336 7.2109375 181.5625 C6.5092041 181.35947266 5.8074707 181.15644531 5.08447266 180.94726562 C1.37508343 179.89101017 -2.35803449 178.92655544 -6.08984375 177.953125 C-7.6979402 177.53003737 -9.30601244 177.10685767 -10.9140625 176.68359375 C-14.58160815 175.72113785 -18.25119979 174.76685433 -21.921875 173.81640625 C-22.90833008 173.56060791 -23.89478516 173.30480957 -24.91113281 173.04125977 C-26.89594236 172.52658951 -28.88096672 172.01274689 -30.86621094 171.49975586 C-36.22664881 170.10609647 -41.53845673 168.61823488 -46.83984375 167.015625 C-50.97458649 165.78516541 -54.65876022 165.13498956 -58.96484375 164.953125 C-65.88471541 164.47694057 -69.59239702 161.18520406 -74.04296875 156.09375 C-76.10815134 153.54072901 -78.09799876 150.93864912 -80.08984375 148.328125 C-81.56152773 146.50954408 -83.04085351 144.69712356 -84.52734375 142.890625 C-85.28015625 141.97152344 -86.03296875 141.05242187 -86.80859375 140.10546875 C-88.30570863 138.28278265 -89.8056197 136.46238895 -91.30859375 134.64453125 C-95.41371196 129.66490722 -99.47459015 124.65024571 -103.46484375 119.578125 C-104.27695313 118.55203125 -105.0890625 117.5259375 -105.92578125 116.46875 C-108.17730652 113.20119347 -109.5384034 109.96883836 -111.08984375 106.328125 C-112.96465165 103.59247367 -112.96465165 103.59247367 -115.15234375 101.078125 C-115.93609375 100.14871094 -116.71984375 99.21929687 -117.52734375 98.26171875 C-121.64309091 93.54994114 -125.83785011 88.91743755 -130.08984375 84.328125 C-125.33137864 79.33548345 -120.01687446 75.16043545 -114.62109375 70.88085938 C-113.925 70.32333984 -113.22890625 69.76582031 -112.51171875 69.19140625 C-111.56184082 68.43790894 -111.56184082 68.43790894 -110.59277344 67.66918945 C-108.9619065 66.38027022 -108.9619065 66.38027022 -108.08984375 64.328125 C-107.42984375 64.328125 -106.76984375 64.328125 -106.08984375 64.328125 C-106.29480469 63.74804688 -106.49976563 63.16796875 -106.7109375 62.5703125 C-106.98035156 61.78914063 -107.24976563 61.00796875 -107.52734375 60.203125 C-107.79417969 59.43742187 -108.06101563 58.67171875 -108.3359375 57.8828125 C-112.41000055 44.07743824 -110.20427225 30.214894 -103.52734375 17.67578125 C-94.21073582 2.46034276 -78.71477328 -2.52095142 -62.32397461 -6.76391602 C-60.02646529 -7.35960276 -57.73289365 -7.96893489 -55.43945312 -8.58007812 C-53.95724437 -8.96956196 -52.47482906 -9.35826073 -50.9921875 -9.74609375 C-49.98091042 -10.01482552 -49.98091042 -10.01482552 -48.94920349 -10.28898621 C-30.59018852 -15.00387149 -14.74643504 -11.79714803 0 0 Z " fill="#FCC400" transform="translate(332.08984375,67.671875)"/>
<path d="M0 0 C3.9325308 3.95065306 6.58193609 8.79947819 8.5625 13.96875 C10.36710707 18.2677501 12.10060794 22.24392284 16 25 C20.92269122 26.16666618 25.89916662 25.80443544 30.92236328 25.64599609 C42.81781836 25.47440203 51.32604992 29.9804509 61.52978516 35.65234375 C64.92993636 37.50733828 68.40529022 39.09896025 71.9375 40.6875 C72.93652344 41.14511719 73.93554688 41.60273438 74.96484375 42.07421875 C75.63644531 42.37972656 76.30804688 42.68523437 77 43 C75.66128789 46.07879011 74.31685845 47.83183489 71.6640625 49.875 C71.01179687 50.38546875 70.35953125 50.8959375 69.6875 51.421875 C69.006875 51.94265625 68.32625 52.4634375 67.625 53 C61.54222463 57.69055107 61.54222463 57.69055107 56 63 C57.16015625 64.23363281 57.16015625 64.23363281 58.34375 65.4921875 C75.21217681 83.52208256 75.21217681 83.52208256 77.8125 90.3125 C80.3238569 96.62995781 85.20551953 101.41335589 89.64550781 106.44384766 C91.53875509 108.61896629 93.33519824 110.86438693 95.125 113.125 C98.62503543 117.5393304 102.18350572 121.90204832 105.765625 126.25 C107.25723458 128.08582718 108.72614357 129.94032981 110.171875 131.8125 C110.85765625 132.699375 111.5434375 133.58625 112.25 134.5 C112.85328125 135.2940625 113.4565625 136.088125 114.078125 136.90625 C118.12293387 141.31278974 121.7729691 142.34299719 127.625 142.875 C136.19180007 143.81726264 144.29215891 146.02536587 152.578125 148.33105469 C156.45918181 149.40304014 160.35478298 150.41842878 164.25 151.4375 C165.81120679 151.84892468 167.3724045 152.2603838 168.93359375 152.671875 C172.65270964 153.6493778 176.37459616 154.61575678 180.09765625 155.578125 C181.13051758 155.84568604 182.16337891 156.11324707 183.22753906 156.38891602 C185.23815272 156.90939063 187.2492008 157.42819084 189.26074219 157.94506836 C193.01508136 158.91781935 196.65935406 159.87190419 200.29296875 161.23828125 C207.75761656 163.33872327 214.26701728 158.48096674 220.63085938 155.0625 C221.40623047 154.65773437 222.18160156 154.25296875 222.98046875 153.8359375 C223.68067139 153.46001465 224.38087402 153.0840918 225.10229492 152.69677734 C227 152 227 152 230 153 C216.9858478 159.55815205 203.96029585 166.07668987 190.79003906 172.31689453 C184.00730592 175.53967427 177.25737573 178.82527177 170.515625 182.1328125 C169.58810928 182.58738327 168.66059357 183.04195404 167.70497131 183.51029968 C163.92138353 185.36475252 160.13784586 187.21925122 156.35812378 189.08157349 C153.69222687 190.39502225 151.02406089 191.70375684 148.35546875 193.01171875 C147.13522003 193.61555893 147.13522003 193.61555893 145.89031982 194.2315979 C140.22713454 197 140.22713454 197 138 197 C138 253.76 138 310.52 138 369 C136 367 136 367 135.76952171 364.09895134 C135.77873964 362.84715647 135.78795757 361.5953616 135.79745483 360.30563354 C135.80101689 359.26176442 135.80101689 359.26176442 135.8046509 358.19680703 C135.81510831 355.85353749 135.83999064 353.51063942 135.86474609 351.16748047 C135.87516706 349.49233507 135.88470324 347.81718396 135.89341736 346.14202881 C135.91964835 341.58434486 135.95831316 337.02683984 135.99914122 332.46926641 C136.03968413 327.71003742 136.06888822 322.9507395 136.09927368 318.19143677 C136.15857551 309.17452724 136.22813612 300.15772693 136.30134451 291.14092076 C136.38417747 280.87751965 136.45563175 270.61404931 136.52611041 260.35055709 C136.67137499 239.23360272 136.83099354 218.11677682 137 197 C135.9028086 196.85036458 134.8056172 196.70072916 133.67517757 196.54655933 C130.42373072 196.06301573 127.55772324 195.37096937 124.43774414 194.36791992 C123.38092438 194.03131851 122.32410461 193.6947171 121.23526001 193.34791565 C120.09672577 192.97915817 118.95819153 192.6104007 117.78515625 192.23046875 C115.92261091 191.63518126 114.06006433 191.03989766 112.19747162 190.44475842 C110.20218771 189.80612297 108.2077798 189.16481719 106.21359253 188.52276611 C99.80399719 186.45956159 93.38860571 184.41448356 86.97382545 182.36746979 C84.74133812 181.65489791 82.50905272 180.94169591 80.27677917 180.22845459 C66.00206851 175.66990323 51.70220988 171.19339341 37.39585495 166.73532104 C31.42883982 164.87570162 25.46249272 163.01393887 19.49609375 161.15234375 C18.49770698 160.84088221 18.49770698 160.84088221 17.47915077 160.52312851 C6.68137477 157.15425211 -4.1117798 153.77080855 -14.90234375 150.37890625 C-15.65140299 150.14345596 -16.40046223 149.90800568 -17.17222023 149.66542053 C-24.66490399 147.31005186 -32.1570943 144.95311916 -39.64864063 142.59413528 C-43.2604283 141.45689466 -46.87235518 140.32009681 -50.484375 139.18359375 C-51.1864678 138.96267563 -51.8885606 138.74175751 -52.61192894 138.5141449 C-62.40548261 135.43354081 -72.207015 132.38003416 -82.015625 129.34765625 C-84.29428944 128.64174301 -86.5729359 127.93577172 -88.8515625 127.22973633 C-93.00573801 125.94276182 -97.16225278 124.66376533 -101.3203125 123.3894043 C-103.13551152 122.82761758 -104.95062184 122.26554415 -106.765625 121.703125 C-107.99131195 121.33133873 -107.99131195 121.33133873 -109.24176025 120.95204163 C-114.77257171 119.22742829 -114.77257171 119.22742829 -117 117 C-95.06581564 108.55721283 -73.007576 100.45170676 -50.94555664 92.35083008 C-49.7307814 91.90442673 -48.51600616 91.45802338 -47.26441956 90.99809265 C-44.98401852 90.16020825 -42.70331198 89.32315459 -40.42222595 88.48713684 C-32.91977156 85.73039789 -25.45288663 82.88797933 -18 80 C-19.51350397 63.28297529 -30.00924098 54.82588373 -41.81689453 44.10620117 C-44 42 -44 42 -46 39 C-45.58947931 28.82150161 -37.90506188 20.50708099 -30.875 13.6875 C-23.25578919 7.08274502 -10.43674053 -1.91340243 0 0 Z " fill="#F7BD02" transform="translate(147,89)"/>
<path d="M0 0 C9.36822994 8.41522382 14.04402708 20.41575778 15.12109375 32.7421875 C15.63856121 45.2808222 11.23028783 57.396979 3.28515625 67.015625 C-4.72958842 75.37909236 -14.4575091 79.6209824 -25.27734375 83.265625 C-26.42009766 83.66330078 -27.56285156 84.06097656 -28.74023438 84.47070312 C-31.51935597 85.4358374 -34.30218679 86.3879929 -37.08984375 87.328125 C-36.09984375 90.793125 -36.09984375 90.793125 -35.08984375 94.328125 C-29.64484375 95.318125 -29.64484375 95.318125 -24.08984375 96.328125 C-23.31640625 94.91080078 -23.31640625 94.91080078 -22.52734375 93.46484375 C-19.53774567 89.61765264 -17.78427478 89.18220188 -13.08984375 88.140625 C-12.43209961 87.98754883 -11.77435547 87.83447266 -11.09667969 87.67675781 C-9.75076706 87.36416294 -8.40273144 87.06056916 -7.05273438 86.76611328 C-4.12851288 86.11361908 -1.23773209 85.33793719 1.66015625 84.578125 C4.59341856 83.82477348 6.8737538 83.328125 9.91015625 83.328125 C8.32856255 88.41887972 5.2150265 92.06799598 1.91015625 96.140625 C1.36359375 96.83349609 0.81703125 97.52636719 0.25390625 98.24023438 C-0.27203125 98.89443359 -0.79796875 99.54863281 -1.33984375 100.22265625 C-1.819375 100.81925049 -2.29890625 101.41584473 -2.79296875 102.03051758 C-3.2209375 102.45872803 -3.64890625 102.88693848 -4.08984375 103.328125 C-4.74984375 103.328125 -5.40984375 103.328125 -6.08984375 103.328125 C-6.37496826 103.92101318 -6.66009277 104.51390137 -6.95385742 105.12475586 C-11.43354766 113.81360272 -18.77407666 117.22054143 -27.19506836 121.26489258 C-29.29063411 122.27201229 -31.3732476 123.30271952 -33.45507812 124.33789062 C-34.78447438 124.99097317 -36.11453016 125.64271528 -37.4453125 126.29296875 C-38.0672197 126.59911606 -38.68912689 126.90526337 -39.32987976 127.22068787 C-42.12589051 128.55710972 -43.94654437 129.328125 -47.08984375 129.328125 C-46.93837891 129.92238281 -46.78691406 130.51664063 -46.63085938 131.12890625 C-45.94075023 133.85961507 -45.26522631 136.5937383 -44.58984375 139.328125 C-44.23212891 140.72998047 -44.23212891 140.72998047 -43.8671875 142.16015625 C-42.5085822 147.71102935 -41.82033898 152.61462379 -42.08984375 158.328125 C-57.29108873 166.2224346 -57.29108873 166.2224346 -64.08984375 164.328125 C-71.10458601 160.87430152 -75.46333744 154.39165221 -80.08984375 148.328125 C-81.56152773 146.50954408 -83.04085351 144.69712356 -84.52734375 142.890625 C-85.28015625 141.97152344 -86.03296875 141.05242187 -86.80859375 140.10546875 C-88.30570863 138.28278265 -89.8056197 136.46238895 -91.30859375 134.64453125 C-95.41371196 129.66490722 -99.47459015 124.65024571 -103.46484375 119.578125 C-104.27695313 118.55203125 -105.0890625 117.5259375 -105.92578125 116.46875 C-108.17730652 113.20119347 -109.5384034 109.96883836 -111.08984375 106.328125 C-112.96465165 103.59247367 -112.96465165 103.59247367 -115.15234375 101.078125 C-115.93609375 100.14871094 -116.71984375 99.21929687 -117.52734375 98.26171875 C-121.64309091 93.54994114 -125.83785011 88.91743755 -130.08984375 84.328125 C-125.33137864 79.33548345 -120.01687446 75.16043545 -114.62109375 70.88085938 C-113.925 70.32333984 -113.22890625 69.76582031 -112.51171875 69.19140625 C-111.56184082 68.43790894 -111.56184082 68.43790894 -110.59277344 67.66918945 C-108.9619065 66.38027022 -108.9619065 66.38027022 -108.08984375 64.328125 C-107.42984375 64.328125 -106.76984375 64.328125 -106.08984375 64.328125 C-106.29480469 63.74804688 -106.49976563 63.16796875 -106.7109375 62.5703125 C-106.98035156 61.78914063 -107.24976563 61.00796875 -107.52734375 60.203125 C-107.79417969 59.43742187 -108.06101563 58.67171875 -108.3359375 57.8828125 C-112.41000055 44.07743824 -110.20427225 30.214894 -103.52734375 17.67578125 C-94.21073582 2.46034276 -78.71477328 -2.52095142 -62.32397461 -6.76391602 C-60.02646529 -7.35960276 -57.73289365 -7.96893489 -55.43945312 -8.58007812 C-53.95724437 -8.96956196 -52.47482906 -9.35826073 -50.9921875 -9.74609375 C-49.98091042 -10.01482552 -49.98091042 -10.01482552 -48.94920349 -10.28898621 C-30.59018852 -15.00387149 -14.74643504 -11.79714803 0 0 Z " fill="#68003C" transform="translate(332.08984375,67.671875)"/>
<path d="M0 0 C0.33 0.33 0.66 0.66 1 1 C0.61353962 10.31572907 -2.53718771 19.03718934 -5.28515625 27.87255859 C-5.92120917 29.9278284 -6.54324537 31.98696094 -7.1640625 34.046875 C-7.72794678 35.86977051 -7.72794678 35.86977051 -8.30322266 37.72949219 C-9.00410635 41.01927422 -9.05006125 42.83730724 -8 46 C-6.02595064 48.6031712 -6.02595064 48.6031712 -3.5 51.125 C1.60930756 56.54727084 6.33855386 62.18572309 11 68 C11.76054687 68.9384375 12.52109375 69.876875 13.3046875 70.84375 C18.87874904 77.74685824 20.77568875 81.030099 20 90 C19.07118988 94.32930993 17.76686186 98.51031257 16.421875 102.7265625 C15.8701059 104.50805191 15.8701059 104.50805191 15.30718994 106.32553101 C14.53033125 108.82360326 13.7466579 111.31956541 12.95654297 113.81347656 C11.7529428 117.61570356 10.57212406 121.42402462 9.39453125 125.234375 C8.63413651 127.66968463 7.87246066 130.1045947 7.109375 132.5390625 C6.75816589 133.66945953 6.40695679 134.79985657 6.04510498 135.96450806 C1.37991246 150.62008754 1.37991246 150.62008754 -3 155 C-7.05261287 155.34490322 -8.54754176 155.30163882 -12 153 C-12.804375 154.2065625 -12.804375 154.2065625 -13.625 155.4375 C-16 158 -16 158 -19.0625 159 C-20.031875 159 -21.00125 159 -22 159 C-22.45375 158.49339844 -22.9075 157.98679687 -23.375 157.46484375 C-24.92529051 155.72844103 -24.92529051 155.72844103 -27.33984375 156.06640625 C-28.19707031 156.23011719 -29.05429687 156.39382813 -29.9375 156.5625 C-34.69476225 157.1935654 -34.69476225 157.1935654 -37.5625 155.375 C-39.08612933 152.85769937 -39.67647127 150.91175861 -40 148 C-40.7425 148.103125 -41.485 148.20625 -42.25 148.3125 C-45 148 -45 148 -47.3125 146.1875 C-49.82995286 141.43231126 -49.73223428 137.28618549 -49 132 C-47.35530364 127.38568384 -45.18413727 123.09768241 -42.9375 118.75 C-38.22604919 110.66266084 -38.22604919 110.66266084 -37.12890625 101.703125 C-37.41636719 100.81109375 -37.70382812 99.9190625 -38 99 C-38.99 98.67 -39.98 98.34 -41 98 C-41.08121094 97.33613281 -41.16242188 96.67226562 -41.24609375 95.98828125 C-42.2483329 92.01567529 -44.08699351 88.75400797 -46.0625 85.1875 C-48.0115625 81.6296875 -48.0115625 81.6296875 -50 78 C-50.66 86.25 -51.32 94.5 -52 103 C-50.68 102.34 -49.36 101.68 -48 101 C-47.01 101.33 -46.02 101.66 -45 102 C-46.134375 102.474375 -47.26875 102.94875 -48.4375 103.4375 C-50.43310922 104.45285797 -50.43310922 104.45285797 -52 106 C-52.59850649 108.32990025 -52.68643229 110.4759568 -52.79296875 112.875 C-53 115 -53 115 -54.5 117.5 C-58.19247055 119.71548233 -61.70882206 120.34544366 -66 120 C-68.875 118.1875 -68.875 118.1875 -71 116 C-72.485 115.01 -72.485 115.01 -74 114 C-73.34 114 -72.68 114 -72 114 C-72.81864279 111.81566017 -72.81864279 111.81566017 -75.02416992 111.16552734 C-75.91724854 110.8917627 -76.81032715 110.61799805 -77.73046875 110.3359375 C-79.25474487 109.86559082 -79.25474487 109.86559082 -80.80981445 109.38574219 C-82.4817688 108.8854248 -82.4817688 108.8854248 -84.1875 108.375 C-85.33629639 108.02598633 -86.48509277 107.67697266 -87.66870117 107.31738281 C-97.88904988 104.25120958 -108.17972923 101.47274067 -118.5065918 98.79052734 C-119.68648682 98.48324707 -120.86638184 98.1759668 -122.08203125 97.859375 C-123.80800537 97.41561523 -123.80800537 97.41561523 -125.56884766 96.96289062 C-127.88913479 96.31174416 -130.18758939 95.5781484 -132.45849609 94.77148438 C-138.58950927 92.5976564 -142.75258529 91.21099821 -148.85986328 93.89697266 C-149.5661084 94.26097168 -150.27235352 94.6249707 -151 95 C-151.77456543 95.36528809 -152.54913086 95.73057617 -153.34716797 96.10693359 C-155.73573439 97.256732 -158.08764944 98.4607254 -160.4375 99.6875 C-162.01768776 100.50746871 -163.59963607 101.32405639 -165.18359375 102.13671875 C-165.86993896 102.49467529 -166.55628418 102.85263184 -167.26342773 103.22143555 C-169 104 -169 104 -171 104 C-172.0082688 99.33507636 -173.00726945 94.66825489 -174 90 C-174.21269531 89.00484375 -174.42539062 88.0096875 -174.64453125 86.984375 C-174.82371094 86.12328125 -175.00289063 85.2621875 -175.1875 84.375 C-175.34605469 83.61960937 -175.50460937 82.86421875 -175.66796875 82.0859375 C-176 80 -176 80 -176 76 C-175.04130005 75.54729736 -175.04130005 75.54729736 -174.06323242 75.08544922 C-171.10306454 73.68530128 -168.14528458 72.2801752 -165.1875 70.875 C-164.18267578 70.400625 -163.17785156 69.92625 -162.14257812 69.4375 C-157.05131873 67.01464987 -151.98897815 64.53872979 -146.98828125 61.93359375 C-146.12372314 61.48556396 -145.25916504 61.03753418 -144.3684082 60.57592773 C-140.89183954 58.26263522 -138.74015611 55.29218299 -136.4375 51.85546875 C-135 50 -135 50 -132 49 C-129.51325989 49.41123962 -129.51325989 49.41123962 -126.51879883 50.17163086 C-125.39786331 50.45199692 -124.2769278 50.73236298 -123.12202454 51.02122498 C-121.91257675 51.33261917 -120.70312897 51.64401337 -119.45703125 51.96484375 C-118.21829758 52.27700333 -116.9795639 52.5891629 -115.70329285 52.91078186 C-112.41215238 53.74171266 -109.12298213 54.57972687 -105.83453369 55.42120361 C-102.47778538 56.27829963 -99.11868318 57.12606244 -95.75976562 57.97460938 C-89.17096923 59.64112907 -82.5846112 61.31702481 -76 63 C-75.36762643 61.42869982 -74.73622648 59.85700778 -74.10522461 58.28515625 C-73.75350693 57.40996338 -73.40178925 56.53477051 -73.03941345 55.63305664 C-70.31146188 48.72257171 -68.532347 42.41606554 -67.9375 35 C-67.82136353 33.74521851 -67.82136353 33.74521851 -67.70288086 32.46508789 C-67.24528748 27.39646774 -66.88059794 22.32373139 -66.5390625 17.24609375 C-66.45922119 16.11494141 -66.37937988 14.98378906 -66.29711914 13.81835938 C-66.14266397 11.59266193 -66.00088644 9.36604254 -65.87280273 7.13867188 C-65.80262939 6.12224609 -65.73245605 5.10582031 -65.66015625 4.05859375 C-65.60480713 3.15423584 -65.54945801 2.24987793 -65.49243164 1.31811523 C-64.91095012 -1.41920108 -64.21388979 -2.32925638 -62 -4 C-43.36777312 -10.449617 -17.63101839 -8.87547865 0 0 Z " fill="#E57501" transform="translate(461,121)"/>
<path d="M0 0 C3.9325308 3.95065306 6.58193609 8.79947819 8.5625 13.96875 C10.36710707 18.2677501 12.10060794 22.24392284 16 25 C20.92269122 26.16666618 25.89916662 25.80443544 30.92236328 25.64599609 C42.81781836 25.47440203 51.32604992 29.9804509 61.52978516 35.65234375 C64.92993636 37.50733828 68.40529022 39.09896025 71.9375 40.6875 C72.93652344 41.14511719 73.93554688 41.60273438 74.96484375 42.07421875 C75.63644531 42.37972656 76.30804688 42.68523437 77 43 C75.66128789 46.07879011 74.31685845 47.83183489 71.6640625 49.875 C71.01179688 50.38546875 70.35953125 50.8959375 69.6875 51.421875 C69.006875 51.94265625 68.32625 52.4634375 67.625 53 C61.54222463 57.69055107 61.54222463 57.69055107 56 63 C57.16015625 64.23363281 57.16015625 64.23363281 58.34375 65.4921875 C75.18731245 83.49550618 75.18731245 83.49550618 77.875 90.375 C80.41594122 96.86722138 85.43296228 101.84900898 90 107 C88 108 88 108 84.875 106.96875 C83.58290792 106.4802905 82.2912657 105.99063991 81 105.5 C74.69006665 103.22059066 69.66187085 102.41682599 63 104 C62.938125 104.7425 62.87625 105.485 62.8125 106.25 C61.70510664 109.99810061 60.34169044 111.0092057 57 113 C55.06640625 113.29296875 55.06640625 113.29296875 53 113.4375 C49.44241385 113.69977951 49.01819209 113.98451737 46.0625 116.5 C45.381875 117.325 44.70125 118.15 44 119 C43.67 119.33 43.34 119.66 43 120 C41.29064396 119.91423646 39.5823897 119.80613334 37.875 119.6875 C33.70298064 119.56691606 33.70298064 119.56691606 30.06640625 121.33203125 C29.26009766 122.15767578 29.26009766 122.15767578 28.4375 123 C25.65820917 125.81937675 23.91269809 126.49485959 19.9375 126.625 C12.01705028 126.08660085 6.99826745 120.70762855 2 115 C-0.49100451 111.76386969 -2.76996384 108.42007866 -5 105 C-5.50402344 104.24074219 -6.00804687 103.48148437 -6.52734375 102.69921875 C-9.65462841 97.76358381 -12.22459486 92.62970645 -14.625 87.3125 C-14.90214844 86.71421387 -15.17929688 86.11592773 -15.46484375 85.49951172 C-16.91126748 82.18936074 -17.97804803 79.10670805 -18.70947266 75.55126953 C-20.9145238 65.05757672 -25.26209559 59.34438748 -33.125 52.25 C-34.65215283 50.81796228 -36.17143822 49.37791202 -37.69039917 47.93719482 C-39.05382338 46.65255009 -40.43487055 45.38668385 -41.81689453 44.12207031 C-44 42 -44 42 -46 39 C-45.58947931 28.82150161 -37.90506188 20.50708099 -30.875 13.6875 C-23.25578919 7.08274502 -10.43674053 -1.91340243 0 0 Z " fill="#E67500" transform="translate(147,89)"/>
<path d="M0 0 C3.78206537 3.34229032 6.29652533 5.89030119 7.10546875 11.03125 C7.33589866 15.66475948 7.41254364 18.41538342 4.5625 22.1875 C3.04005207 23.3458843 1.51648786 24.50286687 -0.015625 25.6484375 C-1.79263437 27.15142206 -3.05150113 28.41310046 -4.3125 30.375 C-4.4741202 32.60604338 -4.4741202 32.60604338 -4.07885742 34.99682617 C-3.90524185 36.32790909 -3.90524185 36.32790909 -3.7281189 37.68588257 C-3.10508448 41.71700995 -2.43411539 45.73028728 -1.67578125 49.73828125 C-1.51571594 50.601082 -1.35565063 51.46388275 -1.19073486 52.35282898 C-0.67345732 55.13194231 -0.1496408 57.90976806 0.375 60.6875 C0.73511684 62.60872219 1.09522419 64.52994617 1.45532227 66.45117188 C5.49538742 91.18940568 5.49538742 91.18940568 11.6875 115.375 C11.81531786 118.04894964 11.73141871 120.69595857 11.6875 123.375 C-3.51374498 131.2693096 -3.51374498 131.2693096 -10.3125 129.375 C-17.32724226 125.92117652 -21.68599369 119.43852721 -26.3125 113.375 C-27.78418398 111.55641908 -29.26350976 109.74399856 -30.75 107.9375 C-31.5028125 107.01839844 -32.255625 106.09929687 -33.03125 105.15234375 C-34.52836488 103.32965765 -36.02827595 101.50926395 -37.53125 99.69140625 C-41.63636821 94.71178222 -45.6972464 89.69712071 -49.6875 84.625 C-50.49960938 83.59890625 -51.31171875 82.5728125 -52.1484375 81.515625 C-54.39996277 78.24806847 -55.76105965 75.01571336 -57.3125 71.375 C-59.1873079 68.63934867 -59.1873079 68.63934867 -61.375 66.125 C-62.15875 65.19558594 -62.9425 64.26617187 -63.75 63.30859375 C-67.86574716 58.59681614 -72.06050636 53.96431255 -76.3125 49.375 C-72.2314692 45.10192069 -67.80266673 41.43204559 -63.1875 37.75 C-61.76695795 36.61356636 -60.34764013 35.47560036 -58.9296875 34.3359375 C-58.30690918 33.83884277 -57.68413086 33.34174805 -57.04248047 32.82958984 C-55.36829846 31.42191606 -53.85453845 29.92413372 -52.3125 28.375 C-50.45233808 26.91835012 -48.57473527 25.48389871 -46.6875 24.0625 C-40.42024949 19.30644366 -34.34775029 14.33392922 -28.31396484 9.28588867 C-10.79676409 -5.29652578 -10.79676409 -5.29652578 0 0 Z " fill="#2350F9" transform="translate(278.3125,102.625)"/>
<path d="M0 0 C2.01515065 0.53280629 4.03209146 1.05888881 6.05078125 1.578125 C19.60501513 5.18142102 33.06382187 9.01797809 46.4453125 13.21899414 C48.2246265 13.76295682 50.01195608 14.28108912 51.8046875 14.77905273 C52.70445312 15.03114502 53.60421875 15.2832373 54.53125 15.54296875 C55.34142578 15.76235107 56.15160156 15.9817334 56.98632812 16.20776367 C59 17 59 17 61 19.5625 C61.495 20.7690625 61.495 20.7690625 62 22 C62.99 22.99 62.99 22.99 64 24 C64.41064453 26.90039062 64.41064453 26.90039062 64.6328125 30.65625 C64.67446533 31.33890427 64.71611816 32.02155853 64.7590332 32.72489929 C64.8921364 34.98278903 65.00947113 37.24114716 65.125 39.5 C65.18853668 40.65334335 65.18853668 40.65334335 65.25335693 41.82998657 C66.18593591 58.88629549 66.21123342 75.92421505 66 93 C60.93181333 95.57113315 55.85975895 98.13440557 50.78393555 100.69042969 C49.057259 101.56131761 47.33166492 102.43435513 45.60717773 103.30957031 C43.13024888 104.56620031 40.64954788 105.81508377 38.16796875 107.0625 C37.39599655 107.45622803 36.62402435 107.84995605 35.82865906 108.25561523 C35.10813858 108.61598877 34.3876181 108.9763623 33.64526367 109.34765625 C33.01238937 109.66742432 32.37951508 109.98719238 31.72746277 110.31665039 C30 111 30 111 27 111 C26.73685438 103.25391521 26.47592067 95.5077592 26.21769714 87.76150894 C26.0976859 84.16339772 25.97695462 80.56531385 25.85449219 76.96728516 C25.73601272 73.48545755 25.6195364 70.00356784 25.50436401 66.52162933 C25.43923571 64.5676985 25.37211099 62.61383453 25.30493164 60.65997314 C25.05693631 53.10172926 24.95939681 45.56234486 25 38 C31.27 34.7 37.54 31.4 44 28 C41.6075 29.11375 39.215 30.2275 36.75 31.375 C36.00331055 31.72224121 35.25662109 32.06948242 34.48730469 32.42724609 C33.58866699 32.84611084 33.58866699 32.84611084 32.671875 33.2734375 C31.70217773 33.71961426 31.70217773 33.71961426 30.71289062 34.17480469 C28.89920697 35.01358121 28.89920697 35.01358121 26.890625 36.2890625 C24.02089211 37.36817693 21.96345416 36.6739986 19 36 C17.75347656 35.72542969 16.50695312 35.45085937 15.22265625 35.16796875 C13.83529009 34.84390511 12.44859737 34.51694831 11.0625 34.1875 C9.93835693 33.92138916 9.93835693 33.92138916 8.79150391 33.64990234 C2.9022817 32.24261092 -2.94945558 30.7158028 -8.79296875 29.12890625 C-12.0181521 28.25593024 -15.25131835 27.41805863 -18.48828125 26.58984375 C-29.76854324 23.69809157 -40.93381203 20.62983814 -52 17 C-49.83872056 14.83872056 -48.05416763 13.94737833 -45.30078125 12.64453125 C-43.86859253 11.96221436 -43.86859253 11.96221436 -42.4074707 11.26611328 C-40.32461542 10.28785972 -38.24110654 9.31099668 -36.15698242 8.33544922 C-29.28800417 5.1170679 -29.28800417 5.1170679 -22.5625 1.61328125 C-21.91756592 1.27256592 -21.27263184 0.93185059 -20.6081543 0.58081055 C-18.94140953 -0.30638262 -17.29210114 -1.2261234 -15.64453125 -2.1484375 C-10.00859339 -3.46530187 -5.44391175 -1.63737298 0 0 Z " fill="#FEFDFC" transform="translate(329,215)"/>
<path d="M0 0 C1.70670616 0.40602448 1.70670616 0.40602448 3.44789124 0.82025146 C4.68123703 1.1222345 5.91458282 1.42421753 7.18530273 1.73535156 C8.44527573 2.04039612 9.70524872 2.34544067 11.00340271 2.659729 C13.67196247 3.30725875 16.33905327 3.96049041 19.00537109 4.6171875 C22.42775243 5.45920034 25.85427313 6.28279471 29.28225803 7.10165024 C32.54449602 7.88448951 35.80206754 8.68601649 39.06030273 9.48535156 C40.91335777 9.92618073 40.91335777 9.92618073 42.80384827 10.37591553 C43.93850021 10.65920715 45.07315216 10.94249878 46.2421875 11.234375 C47.24653336 11.47943787 48.25087921 11.72450073 49.28565979 11.97698975 C50.0350029 12.2736554 50.78434601 12.57032104 51.55639648 12.87597656 C52.51410895 15.74911395 52.63418277 17.35451542 52.55639648 20.31738281 C52.48636106 27.21211989 53.1961333 34.00880527 53.84545898 40.86621094 C54.44793586 47.55800764 54.6755511 54.15780749 54.55639648 60.87597656 C47.62413421 59.6329119 41.01122967 57.88945721 34.30639648 55.75097656 C24.8020163 52.78627106 15.24149264 50.1106691 5.61889648 47.56347656 C3.70898926 47.0576001 3.70898926 47.0576001 1.76049805 46.54150391 C-0.62009062 45.91451629 -3.00408991 45.30028638 -5.3918457 44.70117188 C-8.44360352 43.87597656 -8.44360352 43.87597656 -10.64379883 42.99609375 C-15.36718207 41.18698136 -18.23860698 42.35002609 -22.62329102 44.30566406 C-24.8671743 45.43025179 -27.09880776 46.57956009 -29.31860352 47.75097656 C-31.56464501 48.89686425 -33.81197492 50.0402312 -36.06079102 51.18066406 C-37.53974854 51.95385986 -37.53974854 51.95385986 -39.04858398 52.74267578 C-41.44360352 53.87597656 -41.44360352 53.87597656 -43.44360352 53.87597656 C-44.45187231 49.21105292 -45.45087296 44.54423145 -46.44360352 39.87597656 C-46.65629883 38.88082031 -46.86899414 37.88566406 -47.08813477 36.86035156 C-47.26731445 35.99925781 -47.44649414 35.13816406 -47.63110352 34.25097656 C-47.7896582 33.49558594 -47.94821289 32.74019531 -48.11157227 31.96191406 C-48.44360352 29.87597656 -48.44360352 29.87597656 -48.44360352 25.87597656 C-47.80447021 25.5741748 -47.16533691 25.27237305 -46.50683594 24.96142578 C-43.54666805 23.56127785 -40.5888881 22.15615176 -37.63110352 20.75097656 C-36.6262793 20.27660156 -35.62145508 19.80222656 -34.58618164 19.31347656 C-20.97185133 13.66559271 -20.97185133 13.66559271 -10.38110352 4.06347656 C-6.9954306 -0.87844699 -5.90715312 -1.42151646 0 0 Z " fill="#FCC501" transform="translate(333.443603515625,171.1240234375)"/>
<path d="M0 0 C9.36822994 8.41522382 14.04402708 20.41575778 15.12109375 32.7421875 C15.63856121 45.2808222 11.23028783 57.396979 3.28515625 67.015625 C-4.677237 75.32746803 -14.41947788 79.63850425 -25.15234375 83.328125 C-26.27833984 83.73417969 -27.40433594 84.14023438 -28.56445312 84.55859375 C-34.6488106 86.70257059 -34.6488106 86.70257059 -37.08984375 87.328125 C-37.74984375 86.998125 -38.40984375 86.668125 -39.08984375 86.328125 C-38.74961507 83.46138331 -38.27722957 82.48930552 -36.05078125 80.57421875 C-35.19742188 79.97738281 -34.3440625 79.38054687 -33.46484375 78.765625 C-24.46697601 71.86597248 -18.62800892 61.5461227 -17.08984375 50.328125 C-16.09068562 36.26854275 -17.73749005 24.47254337 -27.21484375 13.3203125 C-36.67548621 3.26837989 -47.55049612 -2.69299735 -61.46484375 -3.296875 C-62.20089844 -3.33554688 -62.93695313 -3.37421875 -63.6953125 -3.4140625 C-65.49311781 -3.50745498 -67.29144483 -3.5907121 -69.08984375 -3.671875 C-64.40949115 -6.18287201 -59.4428895 -7.35453829 -54.33984375 -8.734375 C-53.375625 -9.00314453 -52.41140625 -9.27191406 -51.41796875 -9.54882812 C-32.16177882 -14.79457008 -15.75436309 -12.60349047 0 0 Z " fill="#E77600" transform="translate(332.08984375,67.671875)"/>
<path d="M0 0 C4.59668411 3.33484925 8.36587788 6.84763363 10.1875 12.3125 C10.42578125 14.3984375 10.42578125 14.3984375 10.5 16.6875 C10.55607422 17.81285156 10.55607422 17.81285156 10.61328125 18.9609375 C9.99541192 22.37339011 8.58302465 23.79201587 6.1875 26.3125 C3.49624545 28.03230197 0.66093747 29.38046014 -2.2265625 30.73828125 C-3.03741302 31.13073532 -3.84826355 31.52318939 -4.6836853 31.92753601 C-6.39050513 32.7508651 -8.10018341 33.56829161 -9.8125 34.38012695 C-12.44120413 35.62675664 -15.06095424 36.89078136 -17.6796875 38.15820312 C-19.34065557 38.9567497 -21.00209792 39.75431072 -22.6640625 40.55078125 C-23.45052155 40.92882401 -24.23698059 41.30686676 -25.04727173 41.69636536 C-30.57772748 44.3125 -30.57772748 44.3125 -32.8125 44.3125 C-33.8207688 39.64757636 -34.81976945 34.98075489 -35.8125 30.3125 C-36.02519531 29.31734375 -36.23789062 28.3221875 -36.45703125 27.296875 C-36.63621094 26.43578125 -36.81539063 25.5746875 -37 24.6875 C-37.15855469 23.93210938 -37.31710937 23.17671875 -37.48046875 22.3984375 C-37.8125 20.3125 -37.8125 20.3125 -37.8125 16.3125 C-37.1733667 16.01069824 -36.5342334 15.70889648 -35.87573242 15.39794922 C-32.91556454 13.99780128 -29.95778458 12.5926752 -27 11.1875 C-25.99517578 10.713125 -24.99035156 10.23875 -23.95507812 9.75 C-17.86634385 6.85246729 -11.97049353 3.78109736 -6.16259766 0.35131836 C-3.8125 -0.6875 -3.8125 -0.6875 0 0 Z " fill="#E67703" transform="translate(322.8125,180.6875)"/>
<path d="M0 0 C-1.5815937 5.09075472 -4.69512975 8.73987098 -8 12.8125 C-8.81984375 13.85180664 -8.81984375 13.85180664 -9.65625 14.91210938 C-10.1821875 15.56630859 -10.708125 16.22050781 -11.25 16.89453125 C-11.72953125 17.49112549 -12.2090625 18.08771973 -12.703125 18.70239258 C-13.13109375 19.13060303 -13.5590625 19.55881348 -14 20 C-14.66 20 -15.32 20 -16 20 C-16.28512451 20.59296875 -16.57024902 21.1859375 -16.86401367 21.796875 C-21.33948239 30.47657191 -28.69792965 33.92902013 -37.10522461 37.99169922 C-39.20232239 39.00717745 -41.28391558 40.05027662 -43.36523438 41.09765625 C-44.69449491 41.75426194 -46.02454642 42.40926931 -47.35546875 43.0625 C-48.28832954 43.52946289 -48.28832954 43.52946289 -49.24003601 44.00585938 C-53.65293759 46.11568747 -53.65293759 46.11568747 -57 45 C-56.65332275 44.55309814 -56.30664551 44.10619629 -55.94946289 43.64575195 C-47.27179117 32.44163379 -47.27179117 32.44163379 -39 20.9375 C-38.28070313 19.90625 -37.56140625 18.875 -36.8203125 17.8125 C-34.99191516 15.13026982 -34.99191516 15.13026982 -33.8671875 12.5625 C-32.06669337 8.70632359 -30.84031719 7.33081746 -26.78515625 5.734375 C-23.51214623 4.84385045 -20.26889324 4.07407326 -16.94677734 3.40576172 C-14.01959556 2.79565686 -11.14022987 2.0139219 -8.25 1.25 C-5.31673769 0.49664848 -3.03640245 0 0 0 Z " fill="#2550F7" transform="translate(342,151)"/>
<path d="M0 0 C4.41309542 3.15221101 7.00793014 6.55463907 10 11 C6.14507389 12.28497537 4.59653164 11.4052209 0.8125 10.0625 C-0.27417969 9.68222656 -1.36085937 9.30195313 -2.48046875 8.91015625 C-3.31191406 8.60980469 -4.14335937 8.30945313 -5 8 C-3.35 5.36 -1.7 2.72 0 0 Z " fill="#F8C104" transform="translate(224,182)"/>
<path d="M0 0 C1.258125 0.12375 2.51625 0.2475 3.8125 0.375 C4.87404297 0.47941406 4.87404297 0.47941406 5.95703125 0.5859375 C8 1 8 1 11 3 C8.69 5.97 6.38 8.94 4 12 C2.09681116 9.14521674 1.5380901 7.58058692 0.875 4.3125 C0.70742188 3.50425781 0.53984375 2.69601563 0.3671875 1.86328125 C0.24601562 1.24839844 0.12484375 0.63351563 0 0 Z " fill="#F8C304" transform="translate(297,163)"/>
<path d="M0 0 C8.57142857 -0.28571429 8.57142857 -0.28571429 12 2 C6.25 7 6.25 7 4 7 C0 2.52941176 0 2.52941176 0 0 Z " fill="#F8BE03" transform="translate(197,144)"/>
</svg>
