<?xml version="1.0" encoding="UTF-8"?>
<svg version="1.1" xmlns="http://www.w3.org/2000/svg" width="512" height="512">
<path d="M0 0 C122.43 0 244.86 0 371 0 C371 55.77 371 111.54 371 169 C382.88 169 394.76 169 407 169 C410.25657319 176.81577566 413.34823399 184.52958719 416.1171875 192.5078125 C416.49150406 193.57653091 416.86582062 194.64524933 417.2514801 195.74635315 C418.04984066 198.02669679 418.84666674 200.30757817 419.64205933 202.58895874 C421.74238354 208.61263307 423.85434357 214.63222888 425.96484375 220.65234375 C426.38868851 221.86229507 426.81253326 223.0722464 427.2492218 224.31886292 C431.27016079 235.79006356 435.34320579 247.24230594 439.4375 258.6875 C439.74596863 259.55046692 440.05443726 260.41343384 440.37225342 261.30255127 C441.24631001 263.74747346 442.12098607 266.19217259 442.99609375 268.63671875 C443.24323624 269.32721817 443.49037872 270.01771759 443.74501038 270.72914124 C443.98440842 271.39691086 444.22380646 272.06468048 444.47045898 272.75268555 C444.70862335 273.43444351 444.94678772 274.11620148 445.19216919 274.81861877 C445.76636437 276.36911495 446.3961185 277.89952408 447.06246948 279.41270447 C450.44240856 287.47783145 450.5191261 295.13867635 450.390625 303.73046875 C450.38314634 305.21689587 450.37746111 306.70333298 450.37347412 308.18977356 C450.35834521 312.06479057 450.31917742 315.93918895 450.2746582 319.81396484 C450.22615253 324.48299631 450.20811057 329.15223693 450.18484497 333.82144928 C450.14631505 340.88139383 450.06957583 347.93998635 450 355 C438.78 355 427.56 355 416 355 C416 357.31 416 359.62 416 362 C413.99607699 371.03867372 408.08409182 378.75451825 400.33203125 383.703125 C390.79295229 388.60652157 380.71829355 389.8235749 370.3125 386.5625 C360.5284124 382.46915723 354.59325273 375.41845647 349.9609375 366.08984375 C349 363 349 363 349 355 C342.07 355 335.14 355 328 355 C328 357.64 328 360.28 328 363 C324.64910027 372.92995561 319.06625136 380.07826839 309.8125 384.875 C301.12589752 389.00626606 291.53433447 389.4525336 282.3125 386.5625 C273.13492669 382.74409359 266.8512769 376.15766707 262.83984375 367.1640625 C261.01945873 362.47339599 261 360.58201782 261 355 C235.59 355 210.18 355 184 355 C183.34 358.63 182.68 362.26 182 366 C177.86495169 375.64844606 172.33379059 381.45224571 162.8359375 386.046875 C154.35144116 389.31726268 144.92719714 389.03789356 136.37890625 386.1015625 C128.2985842 382.35993554 121.62131526 375.83838398 117.96875 367.703125 C116.28412837 363.05481717 116 360.17201968 116 355 C109.4 355 102.8 355 96 355 C95.67 357.97 95.34 360.94 95 364 C91.75690584 373.32874097 86.62656078 379.88756543 77.875 384.375 C68.85109081 388.66881939 59.88657164 389.6140708 50.25 386.375 C40.53070181 382.36141931 34.15114109 376.31302555 29.96484375 366.59765625 C28.45305457 362.37167812 28 359.62550574 28 355 C18.76 355 9.52 355 0 355 C0 237.85 0 120.7 0 0 Z " fill="#591164" transform="translate(31,62)"/>
<path d="M0 0 C63.03 0 126.06 0 191 0 C191 91.08 191 182.16 191 276 C127.97 276 64.94 276 0 276 C0 184.92 0 93.84 0 0 Z " fill="#E27303" transform="translate(43,97)"/>
<path d="M0 0 C72.27 0 144.54 0 219 0 C219 116.82 219 233.64 219 354 C222.63 354 226.26 354 230 354 C230 354.33 230 354.66 230 355 C214.82 355 199.64 355 184 355 C183.34 358.63 182.68 362.26 182 366 C177.86495169 375.64844606 172.33379059 381.45224571 162.8359375 386.046875 C154.35144116 389.31726268 144.92719714 389.03789356 136.37890625 386.1015625 C128.2985842 382.35993554 121.62131526 375.83838398 117.96875 367.703125 C116.28412837 363.05481717 116 360.17201968 116 355 C109.4 355 102.8 355 96 355 C95.67 357.97 95.34 360.94 95 364 C91.75690584 373.32874097 86.62656078 379.88756543 77.875 384.375 C68.85109081 388.66881939 59.88657164 389.6140708 50.25 386.375 C40.53070181 382.36141931 34.15114109 376.31302555 29.96484375 366.59765625 C28.45305457 362.37167812 28 359.62550574 28 355 C18.76 355 9.52 355 0 355 C0 237.85 0 120.7 0 0 Z M12 35 C12 126.08 12 217.16 12 311 C75.03 311 138.06 311 203 311 C203 219.92 203 128.84 203 35 C139.97 35 76.94 35 12 35 Z " fill="#2350F9" transform="translate(31,62)"/>
<path d="M0 0 C63.03 0 126.06 0 191 0 C191 91.08 191 182.16 191 276 C185.06 276 179.12 276 173 276 C173 261.81 173 247.62 173 233 C172.34 233 171.68 233 171 233 C171 218.81 171 204.62 171 190 C165.72 190 160.44 190 155 190 C155 176.14 155 162.28 155 148 C161.27 148 167.54 148 174 148 C174 131.17 174 114.34 174 97 C158.16 97 142.32 97 126 97 C126 113.83 126 130.66 126 148 C125.67 148 125.34 148 125 148 C125 131.17 125 114.34 125 97 C117.74 97 110.48 97 103 97 C103 91.39 103 85.78 103 80 C88.15 80 73.3 80 58 80 C58 94.19 58 108.38 58 123 C57.67 123 57.34 123 57 123 C57 108.81 57 94.62 57 80 C41.16 80.495 41.16 80.495 25 81 C25 94.86 25 108.72 25 123 C20.38 123 15.76 123 11 123 C11 139.83 11 156.66 11 174 C16.61 174 22.22 174 28 174 C28 190.83 28 207.66 28 225 C22.72 225 17.44 225 12 225 C12 241.83 12 258.66 12 276 C8.04 276 4.08 276 0 276 C0 184.92 0 93.84 0 0 Z " fill="#68013C" transform="translate(43,97)"/>
<path d="M0 0 C33 0 66 0 100 0 C100 0.33 100 0.66 100 1 C89.11 1 78.22 1 67 1 C68.52150766 8.96312567 68.52150766 8.96312567 70.76147461 16.52661133 C71.10107712 17.49814651 71.44067963 18.4696817 71.79057312 19.47065735 C72.34089958 21.01078743 72.34089958 21.01078743 72.90234375 22.58203125 C73.2923909 23.68778 73.68243805 24.79352875 74.08430481 25.93278503 C74.92550627 28.31525649 75.76944015 30.69676463 76.61584473 33.07739258 C77.73396666 36.23729791 78.8384353 39.40118949 79.93411446 42.56889534 C84.45467795 55.63333777 89.1259809 68.53864769 94.55078125 81.26171875 C109.38539435 116.7685068 110.22538286 148.16849135 108 186 C101.07 186 94.14 186 87 186 C87 188.64 87 191.28 87 194 C83.64910027 203.92995561 78.06625136 211.07826839 68.8125 215.875 C60.12589752 220.00626606 50.53433447 220.4525336 41.3125 217.5625 C32.13492669 213.74409359 25.8512769 207.15766707 21.83984375 198.1640625 C20.01945873 193.47339599 20 191.58201782 20 186 C13.4 186 6.8 186 0 186 C0 124.62 0 63.24 0 0 Z " fill="#234FF8" transform="translate(272,231)"/>
<path d="M0 0 C15.84 0 31.68 0 48 0 C48 16.83 48 33.66 48 51 C41.73 51 35.46 51 29 51 C29 64.86 29 78.72 29 93 C34.28 93 39.56 93 45 93 C45 107.19 45 121.38 45 136 C45.66 136 46.32 136 47 136 C47 150.19 47 164.38 47 179 C15.65 179 -15.7 179 -48 179 C-48 164.81 -48 150.62 -48 136 C-43.05 136 -38.1 136 -33 136 C-33 121.81 -33 107.62 -33 93 C-38.61 93 -44.22 93 -50 93 C-50 78.81 -50 64.62 -50 50 C-39.32812627 50 -28.65544281 50.40803095 -18 51 C-18 64.86 -18 78.72 -18 93 C-17.34 93 -16.68 93 -16 93 C-16 79.14 -16 65.28 -16 51 C-10.72 51 -5.44 51 0 51 C0 34.17 0 17.34 0 0 Z " fill="#E37802" transform="translate(169,194)"/>
<path d="M0 0 C28.38 0 56.76 0 86 0 C90.49968342 10.1242877 90.49968342 10.1242877 92.375 15.20532227 C92.79681046 16.34363495 93.21862091 17.48194763 93.6532135 18.65475464 C94.31987282 20.46727219 94.31987282 20.46727219 95 22.31640625 C95.47758231 23.60802285 95.95544836 24.89953457 96.43357849 26.19094849 C97.69904404 29.61095305 98.96109999 33.0322056 100.22236252 36.45376205 C102.29581311 42.07638704 104.37498408 47.69690204 106.45336723 53.31770515 C106.96591363 54.70401361 107.47833064 56.09036992 107.99061775 57.47677422 C111.02758758 65.69543457 114.08021524 73.90768778 117.18359375 82.1015625 C117.4750528 82.87207443 117.76651184 83.64258636 118.06680298 84.43644714 C119.33817699 87.7948713 120.61500555 91.1510649 121.90039062 94.50415039 C122.32384766 95.62039795 122.74730469 96.73664551 123.18359375 97.88671875 C123.53993896 98.81701904 123.89628418 99.74731934 124.26342773 100.70581055 C125 103 125 103 125 106 C95.96 106 66.92 106 37 106 C29.31377703 84.71507484 21.63058007 63.42980763 14 42.125 C12.78616422 38.73773219 11.57221573 35.35050481 10.3581543 31.96331787 C9.5919775 29.82445424 8.82648806 27.68534422 8.06176758 25.54595947 C6.49690913 21.16866424 4.92877067 16.79306313 3.328125 12.42871094 C2.96811401 11.44123367 2.96811401 11.44123367 2.60083008 10.43380737 C1.99646098 8.77866019 1.38716727 7.1253133 0.77734375 5.47216797 C0 3 0 3 0 0 Z " fill="#67003C" transform="translate(349,240)"/>
<path d="M0 0 C16.83 0 33.66 0 51 0 C54.01040976 7.22498343 56.96209171 14.38419913 59.64453125 21.72265625 C60.1353846 23.05514404 60.1353846 23.05514404 60.63615417 24.41455078 C61.69727606 27.29634593 62.7549516 30.17939178 63.8125 33.0625 C65.31784988 37.15667742 66.8248348 41.25025205 68.33203125 45.34375 C68.71489288 46.38427017 69.09775452 47.42479034 69.49221802 48.49684143 C72.18499609 55.80830135 74.90356476 63.10979591 77.63671875 70.40625 C78.00650345 71.39459335 78.37628815 72.38293671 78.75727844 73.40122986 C80.90339207 79.13729965 80.90339207 79.13729965 83.05679321 84.87063599 C84.04117607 87.48674758 85.02100408 90.10452497 86 92.72265625 C86.29085983 93.4914209 86.58171967 94.26018555 86.88139343 95.05224609 C87.1474086 95.76598389 87.41342377 96.47972168 87.6875 97.21508789 C87.91824219 97.82912979 88.14898437 98.44317169 88.38671875 99.07582092 C89.10638543 101.33378587 89.53522852 103.67614259 90 106 C60.3 106 30.6 106 0 106 C0 71.02 0 36.04 0 0 Z " fill="#67003C" transform="translate(282,240)"/>
<path d="M0 0 C63.03 0 126.06 0 191 0 C191 12.54 191 25.08 191 38 C127.97 38 64.94 38 0 38 C0 25.46 0 12.92 0 0 Z " fill="#FCC400" transform="translate(43,97)"/>
<path d="M0 0 C10.67187373 0 21.34455719 0.40803095 32 1 C32 14.86 32 28.72 32 43 C32.66 43 33.32 43 34 43 C34 29.14 34 15.28 34 1 C48.52 1 63.04 1 78 1 C78 14.86 78 28.72 78 43 C68.43 43 58.86 43 49 43 C49 57.19 49 71.38 49 86 C46.36 86 43.72 86 41 86 C41 100.19 41 114.38 41 129 C28.13 129 15.26 129 2 129 C2 114.81 2 100.62 2 86 C6.95 86 11.9 86 17 86 C17 71.81 17 57.62 17 43 C11.39 43 5.78 43 0 43 C0 28.81 0 14.62 0 0 Z " fill="#FCC503" transform="translate(119,244)"/>
<path d="M0 0 C0 14.19 0 28.38 0 43 C-5.94 43.495 -5.94 43.495 -12 44 C-12 60.5 -12 77 -12 94 C-6.06 94.33 -0.12 94.66 6 95 C6 111.5 6 128 6 145 C-2.58 145.33 -11.16 145.66 -20 146 C-20 150.29 -20 154.58 -20 159 C-24.29 159 -28.58 159 -33 159 C-33 154.38 -33 149.76 -33 145 C-31.68 145 -30.36 145 -29 145 C-29 128.17 -29 111.34 -29 94 C-34.61 94 -40.22 94 -46 94 C-46 77.17 -46 60.34 -46 43 C-41.38 43 -36.76 43 -32 43 C-32 29.14 -32 15.28 -32 1 C-21.37195345 0.03381395 -10.67187373 0 0 0 Z " fill="#E67601" transform="translate(100,177)"/>
<path d="M0 0 C9.50321678 4.56731329 15.84953484 11.83409209 19.625 21.5625 C22.32768138 29.67054415 21.70839702 39.46473765 18.0625 47.125 C12.72513127 56.30676719 5.89967281 61.92200481 -4.296875 65.17578125 C-13.30739736 66.85255139 -22.32090738 65.98926795 -30.375 61.5625 C-38.65235567 55.74822012 -43.20835888 49.06242337 -46.375 39.5625 C-47.31329958 27.73377255 -45.55117649 18.70156136 -38.07421875 9.37890625 C-28.1253607 -1.25607994 -13.87982518 -4.79524864 0 0 Z " fill="#67003D" transform="translate(338.375,384.4375)"/>
<path d="M0 0 C7.18986411 4.35612312 11.75657713 12.07323919 14 20 C15.76707592 30.46959269 14.85617591 38.6620067 9.3125 47.75 C3.71731256 55.5256649 -3.73036846 59.79412511 -13 62 C-23.04348219 63.28830007 -31.95363735 61.00667778 -40.3125 55.3125 C-46.78264494 50.0356195 -51.6728922 42.29764488 -53 34 C-53.20732009 22.8876433 -51.15671919 13.6996953 -44.02734375 5.078125 C-31.90966853 -7.3430758 -14.84220671 -8.30703352 0 0 Z " fill="#67003D" transform="translate(112,388)"/>
<path d="M0 0 C3.63 0 7.26 0 11 0 C11 4.95 11 9.9 11 15 C16.61 15 22.22 15 28 15 C28 29.19 28 43.38 28 58 C23.05 58 18.1 58 13 58 C13 72.19 13 86.38 13 101 C3.43 101 -6.14 101 -16 101 C-16 84.5 -16 68 -16 51 C-8.08 50.505 -8.08 50.505 0 50 C0 33.5 0 17 0 0 Z " fill="#E87800" transform="translate(108,272)"/>
<path d="M0 0 C17.49 0 34.98 0 53 0 C53 13.86 53 27.72 53 42 C35.51 42 18.02 42 0 42 C0 28.14 0 14.28 0 0 Z " fill="#FDC500" transform="translate(162,331)"/>
<path d="M0 0 C24 0 24 0 34 1 C34 17.5 34 34 34 51 C25.42 51.33 16.84 51.66 8 52 C8 56.29 8 60.58 8 65 C3.71 65 -0.58 65 -5 65 C-5 60.38 -5 55.76 -5 51 C-3.35 51 -1.7 51 0 51 C0 34.17 0 17.34 0 0 Z " fill="#E77700" transform="translate(72,271)"/>
<path d="M0 0 C2.22990401 2.22990401 2.73921572 3.66427868 3.76147461 6.6184082 C4.10108215 7.59023544 4.4406897 8.56206268 4.79058838 9.56333923 C5.34090729 11.16587303 5.34090729 11.16587303 5.90234375 12.80078125 C6.4873465 14.48059837 6.4873465 14.48059837 7.08416748 16.1943512 C8.15130062 19.26035768 9.213586 22.32799592 10.27419662 25.39626312 C12.06209286 30.5613698 13.86482075 35.7213368 15.66546059 40.88201141 C16.1301033 42.21389413 16.59453708 43.54584974 17.05876732 44.87787628 C22.18133964 59.57498191 27.42043233 74.22908956 32.6875 88.875 C33.10240692 90.02900299 33.51731384 91.18300598 33.9447937 92.37197876 C34.34900543 93.49615204 34.75321716 94.62032532 35.16967773 95.77856445 C35.5555304 96.85170395 35.94138306 97.92484344 36.33892822 99.03050232 C37.05897788 101.03229063 37.7795284 103.03389888 38.50067139 105.03529358 C38.81715637 105.91422775 39.13364136 106.79316193 39.4597168 107.69873047 C39.73470505 108.46168427 40.0096933 109.22463806 40.29301453 110.01071167 C41.71769277 114.01941611 42.12176987 117.04497813 42.11352539 121.30737305 C42.11344986 122.60849533 42.11337433 123.90961761 42.11329651 125.25016785 C42.10818985 126.6706852 42.10297385 128.09120217 42.09765625 129.51171875 C42.09579091 130.96474662 42.09436756 132.41777511 42.09336853 133.87080383 C42.08955246 137.69306172 42.07972993 141.51528155 42.06866455 145.33752441 C42.05843087 149.23868291 42.05386671 153.13984757 42.04882812 157.04101562 C42.03810685 164.69402977 42.02051741 172.3470047 42 180 C49.59 180 57.18 180 65 180 C65.99 182.31 66.98 184.62 68 187 C71.77837894 189.51891929 73.566544 189.14179182 77.90625 188.54296875 C80.16831976 188.12916002 80.16831976 188.12916002 82 186.1875 C83.1884777 183.76392692 83.1884777 183.76392692 84 180 C91.92 180 99.84 180 108 180 C108 191.2943539 105.28639925 197.62382244 97.51171875 205.796875 C89.73964003 212.6140638 81.51142563 214.40074061 71.4453125 214.265625 C62.38190973 213.56685925 56.14866877 209.87795995 49.38671875 204 C42.36225032 195.1705536 40.1718056 187.37749055 40.8800087 176.19023323 C41.09987189 172.5600197 41.18266285 168.92503946 41.28881836 165.29003906 C41.31366302 164.52360612 41.33850769 163.75717318 41.36410522 162.96751499 C42.27308918 134.06439682 39.88468133 108.82915762 29.4375 81.75 C29.17986248 81.08164124 28.92222496 80.41328247 28.65678024 79.72467041 C26.11626671 73.1716011 23.48109908 66.65996782 20.77350521 60.17429543 C16.32225303 49.50908189 12.45290844 38.66302119 8.65408325 27.75183105 C7.65579696 24.90046417 6.63748625 22.05717251 5.61108398 19.21582031 C5.30133133 18.35363388 4.99157867 17.49144745 4.67243958 16.60313416 C4.10657754 15.02823472 3.53782266 13.45436986 2.96537781 11.8818512 C1.5611257 7.93741709 0.54307732 4.15368657 0 0 Z " fill="#650343" transform="translate(339,236)"/>
<path d="M0 0 C14.52 0 29.04 0 44 0 C44 13.86 44 27.72 44 42 C37.668125 42.185625 31.33625 42.37125 24.8125 42.5625 C22.8219458 42.62381104 20.8313916 42.68512207 18.78051758 42.74829102 C17.19353455 42.79227955 15.60653975 42.83584625 14.01953125 42.87890625 C13.20303101 42.90561401 12.38653076 42.93232178 11.54528809 42.95983887 C10.3584845 42.99047424 10.3584845 42.99047424 9.14770508 43.02172852 C8.12511345 43.05170677 8.12511345 43.05170677 7.0818634 43.08229065 C5 43 5 43 0 42 C0 28.14 0 14.28 0 0 Z " fill="#FCC400" transform="translate(153,245)"/>
<path d="M0 0 C14.52 0 29.04 0 44 0 C44 13.86 44 27.72 44 42 C29.48 42 14.96 42 0 42 C0 28.14 0 14.28 0 0 Z " fill="#FDC500" transform="translate(170,288)"/>
<path d="M0 0 C14.52 0 29.04 0 44 0 C44 5.28 44 10.56 44 16 C47.63 16 51.26 16 55 16 C55 20.62 55 25.24 55 30 C51.04 30 47.08 30 43 30 C43 25.38 43 20.76 43 16 C39.04 16 35.08 16 31 16 C31 24.58 31 33.16 31 42 C20.77 42 10.54 42 0 42 C0 28.14 0 14.28 0 0 Z " fill="#FCC400" transform="translate(102,178)"/>
<path d="M0 0 C7.92 0 15.84 0 24 0 C24.99 2.31 25.98 4.62 27 7 C30.25860909 9.17240606 30.82050803 9.23564158 34.5 8.8125 C35.2734375 8.73644531 36.046875 8.66039062 36.84375 8.58203125 C39.46091438 7.87558652 40.40883675 7.18784947 42 5 C42.33 3.35 42.66 1.7 43 0 C51.25 0 59.5 0 68 0 C66.85510511 10.30405403 64.28606614 19.7922454 55.99609375 26.66015625 C46.39180776 33.45832042 36.9839403 35.45792014 25.328125 33.56640625 C16.34059163 31.31952291 9.46268937 25.63634834 4.21875 18.10546875 C0.64904723 11.93857839 0 7.1849758 0 0 Z " fill="#67003D" transform="translate(147,416)"/>
<path d="M0 0 C0 14.19 0 28.38 0 43 C-6.93 43 -13.86 43 -21 43 C-21 47.62 -21 52.24 -21 57 C-25.29 57 -29.58 57 -34 57 C-34 52.38 -34 47.76 -34 43 C-33.34 43 -32.68 43 -32 43 C-32 29.14 -32 15.28 -32 1 C-21.37195345 0.03381395 -10.67187373 0 0 0 Z " fill="#FCC401" transform="translate(100,177)"/>
<path d="M0 0 C4.29 0 8.58 0 13 0 C13 3.96 13 7.92 13 12 C17.95 12 22.9 12 28 12 C28 8.37 28 4.74 28 1 C31.63 1 35.26 1 39 1 C39 14.86 39 28.72 39 43 C26.13 43 13.26 43 0 43 C0 28.81 0 14.62 0 0 Z " fill="#FCC400" transform="translate(121,330)"/>
<path d="M0 0 C0.68429077 -0.00095673 1.36858154 -0.00191345 2.0736084 -0.00289917 C3.52286877 -0.0035808 4.97213218 -0.00172773 6.42138672 0.00244141 C8.64687928 0.00778998 10.87217001 0.0024959 13.09765625 -0.00390625 C14.50260461 -0.00324547 15.90755285 -0.0019643 17.3125 0 C18.59962891 0.00112793 19.88675781 0.00225586 21.21289062 0.00341797 C24.15625 0.1328125 24.15625 0.1328125 25.15625 1.1328125 C25.25498816 3.13080822 25.28596799 5.13238408 25.28125 7.1328125 C25.28511719 8.7725 25.28511719 8.7725 25.2890625 10.4453125 C25.15625 13.1328125 25.15625 13.1328125 24.15625 14.1328125 C21.87677208 14.2330218 19.59417865 14.26362553 17.3125 14.265625 C16.62820923 14.26658173 15.94391846 14.26753845 15.2388916 14.26852417 C13.78963123 14.2692058 12.34036782 14.26735273 10.89111328 14.26318359 C8.66562072 14.25783502 6.44032999 14.2631291 4.21484375 14.26953125 C2.80989539 14.26887047 1.40494715 14.2675893 0 14.265625 C-1.28712891 14.26449707 -2.57425781 14.26336914 -3.90039062 14.26220703 C-6.84375 14.1328125 -6.84375 14.1328125 -7.84375 13.1328125 C-7.94248816 11.13481678 -7.97346799 9.13324092 -7.96875 7.1328125 C-7.97132813 6.0396875 -7.97390625 4.9465625 -7.9765625 3.8203125 C-7.71947793 -1.38186941 -4.52984172 0.00396957 0 0 Z " fill="#E4D2DD" transform="translate(423.84375,382.8671875)"/>
<path d="M0 0 C3.23690918 2.36394799 4.80256609 5.05231722 5.625 9 C4.75004681 13.19977529 2.99012644 14.93868007 0 18 C-2.82001327 19.41000664 -4.87007255 19.24548451 -8 19 C-10.80915461 17.72311154 -12.50106764 16.68900183 -14.3125 14.1875 C-15.25846855 11.17760008 -15.44072275 9.14801964 -15 6 C-11.10715843 -0.23722943 -7.16238802 -2.21855996 0 0 Z " fill="#F5C009" transform="translate(467,381)"/>
<path d="M0 0 C3.23690918 2.36394799 4.80256609 5.05231722 5.625 9 C4.75004681 13.19977529 2.99012644 14.93868007 0 18 C-3.33308719 19.6665436 -6.67547926 19.41627795 -10.1875 18.3125 C-13.57656241 15.85835136 -14.80764879 13.13006333 -15.5 9.0625 C-14.79589925 4.74988288 -13.03907145 3.11143029 -10 0 C-6.69632961 -1.65183519 -3.41266608 -1.05707821 0 0 Z " fill="#F9F5F7" transform="translate(98,407)"/>
<path d="M0 0 C2.86262257 2.00992648 4.64014872 3.43748788 5.4453125 6.93359375 C5.64769318 10.50223967 5.14571934 12.70222569 3.5625 15.9375 C-0.05901976 18.85238176 -3.39406378 19.44335215 -8 19 C-10.92143417 17.23496686 -12.47923817 16.04152365 -14 13 C-14.70153846 5.86769231 -14.70153846 5.86769231 -11.625 2.0625 C-7.32198817 -1.31843787 -5.37649402 -1.27577824 0 0 Z " fill="#FAF7F8" transform="translate(330,407)"/>
<path d="M0 0 C2.86830829 2.01391859 4.61592935 3.45434983 5.48046875 6.93359375 C5.77055907 11.08110127 5.31126311 12.61501668 2.625 15.9375 C-1.16080728 18.91206287 -3.17180697 19.47335226 -8 19 C-10.69990662 17.20006226 -12.5418865 15.916227 -14 13 C-14.70153846 5.86769231 -14.70153846 5.86769231 -11.625 2.0625 C-7.32198817 -1.31843787 -5.37649402 -1.27577824 0 0 Z " fill="#F6C107" transform="translate(407,381)"/>
<path d="M0 0 C4.29 0 8.58 0 13 0 C13 4.62 13 9.24 13 14 C8.71 14 4.42 14 0 14 C0 9.38 0 4.76 0 0 Z " fill="#FDF5EC" transform="translate(67,322)"/>
<path d="M0 0 C3.96 0 7.92 0 12 0 C12 4.62 12 9.24 12 14 C8.04 14 4.08 14 0 14 C0 9.38 0 4.76 0 0 Z " fill="#FEFBF8" transform="translate(84,271)"/>
<path d="M0 0 C3.96 0 7.92 0 12 0 C12 4.62 12 9.24 12 14 C8.04 14 4.08 14 0 14 C0 9.38 0 4.76 0 0 Z " fill="#FEFAF5" transform="translate(66,220)"/>
<path d="M0 0 C3.96 0 7.92 0 12 0 C12 4.62 12 9.24 12 14 C8.04 14 4.08 14 0 14 C0 9.38 0 4.76 0 0 Z " fill="#FEFDFC" transform="translate(145,194)"/>
<path d="M0 0 C6.27 0 12.54 0 19 0 C18 6 18 6 16.7109375 7.81640625 C13.4682854 10.05961078 9.85993674 10.2166982 6 10 C3 8.4375 3 8.4375 1 6 C0.67 4.02 0.34 2.04 0 0 Z " fill="#F7F5FA" transform="translate(404,416)"/>
<path d="M0 0 C6.27 0 12.54 0 19 0 C19 5 19 5 17.5625 7.25 C13.88231261 9.7632987 10.43723829 10.46666142 6 10 C1.59445348 6.87940455 1.08051055 5.40255276 0 0 Z " fill="#F8F7FA" transform="translate(171,416)"/>
<path d="M0 0 C3.96 0 7.92 0 12 0 C12 3.96 12 7.92 12 12 C8.04 12 4.08 12 0 12 C0 8.04 0 4.08 0 0 Z " fill="#FDF8ED" transform="translate(79,177)"/>
<path d="M0 0 C4.29 0 8.58 0 13 0 C13 3.63 13 7.26 13 11 C8.71 11 4.42 11 0 11 C0 7.37 0 3.74 0 0 Z " fill="#FFFFFF" transform="translate(135,331)"/>
<path d="M0 0 C3.63 0 7.26 0 11 0 C11 3.63 11 7.26 11 11 C7.37 11 3.74 11 0 11 C0 7.37 0 3.74 0 0 Z " fill="#FFFEFE" transform="translate(147,288)"/>
<path d="M0 0 C3.63 0 7.26 0 11 0 C11 3.63 11 7.26 11 11 C7.37 11 3.74 11 0 11 C0 7.37 0 3.74 0 0 Z " fill="#FEFDFC" transform="translate(131,245)"/>
</svg>
